ISO-10303-21;
HEADER;
/* Generated by software containing ST-Developer
 * from STEP Tools, Inc. (www.steptools.com) 
 */

FILE_DESCRIPTION(
/* description */ (''),
/* implementation_level */ '2;1');

FILE_NAME(
/* name */ 'exp_humerus_fixing_jig_3x4.step',
/* time_stamp */ '2026-08-19T19:48:26+09:00',
/* author */ (''),
/* organization */ (''),
/* preprocessor_version */ 'ST-DEVELOPER v20.1',
/* originating_system */ 'Autodesk Translation Framework v15.8.0.0',
/* authorisation */ '');

FILE_SCHEMA (('AUTOMOTIVE_DESIGN { 1 0 10303 214 3 1 1 }'));
ENDSEC;

DATA;
#10=MECHANICAL_DESIGN_GEOMETRIC_PRESENTATION_REPRESENTATION('',(#13),#517);
#11=SHAPE_REPRESENTATION_RELATIONSHIP('SRR','None',#524,#12);
#12=ADVANCED_BREP_SHAPE_REPRESENTATION('',(#14),#516);
#13=STYLED_ITEM('',(#534),#14);
#14=MANIFOLD_SOLID_BREP('\X2\30DC30C730A3\X0\1',#313);
#15=PLANE('',#330);
#16=PLANE('',#334);
#17=PLANE('',#335);
#18=PLANE('',#336);
#19=PLANE('',#337);
#20=PLANE('',#338);
#21=PLANE('',#339);
#22=PLANE('',#340);
#23=PLANE('',#341);
#24=PLANE('',#342);
#25=PLANE('',#343);
#26=PLANE('',#344);
#27=PLANE('',#345);
#28=PLANE('',#346);
#29=FACE_OUTER_BOUND('',#45,.T.);
#30=FACE_OUTER_BOUND('',#46,.T.);
#31=FACE_OUTER_BOUND('',#47,.T.);
#32=FACE_OUTER_BOUND('',#48,.T.);
#33=FACE_OUTER_BOUND('',#49,.T.);
#34=FACE_OUTER_BOUND('',#50,.T.);
#35=FACE_OUTER_BOUND('',#51,.T.);
#36=FACE_OUTER_BOUND('',#52,.T.);
#37=FACE_OUTER_BOUND('',#53,.T.);
#38=FACE_OUTER_BOUND('',#54,.T.);
#39=FACE_OUTER_BOUND('',#55,.T.);
#40=FACE_OUTER_BOUND('',#56,.T.);
#41=FACE_OUTER_BOUND('',#57,.T.);
#42=FACE_OUTER_BOUND('',#58,.T.);
#43=FACE_OUTER_BOUND('',#59,.T.);
#44=FACE_OUTER_BOUND('',#60,.T.);
#45=EDGE_LOOP('',(#211,#212,#213,#214));
#46=EDGE_LOOP('',(#215,#216,#217,#218));
#47=EDGE_LOOP('',(#219,#220,#221,#222));
#48=EDGE_LOOP('',(#223,#224,#225,#226));
#49=EDGE_LOOP('',(#227,#228,#229,#230));
#50=EDGE_LOOP('',(#231,#232,#233,#234));
#51=EDGE_LOOP('',(#235,#236,#237,#238));
#52=EDGE_LOOP('',(#239,#240,#241,#242));
#53=EDGE_LOOP('',(#243,#244,#245,#246));
#54=EDGE_LOOP('',(#247,#248,#249,#250));
#55=EDGE_LOOP('',(#251,#252,#253,#254));
#56=EDGE_LOOP('',(#255,#256,#257,#258));
#57=EDGE_LOOP('',(#259,#260,#261,#262));
#58=EDGE_LOOP('',(#263,#264,#265,#266,#267,#268,#269,#270,#271,#272,#273,
#274,#275,#276));
#59=EDGE_LOOP('',(#277,#278,#279,#280));
#60=EDGE_LOOP('',(#281,#282,#283,#284,#285,#286,#287,#288,#289,#290,#291,
#292,#293,#294));
#61=LINE('',#433,#99);
#62=LINE('',#436,#100);
#63=LINE('',#439,#101);
#64=LINE('',#441,#102);
#65=LINE('',#442,#103);
#66=LINE('',#448,#104);
#67=LINE('',#451,#105);
#68=LINE('',#454,#106);
#69=LINE('',#456,#107);
#70=LINE('',#457,#108);
#71=LINE('',#459,#109);
#72=LINE('',#460,#110);
#73=LINE('',#463,#111);
#74=LINE('',#465,#112);
#75=LINE('',#466,#113);
#76=LINE('',#469,#114);
#77=LINE('',#471,#115);
#78=LINE('',#472,#116);
#79=LINE('',#476,#117);
#80=LINE('',#478,#118);
#81=LINE('',#480,#119);
#82=LINE('',#481,#120);
#83=LINE('',#484,#121);
#84=LINE('',#486,#122);
#85=LINE('',#487,#123);
#86=LINE('',#490,#124);
#87=LINE('',#492,#125);
#88=LINE('',#493,#126);
#89=LINE('',#496,#127);
#90=LINE('',#498,#128);
#91=LINE('',#499,#129);
#92=LINE('',#502,#130);
#93=LINE('',#504,#131);
#94=LINE('',#505,#132);
#95=LINE('',#507,#133);
#96=LINE('',#508,#134);
#97=LINE('',#510,#135);
#98=LINE('',#512,#136);
#99=VECTOR('',#353,10.);
#100=VECTOR('',#356,10.);
#101=VECTOR('',#359,10.);
#102=VECTOR('',#360,10.);
#103=VECTOR('',#361,10.);
#104=VECTOR('',#366,10.);
#105=VECTOR('',#369,10.);
#106=VECTOR('',#372,10.);
#107=VECTOR('',#373,10.);
#108=VECTOR('',#374,10.);
#109=VECTOR('',#377,10.);
#110=VECTOR('',#378,10.);
#111=VECTOR('',#381,10.);
#112=VECTOR('',#382,10.);
#113=VECTOR('',#383,10.);
#114=VECTOR('',#386,10.);
#115=VECTOR('',#387,10.);
#116=VECTOR('',#388,10.);
#117=VECTOR('',#391,10.);
#118=VECTOR('',#392,10.);
#119=VECTOR('',#393,10.);
#120=VECTOR('',#394,10.);
#121=VECTOR('',#397,10.);
#122=VECTOR('',#398,10.);
#123=VECTOR('',#399,10.);
#124=VECTOR('',#402,10.);
#125=VECTOR('',#403,10.);
#126=VECTOR('',#404,10.);
#127=VECTOR('',#407,10.);
#128=VECTOR('',#408,10.);
#129=VECTOR('',#409,10.);
#130=VECTOR('',#412,10.);
#131=VECTOR('',#413,10.);
#132=VECTOR('',#414,10.);
#133=VECTOR('',#417,10.);
#134=VECTOR('',#418,10.);
#135=VECTOR('',#421,10.);
#136=VECTOR('',#424,10.);
#137=CIRCLE('',#328,1.);
#138=CIRCLE('',#329,1.);
#139=CIRCLE('',#332,1.);
#140=CIRCLE('',#333,1.);
#141=VERTEX_POINT('',#429);
#142=VERTEX_POINT('',#430);
#143=VERTEX_POINT('',#432);
#144=VERTEX_POINT('',#434);
#145=VERTEX_POINT('',#438);
#146=VERTEX_POINT('',#440);
#147=VERTEX_POINT('',#444);
#148=VERTEX_POINT('',#445);
#149=VERTEX_POINT('',#447);
#150=VERTEX_POINT('',#449);
#151=VERTEX_POINT('',#453);
#152=VERTEX_POINT('',#455);
#153=VERTEX_POINT('',#462);
#154=VERTEX_POINT('',#464);
#155=VERTEX_POINT('',#468);
#156=VERTEX_POINT('',#470);
#157=VERTEX_POINT('',#474);
#158=VERTEX_POINT('',#475);
#159=VERTEX_POINT('',#477);
#160=VERTEX_POINT('',#479);
#161=VERTEX_POINT('',#483);
#162=VERTEX_POINT('',#485);
#163=VERTEX_POINT('',#489);
#164=VERTEX_POINT('',#491);
#165=VERTEX_POINT('',#495);
#166=VERTEX_POINT('',#497);
#167=VERTEX_POINT('',#501);
#168=VERTEX_POINT('',#503);
#169=EDGE_CURVE('',#141,#142,#137,.T.);
#170=EDGE_CURVE('',#142,#143,#61,.T.);
#171=EDGE_CURVE('',#143,#144,#138,.T.);
#172=EDGE_CURVE('',#144,#141,#62,.T.);
#173=EDGE_CURVE('',#142,#145,#63,.T.);
#174=EDGE_CURVE('',#146,#145,#64,.T.);
#175=EDGE_CURVE('',#143,#146,#65,.T.);
#176=EDGE_CURVE('',#147,#148,#139,.T.);
#177=EDGE_CURVE('',#148,#149,#66,.T.);
#178=EDGE_CURVE('',#149,#150,#140,.T.);
#179=EDGE_CURVE('',#150,#147,#67,.T.);
#180=EDGE_CURVE('',#148,#151,#68,.T.);
#181=EDGE_CURVE('',#152,#151,#69,.T.);
#182=EDGE_CURVE('',#149,#152,#70,.T.);
#183=EDGE_CURVE('',#151,#146,#71,.T.);
#184=EDGE_CURVE('',#145,#152,#72,.T.);
#185=EDGE_CURVE('',#153,#150,#73,.T.);
#186=EDGE_CURVE('',#154,#153,#74,.T.);
#187=EDGE_CURVE('',#147,#154,#75,.T.);
#188=EDGE_CURVE('',#155,#144,#76,.T.);
#189=EDGE_CURVE('',#156,#155,#77,.T.);
#190=EDGE_CURVE('',#141,#156,#78,.T.);
#191=EDGE_CURVE('',#157,#158,#79,.T.);
#192=EDGE_CURVE('',#157,#159,#80,.T.);
#193=EDGE_CURVE('',#160,#159,#81,.T.);
#194=EDGE_CURVE('',#158,#160,#82,.T.);
#195=EDGE_CURVE('',#161,#160,#83,.T.);
#196=EDGE_CURVE('',#159,#162,#84,.T.);
#197=EDGE_CURVE('',#162,#161,#85,.T.);
#198=EDGE_CURVE('',#158,#163,#86,.T.);
#199=EDGE_CURVE('',#163,#164,#87,.T.);
#200=EDGE_CURVE('',#164,#157,#88,.T.);
#201=EDGE_CURVE('',#163,#165,#89,.T.);
#202=EDGE_CURVE('',#166,#165,#90,.T.);
#203=EDGE_CURVE('',#164,#166,#91,.T.);
#204=EDGE_CURVE('',#165,#167,#92,.T.);
#205=EDGE_CURVE('',#167,#168,#93,.T.);
#206=EDGE_CURVE('',#168,#166,#94,.T.);
#207=EDGE_CURVE('',#155,#161,#95,.T.);
#208=EDGE_CURVE('',#156,#162,#96,.T.);
#209=EDGE_CURVE('',#153,#168,#97,.T.);
#210=EDGE_CURVE('',#154,#167,#98,.T.);
#211=ORIENTED_EDGE('',*,*,#169,.T.);
#212=ORIENTED_EDGE('',*,*,#170,.T.);
#213=ORIENTED_EDGE('',*,*,#171,.T.);
#214=ORIENTED_EDGE('',*,*,#172,.T.);
#215=ORIENTED_EDGE('',*,*,#170,.F.);
#216=ORIENTED_EDGE('',*,*,#173,.T.);
#217=ORIENTED_EDGE('',*,*,#174,.F.);
#218=ORIENTED_EDGE('',*,*,#175,.F.);
#219=ORIENTED_EDGE('',*,*,#176,.T.);
#220=ORIENTED_EDGE('',*,*,#177,.T.);
#221=ORIENTED_EDGE('',*,*,#178,.T.);
#222=ORIENTED_EDGE('',*,*,#179,.T.);
#223=ORIENTED_EDGE('',*,*,#177,.F.);
#224=ORIENTED_EDGE('',*,*,#180,.T.);
#225=ORIENTED_EDGE('',*,*,#181,.F.);
#226=ORIENTED_EDGE('',*,*,#182,.F.);
#227=ORIENTED_EDGE('',*,*,#183,.T.);
#228=ORIENTED_EDGE('',*,*,#174,.T.);
#229=ORIENTED_EDGE('',*,*,#184,.T.);
#230=ORIENTED_EDGE('',*,*,#181,.T.);
#231=ORIENTED_EDGE('',*,*,#179,.F.);
#232=ORIENTED_EDGE('',*,*,#185,.F.);
#233=ORIENTED_EDGE('',*,*,#186,.F.);
#234=ORIENTED_EDGE('',*,*,#187,.F.);
#235=ORIENTED_EDGE('',*,*,#172,.F.);
#236=ORIENTED_EDGE('',*,*,#188,.F.);
#237=ORIENTED_EDGE('',*,*,#189,.F.);
#238=ORIENTED_EDGE('',*,*,#190,.F.);
#239=ORIENTED_EDGE('',*,*,#191,.F.);
#240=ORIENTED_EDGE('',*,*,#192,.T.);
#241=ORIENTED_EDGE('',*,*,#193,.F.);
#242=ORIENTED_EDGE('',*,*,#194,.F.);
#243=ORIENTED_EDGE('',*,*,#195,.T.);
#244=ORIENTED_EDGE('',*,*,#193,.T.);
#245=ORIENTED_EDGE('',*,*,#196,.T.);
#246=ORIENTED_EDGE('',*,*,#197,.T.);
#247=ORIENTED_EDGE('',*,*,#191,.T.);
#248=ORIENTED_EDGE('',*,*,#198,.T.);
#249=ORIENTED_EDGE('',*,*,#199,.T.);
#250=ORIENTED_EDGE('',*,*,#200,.T.);
#251=ORIENTED_EDGE('',*,*,#199,.F.);
#252=ORIENTED_EDGE('',*,*,#201,.T.);
#253=ORIENTED_EDGE('',*,*,#202,.F.);
#254=ORIENTED_EDGE('',*,*,#203,.F.);
#255=ORIENTED_EDGE('',*,*,#204,.T.);
#256=ORIENTED_EDGE('',*,*,#205,.T.);
#257=ORIENTED_EDGE('',*,*,#206,.T.);
#258=ORIENTED_EDGE('',*,*,#202,.T.);
#259=ORIENTED_EDGE('',*,*,#189,.T.);
#260=ORIENTED_EDGE('',*,*,#207,.T.);
#261=ORIENTED_EDGE('',*,*,#197,.F.);
#262=ORIENTED_EDGE('',*,*,#208,.F.);
#263=ORIENTED_EDGE('',*,*,#185,.T.);
#264=ORIENTED_EDGE('',*,*,#178,.F.);
#265=ORIENTED_EDGE('',*,*,#182,.T.);
#266=ORIENTED_EDGE('',*,*,#184,.F.);
#267=ORIENTED_EDGE('',*,*,#173,.F.);
#268=ORIENTED_EDGE('',*,*,#169,.F.);
#269=ORIENTED_EDGE('',*,*,#190,.T.);
#270=ORIENTED_EDGE('',*,*,#208,.T.);
#271=ORIENTED_EDGE('',*,*,#196,.F.);
#272=ORIENTED_EDGE('',*,*,#192,.F.);
#273=ORIENTED_EDGE('',*,*,#200,.F.);
#274=ORIENTED_EDGE('',*,*,#203,.T.);
#275=ORIENTED_EDGE('',*,*,#206,.F.);
#276=ORIENTED_EDGE('',*,*,#209,.F.);
#277=ORIENTED_EDGE('',*,*,#186,.T.);
#278=ORIENTED_EDGE('',*,*,#209,.T.);
#279=ORIENTED_EDGE('',*,*,#205,.F.);
#280=ORIENTED_EDGE('',*,*,#210,.F.);
#281=ORIENTED_EDGE('',*,*,#188,.T.);
#282=ORIENTED_EDGE('',*,*,#171,.F.);
#283=ORIENTED_EDGE('',*,*,#175,.T.);
#284=ORIENTED_EDGE('',*,*,#183,.F.);
#285=ORIENTED_EDGE('',*,*,#180,.F.);
#286=ORIENTED_EDGE('',*,*,#176,.F.);
#287=ORIENTED_EDGE('',*,*,#187,.T.);
#288=ORIENTED_EDGE('',*,*,#210,.T.);
#289=ORIENTED_EDGE('',*,*,#204,.F.);
#290=ORIENTED_EDGE('',*,*,#201,.F.);
#291=ORIENTED_EDGE('',*,*,#198,.F.);
#292=ORIENTED_EDGE('',*,*,#194,.T.);
#293=ORIENTED_EDGE('',*,*,#195,.F.);
#294=ORIENTED_EDGE('',*,*,#207,.F.);
#295=CYLINDRICAL_SURFACE('',#327,1.);
#296=CYLINDRICAL_SURFACE('',#331,1.);
#297=ADVANCED_FACE('',(#29),#295,.F.);
#298=ADVANCED_FACE('',(#30),#15,.T.);
#299=ADVANCED_FACE('',(#31),#296,.F.);
#300=ADVANCED_FACE('',(#32),#16,.T.);
#301=ADVANCED_FACE('',(#33),#17,.T.);
#302=ADVANCED_FACE('',(#34),#18,.F.);
#303=ADVANCED_FACE('',(#35),#19,.F.);
#304=ADVANCED_FACE('',(#36),#20,.T.);
#305=ADVANCED_FACE('',(#37),#21,.T.);
#306=ADVANCED_FACE('',(#38),#22,.T.);
#307=ADVANCED_FACE('',(#39),#23,.T.);
#308=ADVANCED_FACE('',(#40),#24,.T.);
#309=ADVANCED_FACE('',(#41),#25,.T.);
#310=ADVANCED_FACE('',(#42),#26,.T.);
#311=ADVANCED_FACE('',(#43),#27,.T.);
#312=ADVANCED_FACE('',(#44),#28,.T.);
#313=CLOSED_SHELL('',(#297,#298,#299,#300,#301,#302,#303,#304,#305,#306,
#307,#308,#309,#310,#311,#312));
#314=DERIVED_UNIT_ELEMENT(#316,1.);
#315=DERIVED_UNIT_ELEMENT(#519,-3.);
#316=(
MASS_UNIT()
NAMED_UNIT(*)
SI_UNIT(.KILO.,.GRAM.)
);
#317=DERIVED_UNIT((#314,#315));
#318=MEASURE_REPRESENTATION_ITEM('density measure',
POSITIVE_RATIO_MEASURE(7850.),#317);
#319=PROPERTY_DEFINITION_REPRESENTATION(#324,#321);
#320=PROPERTY_DEFINITION_REPRESENTATION(#325,#322);
#321=REPRESENTATION('material name',(#323),#516);
#322=REPRESENTATION('density',(#318),#516);
#323=DESCRIPTIVE_REPRESENTATION_ITEM('\X2\92FC\X0\','\X2\92FC\X0\');
#324=PROPERTY_DEFINITION('material property','material name',#526);
#325=PROPERTY_DEFINITION('material property','density of part',#526);
#326=AXIS2_PLACEMENT_3D('',#427,#347,#348);
#327=AXIS2_PLACEMENT_3D('',#428,#349,#350);
#328=AXIS2_PLACEMENT_3D('',#431,#351,#352);
#329=AXIS2_PLACEMENT_3D('',#435,#354,#355);
#330=AXIS2_PLACEMENT_3D('',#437,#357,#358);
#331=AXIS2_PLACEMENT_3D('',#443,#362,#363);
#332=AXIS2_PLACEMENT_3D('',#446,#364,#365);
#333=AXIS2_PLACEMENT_3D('',#450,#367,#368);
#334=AXIS2_PLACEMENT_3D('',#452,#370,#371);
#335=AXIS2_PLACEMENT_3D('',#458,#375,#376);
#336=AXIS2_PLACEMENT_3D('',#461,#379,#380);
#337=AXIS2_PLACEMENT_3D('',#467,#384,#385);
#338=AXIS2_PLACEMENT_3D('',#473,#389,#390);
#339=AXIS2_PLACEMENT_3D('',#482,#395,#396);
#340=AXIS2_PLACEMENT_3D('',#488,#400,#401);
#341=AXIS2_PLACEMENT_3D('',#494,#405,#406);
#342=AXIS2_PLACEMENT_3D('',#500,#410,#411);
#343=AXIS2_PLACEMENT_3D('',#506,#415,#416);
#344=AXIS2_PLACEMENT_3D('',#509,#419,#420);
#345=AXIS2_PLACEMENT_3D('',#511,#422,#423);
#346=AXIS2_PLACEMENT_3D('',#513,#425,#426);
#347=DIRECTION('axis',(0.,0.,1.));
#348=DIRECTION('refdir',(1.,0.,0.));
#349=DIRECTION('center_axis',(-1.,0.,0.));
#350=DIRECTION('ref_axis',(0.,-0.707106781186549,0.707106781186546));
#351=DIRECTION('center_axis',(1.,0.,0.));
#352=DIRECTION('ref_axis',(0.,-0.707106781186549,0.707106781186546));
#353=DIRECTION('',(-1.,0.,0.));
#354=DIRECTION('center_axis',(-1.,0.,0.));
#355=DIRECTION('ref_axis',(0.,-0.707106781186549,0.707106781186546));
#356=DIRECTION('',(1.,0.,0.));
#357=DIRECTION('center_axis',(0.,1.,0.));
#358=DIRECTION('ref_axis',(1.,0.,0.));
#359=DIRECTION('',(0.,0.,-1.));
#360=DIRECTION('',(1.,0.,0.));
#361=DIRECTION('',(0.,0.,-1.));
#362=DIRECTION('center_axis',(1.,0.,0.));
#363=DIRECTION('ref_axis',(0.,0.707106781186549,0.707106781186546));
#364=DIRECTION('center_axis',(-1.,0.,0.));
#365=DIRECTION('ref_axis',(0.,0.707106781186549,0.707106781186546));
#366=DIRECTION('',(1.,0.,0.));
#367=DIRECTION('center_axis',(1.,0.,0.));
#368=DIRECTION('ref_axis',(0.,0.707106781186549,0.707106781186546));
#369=DIRECTION('',(-1.,0.,0.));
#370=DIRECTION('center_axis',(0.,-1.,0.));
#371=DIRECTION('ref_axis',(-1.,0.,0.));
#372=DIRECTION('',(0.,0.,-1.));
#373=DIRECTION('',(-1.,0.,0.));
#374=DIRECTION('',(0.,0.,-1.));
#375=DIRECTION('center_axis',(0.,0.,-1.));
#376=DIRECTION('ref_axis',(-1.,0.,0.));
#377=DIRECTION('',(0.,1.,0.));
#378=DIRECTION('',(0.,-1.,0.));
#379=DIRECTION('center_axis',(0.,0.,1.));
#380=DIRECTION('ref_axis',(1.,0.,0.));
#381=DIRECTION('',(0.,1.,0.));
#382=DIRECTION('',(1.,0.,0.));
#383=DIRECTION('',(0.,-1.,0.));
#384=DIRECTION('center_axis',(0.,0.,1.));
#385=DIRECTION('ref_axis',(1.,0.,0.));
#386=DIRECTION('',(0.,-1.,0.));
#387=DIRECTION('',(-1.,0.,0.));
#388=DIRECTION('',(0.,1.,0.));
#389=DIRECTION('center_axis',(0.,-1.,0.));
#390=DIRECTION('ref_axis',(1.,0.,0.));
#391=DIRECTION('',(-1.,0.,0.));
#392=DIRECTION('',(0.,0.,1.));
#393=DIRECTION('',(1.,0.,0.));
#394=DIRECTION('',(0.,0.,1.));
#395=DIRECTION('center_axis',(0.,0.,1.));
#396=DIRECTION('ref_axis',(1.,0.,0.));
#397=DIRECTION('',(0.,-1.,0.));
#398=DIRECTION('',(0.,1.,0.));
#399=DIRECTION('',(-1.,0.,0.));
#400=DIRECTION('center_axis',(0.,0.,1.));
#401=DIRECTION('ref_axis',(1.,0.,0.));
#402=DIRECTION('',(0.,-1.,0.));
#403=DIRECTION('',(1.,0.,0.));
#404=DIRECTION('',(0.,1.,0.));
#405=DIRECTION('center_axis',(0.,1.,0.));
#406=DIRECTION('ref_axis',(-1.,0.,0.));
#407=DIRECTION('',(0.,0.,1.));
#408=DIRECTION('',(-1.,0.,0.));
#409=DIRECTION('',(0.,0.,1.));
#410=DIRECTION('center_axis',(0.,0.,1.));
#411=DIRECTION('ref_axis',(1.,0.,0.));
#412=DIRECTION('',(0.,-1.,0.));
#413=DIRECTION('',(1.,0.,0.));
#414=DIRECTION('',(0.,1.,0.));
#415=DIRECTION('center_axis',(0.,1.,0.));
#416=DIRECTION('ref_axis',(-1.,0.,0.));
#417=DIRECTION('',(0.,0.,1.));
#418=DIRECTION('',(0.,0.,1.));
#419=DIRECTION('center_axis',(1.,0.,0.));
#420=DIRECTION('ref_axis',(0.,1.,0.));
#421=DIRECTION('',(0.,0.,1.));
#422=DIRECTION('center_axis',(0.,-1.,0.));
#423=DIRECTION('ref_axis',(1.,0.,0.));
#424=DIRECTION('',(0.,0.,1.));
#425=DIRECTION('center_axis',(-1.,0.,0.));
#426=DIRECTION('ref_axis',(0.,-1.,0.));
#427=CARTESIAN_POINT('',(0.,0.,0.));
#428=CARTESIAN_POINT('Origin',(-30.75,5.9,24.));
#429=CARTESIAN_POINT('',(-27.,5.9,25.));
#430=CARTESIAN_POINT('',(-27.,4.9,24.));
#431=CARTESIAN_POINT('Origin',(-27.,5.9,24.));
#432=CARTESIAN_POINT('',(-32.,4.9,24.));
#433=CARTESIAN_POINT('',(-30.75,4.9,24.));
#434=CARTESIAN_POINT('',(-32.,5.9,25.));
#435=CARTESIAN_POINT('Origin',(-32.,5.9,24.));
#436=CARTESIAN_POINT('',(-30.75,5.9,25.));
#437=CARTESIAN_POINT('Origin',(-32.,4.9,25.));
#438=CARTESIAN_POINT('',(-27.,4.9,22.));
#439=CARTESIAN_POINT('',(-27.,4.9,25.));
#440=CARTESIAN_POINT('',(-32.,4.9,22.));
#441=CARTESIAN_POINT('',(-32.15,4.9,22.));
#442=CARTESIAN_POINT('',(-32.,4.9,25.));
#443=CARTESIAN_POINT('Origin',(-28.25,-3.9,24.));
#444=CARTESIAN_POINT('',(-32.,-3.9,25.));
#445=CARTESIAN_POINT('',(-32.,-2.9,24.));
#446=CARTESIAN_POINT('Origin',(-32.,-3.9,24.));
#447=CARTESIAN_POINT('',(-27.,-2.9,24.));
#448=CARTESIAN_POINT('',(-28.25,-2.9,24.));
#449=CARTESIAN_POINT('',(-27.,-3.9,25.));
#450=CARTESIAN_POINT('Origin',(-27.,-3.9,24.));
#451=CARTESIAN_POINT('',(-28.25,-3.9,25.));
#452=CARTESIAN_POINT('Origin',(-27.,-2.9,25.));
#453=CARTESIAN_POINT('',(-32.,-2.9,22.));
#454=CARTESIAN_POINT('',(-32.,-2.9,25.));
#455=CARTESIAN_POINT('',(-27.,-2.9,22.));
#456=CARTESIAN_POINT('',(-32.15,-2.9,22.));
#457=CARTESIAN_POINT('',(-27.,-2.9,25.));
#458=CARTESIAN_POINT('Origin',(-29.5,1.,22.));
#459=CARTESIAN_POINT('',(-32.,9.,22.));
#460=CARTESIAN_POINT('',(-27.,-7.,22.));
#461=CARTESIAN_POINT('Origin',(-29.5,1.,25.));
#462=CARTESIAN_POINT('',(-27.,-7.,25.));
#463=CARTESIAN_POINT('',(-27.,-7.,25.));
#464=CARTESIAN_POINT('',(-32.,-7.,25.));
#465=CARTESIAN_POINT('',(-32.,-7.,25.));
#466=CARTESIAN_POINT('',(-32.,9.,25.));
#467=CARTESIAN_POINT('Origin',(-29.5,1.,25.));
#468=CARTESIAN_POINT('',(-32.,9.,25.));
#469=CARTESIAN_POINT('',(-32.,9.,25.));
#470=CARTESIAN_POINT('',(-27.,9.,25.));
#471=CARTESIAN_POINT('',(-27.,9.,25.));
#472=CARTESIAN_POINT('',(-27.,-7.,25.));
#473=CARTESIAN_POINT('Origin',(-32.,5.,28.));
#474=CARTESIAN_POINT('',(-27.,5.,28.));
#475=CARTESIAN_POINT('',(-32.,5.,28.));
#476=CARTESIAN_POINT('',(-30.75,5.,28.));
#477=CARTESIAN_POINT('',(-27.,5.,29.6));
#478=CARTESIAN_POINT('',(-27.,5.,28.));
#479=CARTESIAN_POINT('',(-32.,5.,29.6));
#480=CARTESIAN_POINT('',(-30.75,5.,29.6));
#481=CARTESIAN_POINT('',(-32.,5.,28.));
#482=CARTESIAN_POINT('Origin',(-29.5,1.,29.6));
#483=CARTESIAN_POINT('',(-32.,9.,29.6));
#484=CARTESIAN_POINT('',(-32.,5.,29.6));
#485=CARTESIAN_POINT('',(-27.,9.,29.6));
#486=CARTESIAN_POINT('',(-27.,3.,29.6));
#487=CARTESIAN_POINT('',(-28.25,9.,29.6));
#488=CARTESIAN_POINT('Origin',(-29.5,1.,28.));
#489=CARTESIAN_POINT('',(-32.,-3.,28.));
#490=CARTESIAN_POINT('',(-32.,9.,28.));
#491=CARTESIAN_POINT('',(-27.,-3.,28.));
#492=CARTESIAN_POINT('',(-28.25,-3.,28.));
#493=CARTESIAN_POINT('',(-27.,-7.,28.));
#494=CARTESIAN_POINT('Origin',(-27.,-3.,28.));
#495=CARTESIAN_POINT('',(-32.,-3.,29.6));
#496=CARTESIAN_POINT('',(-32.,-3.,28.));
#497=CARTESIAN_POINT('',(-27.,-3.,29.6));
#498=CARTESIAN_POINT('',(-28.25,-3.,29.6));
#499=CARTESIAN_POINT('',(-27.,-3.,28.));
#500=CARTESIAN_POINT('Origin',(-29.5,1.,29.6));
#501=CARTESIAN_POINT('',(-32.,-7.,29.6));
#502=CARTESIAN_POINT('',(-32.,-1.,29.6));
#503=CARTESIAN_POINT('',(-27.,-7.,29.6));
#504=CARTESIAN_POINT('',(-30.75,-7.,29.6));
#505=CARTESIAN_POINT('',(-27.,-3.,29.6));
#506=CARTESIAN_POINT('Origin',(-27.,9.,25.));
#507=CARTESIAN_POINT('',(-32.,9.,25.));
#508=CARTESIAN_POINT('',(-27.,9.,25.));
#509=CARTESIAN_POINT('Origin',(-27.,-7.,25.));
#510=CARTESIAN_POINT('',(-27.,-7.,25.));
#511=CARTESIAN_POINT('Origin',(-32.,-7.,25.));
#512=CARTESIAN_POINT('',(-32.,-7.,25.));
#513=CARTESIAN_POINT('Origin',(-32.,9.,25.));
#514=UNCERTAINTY_MEASURE_WITH_UNIT(LENGTH_MEASURE(0.01),#518,
'DISTANCE_ACCURACY_VALUE',
'Maximum model space distance between geometric entities at asserted c
onnectivities');
#515=UNCERTAINTY_MEASURE_WITH_UNIT(LENGTH_MEASURE(0.01),#518,
'DISTANCE_ACCURACY_VALUE',
'Maximum model space distance between geometric entities at asserted c
onnectivities');
#516=(
GEOMETRIC_REPRESENTATION_CONTEXT(3)
GLOBAL_UNCERTAINTY_ASSIGNED_CONTEXT((#514))
GLOBAL_UNIT_ASSIGNED_CONTEXT((#518,#520,#521))
REPRESENTATION_CONTEXT('','3D')
);
#517=(
GEOMETRIC_REPRESENTATION_CONTEXT(3)
GLOBAL_UNCERTAINTY_ASSIGNED_CONTEXT((#515))
GLOBAL_UNIT_ASSIGNED_CONTEXT((#518,#520,#521))
REPRESENTATION_CONTEXT('','3D')
);
#518=(
LENGTH_UNIT()
NAMED_UNIT(*)
SI_UNIT(.MILLI.,.METRE.)
);
#519=(
LENGTH_UNIT()
NAMED_UNIT(*)
SI_UNIT($,.METRE.)
);
#520=(
NAMED_UNIT(*)
PLANE_ANGLE_UNIT()
SI_UNIT($,.RADIAN.)
);
#521=(
NAMED_UNIT(*)
SI_UNIT($,.STERADIAN.)
SOLID_ANGLE_UNIT()
);
#522=SHAPE_DEFINITION_REPRESENTATION(#523,#524);
#523=PRODUCT_DEFINITION_SHAPE('',$,#526);
#524=SHAPE_REPRESENTATION('',(#326),#516);
#525=PRODUCT_DEFINITION_CONTEXT('part definition',#530,'design');
#526=PRODUCT_DEFINITION('2026-08-19-19-48-26-484',
'\X2\30B330F330DD30FC30CD30F330C8\X0\3',#527,#525);
#527=PRODUCT_DEFINITION_FORMATION('',$,#532);
#528=PRODUCT_RELATED_PRODUCT_CATEGORY('\X2\30B330F330DD30FC30CD30F330C8\X0\3',
'\X2\30B330F330DD30FC30CD30F330C8\X0\3',(#532));
#529=APPLICATION_PROTOCOL_DEFINITION('international standard',
'automotive_design',2009,#530);
#530=APPLICATION_CONTEXT(
'Core Data for Automotive Mechanical Design Process');
#531=PRODUCT_CONTEXT('part definition',#530,'mechanical');
#532=PRODUCT('2026-08-19-19-48-26-484','\X2\30B330F330DD30FC30CD30F330C8\X0\3',
$,(#531));
#533=PRESENTATION_STYLE_ASSIGNMENT((#535));
#534=PRESENTATION_STYLE_ASSIGNMENT((#536));
#535=SURFACE_STYLE_USAGE(.BOTH.,#537);
#536=SURFACE_STYLE_USAGE(.BOTH.,#538);
#537=SURFACE_SIDE_STYLE('',(#539));
#538=SURFACE_SIDE_STYLE('',(#540));
#539=SURFACE_STYLE_FILL_AREA(#541);
#540=SURFACE_STYLE_FILL_AREA(#542);
#541=FILL_AREA_STYLE('\X2\92FC\X0\ - \X2\30B530C630F3\X0\',(#543));
#542=FILL_AREA_STYLE('Opaque(160,160,160)',(#544));
#543=FILL_AREA_STYLE_COLOUR('\X2\92FC\X0\ - \X2\30B530C630F3\X0\',#545);
#544=FILL_AREA_STYLE_COLOUR('Opaque(160,160,160)',#546);
#545=COLOUR_RGB('\X2\92FC\X0\ - \X2\30B530C630F3\X0\',0.627450980392157,
0.627450980392157,0.627450980392157);
#546=COLOUR_RGB('Opaque(160,160,160)',0.627450980392157,0.627450980392157,
0.627450980392157);
ENDSEC;
END-ISO-10303-21;
