ISO-10303-21;
HEADER;
/* Generated by software containing ST-Developer
 * from STEP Tools, Inc. (www.steptools.com) 
 */

FILE_DESCRIPTION(
/* description */ (''),
/* implementation_level */ '2;1');

FILE_NAME(
/* name */ 'exp_stffness_measure_fixer.step',
/* time_stamp */ '2026-08-20T10:51:55+09:00',
/* author */ (''),
/* organization */ (''),
/* preprocessor_version */ 'ST-DEVELOPER v20.1',
/* originating_system */ 'Autodesk Translation Framework v15.8.0.0',
/* authorisation */ '');

FILE_SCHEMA (('AUTOMOTIVE_DESIGN { 1 0 10303 214 3 1 1 }'));
ENDSEC;

DATA;
#10=MECHANICAL_DESIGN_GEOMETRIC_PRESENTATION_REPRESENTATION('',(#13),#2215);
#11=SHAPE_REPRESENTATION_RELATIONSHIP('SRR','None',#2222,#12);
#12=ADVANCED_BREP_SHAPE_REPRESENTATION('',(#14),#2214);
#13=STYLED_ITEM('',(#2232),#14);
#14=MANIFOLD_SOLID_BREP('\X2\30DC30C730A3\X0\1',#1307);
#15=FACE_BOUND('',#153,.T.);
#16=FACE_BOUND('',#154,.T.);
#17=FACE_BOUND('',#155,.T.);
#18=FACE_BOUND('',#156,.T.);
#19=FACE_BOUND('',#157,.T.);
#20=FACE_BOUND('',#158,.T.);
#21=FACE_BOUND('',#159,.T.);
#22=FACE_BOUND('',#160,.T.);
#23=FACE_BOUND('',#161,.T.);
#24=FACE_BOUND('',#162,.T.);
#25=FACE_BOUND('',#194,.T.);
#26=FACE_BOUND('',#197,.T.);
#27=FACE_BOUND('',#200,.T.);
#28=FACE_BOUND('',#203,.T.);
#29=FACE_BOUND('',#206,.T.);
#30=FACE_BOUND('',#209,.T.);
#31=FACE_BOUND('',#212,.T.);
#32=FACE_BOUND('',#215,.T.);
#33=FACE_BOUND('',#239,.T.);
#34=FACE_BOUND('',#240,.T.);
#35=FACE_BOUND('',#241,.T.);
#36=FACE_BOUND('',#242,.T.);
#37=FACE_BOUND('',#243,.T.);
#38=FACE_BOUND('',#244,.T.);
#39=FACE_BOUND('',#245,.T.);
#40=FACE_BOUND('',#246,.T.);
#41=FACE_BOUND('',#247,.T.);
#42=FACE_BOUND('',#248,.T.);
#43=PLANE('',#1324);
#44=PLANE('',#1350);
#45=PLANE('',#1353);
#46=PLANE('',#1356);
#47=PLANE('',#1363);
#48=PLANE('',#1366);
#49=PLANE('',#1369);
#50=PLANE('',#1372);
#51=PLANE('',#1377);
#52=PLANE('',#1382);
#53=PLANE('',#1385);
#54=PLANE('',#1388);
#55=PLANE('',#1389);
#56=PLANE('',#1390);
#57=PLANE('',#1391);
#58=PLANE('',#1395);
#59=PLANE('',#1400);
#60=PLANE('',#1405);
#61=PLANE('',#1410);
#62=PLANE('',#1414);
#63=PLANE('',#1418);
#64=PLANE('',#1422);
#65=PLANE('',#1426);
#66=PLANE('',#1431);
#67=PLANE('',#1432);
#68=PLANE('',#1433);
#69=PLANE('',#1434);
#70=PLANE('',#1441);
#71=PLANE('',#1442);
#72=PLANE('',#1443);
#73=PLANE('',#1444);
#74=PLANE('',#1448);
#75=PLANE('',#1449);
#76=PLANE('',#1450);
#77=PLANE('',#1451);
#78=PLANE('',#1452);
#79=PLANE('',#1453);
#80=PLANE('',#1454);
#81=FACE_OUTER_BOUND('',#151,.T.);
#82=FACE_OUTER_BOUND('',#152,.T.);
#83=FACE_OUTER_BOUND('',#163,.T.);
#84=FACE_OUTER_BOUND('',#164,.T.);
#85=FACE_OUTER_BOUND('',#165,.T.);
#86=FACE_OUTER_BOUND('',#166,.T.);
#87=FACE_OUTER_BOUND('',#167,.T.);
#88=FACE_OUTER_BOUND('',#168,.T.);
#89=FACE_OUTER_BOUND('',#169,.T.);
#90=FACE_OUTER_BOUND('',#170,.T.);
#91=FACE_OUTER_BOUND('',#171,.T.);
#92=FACE_OUTER_BOUND('',#172,.T.);
#93=FACE_OUTER_BOUND('',#173,.T.);
#94=FACE_OUTER_BOUND('',#174,.T.);
#95=FACE_OUTER_BOUND('',#175,.T.);
#96=FACE_OUTER_BOUND('',#176,.T.);
#97=FACE_OUTER_BOUND('',#177,.T.);
#98=FACE_OUTER_BOUND('',#178,.T.);
#99=FACE_OUTER_BOUND('',#179,.T.);
#100=FACE_OUTER_BOUND('',#180,.T.);
#101=FACE_OUTER_BOUND('',#181,.T.);
#102=FACE_OUTER_BOUND('',#182,.T.);
#103=FACE_OUTER_BOUND('',#183,.T.);
#104=FACE_OUTER_BOUND('',#184,.T.);
#105=FACE_OUTER_BOUND('',#185,.T.);
#106=FACE_OUTER_BOUND('',#186,.T.);
#107=FACE_OUTER_BOUND('',#187,.T.);
#108=FACE_OUTER_BOUND('',#188,.T.);
#109=FACE_OUTER_BOUND('',#189,.T.);
#110=FACE_OUTER_BOUND('',#190,.T.);
#111=FACE_OUTER_BOUND('',#191,.T.);
#112=FACE_OUTER_BOUND('',#192,.T.);
#113=FACE_OUTER_BOUND('',#193,.T.);
#114=FACE_OUTER_BOUND('',#195,.T.);
#115=FACE_OUTER_BOUND('',#196,.T.);
#116=FACE_OUTER_BOUND('',#198,.T.);
#117=FACE_OUTER_BOUND('',#199,.T.);
#118=FACE_OUTER_BOUND('',#201,.T.);
#119=FACE_OUTER_BOUND('',#202,.T.);
#120=FACE_OUTER_BOUND('',#204,.T.);
#121=FACE_OUTER_BOUND('',#205,.T.);
#122=FACE_OUTER_BOUND('',#207,.T.);
#123=FACE_OUTER_BOUND('',#208,.T.);
#124=FACE_OUTER_BOUND('',#210,.T.);
#125=FACE_OUTER_BOUND('',#211,.T.);
#126=FACE_OUTER_BOUND('',#213,.T.);
#127=FACE_OUTER_BOUND('',#214,.T.);
#128=FACE_OUTER_BOUND('',#216,.T.);
#129=FACE_OUTER_BOUND('',#217,.T.);
#130=FACE_OUTER_BOUND('',#218,.T.);
#131=FACE_OUTER_BOUND('',#219,.T.);
#132=FACE_OUTER_BOUND('',#220,.T.);
#133=FACE_OUTER_BOUND('',#221,.T.);
#134=FACE_OUTER_BOUND('',#222,.T.);
#135=FACE_OUTER_BOUND('',#223,.T.);
#136=FACE_OUTER_BOUND('',#224,.T.);
#137=FACE_OUTER_BOUND('',#225,.T.);
#138=FACE_OUTER_BOUND('',#226,.T.);
#139=FACE_OUTER_BOUND('',#227,.T.);
#140=FACE_OUTER_BOUND('',#228,.T.);
#141=FACE_OUTER_BOUND('',#229,.T.);
#142=FACE_OUTER_BOUND('',#230,.T.);
#143=FACE_OUTER_BOUND('',#231,.T.);
#144=FACE_OUTER_BOUND('',#232,.T.);
#145=FACE_OUTER_BOUND('',#233,.T.);
#146=FACE_OUTER_BOUND('',#234,.T.);
#147=FACE_OUTER_BOUND('',#235,.T.);
#148=FACE_OUTER_BOUND('',#236,.T.);
#149=FACE_OUTER_BOUND('',#237,.T.);
#150=FACE_OUTER_BOUND('',#238,.T.);
#151=EDGE_LOOP('',(#845,#846,#847,#848));
#152=EDGE_LOOP('',(#849,#850,#851,#852,#853,#854,#855,#856,#857,#858,#859,
#860,#861,#862,#863,#864,#865,#866,#867,#868,#869,#870,#871,#872,#873,#874,
#875,#876,#877,#878,#879,#880,#881,#882,#883,#884));
#153=EDGE_LOOP('',(#885));
#154=EDGE_LOOP('',(#886));
#155=EDGE_LOOP('',(#887));
#156=EDGE_LOOP('',(#888));
#157=EDGE_LOOP('',(#889));
#158=EDGE_LOOP('',(#890,#891,#892,#893));
#159=EDGE_LOOP('',(#894,#895,#896,#897));
#160=EDGE_LOOP('',(#898));
#161=EDGE_LOOP('',(#899));
#162=EDGE_LOOP('',(#900));
#163=EDGE_LOOP('',(#901,#902,#903,#904));
#164=EDGE_LOOP('',(#905,#906,#907,#908));
#165=EDGE_LOOP('',(#909,#910,#911,#912));
#166=EDGE_LOOP('',(#913,#914,#915,#916));
#167=EDGE_LOOP('',(#917,#918,#919,#920));
#168=EDGE_LOOP('',(#921,#922,#923,#924));
#169=EDGE_LOOP('',(#925,#926,#927,#928));
#170=EDGE_LOOP('',(#929,#930,#931,#932));
#171=EDGE_LOOP('',(#933,#934,#935,#936));
#172=EDGE_LOOP('',(#937,#938,#939,#940));
#173=EDGE_LOOP('',(#941,#942,#943,#944));
#174=EDGE_LOOP('',(#945,#946,#947,#948));
#175=EDGE_LOOP('',(#949,#950,#951,#952));
#176=EDGE_LOOP('',(#953,#954,#955,#956));
#177=EDGE_LOOP('',(#957,#958,#959,#960));
#178=EDGE_LOOP('',(#961,#962,#963,#964));
#179=EDGE_LOOP('',(#965,#966,#967,#968));
#180=EDGE_LOOP('',(#969,#970,#971,#972));
#181=EDGE_LOOP('',(#973,#974,#975,#976));
#182=EDGE_LOOP('',(#977,#978,#979,#980));
#183=EDGE_LOOP('',(#981,#982,#983,#984));
#184=EDGE_LOOP('',(#985,#986,#987,#988));
#185=EDGE_LOOP('',(#989,#990,#991,#992));
#186=EDGE_LOOP('',(#993,#994,#995,#996));
#187=EDGE_LOOP('',(#997,#998,#999,#1000));
#188=EDGE_LOOP('',(#1001,#1002,#1003,#1004));
#189=EDGE_LOOP('',(#1005,#1006,#1007,#1008));
#190=EDGE_LOOP('',(#1009,#1010,#1011,#1012));
#191=EDGE_LOOP('',(#1013,#1014,#1015,#1016));
#192=EDGE_LOOP('',(#1017,#1018,#1019,#1020));
#193=EDGE_LOOP('',(#1021));
#194=EDGE_LOOP('',(#1022));
#195=EDGE_LOOP('',(#1023,#1024,#1025,#1026));
#196=EDGE_LOOP('',(#1027));
#197=EDGE_LOOP('',(#1028));
#198=EDGE_LOOP('',(#1029,#1030,#1031,#1032));
#199=EDGE_LOOP('',(#1033));
#200=EDGE_LOOP('',(#1034));
#201=EDGE_LOOP('',(#1035,#1036,#1037,#1038));
#202=EDGE_LOOP('',(#1039));
#203=EDGE_LOOP('',(#1040));
#204=EDGE_LOOP('',(#1041,#1042,#1043,#1044));
#205=EDGE_LOOP('',(#1045));
#206=EDGE_LOOP('',(#1046));
#207=EDGE_LOOP('',(#1047,#1048,#1049,#1050));
#208=EDGE_LOOP('',(#1051));
#209=EDGE_LOOP('',(#1052));
#210=EDGE_LOOP('',(#1053,#1054,#1055,#1056));
#211=EDGE_LOOP('',(#1057));
#212=EDGE_LOOP('',(#1058));
#213=EDGE_LOOP('',(#1059,#1060,#1061,#1062));
#214=EDGE_LOOP('',(#1063));
#215=EDGE_LOOP('',(#1064));
#216=EDGE_LOOP('',(#1065,#1066,#1067,#1068));
#217=EDGE_LOOP('',(#1069,#1070,#1071,#1072));
#218=EDGE_LOOP('',(#1073,#1074,#1075,#1076));
#219=EDGE_LOOP('',(#1077,#1078,#1079,#1080));
#220=EDGE_LOOP('',(#1081,#1082,#1083,#1084));
#221=EDGE_LOOP('',(#1085,#1086,#1087,#1088));
#222=EDGE_LOOP('',(#1089,#1090,#1091,#1092));
#223=EDGE_LOOP('',(#1093,#1094,#1095,#1096));
#224=EDGE_LOOP('',(#1097,#1098,#1099,#1100));
#225=EDGE_LOOP('',(#1101,#1102,#1103,#1104));
#226=EDGE_LOOP('',(#1105,#1106,#1107,#1108));
#227=EDGE_LOOP('',(#1109,#1110,#1111,#1112));
#228=EDGE_LOOP('',(#1113,#1114,#1115,#1116));
#229=EDGE_LOOP('',(#1117,#1118,#1119,#1120));
#230=EDGE_LOOP('',(#1121,#1122,#1123,#1124));
#231=EDGE_LOOP('',(#1125,#1126,#1127,#1128));
#232=EDGE_LOOP('',(#1129,#1130,#1131,#1132));
#233=EDGE_LOOP('',(#1133,#1134,#1135,#1136));
#234=EDGE_LOOP('',(#1137,#1138,#1139,#1140));
#235=EDGE_LOOP('',(#1141,#1142,#1143,#1144));
#236=EDGE_LOOP('',(#1145,#1146,#1147,#1148));
#237=EDGE_LOOP('',(#1149,#1150,#1151,#1152));
#238=EDGE_LOOP('',(#1153,#1154,#1155,#1156,#1157,#1158,#1159,#1160,#1161,
#1162,#1163,#1164,#1165,#1166,#1167,#1168,#1169,#1170,#1171,#1172,#1173,
#1174,#1175,#1176,#1177,#1178,#1179,#1180,#1181,#1182,#1183,#1184,#1185,
#1186,#1187,#1188));
#239=EDGE_LOOP('',(#1189));
#240=EDGE_LOOP('',(#1190));
#241=EDGE_LOOP('',(#1191));
#242=EDGE_LOOP('',(#1192));
#243=EDGE_LOOP('',(#1193));
#244=EDGE_LOOP('',(#1194,#1195,#1196,#1197));
#245=EDGE_LOOP('',(#1198));
#246=EDGE_LOOP('',(#1199));
#247=EDGE_LOOP('',(#1200));
#248=EDGE_LOOP('',(#1201,#1202,#1203,#1204));
#249=LINE('',#1847,#365);
#250=LINE('',#1850,#366);
#251=LINE('',#1853,#367);
#252=LINE('',#1857,#368);
#253=LINE('',#1861,#369);
#254=LINE('',#1865,#370);
#255=LINE('',#1867,#371);
#256=LINE('',#1871,#372);
#257=LINE('',#1875,#373);
#258=LINE('',#1879,#374);
#259=LINE('',#1883,#375);
#260=LINE('',#1885,#376);
#261=LINE('',#1889,#377);
#262=LINE('',#1893,#378);
#263=LINE('',#1897,#379);
#264=LINE('',#1901,#380);
#265=LINE('',#1903,#381);
#266=LINE('',#1907,#382);
#267=LINE('',#1911,#383);
#268=LINE('',#1915,#384);
#269=LINE('',#1919,#385);
#270=LINE('',#1920,#386);
#271=LINE('',#1933,#387);
#272=LINE('',#1935,#388);
#273=LINE('',#1937,#389);
#274=LINE('',#1938,#390);
#275=LINE('',#1941,#391);
#276=LINE('',#1943,#392);
#277=LINE('',#1945,#393);
#278=LINE('',#1946,#394);
#279=LINE('',#1955,#395);
#280=LINE('',#1958,#396);
#281=LINE('',#1961,#397);
#282=LINE('',#1962,#398);
#283=LINE('',#1967,#399);
#284=LINE('',#1968,#400);
#285=LINE('',#1971,#401);
#286=LINE('',#1972,#402);
#287=LINE('',#1977,#403);
#288=LINE('',#1978,#404);
#289=LINE('',#1981,#405);
#290=LINE('',#1982,#406);
#291=LINE('',#1986,#407);
#292=LINE('',#1990,#408);
#293=LINE('',#1994,#409);
#294=LINE('',#1997,#410);
#295=LINE('',#1998,#411);
#296=LINE('',#2002,#412);
#297=LINE('',#2004,#413);
#298=LINE('',#2007,#414);
#299=LINE('',#2010,#415);
#300=LINE('',#2013,#416);
#301=LINE('',#2014,#417);
#302=LINE('',#2019,#418);
#303=LINE('',#2020,#419);
#304=LINE('',#2023,#420);
#305=LINE('',#2024,#421);
#306=LINE('',#2028,#422);
#307=LINE('',#2033,#423);
#308=LINE('',#2034,#424);
#309=LINE('',#2037,#425);
#310=LINE('',#2038,#426);
#311=LINE('',#2042,#427);
#312=LINE('',#2047,#428);
#313=LINE('',#2048,#429);
#314=LINE('',#2051,#430);
#315=LINE('',#2052,#431);
#316=LINE('',#2055,#432);
#317=LINE('',#2058,#433);
#318=LINE('',#2061,#434);
#319=LINE('',#2062,#435);
#320=LINE('',#2066,#436);
#321=LINE('',#2069,#437);
#322=LINE('',#2070,#438);
#323=LINE('',#2072,#439);
#324=LINE('',#2075,#440);
#325=LINE('',#2076,#441);
#326=LINE('',#2081,#442);
#327=LINE('',#2090,#443);
#328=LINE('',#2099,#444);
#329=LINE('',#2108,#445);
#330=LINE('',#2115,#446);
#331=LINE('',#2122,#447);
#332=LINE('',#2129,#448);
#333=LINE('',#2136,#449);
#334=LINE('',#2142,#450);
#335=LINE('',#2144,#451);
#336=LINE('',#2146,#452);
#337=LINE('',#2149,#453);
#338=LINE('',#2151,#454);
#339=LINE('',#2152,#455);
#340=LINE('',#2155,#456);
#341=LINE('',#2156,#457);
#342=LINE('',#2159,#458);
#343=LINE('',#2160,#459);
#344=LINE('',#2162,#460);
#345=LINE('',#2165,#461);
#346=LINE('',#2169,#462);
#347=LINE('',#2173,#463);
#348=LINE('',#2177,#464);
#349=LINE('',#2179,#465);
#350=LINE('',#2180,#466);
#351=LINE('',#2183,#467);
#352=LINE('',#2184,#468);
#353=LINE('',#2187,#469);
#354=LINE('',#2188,#470);
#355=LINE('',#2190,#471);
#356=LINE('',#2193,#472);
#357=LINE('',#2196,#473);
#358=LINE('',#2198,#474);
#359=LINE('',#2200,#475);
#360=LINE('',#2202,#476);
#361=LINE('',#2204,#477);
#362=LINE('',#2207,#478);
#363=LINE('',#2208,#479);
#364=LINE('',#2210,#480);
#365=VECTOR('',#1461,2.);
#366=VECTOR('',#1464,10.);
#367=VECTOR('',#1467,10.);
#368=VECTOR('',#1470,10.);
#369=VECTOR('',#1473,10.);
#370=VECTOR('',#1476,10.);
#371=VECTOR('',#1477,10.);
#372=VECTOR('',#1480,10.);
#373=VECTOR('',#1483,10.);
#374=VECTOR('',#1486,10.);
#375=VECTOR('',#1489,10.);
#376=VECTOR('',#1490,10.);
#377=VECTOR('',#1493,10.);
#378=VECTOR('',#1496,10.);
#379=VECTOR('',#1499,10.);
#380=VECTOR('',#1502,10.);
#381=VECTOR('',#1503,10.);
#382=VECTOR('',#1506,10.);
#383=VECTOR('',#1509,10.);
#384=VECTOR('',#1512,10.);
#385=VECTOR('',#1515,10.);
#386=VECTOR('',#1516,10.);
#387=VECTOR('',#1527,10.);
#388=VECTOR('',#1528,10.);
#389=VECTOR('',#1529,10.);
#390=VECTOR('',#1530,10.);
#391=VECTOR('',#1531,10.);
#392=VECTOR('',#1532,10.);
#393=VECTOR('',#1533,10.);
#394=VECTOR('',#1534,10.);
#395=VECTOR('',#1543,2.);
#396=VECTOR('',#1546,10.);
#397=VECTOR('',#1549,10.);
#398=VECTOR('',#1550,10.);
#399=VECTOR('',#1555,10.);
#400=VECTOR('',#1556,10.);
#401=VECTOR('',#1559,2.);
#402=VECTOR('',#1560,10.);
#403=VECTOR('',#1565,10.);
#404=VECTOR('',#1566,10.);
#405=VECTOR('',#1569,10.);
#406=VECTOR('',#1570,2.);
#407=VECTOR('',#1575,10.);
#408=VECTOR('',#1580,10.);
#409=VECTOR('',#1585,10.);
#410=VECTOR('',#1588,10.);
#411=VECTOR('',#1589,10.);
#412=VECTOR('',#1594,10.);
#413=VECTOR('',#1597,10.);
#414=VECTOR('',#1600,10.);
#415=VECTOR('',#1603,10.);
#416=VECTOR('',#1606,10.);
#417=VECTOR('',#1607,10.);
#418=VECTOR('',#1612,10.);
#419=VECTOR('',#1613,10.);
#420=VECTOR('',#1616,10.);
#421=VECTOR('',#1617,10.);
#422=VECTOR('',#1622,10.);
#423=VECTOR('',#1627,10.);
#424=VECTOR('',#1628,10.);
#425=VECTOR('',#1631,10.);
#426=VECTOR('',#1632,10.);
#427=VECTOR('',#1637,10.);
#428=VECTOR('',#1642,10.);
#429=VECTOR('',#1643,10.);
#430=VECTOR('',#1646,10.);
#431=VECTOR('',#1647,10.);
#432=VECTOR('',#1650,10.);
#433=VECTOR('',#1653,10.);
#434=VECTOR('',#1656,10.);
#435=VECTOR('',#1657,10.);
#436=VECTOR('',#1664,10.);
#437=VECTOR('',#1667,10.);
#438=VECTOR('',#1668,10.);
#439=VECTOR('',#1671,10.);
#440=VECTOR('',#1674,10.);
#441=VECTOR('',#1675,10.);
#442=VECTOR('',#1680,3.00000000000001);
#443=VECTOR('',#1691,3.00000000000001);
#444=VECTOR('',#1702,3.00000000000001);
#445=VECTOR('',#1713,3.00000000000001);
#446=VECTOR('',#1722,3.75);
#447=VECTOR('',#1731,3.75);
#448=VECTOR('',#1740,3.74999999999996);
#449=VECTOR('',#1749,3.75);
#450=VECTOR('',#1758,1.70000000000002);
#451=VECTOR('',#1761,1.70000000000002);
#452=VECTOR('',#1764,1.70000000000002);
#453=VECTOR('',#1767,10.);
#454=VECTOR('',#1768,10.);
#455=VECTOR('',#1769,10.);
#456=VECTOR('',#1772,10.);
#457=VECTOR('',#1773,10.);
#458=VECTOR('',#1776,10.);
#459=VECTOR('',#1777,10.);
#460=VECTOR('',#1780,10.);
#461=VECTOR('',#1783,2.19999999999999);
#462=VECTOR('',#1788,2.19999999999999);
#463=VECTOR('',#1793,2.20000000000002);
#464=VECTOR('',#1798,10.);
#465=VECTOR('',#1799,10.);
#466=VECTOR('',#1800,10.);
#467=VECTOR('',#1803,10.);
#468=VECTOR('',#1804,10.);
#469=VECTOR('',#1807,10.);
#470=VECTOR('',#1808,10.);
#471=VECTOR('',#1811,10.);
#472=VECTOR('',#1814,2.19999999999999);
#473=VECTOR('',#1819,1.70000000000002);
#474=VECTOR('',#1822,10.);
#475=VECTOR('',#1825,10.);
#476=VECTOR('',#1828,10.);
#477=VECTOR('',#1831,10.);
#478=VECTOR('',#1834,10.);
#479=VECTOR('',#1835,10.);
#480=VECTOR('',#1838,10.);
#481=CIRCLE('',#1322,1.99999999999999);
#482=CIRCLE('',#1323,1.99999999999999);
#483=CIRCLE('',#1325,2.);
#484=CIRCLE('',#1326,2.);
#485=CIRCLE('',#1327,1.99999999999999);
#486=CIRCLE('',#1328,4.);
#487=CIRCLE('',#1329,4.);
#488=CIRCLE('',#1330,4.);
#489=CIRCLE('',#1331,4.);
#490=CIRCLE('',#1332,1.99999999999999);
#491=CIRCLE('',#1333,2.);
#492=CIRCLE('',#1334,2.);
#493=CIRCLE('',#1335,1.99999999999999);
#494=CIRCLE('',#1336,4.);
#495=CIRCLE('',#1337,4.);
#496=CIRCLE('',#1338,4.);
#497=CIRCLE('',#1339,4.);
#498=CIRCLE('',#1340,3.75);
#499=CIRCLE('',#1341,3.75);
#500=CIRCLE('',#1342,3.74999999999996);
#501=CIRCLE('',#1343,3.75);
#502=CIRCLE('',#1344,1.70000000000002);
#503=CIRCLE('',#1345,1.70000000000002);
#504=CIRCLE('',#1346,1.70000000000002);
#505=CIRCLE('',#1347,1.70000000000002);
#506=CIRCLE('',#1349,1.99999999999999);
#507=CIRCLE('',#1352,2.);
#508=CIRCLE('',#1355,2.);
#509=CIRCLE('',#1358,1.99999999999999);
#510=CIRCLE('',#1360,1.99999999999999);
#511=CIRCLE('',#1362,2.);
#512=CIRCLE('',#1365,2.);
#513=CIRCLE('',#1368,4.);
#514=CIRCLE('',#1371,4.);
#515=CIRCLE('',#1374,4.);
#516=CIRCLE('',#1376,4.);
#517=CIRCLE('',#1379,4.);
#518=CIRCLE('',#1381,4.);
#519=CIRCLE('',#1384,4.);
#520=CIRCLE('',#1387,4.);
#521=CIRCLE('',#1393,3.00000000000001);
#522=CIRCLE('',#1394,3.00000000000001);
#523=CIRCLE('',#1396,1.70000000000002);
#524=CIRCLE('',#1398,3.00000000000001);
#525=CIRCLE('',#1399,3.00000000000001);
#526=CIRCLE('',#1401,1.70000000000002);
#527=CIRCLE('',#1403,3.00000000000001);
#528=CIRCLE('',#1404,3.00000000000001);
#529=CIRCLE('',#1406,1.70000000000002);
#530=CIRCLE('',#1408,3.00000000000001);
#531=CIRCLE('',#1409,3.00000000000001);
#532=CIRCLE('',#1411,1.70000000000002);
#533=CIRCLE('',#1413,3.75);
#534=CIRCLE('',#1415,2.20000000000002);
#535=CIRCLE('',#1417,3.75);
#536=CIRCLE('',#1419,2.19999999999999);
#537=CIRCLE('',#1421,3.74999999999996);
#538=CIRCLE('',#1423,2.19999999999999);
#539=CIRCLE('',#1425,3.75);
#540=CIRCLE('',#1427,2.19999999999999);
#541=CIRCLE('',#1436,2.19999999999999);
#542=CIRCLE('',#1438,2.19999999999999);
#543=CIRCLE('',#1440,2.20000000000002);
#544=CIRCLE('',#1446,2.19999999999999);
#545=VERTEX_POINT('',#1843);
#546=VERTEX_POINT('',#1844);
#547=VERTEX_POINT('',#1846);
#548=VERTEX_POINT('',#1848);
#549=VERTEX_POINT('',#1852);
#550=VERTEX_POINT('',#1854);
#551=VERTEX_POINT('',#1856);
#552=VERTEX_POINT('',#1858);
#553=VERTEX_POINT('',#1860);
#554=VERTEX_POINT('',#1862);
#555=VERTEX_POINT('',#1864);
#556=VERTEX_POINT('',#1866);
#557=VERTEX_POINT('',#1868);
#558=VERTEX_POINT('',#1870);
#559=VERTEX_POINT('',#1872);
#560=VERTEX_POINT('',#1874);
#561=VERTEX_POINT('',#1876);
#562=VERTEX_POINT('',#1878);
#563=VERTEX_POINT('',#1880);
#564=VERTEX_POINT('',#1882);
#565=VERTEX_POINT('',#1884);
#566=VERTEX_POINT('',#1886);
#567=VERTEX_POINT('',#1888);
#568=VERTEX_POINT('',#1890);
#569=VERTEX_POINT('',#1892);
#570=VERTEX_POINT('',#1894);
#571=VERTEX_POINT('',#1896);
#572=VERTEX_POINT('',#1898);
#573=VERTEX_POINT('',#1900);
#574=VERTEX_POINT('',#1902);
#575=VERTEX_POINT('',#1904);
#576=VERTEX_POINT('',#1906);
#577=VERTEX_POINT('',#1908);
#578=VERTEX_POINT('',#1910);
#579=VERTEX_POINT('',#1912);
#580=VERTEX_POINT('',#1914);
#581=VERTEX_POINT('',#1916);
#582=VERTEX_POINT('',#1918);
#583=VERTEX_POINT('',#1921);
#584=VERTEX_POINT('',#1923);
#585=VERTEX_POINT('',#1925);
#586=VERTEX_POINT('',#1927);
#587=VERTEX_POINT('',#1929);
#588=VERTEX_POINT('',#1931);
#589=VERTEX_POINT('',#1932);
#590=VERTEX_POINT('',#1934);
#591=VERTEX_POINT('',#1936);
#592=VERTEX_POINT('',#1939);
#593=VERTEX_POINT('',#1940);
#594=VERTEX_POINT('',#1942);
#595=VERTEX_POINT('',#1944);
#596=VERTEX_POINT('',#1947);
#597=VERTEX_POINT('',#1949);
#598=VERTEX_POINT('',#1951);
#599=VERTEX_POINT('',#1954);
#600=VERTEX_POINT('',#1956);
#601=VERTEX_POINT('',#1960);
#602=VERTEX_POINT('',#1964);
#603=VERTEX_POINT('',#1965);
#604=VERTEX_POINT('',#1970);
#605=VERTEX_POINT('',#1974);
#606=VERTEX_POINT('',#1975);
#607=VERTEX_POINT('',#1980);
#608=VERTEX_POINT('',#1984);
#609=VERTEX_POINT('',#1988);
#610=VERTEX_POINT('',#1992);
#611=VERTEX_POINT('',#1996);
#612=VERTEX_POINT('',#2000);
#613=VERTEX_POINT('',#2006);
#614=VERTEX_POINT('',#2008);
#615=VERTEX_POINT('',#2012);
#616=VERTEX_POINT('',#2016);
#617=VERTEX_POINT('',#2017);
#618=VERTEX_POINT('',#2022);
#619=VERTEX_POINT('',#2026);
#620=VERTEX_POINT('',#2030);
#621=VERTEX_POINT('',#2031);
#622=VERTEX_POINT('',#2036);
#623=VERTEX_POINT('',#2040);
#624=VERTEX_POINT('',#2044);
#625=VERTEX_POINT('',#2045);
#626=VERTEX_POINT('',#2050);
#627=VERTEX_POINT('',#2054);
#628=VERTEX_POINT('',#2056);
#629=VERTEX_POINT('',#2060);
#630=VERTEX_POINT('',#2068);
#631=VERTEX_POINT('',#2074);
#632=VERTEX_POINT('',#2078);
#633=VERTEX_POINT('',#2080);
#634=VERTEX_POINT('',#2084);
#635=VERTEX_POINT('',#2087);
#636=VERTEX_POINT('',#2089);
#637=VERTEX_POINT('',#2093);
#638=VERTEX_POINT('',#2096);
#639=VERTEX_POINT('',#2098);
#640=VERTEX_POINT('',#2102);
#641=VERTEX_POINT('',#2105);
#642=VERTEX_POINT('',#2107);
#643=VERTEX_POINT('',#2111);
#644=VERTEX_POINT('',#2114);
#645=VERTEX_POINT('',#2118);
#646=VERTEX_POINT('',#2121);
#647=VERTEX_POINT('',#2125);
#648=VERTEX_POINT('',#2128);
#649=VERTEX_POINT('',#2132);
#650=VERTEX_POINT('',#2135);
#651=VERTEX_POINT('',#2139);
#652=VERTEX_POINT('',#2148);
#653=VERTEX_POINT('',#2150);
#654=VERTEX_POINT('',#2154);
#655=VERTEX_POINT('',#2158);
#656=VERTEX_POINT('',#2164);
#657=VERTEX_POINT('',#2168);
#658=VERTEX_POINT('',#2172);
#659=VERTEX_POINT('',#2176);
#660=VERTEX_POINT('',#2178);
#661=VERTEX_POINT('',#2182);
#662=VERTEX_POINT('',#2186);
#663=VERTEX_POINT('',#2192);
#664=VERTEX_POINT('',#2206);
#665=EDGE_CURVE('',#545,#546,#481,.T.);
#666=EDGE_CURVE('',#546,#547,#249,.T.);
#667=EDGE_CURVE('',#547,#548,#482,.T.);
#668=EDGE_CURVE('',#548,#545,#250,.T.);
#669=EDGE_CURVE('',#547,#549,#251,.T.);
#670=EDGE_CURVE('',#550,#549,#483,.T.);
#671=EDGE_CURVE('',#550,#551,#252,.T.);
#672=EDGE_CURVE('',#552,#551,#484,.T.);
#673=EDGE_CURVE('',#552,#553,#253,.T.);
#674=EDGE_CURVE('',#554,#553,#485,.T.);
#675=EDGE_CURVE('',#555,#554,#254,.T.);
#676=EDGE_CURVE('',#556,#555,#255,.T.);
#677=EDGE_CURVE('',#557,#556,#486,.T.);
#678=EDGE_CURVE('',#558,#557,#256,.T.);
#679=EDGE_CURVE('',#559,#558,#487,.T.);
#680=EDGE_CURVE('',#560,#559,#257,.T.);
#681=EDGE_CURVE('',#561,#560,#488,.T.);
#682=EDGE_CURVE('',#562,#561,#258,.T.);
#683=EDGE_CURVE('',#563,#562,#489,.T.);
#684=EDGE_CURVE('',#564,#563,#259,.T.);
#685=EDGE_CURVE('',#565,#564,#260,.T.);
#686=EDGE_CURVE('',#566,#565,#490,.T.);
#687=EDGE_CURVE('',#566,#567,#261,.T.);
#688=EDGE_CURVE('',#568,#567,#491,.T.);
#689=EDGE_CURVE('',#568,#569,#262,.T.);
#690=EDGE_CURVE('',#570,#569,#492,.T.);
#691=EDGE_CURVE('',#570,#571,#263,.T.);
#692=EDGE_CURVE('',#572,#571,#493,.T.);
#693=EDGE_CURVE('',#573,#572,#264,.T.);
#694=EDGE_CURVE('',#574,#573,#265,.T.);
#695=EDGE_CURVE('',#575,#574,#494,.T.);
#696=EDGE_CURVE('',#576,#575,#266,.T.);
#697=EDGE_CURVE('',#577,#576,#495,.T.);
#698=EDGE_CURVE('',#578,#577,#267,.T.);
#699=EDGE_CURVE('',#579,#578,#496,.T.);
#700=EDGE_CURVE('',#580,#579,#268,.T.);
#701=EDGE_CURVE('',#581,#580,#497,.T.);
#702=EDGE_CURVE('',#582,#581,#269,.T.);
#703=EDGE_CURVE('',#548,#582,#270,.T.);
#704=EDGE_CURVE('',#583,#583,#498,.T.);
#705=EDGE_CURVE('',#584,#584,#499,.T.);
#706=EDGE_CURVE('',#585,#585,#500,.T.);
#707=EDGE_CURVE('',#586,#586,#501,.T.);
#708=EDGE_CURVE('',#587,#587,#502,.T.);
#709=EDGE_CURVE('',#588,#589,#271,.T.);
#710=EDGE_CURVE('',#590,#588,#272,.T.);
#711=EDGE_CURVE('',#591,#590,#273,.T.);
#712=EDGE_CURVE('',#589,#591,#274,.T.);
#713=EDGE_CURVE('',#592,#593,#275,.T.);
#714=EDGE_CURVE('',#594,#592,#276,.T.);
#715=EDGE_CURVE('',#595,#594,#277,.T.);
#716=EDGE_CURVE('',#593,#595,#278,.T.);
#717=EDGE_CURVE('',#596,#596,#503,.T.);
#718=EDGE_CURVE('',#597,#597,#504,.T.);
#719=EDGE_CURVE('',#598,#598,#505,.T.);
#720=EDGE_CURVE('',#553,#599,#279,.T.);
#721=EDGE_CURVE('',#599,#600,#506,.T.);
#722=EDGE_CURVE('',#554,#600,#280,.T.);
#723=EDGE_CURVE('',#601,#552,#281,.T.);
#724=EDGE_CURVE('',#599,#601,#282,.T.);
#725=EDGE_CURVE('',#602,#603,#507,.T.);
#726=EDGE_CURVE('',#603,#568,#283,.T.);
#727=EDGE_CURVE('',#567,#602,#284,.T.);
#728=EDGE_CURVE('',#604,#566,#285,.T.);
#729=EDGE_CURVE('',#602,#604,#286,.T.);
#730=EDGE_CURVE('',#605,#606,#508,.T.);
#731=EDGE_CURVE('',#606,#570,#287,.T.);
#732=EDGE_CURVE('',#569,#605,#288,.T.);
#733=EDGE_CURVE('',#607,#606,#289,.T.);
#734=EDGE_CURVE('',#571,#607,#290,.T.);
#735=EDGE_CURVE('',#607,#608,#509,.T.);
#736=EDGE_CURVE('',#572,#608,#291,.T.);
#737=EDGE_CURVE('',#609,#604,#510,.T.);
#738=EDGE_CURVE('',#565,#609,#292,.T.);
#739=EDGE_CURVE('',#610,#601,#511,.T.);
#740=EDGE_CURVE('',#551,#610,#293,.T.);
#741=EDGE_CURVE('',#611,#550,#294,.T.);
#742=EDGE_CURVE('',#610,#611,#295,.T.);
#743=EDGE_CURVE('',#612,#611,#512,.T.);
#744=EDGE_CURVE('',#549,#612,#296,.T.);
#745=EDGE_CURVE('',#612,#546,#297,.T.);
#746=EDGE_CURVE('',#562,#613,#298,.T.);
#747=EDGE_CURVE('',#613,#614,#513,.T.);
#748=EDGE_CURVE('',#614,#563,#299,.T.);
#749=EDGE_CURVE('',#615,#561,#300,.T.);
#750=EDGE_CURVE('',#615,#613,#301,.T.);
#751=EDGE_CURVE('',#616,#617,#514,.T.);
#752=EDGE_CURVE('',#617,#575,#302,.T.);
#753=EDGE_CURVE('',#574,#616,#303,.T.);
#754=EDGE_CURVE('',#617,#618,#304,.T.);
#755=EDGE_CURVE('',#576,#618,#305,.T.);
#756=EDGE_CURVE('',#618,#619,#515,.T.);
#757=EDGE_CURVE('',#619,#577,#306,.T.);
#758=EDGE_CURVE('',#620,#621,#516,.T.);
#759=EDGE_CURVE('',#621,#579,#307,.T.);
#760=EDGE_CURVE('',#578,#620,#308,.T.);
#761=EDGE_CURVE('',#621,#622,#309,.T.);
#762=EDGE_CURVE('',#580,#622,#310,.T.);
#763=EDGE_CURVE('',#622,#623,#517,.T.);
#764=EDGE_CURVE('',#623,#581,#311,.T.);
#765=EDGE_CURVE('',#624,#625,#518,.T.);
#766=EDGE_CURVE('',#625,#557,#312,.T.);
#767=EDGE_CURVE('',#556,#624,#313,.T.);
#768=EDGE_CURVE('',#555,#626,#314,.T.);
#769=EDGE_CURVE('',#624,#626,#315,.T.);
#770=EDGE_CURVE('',#558,#627,#316,.T.);
#771=EDGE_CURVE('',#627,#628,#519,.T.);
#772=EDGE_CURVE('',#628,#559,#317,.T.);
#773=EDGE_CURVE('',#629,#628,#318,.T.);
#774=EDGE_CURVE('',#560,#629,#319,.T.);
#775=EDGE_CURVE('',#629,#615,#520,.T.);
#776=EDGE_CURVE('',#620,#619,#320,.T.);
#777=EDGE_CURVE('',#573,#630,#321,.T.);
#778=EDGE_CURVE('',#616,#630,#322,.T.);
#779=EDGE_CURVE('',#625,#627,#323,.T.);
#780=EDGE_CURVE('',#631,#614,#324,.T.);
#781=EDGE_CURVE('',#564,#631,#325,.T.);
#782=EDGE_CURVE('',#632,#632,#521,.T.);
#783=EDGE_CURVE('',#632,#633,#326,.T.);
#784=EDGE_CURVE('',#633,#633,#522,.T.);
#785=EDGE_CURVE('',#634,#634,#523,.T.);
#786=EDGE_CURVE('',#635,#635,#524,.T.);
#787=EDGE_CURVE('',#635,#636,#327,.T.);
#788=EDGE_CURVE('',#636,#636,#525,.T.);
#789=EDGE_CURVE('',#637,#637,#526,.T.);
#790=EDGE_CURVE('',#638,#638,#527,.T.);
#791=EDGE_CURVE('',#638,#639,#328,.T.);
#792=EDGE_CURVE('',#639,#639,#528,.T.);
#793=EDGE_CURVE('',#640,#640,#529,.T.);
#794=EDGE_CURVE('',#641,#641,#530,.T.);
#795=EDGE_CURVE('',#641,#642,#329,.T.);
#796=EDGE_CURVE('',#642,#642,#531,.T.);
#797=EDGE_CURVE('',#643,#643,#532,.T.);
#798=EDGE_CURVE('',#583,#644,#330,.T.);
#799=EDGE_CURVE('',#644,#644,#533,.T.);
#800=EDGE_CURVE('',#645,#645,#534,.T.);
#801=EDGE_CURVE('',#584,#646,#331,.T.);
#802=EDGE_CURVE('',#646,#646,#535,.T.);
#803=EDGE_CURVE('',#647,#647,#536,.T.);
#804=EDGE_CURVE('',#585,#648,#332,.T.);
#805=EDGE_CURVE('',#648,#648,#537,.T.);
#806=EDGE_CURVE('',#649,#649,#538,.T.);
#807=EDGE_CURVE('',#586,#650,#333,.T.);
#808=EDGE_CURVE('',#650,#650,#539,.T.);
#809=EDGE_CURVE('',#651,#651,#540,.T.);
#810=EDGE_CURVE('',#598,#640,#334,.T.);
#811=EDGE_CURVE('',#597,#637,#335,.T.);
#812=EDGE_CURVE('',#596,#643,#336,.T.);
#813=EDGE_CURVE('',#592,#652,#337,.T.);
#814=EDGE_CURVE('',#653,#652,#338,.T.);
#815=EDGE_CURVE('',#594,#653,#339,.T.);
#816=EDGE_CURVE('',#654,#653,#340,.T.);
#817=EDGE_CURVE('',#595,#654,#341,.T.);
#818=EDGE_CURVE('',#655,#654,#342,.T.);
#819=EDGE_CURVE('',#593,#655,#343,.T.);
#820=EDGE_CURVE('',#652,#655,#344,.T.);
#821=EDGE_CURVE('',#651,#656,#345,.T.);
#822=EDGE_CURVE('',#656,#656,#541,.T.);
#823=EDGE_CURVE('',#649,#657,#346,.T.);
#824=EDGE_CURVE('',#657,#657,#542,.T.);
#825=EDGE_CURVE('',#645,#658,#347,.T.);
#826=EDGE_CURVE('',#658,#658,#543,.T.);
#827=EDGE_CURVE('',#588,#659,#348,.T.);
#828=EDGE_CURVE('',#660,#659,#349,.T.);
#829=EDGE_CURVE('',#590,#660,#350,.T.);
#830=EDGE_CURVE('',#661,#660,#351,.T.);
#831=EDGE_CURVE('',#591,#661,#352,.T.);
#832=EDGE_CURVE('',#662,#661,#353,.T.);
#833=EDGE_CURVE('',#589,#662,#354,.T.);
#834=EDGE_CURVE('',#659,#662,#355,.T.);
#835=EDGE_CURVE('',#647,#663,#356,.T.);
#836=EDGE_CURVE('',#663,#663,#544,.T.);
#837=EDGE_CURVE('',#587,#634,#357,.T.);
#838=EDGE_CURVE('',#626,#600,#358,.T.);
#839=EDGE_CURVE('',#609,#631,#359,.T.);
#840=EDGE_CURVE('',#605,#603,#360,.T.);
#841=EDGE_CURVE('',#630,#608,#361,.T.);
#842=EDGE_CURVE('',#664,#623,#362,.T.);
#843=EDGE_CURVE('',#582,#664,#363,.T.);
#844=EDGE_CURVE('',#545,#664,#364,.T.);
#845=ORIENTED_EDGE('',*,*,#665,.T.);
#846=ORIENTED_EDGE('',*,*,#666,.T.);
#847=ORIENTED_EDGE('',*,*,#667,.T.);
#848=ORIENTED_EDGE('',*,*,#668,.T.);
#849=ORIENTED_EDGE('',*,*,#667,.F.);
#850=ORIENTED_EDGE('',*,*,#669,.T.);
#851=ORIENTED_EDGE('',*,*,#670,.F.);
#852=ORIENTED_EDGE('',*,*,#671,.T.);
#853=ORIENTED_EDGE('',*,*,#672,.F.);
#854=ORIENTED_EDGE('',*,*,#673,.T.);
#855=ORIENTED_EDGE('',*,*,#674,.F.);
#856=ORIENTED_EDGE('',*,*,#675,.F.);
#857=ORIENTED_EDGE('',*,*,#676,.F.);
#858=ORIENTED_EDGE('',*,*,#677,.F.);
#859=ORIENTED_EDGE('',*,*,#678,.F.);
#860=ORIENTED_EDGE('',*,*,#679,.F.);
#861=ORIENTED_EDGE('',*,*,#680,.F.);
#862=ORIENTED_EDGE('',*,*,#681,.F.);
#863=ORIENTED_EDGE('',*,*,#682,.F.);
#864=ORIENTED_EDGE('',*,*,#683,.F.);
#865=ORIENTED_EDGE('',*,*,#684,.F.);
#866=ORIENTED_EDGE('',*,*,#685,.F.);
#867=ORIENTED_EDGE('',*,*,#686,.F.);
#868=ORIENTED_EDGE('',*,*,#687,.T.);
#869=ORIENTED_EDGE('',*,*,#688,.F.);
#870=ORIENTED_EDGE('',*,*,#689,.T.);
#871=ORIENTED_EDGE('',*,*,#690,.F.);
#872=ORIENTED_EDGE('',*,*,#691,.T.);
#873=ORIENTED_EDGE('',*,*,#692,.F.);
#874=ORIENTED_EDGE('',*,*,#693,.F.);
#875=ORIENTED_EDGE('',*,*,#694,.F.);
#876=ORIENTED_EDGE('',*,*,#695,.F.);
#877=ORIENTED_EDGE('',*,*,#696,.F.);
#878=ORIENTED_EDGE('',*,*,#697,.F.);
#879=ORIENTED_EDGE('',*,*,#698,.F.);
#880=ORIENTED_EDGE('',*,*,#699,.F.);
#881=ORIENTED_EDGE('',*,*,#700,.F.);
#882=ORIENTED_EDGE('',*,*,#701,.F.);
#883=ORIENTED_EDGE('',*,*,#702,.F.);
#884=ORIENTED_EDGE('',*,*,#703,.F.);
#885=ORIENTED_EDGE('',*,*,#704,.T.);
#886=ORIENTED_EDGE('',*,*,#705,.T.);
#887=ORIENTED_EDGE('',*,*,#706,.T.);
#888=ORIENTED_EDGE('',*,*,#707,.T.);
#889=ORIENTED_EDGE('',*,*,#708,.F.);
#890=ORIENTED_EDGE('',*,*,#709,.F.);
#891=ORIENTED_EDGE('',*,*,#710,.F.);
#892=ORIENTED_EDGE('',*,*,#711,.F.);
#893=ORIENTED_EDGE('',*,*,#712,.F.);
#894=ORIENTED_EDGE('',*,*,#713,.F.);
#895=ORIENTED_EDGE('',*,*,#714,.F.);
#896=ORIENTED_EDGE('',*,*,#715,.F.);
#897=ORIENTED_EDGE('',*,*,#716,.F.);
#898=ORIENTED_EDGE('',*,*,#717,.F.);
#899=ORIENTED_EDGE('',*,*,#718,.F.);
#900=ORIENTED_EDGE('',*,*,#719,.F.);
#901=ORIENTED_EDGE('',*,*,#674,.T.);
#902=ORIENTED_EDGE('',*,*,#720,.T.);
#903=ORIENTED_EDGE('',*,*,#721,.T.);
#904=ORIENTED_EDGE('',*,*,#722,.F.);
#905=ORIENTED_EDGE('',*,*,#720,.F.);
#906=ORIENTED_EDGE('',*,*,#673,.F.);
#907=ORIENTED_EDGE('',*,*,#723,.F.);
#908=ORIENTED_EDGE('',*,*,#724,.F.);
#909=ORIENTED_EDGE('',*,*,#725,.T.);
#910=ORIENTED_EDGE('',*,*,#726,.T.);
#911=ORIENTED_EDGE('',*,*,#688,.T.);
#912=ORIENTED_EDGE('',*,*,#727,.T.);
#913=ORIENTED_EDGE('',*,*,#727,.F.);
#914=ORIENTED_EDGE('',*,*,#687,.F.);
#915=ORIENTED_EDGE('',*,*,#728,.F.);
#916=ORIENTED_EDGE('',*,*,#729,.F.);
#917=ORIENTED_EDGE('',*,*,#730,.T.);
#918=ORIENTED_EDGE('',*,*,#731,.T.);
#919=ORIENTED_EDGE('',*,*,#690,.T.);
#920=ORIENTED_EDGE('',*,*,#732,.T.);
#921=ORIENTED_EDGE('',*,*,#731,.F.);
#922=ORIENTED_EDGE('',*,*,#733,.F.);
#923=ORIENTED_EDGE('',*,*,#734,.F.);
#924=ORIENTED_EDGE('',*,*,#691,.F.);
#925=ORIENTED_EDGE('',*,*,#692,.T.);
#926=ORIENTED_EDGE('',*,*,#734,.T.);
#927=ORIENTED_EDGE('',*,*,#735,.T.);
#928=ORIENTED_EDGE('',*,*,#736,.F.);
#929=ORIENTED_EDGE('',*,*,#737,.T.);
#930=ORIENTED_EDGE('',*,*,#728,.T.);
#931=ORIENTED_EDGE('',*,*,#686,.T.);
#932=ORIENTED_EDGE('',*,*,#738,.T.);
#933=ORIENTED_EDGE('',*,*,#739,.T.);
#934=ORIENTED_EDGE('',*,*,#723,.T.);
#935=ORIENTED_EDGE('',*,*,#672,.T.);
#936=ORIENTED_EDGE('',*,*,#740,.T.);
#937=ORIENTED_EDGE('',*,*,#740,.F.);
#938=ORIENTED_EDGE('',*,*,#671,.F.);
#939=ORIENTED_EDGE('',*,*,#741,.F.);
#940=ORIENTED_EDGE('',*,*,#742,.F.);
#941=ORIENTED_EDGE('',*,*,#743,.T.);
#942=ORIENTED_EDGE('',*,*,#741,.T.);
#943=ORIENTED_EDGE('',*,*,#670,.T.);
#944=ORIENTED_EDGE('',*,*,#744,.T.);
#945=ORIENTED_EDGE('',*,*,#666,.F.);
#946=ORIENTED_EDGE('',*,*,#745,.F.);
#947=ORIENTED_EDGE('',*,*,#744,.F.);
#948=ORIENTED_EDGE('',*,*,#669,.F.);
#949=ORIENTED_EDGE('',*,*,#683,.T.);
#950=ORIENTED_EDGE('',*,*,#746,.T.);
#951=ORIENTED_EDGE('',*,*,#747,.T.);
#952=ORIENTED_EDGE('',*,*,#748,.T.);
#953=ORIENTED_EDGE('',*,*,#746,.F.);
#954=ORIENTED_EDGE('',*,*,#682,.T.);
#955=ORIENTED_EDGE('',*,*,#749,.F.);
#956=ORIENTED_EDGE('',*,*,#750,.T.);
#957=ORIENTED_EDGE('',*,*,#751,.T.);
#958=ORIENTED_EDGE('',*,*,#752,.T.);
#959=ORIENTED_EDGE('',*,*,#695,.T.);
#960=ORIENTED_EDGE('',*,*,#753,.T.);
#961=ORIENTED_EDGE('',*,*,#752,.F.);
#962=ORIENTED_EDGE('',*,*,#754,.T.);
#963=ORIENTED_EDGE('',*,*,#755,.F.);
#964=ORIENTED_EDGE('',*,*,#696,.T.);
#965=ORIENTED_EDGE('',*,*,#697,.T.);
#966=ORIENTED_EDGE('',*,*,#755,.T.);
#967=ORIENTED_EDGE('',*,*,#756,.T.);
#968=ORIENTED_EDGE('',*,*,#757,.T.);
#969=ORIENTED_EDGE('',*,*,#758,.T.);
#970=ORIENTED_EDGE('',*,*,#759,.T.);
#971=ORIENTED_EDGE('',*,*,#699,.T.);
#972=ORIENTED_EDGE('',*,*,#760,.T.);
#973=ORIENTED_EDGE('',*,*,#759,.F.);
#974=ORIENTED_EDGE('',*,*,#761,.T.);
#975=ORIENTED_EDGE('',*,*,#762,.F.);
#976=ORIENTED_EDGE('',*,*,#700,.T.);
#977=ORIENTED_EDGE('',*,*,#701,.T.);
#978=ORIENTED_EDGE('',*,*,#762,.T.);
#979=ORIENTED_EDGE('',*,*,#763,.T.);
#980=ORIENTED_EDGE('',*,*,#764,.T.);
#981=ORIENTED_EDGE('',*,*,#765,.T.);
#982=ORIENTED_EDGE('',*,*,#766,.T.);
#983=ORIENTED_EDGE('',*,*,#677,.T.);
#984=ORIENTED_EDGE('',*,*,#767,.T.);
#985=ORIENTED_EDGE('',*,*,#767,.F.);
#986=ORIENTED_EDGE('',*,*,#676,.T.);
#987=ORIENTED_EDGE('',*,*,#768,.T.);
#988=ORIENTED_EDGE('',*,*,#769,.F.);
#989=ORIENTED_EDGE('',*,*,#679,.T.);
#990=ORIENTED_EDGE('',*,*,#770,.T.);
#991=ORIENTED_EDGE('',*,*,#771,.T.);
#992=ORIENTED_EDGE('',*,*,#772,.T.);
#993=ORIENTED_EDGE('',*,*,#772,.F.);
#994=ORIENTED_EDGE('',*,*,#773,.F.);
#995=ORIENTED_EDGE('',*,*,#774,.F.);
#996=ORIENTED_EDGE('',*,*,#680,.T.);
#997=ORIENTED_EDGE('',*,*,#775,.T.);
#998=ORIENTED_EDGE('',*,*,#749,.T.);
#999=ORIENTED_EDGE('',*,*,#681,.T.);
#1000=ORIENTED_EDGE('',*,*,#774,.T.);
#1001=ORIENTED_EDGE('',*,*,#757,.F.);
#1002=ORIENTED_EDGE('',*,*,#776,.F.);
#1003=ORIENTED_EDGE('',*,*,#760,.F.);
#1004=ORIENTED_EDGE('',*,*,#698,.T.);
#1005=ORIENTED_EDGE('',*,*,#753,.F.);
#1006=ORIENTED_EDGE('',*,*,#694,.T.);
#1007=ORIENTED_EDGE('',*,*,#777,.T.);
#1008=ORIENTED_EDGE('',*,*,#778,.F.);
#1009=ORIENTED_EDGE('',*,*,#766,.F.);
#1010=ORIENTED_EDGE('',*,*,#779,.T.);
#1011=ORIENTED_EDGE('',*,*,#770,.F.);
#1012=ORIENTED_EDGE('',*,*,#678,.T.);
#1013=ORIENTED_EDGE('',*,*,#748,.F.);
#1014=ORIENTED_EDGE('',*,*,#780,.F.);
#1015=ORIENTED_EDGE('',*,*,#781,.F.);
#1016=ORIENTED_EDGE('',*,*,#684,.T.);
#1017=ORIENTED_EDGE('',*,*,#782,.F.);
#1018=ORIENTED_EDGE('',*,*,#783,.T.);
#1019=ORIENTED_EDGE('',*,*,#784,.T.);
#1020=ORIENTED_EDGE('',*,*,#783,.F.);
#1021=ORIENTED_EDGE('',*,*,#784,.F.);
#1022=ORIENTED_EDGE('',*,*,#785,.F.);
#1023=ORIENTED_EDGE('',*,*,#786,.F.);
#1024=ORIENTED_EDGE('',*,*,#787,.T.);
#1025=ORIENTED_EDGE('',*,*,#788,.T.);
#1026=ORIENTED_EDGE('',*,*,#787,.F.);
#1027=ORIENTED_EDGE('',*,*,#788,.F.);
#1028=ORIENTED_EDGE('',*,*,#789,.F.);
#1029=ORIENTED_EDGE('',*,*,#790,.F.);
#1030=ORIENTED_EDGE('',*,*,#791,.T.);
#1031=ORIENTED_EDGE('',*,*,#792,.T.);
#1032=ORIENTED_EDGE('',*,*,#791,.F.);
#1033=ORIENTED_EDGE('',*,*,#792,.F.);
#1034=ORIENTED_EDGE('',*,*,#793,.F.);
#1035=ORIENTED_EDGE('',*,*,#794,.F.);
#1036=ORIENTED_EDGE('',*,*,#795,.T.);
#1037=ORIENTED_EDGE('',*,*,#796,.T.);
#1038=ORIENTED_EDGE('',*,*,#795,.F.);
#1039=ORIENTED_EDGE('',*,*,#796,.F.);
#1040=ORIENTED_EDGE('',*,*,#797,.F.);
#1041=ORIENTED_EDGE('',*,*,#704,.F.);
#1042=ORIENTED_EDGE('',*,*,#798,.T.);
#1043=ORIENTED_EDGE('',*,*,#799,.T.);
#1044=ORIENTED_EDGE('',*,*,#798,.F.);
#1045=ORIENTED_EDGE('',*,*,#799,.F.);
#1046=ORIENTED_EDGE('',*,*,#800,.F.);
#1047=ORIENTED_EDGE('',*,*,#705,.F.);
#1048=ORIENTED_EDGE('',*,*,#801,.T.);
#1049=ORIENTED_EDGE('',*,*,#802,.T.);
#1050=ORIENTED_EDGE('',*,*,#801,.F.);
#1051=ORIENTED_EDGE('',*,*,#802,.F.);
#1052=ORIENTED_EDGE('',*,*,#803,.F.);
#1053=ORIENTED_EDGE('',*,*,#706,.F.);
#1054=ORIENTED_EDGE('',*,*,#804,.T.);
#1055=ORIENTED_EDGE('',*,*,#805,.T.);
#1056=ORIENTED_EDGE('',*,*,#804,.F.);
#1057=ORIENTED_EDGE('',*,*,#805,.F.);
#1058=ORIENTED_EDGE('',*,*,#806,.F.);
#1059=ORIENTED_EDGE('',*,*,#707,.F.);
#1060=ORIENTED_EDGE('',*,*,#807,.T.);
#1061=ORIENTED_EDGE('',*,*,#808,.T.);
#1062=ORIENTED_EDGE('',*,*,#807,.F.);
#1063=ORIENTED_EDGE('',*,*,#808,.F.);
#1064=ORIENTED_EDGE('',*,*,#809,.F.);
#1065=ORIENTED_EDGE('',*,*,#719,.T.);
#1066=ORIENTED_EDGE('',*,*,#810,.T.);
#1067=ORIENTED_EDGE('',*,*,#793,.T.);
#1068=ORIENTED_EDGE('',*,*,#810,.F.);
#1069=ORIENTED_EDGE('',*,*,#718,.T.);
#1070=ORIENTED_EDGE('',*,*,#811,.T.);
#1071=ORIENTED_EDGE('',*,*,#789,.T.);
#1072=ORIENTED_EDGE('',*,*,#811,.F.);
#1073=ORIENTED_EDGE('',*,*,#717,.T.);
#1074=ORIENTED_EDGE('',*,*,#812,.T.);
#1075=ORIENTED_EDGE('',*,*,#797,.T.);
#1076=ORIENTED_EDGE('',*,*,#812,.F.);
#1077=ORIENTED_EDGE('',*,*,#714,.T.);
#1078=ORIENTED_EDGE('',*,*,#813,.T.);
#1079=ORIENTED_EDGE('',*,*,#814,.F.);
#1080=ORIENTED_EDGE('',*,*,#815,.F.);
#1081=ORIENTED_EDGE('',*,*,#715,.T.);
#1082=ORIENTED_EDGE('',*,*,#815,.T.);
#1083=ORIENTED_EDGE('',*,*,#816,.F.);
#1084=ORIENTED_EDGE('',*,*,#817,.F.);
#1085=ORIENTED_EDGE('',*,*,#716,.T.);
#1086=ORIENTED_EDGE('',*,*,#817,.T.);
#1087=ORIENTED_EDGE('',*,*,#818,.F.);
#1088=ORIENTED_EDGE('',*,*,#819,.F.);
#1089=ORIENTED_EDGE('',*,*,#713,.T.);
#1090=ORIENTED_EDGE('',*,*,#819,.T.);
#1091=ORIENTED_EDGE('',*,*,#820,.F.);
#1092=ORIENTED_EDGE('',*,*,#813,.F.);
#1093=ORIENTED_EDGE('',*,*,#809,.T.);
#1094=ORIENTED_EDGE('',*,*,#821,.T.);
#1095=ORIENTED_EDGE('',*,*,#822,.F.);
#1096=ORIENTED_EDGE('',*,*,#821,.F.);
#1097=ORIENTED_EDGE('',*,*,#806,.T.);
#1098=ORIENTED_EDGE('',*,*,#823,.T.);
#1099=ORIENTED_EDGE('',*,*,#824,.F.);
#1100=ORIENTED_EDGE('',*,*,#823,.F.);
#1101=ORIENTED_EDGE('',*,*,#800,.T.);
#1102=ORIENTED_EDGE('',*,*,#825,.T.);
#1103=ORIENTED_EDGE('',*,*,#826,.F.);
#1104=ORIENTED_EDGE('',*,*,#825,.F.);
#1105=ORIENTED_EDGE('',*,*,#710,.T.);
#1106=ORIENTED_EDGE('',*,*,#827,.T.);
#1107=ORIENTED_EDGE('',*,*,#828,.F.);
#1108=ORIENTED_EDGE('',*,*,#829,.F.);
#1109=ORIENTED_EDGE('',*,*,#711,.T.);
#1110=ORIENTED_EDGE('',*,*,#829,.T.);
#1111=ORIENTED_EDGE('',*,*,#830,.F.);
#1112=ORIENTED_EDGE('',*,*,#831,.F.);
#1113=ORIENTED_EDGE('',*,*,#712,.T.);
#1114=ORIENTED_EDGE('',*,*,#831,.T.);
#1115=ORIENTED_EDGE('',*,*,#832,.F.);
#1116=ORIENTED_EDGE('',*,*,#833,.F.);
#1117=ORIENTED_EDGE('',*,*,#709,.T.);
#1118=ORIENTED_EDGE('',*,*,#833,.T.);
#1119=ORIENTED_EDGE('',*,*,#834,.F.);
#1120=ORIENTED_EDGE('',*,*,#827,.F.);
#1121=ORIENTED_EDGE('',*,*,#803,.T.);
#1122=ORIENTED_EDGE('',*,*,#835,.T.);
#1123=ORIENTED_EDGE('',*,*,#836,.F.);
#1124=ORIENTED_EDGE('',*,*,#835,.F.);
#1125=ORIENTED_EDGE('',*,*,#708,.T.);
#1126=ORIENTED_EDGE('',*,*,#837,.T.);
#1127=ORIENTED_EDGE('',*,*,#785,.T.);
#1128=ORIENTED_EDGE('',*,*,#837,.F.);
#1129=ORIENTED_EDGE('',*,*,#675,.T.);
#1130=ORIENTED_EDGE('',*,*,#722,.T.);
#1131=ORIENTED_EDGE('',*,*,#838,.F.);
#1132=ORIENTED_EDGE('',*,*,#768,.F.);
#1133=ORIENTED_EDGE('',*,*,#685,.T.);
#1134=ORIENTED_EDGE('',*,*,#781,.T.);
#1135=ORIENTED_EDGE('',*,*,#839,.F.);
#1136=ORIENTED_EDGE('',*,*,#738,.F.);
#1137=ORIENTED_EDGE('',*,*,#726,.F.);
#1138=ORIENTED_EDGE('',*,*,#840,.F.);
#1139=ORIENTED_EDGE('',*,*,#732,.F.);
#1140=ORIENTED_EDGE('',*,*,#689,.F.);
#1141=ORIENTED_EDGE('',*,*,#693,.T.);
#1142=ORIENTED_EDGE('',*,*,#736,.T.);
#1143=ORIENTED_EDGE('',*,*,#841,.F.);
#1144=ORIENTED_EDGE('',*,*,#777,.F.);
#1145=ORIENTED_EDGE('',*,*,#764,.F.);
#1146=ORIENTED_EDGE('',*,*,#842,.F.);
#1147=ORIENTED_EDGE('',*,*,#843,.F.);
#1148=ORIENTED_EDGE('',*,*,#702,.T.);
#1149=ORIENTED_EDGE('',*,*,#703,.T.);
#1150=ORIENTED_EDGE('',*,*,#843,.T.);
#1151=ORIENTED_EDGE('',*,*,#844,.F.);
#1152=ORIENTED_EDGE('',*,*,#668,.F.);
#1153=ORIENTED_EDGE('',*,*,#665,.F.);
#1154=ORIENTED_EDGE('',*,*,#844,.T.);
#1155=ORIENTED_EDGE('',*,*,#842,.T.);
#1156=ORIENTED_EDGE('',*,*,#763,.F.);
#1157=ORIENTED_EDGE('',*,*,#761,.F.);
#1158=ORIENTED_EDGE('',*,*,#758,.F.);
#1159=ORIENTED_EDGE('',*,*,#776,.T.);
#1160=ORIENTED_EDGE('',*,*,#756,.F.);
#1161=ORIENTED_EDGE('',*,*,#754,.F.);
#1162=ORIENTED_EDGE('',*,*,#751,.F.);
#1163=ORIENTED_EDGE('',*,*,#778,.T.);
#1164=ORIENTED_EDGE('',*,*,#841,.T.);
#1165=ORIENTED_EDGE('',*,*,#735,.F.);
#1166=ORIENTED_EDGE('',*,*,#733,.T.);
#1167=ORIENTED_EDGE('',*,*,#730,.F.);
#1168=ORIENTED_EDGE('',*,*,#840,.T.);
#1169=ORIENTED_EDGE('',*,*,#725,.F.);
#1170=ORIENTED_EDGE('',*,*,#729,.T.);
#1171=ORIENTED_EDGE('',*,*,#737,.F.);
#1172=ORIENTED_EDGE('',*,*,#839,.T.);
#1173=ORIENTED_EDGE('',*,*,#780,.T.);
#1174=ORIENTED_EDGE('',*,*,#747,.F.);
#1175=ORIENTED_EDGE('',*,*,#750,.F.);
#1176=ORIENTED_EDGE('',*,*,#775,.F.);
#1177=ORIENTED_EDGE('',*,*,#773,.T.);
#1178=ORIENTED_EDGE('',*,*,#771,.F.);
#1179=ORIENTED_EDGE('',*,*,#779,.F.);
#1180=ORIENTED_EDGE('',*,*,#765,.F.);
#1181=ORIENTED_EDGE('',*,*,#769,.T.);
#1182=ORIENTED_EDGE('',*,*,#838,.T.);
#1183=ORIENTED_EDGE('',*,*,#721,.F.);
#1184=ORIENTED_EDGE('',*,*,#724,.T.);
#1185=ORIENTED_EDGE('',*,*,#739,.F.);
#1186=ORIENTED_EDGE('',*,*,#742,.T.);
#1187=ORIENTED_EDGE('',*,*,#743,.F.);
#1188=ORIENTED_EDGE('',*,*,#745,.T.);
#1189=ORIENTED_EDGE('',*,*,#782,.T.);
#1190=ORIENTED_EDGE('',*,*,#786,.T.);
#1191=ORIENTED_EDGE('',*,*,#790,.T.);
#1192=ORIENTED_EDGE('',*,*,#794,.T.);
#1193=ORIENTED_EDGE('',*,*,#836,.T.);
#1194=ORIENTED_EDGE('',*,*,#834,.T.);
#1195=ORIENTED_EDGE('',*,*,#832,.T.);
#1196=ORIENTED_EDGE('',*,*,#830,.T.);
#1197=ORIENTED_EDGE('',*,*,#828,.T.);
#1198=ORIENTED_EDGE('',*,*,#826,.T.);
#1199=ORIENTED_EDGE('',*,*,#824,.T.);
#1200=ORIENTED_EDGE('',*,*,#822,.T.);
#1201=ORIENTED_EDGE('',*,*,#820,.T.);
#1202=ORIENTED_EDGE('',*,*,#818,.T.);
#1203=ORIENTED_EDGE('',*,*,#816,.T.);
#1204=ORIENTED_EDGE('',*,*,#814,.T.);
#1205=CYLINDRICAL_SURFACE('',#1321,1.99999999999999);
#1206=CYLINDRICAL_SURFACE('',#1348,1.99999999999999);
#1207=CYLINDRICAL_SURFACE('',#1351,2.);
#1208=CYLINDRICAL_SURFACE('',#1354,2.);
#1209=CYLINDRICAL_SURFACE('',#1357,1.99999999999999);
#1210=CYLINDRICAL_SURFACE('',#1359,1.99999999999999);
#1211=CYLINDRICAL_SURFACE('',#1361,2.);
#1212=CYLINDRICAL_SURFACE('',#1364,2.);
#1213=CYLINDRICAL_SURFACE('',#1367,4.);
#1214=CYLINDRICAL_SURFACE('',#1370,4.);
#1215=CYLINDRICAL_SURFACE('',#1373,4.);
#1216=CYLINDRICAL_SURFACE('',#1375,4.);
#1217=CYLINDRICAL_SURFACE('',#1378,4.);
#1218=CYLINDRICAL_SURFACE('',#1380,4.);
#1219=CYLINDRICAL_SURFACE('',#1383,4.);
#1220=CYLINDRICAL_SURFACE('',#1386,4.);
#1221=CYLINDRICAL_SURFACE('',#1392,3.00000000000001);
#1222=CYLINDRICAL_SURFACE('',#1397,3.00000000000001);
#1223=CYLINDRICAL_SURFACE('',#1402,3.00000000000001);
#1224=CYLINDRICAL_SURFACE('',#1407,3.00000000000001);
#1225=CYLINDRICAL_SURFACE('',#1412,3.75);
#1226=CYLINDRICAL_SURFACE('',#1416,3.75);
#1227=CYLINDRICAL_SURFACE('',#1420,3.74999999999996);
#1228=CYLINDRICAL_SURFACE('',#1424,3.75);
#1229=CYLINDRICAL_SURFACE('',#1428,1.70000000000002);
#1230=CYLINDRICAL_SURFACE('',#1429,1.70000000000002);
#1231=CYLINDRICAL_SURFACE('',#1430,1.70000000000002);
#1232=CYLINDRICAL_SURFACE('',#1435,2.19999999999999);
#1233=CYLINDRICAL_SURFACE('',#1437,2.19999999999999);
#1234=CYLINDRICAL_SURFACE('',#1439,2.20000000000002);
#1235=CYLINDRICAL_SURFACE('',#1445,2.19999999999999);
#1236=CYLINDRICAL_SURFACE('',#1447,1.70000000000002);
#1237=ADVANCED_FACE('',(#81),#1205,.T.);
#1238=ADVANCED_FACE('',(#82,#15,#16,#17,#18,#19,#20,#21,#22,#23,#24),#43,
 .F.);
#1239=ADVANCED_FACE('',(#83),#1206,.T.);
#1240=ADVANCED_FACE('',(#84),#44,.T.);
#1241=ADVANCED_FACE('',(#85),#1207,.T.);
#1242=ADVANCED_FACE('',(#86),#45,.T.);
#1243=ADVANCED_FACE('',(#87),#1208,.T.);
#1244=ADVANCED_FACE('',(#88),#46,.T.);
#1245=ADVANCED_FACE('',(#89),#1209,.T.);
#1246=ADVANCED_FACE('',(#90),#1210,.T.);
#1247=ADVANCED_FACE('',(#91),#1211,.T.);
#1248=ADVANCED_FACE('',(#92),#47,.T.);
#1249=ADVANCED_FACE('',(#93),#1212,.T.);
#1250=ADVANCED_FACE('',(#94),#48,.T.);
#1251=ADVANCED_FACE('',(#95),#1213,.T.);
#1252=ADVANCED_FACE('',(#96),#49,.T.);
#1253=ADVANCED_FACE('',(#97),#1214,.T.);
#1254=ADVANCED_FACE('',(#98),#50,.T.);
#1255=ADVANCED_FACE('',(#99),#1215,.T.);
#1256=ADVANCED_FACE('',(#100),#1216,.T.);
#1257=ADVANCED_FACE('',(#101),#51,.T.);
#1258=ADVANCED_FACE('',(#102),#1217,.T.);
#1259=ADVANCED_FACE('',(#103),#1218,.T.);
#1260=ADVANCED_FACE('',(#104),#52,.T.);
#1261=ADVANCED_FACE('',(#105),#1219,.T.);
#1262=ADVANCED_FACE('',(#106),#53,.T.);
#1263=ADVANCED_FACE('',(#107),#1220,.T.);
#1264=ADVANCED_FACE('',(#108),#54,.T.);
#1265=ADVANCED_FACE('',(#109),#55,.T.);
#1266=ADVANCED_FACE('',(#110),#56,.T.);
#1267=ADVANCED_FACE('',(#111),#57,.T.);
#1268=ADVANCED_FACE('',(#112),#1221,.F.);
#1269=ADVANCED_FACE('',(#113,#25),#58,.T.);
#1270=ADVANCED_FACE('',(#114),#1222,.F.);
#1271=ADVANCED_FACE('',(#115,#26),#59,.T.);
#1272=ADVANCED_FACE('',(#116),#1223,.F.);
#1273=ADVANCED_FACE('',(#117,#27),#60,.T.);
#1274=ADVANCED_FACE('',(#118),#1224,.F.);
#1275=ADVANCED_FACE('',(#119,#28),#61,.T.);
#1276=ADVANCED_FACE('',(#120),#1225,.F.);
#1277=ADVANCED_FACE('',(#121,#29),#62,.F.);
#1278=ADVANCED_FACE('',(#122),#1226,.F.);
#1279=ADVANCED_FACE('',(#123,#30),#63,.F.);
#1280=ADVANCED_FACE('',(#124),#1227,.F.);
#1281=ADVANCED_FACE('',(#125,#31),#64,.F.);
#1282=ADVANCED_FACE('',(#126),#1228,.F.);
#1283=ADVANCED_FACE('',(#127,#32),#65,.F.);
#1284=ADVANCED_FACE('',(#128),#1229,.F.);
#1285=ADVANCED_FACE('',(#129),#1230,.F.);
#1286=ADVANCED_FACE('',(#130),#1231,.F.);
#1287=ADVANCED_FACE('',(#131),#66,.T.);
#1288=ADVANCED_FACE('',(#132),#67,.T.);
#1289=ADVANCED_FACE('',(#133),#68,.T.);
#1290=ADVANCED_FACE('',(#134),#69,.T.);
#1291=ADVANCED_FACE('',(#135),#1232,.F.);
#1292=ADVANCED_FACE('',(#136),#1233,.F.);
#1293=ADVANCED_FACE('',(#137),#1234,.F.);
#1294=ADVANCED_FACE('',(#138),#70,.T.);
#1295=ADVANCED_FACE('',(#139),#71,.T.);
#1296=ADVANCED_FACE('',(#140),#72,.T.);
#1297=ADVANCED_FACE('',(#141),#73,.T.);
#1298=ADVANCED_FACE('',(#142),#1235,.F.);
#1299=ADVANCED_FACE('',(#143),#1236,.F.);
#1300=ADVANCED_FACE('',(#144),#74,.T.);
#1301=ADVANCED_FACE('',(#145),#75,.T.);
#1302=ADVANCED_FACE('',(#146),#76,.T.);
#1303=ADVANCED_FACE('',(#147),#77,.T.);
#1304=ADVANCED_FACE('',(#148),#78,.T.);
#1305=ADVANCED_FACE('',(#149),#79,.T.);
#1306=ADVANCED_FACE('',(#150,#33,#34,#35,#36,#37,#38,#39,#40,#41,#42),#80,
 .T.);
#1307=CLOSED_SHELL('',(#1237,#1238,#1239,#1240,#1241,#1242,#1243,#1244,
#1245,#1246,#1247,#1248,#1249,#1250,#1251,#1252,#1253,#1254,#1255,#1256,
#1257,#1258,#1259,#1260,#1261,#1262,#1263,#1264,#1265,#1266,#1267,#1268,
#1269,#1270,#1271,#1272,#1273,#1274,#1275,#1276,#1277,#1278,#1279,#1280,
#1281,#1282,#1283,#1284,#1285,#1286,#1287,#1288,#1289,#1290,#1291,#1292,
#1293,#1294,#1295,#1296,#1297,#1298,#1299,#1300,#1301,#1302,#1303,#1304,
#1305,#1306));
#1308=DERIVED_UNIT_ELEMENT(#1310,1.);
#1309=DERIVED_UNIT_ELEMENT(#2217,-3.);
#1310=(
MASS_UNIT()
NAMED_UNIT(*)
SI_UNIT(.KILO.,.GRAM.)
);
#1311=DERIVED_UNIT((#1308,#1309));
#1312=MEASURE_REPRESENTATION_ITEM('density measure',
POSITIVE_RATIO_MEASURE(7850.),#1311);
#1313=PROPERTY_DEFINITION_REPRESENTATION(#1318,#1315);
#1314=PROPERTY_DEFINITION_REPRESENTATION(#1319,#1316);
#1315=REPRESENTATION('material name',(#1317),#2214);
#1316=REPRESENTATION('density',(#1312),#2214);
#1317=DESCRIPTIVE_REPRESENTATION_ITEM('\X2\92FC\X0\','\X2\92FC\X0\');
#1318=PROPERTY_DEFINITION('material property','material name',#2224);
#1319=PROPERTY_DEFINITION('material property','density of part',#2224);
#1320=AXIS2_PLACEMENT_3D('',#1841,#1455,#1456);
#1321=AXIS2_PLACEMENT_3D('',#1842,#1457,#1458);
#1322=AXIS2_PLACEMENT_3D('',#1845,#1459,#1460);
#1323=AXIS2_PLACEMENT_3D('',#1849,#1462,#1463);
#1324=AXIS2_PLACEMENT_3D('',#1851,#1465,#1466);
#1325=AXIS2_PLACEMENT_3D('',#1855,#1468,#1469);
#1326=AXIS2_PLACEMENT_3D('',#1859,#1471,#1472);
#1327=AXIS2_PLACEMENT_3D('',#1863,#1474,#1475);
#1328=AXIS2_PLACEMENT_3D('',#1869,#1478,#1479);
#1329=AXIS2_PLACEMENT_3D('',#1873,#1481,#1482);
#1330=AXIS2_PLACEMENT_3D('',#1877,#1484,#1485);
#1331=AXIS2_PLACEMENT_3D('',#1881,#1487,#1488);
#1332=AXIS2_PLACEMENT_3D('',#1887,#1491,#1492);
#1333=AXIS2_PLACEMENT_3D('',#1891,#1494,#1495);
#1334=AXIS2_PLACEMENT_3D('',#1895,#1497,#1498);
#1335=AXIS2_PLACEMENT_3D('',#1899,#1500,#1501);
#1336=AXIS2_PLACEMENT_3D('',#1905,#1504,#1505);
#1337=AXIS2_PLACEMENT_3D('',#1909,#1507,#1508);
#1338=AXIS2_PLACEMENT_3D('',#1913,#1510,#1511);
#1339=AXIS2_PLACEMENT_3D('',#1917,#1513,#1514);
#1340=AXIS2_PLACEMENT_3D('',#1922,#1517,#1518);
#1341=AXIS2_PLACEMENT_3D('',#1924,#1519,#1520);
#1342=AXIS2_PLACEMENT_3D('',#1926,#1521,#1522);
#1343=AXIS2_PLACEMENT_3D('',#1928,#1523,#1524);
#1344=AXIS2_PLACEMENT_3D('',#1930,#1525,#1526);
#1345=AXIS2_PLACEMENT_3D('',#1948,#1535,#1536);
#1346=AXIS2_PLACEMENT_3D('',#1950,#1537,#1538);
#1347=AXIS2_PLACEMENT_3D('',#1952,#1539,#1540);
#1348=AXIS2_PLACEMENT_3D('',#1953,#1541,#1542);
#1349=AXIS2_PLACEMENT_3D('',#1957,#1544,#1545);
#1350=AXIS2_PLACEMENT_3D('',#1959,#1547,#1548);
#1351=AXIS2_PLACEMENT_3D('',#1963,#1551,#1552);
#1352=AXIS2_PLACEMENT_3D('',#1966,#1553,#1554);
#1353=AXIS2_PLACEMENT_3D('',#1969,#1557,#1558);
#1354=AXIS2_PLACEMENT_3D('',#1973,#1561,#1562);
#1355=AXIS2_PLACEMENT_3D('',#1976,#1563,#1564);
#1356=AXIS2_PLACEMENT_3D('',#1979,#1567,#1568);
#1357=AXIS2_PLACEMENT_3D('',#1983,#1571,#1572);
#1358=AXIS2_PLACEMENT_3D('',#1985,#1573,#1574);
#1359=AXIS2_PLACEMENT_3D('',#1987,#1576,#1577);
#1360=AXIS2_PLACEMENT_3D('',#1989,#1578,#1579);
#1361=AXIS2_PLACEMENT_3D('',#1991,#1581,#1582);
#1362=AXIS2_PLACEMENT_3D('',#1993,#1583,#1584);
#1363=AXIS2_PLACEMENT_3D('',#1995,#1586,#1587);
#1364=AXIS2_PLACEMENT_3D('',#1999,#1590,#1591);
#1365=AXIS2_PLACEMENT_3D('',#2001,#1592,#1593);
#1366=AXIS2_PLACEMENT_3D('',#2003,#1595,#1596);
#1367=AXIS2_PLACEMENT_3D('',#2005,#1598,#1599);
#1368=AXIS2_PLACEMENT_3D('',#2009,#1601,#1602);
#1369=AXIS2_PLACEMENT_3D('',#2011,#1604,#1605);
#1370=AXIS2_PLACEMENT_3D('',#2015,#1608,#1609);
#1371=AXIS2_PLACEMENT_3D('',#2018,#1610,#1611);
#1372=AXIS2_PLACEMENT_3D('',#2021,#1614,#1615);
#1373=AXIS2_PLACEMENT_3D('',#2025,#1618,#1619);
#1374=AXIS2_PLACEMENT_3D('',#2027,#1620,#1621);
#1375=AXIS2_PLACEMENT_3D('',#2029,#1623,#1624);
#1376=AXIS2_PLACEMENT_3D('',#2032,#1625,#1626);
#1377=AXIS2_PLACEMENT_3D('',#2035,#1629,#1630);
#1378=AXIS2_PLACEMENT_3D('',#2039,#1633,#1634);
#1379=AXIS2_PLACEMENT_3D('',#2041,#1635,#1636);
#1380=AXIS2_PLACEMENT_3D('',#2043,#1638,#1639);
#1381=AXIS2_PLACEMENT_3D('',#2046,#1640,#1641);
#1382=AXIS2_PLACEMENT_3D('',#2049,#1644,#1645);
#1383=AXIS2_PLACEMENT_3D('',#2053,#1648,#1649);
#1384=AXIS2_PLACEMENT_3D('',#2057,#1651,#1652);
#1385=AXIS2_PLACEMENT_3D('',#2059,#1654,#1655);
#1386=AXIS2_PLACEMENT_3D('',#2063,#1658,#1659);
#1387=AXIS2_PLACEMENT_3D('',#2064,#1660,#1661);
#1388=AXIS2_PLACEMENT_3D('',#2065,#1662,#1663);
#1389=AXIS2_PLACEMENT_3D('',#2067,#1665,#1666);
#1390=AXIS2_PLACEMENT_3D('',#2071,#1669,#1670);
#1391=AXIS2_PLACEMENT_3D('',#2073,#1672,#1673);
#1392=AXIS2_PLACEMENT_3D('',#2077,#1676,#1677);
#1393=AXIS2_PLACEMENT_3D('',#2079,#1678,#1679);
#1394=AXIS2_PLACEMENT_3D('',#2082,#1681,#1682);
#1395=AXIS2_PLACEMENT_3D('',#2083,#1683,#1684);
#1396=AXIS2_PLACEMENT_3D('',#2085,#1685,#1686);
#1397=AXIS2_PLACEMENT_3D('',#2086,#1687,#1688);
#1398=AXIS2_PLACEMENT_3D('',#2088,#1689,#1690);
#1399=AXIS2_PLACEMENT_3D('',#2091,#1692,#1693);
#1400=AXIS2_PLACEMENT_3D('',#2092,#1694,#1695);
#1401=AXIS2_PLACEMENT_3D('',#2094,#1696,#1697);
#1402=AXIS2_PLACEMENT_3D('',#2095,#1698,#1699);
#1403=AXIS2_PLACEMENT_3D('',#2097,#1700,#1701);
#1404=AXIS2_PLACEMENT_3D('',#2100,#1703,#1704);
#1405=AXIS2_PLACEMENT_3D('',#2101,#1705,#1706);
#1406=AXIS2_PLACEMENT_3D('',#2103,#1707,#1708);
#1407=AXIS2_PLACEMENT_3D('',#2104,#1709,#1710);
#1408=AXIS2_PLACEMENT_3D('',#2106,#1711,#1712);
#1409=AXIS2_PLACEMENT_3D('',#2109,#1714,#1715);
#1410=AXIS2_PLACEMENT_3D('',#2110,#1716,#1717);
#1411=AXIS2_PLACEMENT_3D('',#2112,#1718,#1719);
#1412=AXIS2_PLACEMENT_3D('',#2113,#1720,#1721);
#1413=AXIS2_PLACEMENT_3D('',#2116,#1723,#1724);
#1414=AXIS2_PLACEMENT_3D('',#2117,#1725,#1726);
#1415=AXIS2_PLACEMENT_3D('',#2119,#1727,#1728);
#1416=AXIS2_PLACEMENT_3D('',#2120,#1729,#1730);
#1417=AXIS2_PLACEMENT_3D('',#2123,#1732,#1733);
#1418=AXIS2_PLACEMENT_3D('',#2124,#1734,#1735);
#1419=AXIS2_PLACEMENT_3D('',#2126,#1736,#1737);
#1420=AXIS2_PLACEMENT_3D('',#2127,#1738,#1739);
#1421=AXIS2_PLACEMENT_3D('',#2130,#1741,#1742);
#1422=AXIS2_PLACEMENT_3D('',#2131,#1743,#1744);
#1423=AXIS2_PLACEMENT_3D('',#2133,#1745,#1746);
#1424=AXIS2_PLACEMENT_3D('',#2134,#1747,#1748);
#1425=AXIS2_PLACEMENT_3D('',#2137,#1750,#1751);
#1426=AXIS2_PLACEMENT_3D('',#2138,#1752,#1753);
#1427=AXIS2_PLACEMENT_3D('',#2140,#1754,#1755);
#1428=AXIS2_PLACEMENT_3D('',#2141,#1756,#1757);
#1429=AXIS2_PLACEMENT_3D('',#2143,#1759,#1760);
#1430=AXIS2_PLACEMENT_3D('',#2145,#1762,#1763);
#1431=AXIS2_PLACEMENT_3D('',#2147,#1765,#1766);
#1432=AXIS2_PLACEMENT_3D('',#2153,#1770,#1771);
#1433=AXIS2_PLACEMENT_3D('',#2157,#1774,#1775);
#1434=AXIS2_PLACEMENT_3D('',#2161,#1778,#1779);
#1435=AXIS2_PLACEMENT_3D('',#2163,#1781,#1782);
#1436=AXIS2_PLACEMENT_3D('',#2166,#1784,#1785);
#1437=AXIS2_PLACEMENT_3D('',#2167,#1786,#1787);
#1438=AXIS2_PLACEMENT_3D('',#2170,#1789,#1790);
#1439=AXIS2_PLACEMENT_3D('',#2171,#1791,#1792);
#1440=AXIS2_PLACEMENT_3D('',#2174,#1794,#1795);
#1441=AXIS2_PLACEMENT_3D('',#2175,#1796,#1797);
#1442=AXIS2_PLACEMENT_3D('',#2181,#1801,#1802);
#1443=AXIS2_PLACEMENT_3D('',#2185,#1805,#1806);
#1444=AXIS2_PLACEMENT_3D('',#2189,#1809,#1810);
#1445=AXIS2_PLACEMENT_3D('',#2191,#1812,#1813);
#1446=AXIS2_PLACEMENT_3D('',#2194,#1815,#1816);
#1447=AXIS2_PLACEMENT_3D('',#2195,#1817,#1818);
#1448=AXIS2_PLACEMENT_3D('',#2197,#1820,#1821);
#1449=AXIS2_PLACEMENT_3D('',#2199,#1823,#1824);
#1450=AXIS2_PLACEMENT_3D('',#2201,#1826,#1827);
#1451=AXIS2_PLACEMENT_3D('',#2203,#1829,#1830);
#1452=AXIS2_PLACEMENT_3D('',#2205,#1832,#1833);
#1453=AXIS2_PLACEMENT_3D('',#2209,#1836,#1837);
#1454=AXIS2_PLACEMENT_3D('',#2211,#1839,#1840);
#1455=DIRECTION('axis',(0.,0.,1.));
#1456=DIRECTION('refdir',(1.,0.,0.));
#1457=DIRECTION('center_axis',(-1.,0.,0.));
#1458=DIRECTION('ref_axis',(0.,0.935220467202032,-0.354065922853942));
#1459=DIRECTION('center_axis',(-1.,0.,0.));
#1460=DIRECTION('ref_axis',(0.,0.935220467202032,-0.354065922853942));
#1461=DIRECTION('',(-1.,0.,0.));
#1462=DIRECTION('center_axis',(1.,0.,0.));
#1463=DIRECTION('ref_axis',(0.,0.935220467202032,-0.354065922853942));
#1464=DIRECTION('',(1.,0.,0.));
#1465=DIRECTION('center_axis',(1.,0.,0.));
#1466=DIRECTION('ref_axis',(0.,1.,0.));
#1467=DIRECTION('',(0.,-1.,0.));
#1468=DIRECTION('center_axis',(1.,0.,0.));
#1469=DIRECTION('ref_axis',(0.,-0.707106781186548,-0.707106781186548));
#1470=DIRECTION('',(0.,0.,1.));
#1471=DIRECTION('center_axis',(1.,0.,0.));
#1472=DIRECTION('ref_axis',(0.,-0.707106781186535,0.70710678118656));
#1473=DIRECTION('',(0.,1.,0.));
#1474=DIRECTION('center_axis',(1.,0.,0.));
#1475=DIRECTION('ref_axis',(0.,0.935220467202018,0.354065922853979));
#1476=DIRECTION('',(0.,-0.928476690885259,0.371390676354104));
#1477=DIRECTION('',(0.,0.,-1.));
#1478=DIRECTION('center_axis',(1.,0.,0.));
#1479=DIRECTION('ref_axis',(0.,-0.923879532511288,0.382683432365087));
#1480=DIRECTION('',(0.,-0.707106781186541,-0.707106781186554));
#1481=DIRECTION('center_axis',(1.,0.,0.));
#1482=DIRECTION('ref_axis',(0.,-0.382683432365087,0.923879532511288));
#1483=DIRECTION('',(0.,-1.,0.));
#1484=DIRECTION('center_axis',(1.,0.,0.));
#1485=DIRECTION('ref_axis',(0.,0.382683432365087,0.923879532511288));
#1486=DIRECTION('',(0.,-0.707106781186547,0.707106781186547));
#1487=DIRECTION('center_axis',(1.,0.,0.));
#1488=DIRECTION('ref_axis',(0.,0.923879532511287,0.38268343236509));
#1489=DIRECTION('',(0.,0.,1.));
#1490=DIRECTION('',(0.,-0.928476690885259,-0.371390676354105));
#1491=DIRECTION('center_axis',(1.,0.,0.));
#1492=DIRECTION('ref_axis',(0.,-0.935220467202032,0.354065922853942));
#1493=DIRECTION('',(0.,1.,0.));
#1494=DIRECTION('center_axis',(1.,0.,0.));
#1495=DIRECTION('ref_axis',(0.,0.707106781186548,0.707106781186548));
#1496=DIRECTION('',(0.,0.,-1.));
#1497=DIRECTION('center_axis',(1.,0.,0.));
#1498=DIRECTION('ref_axis',(0.,0.707106781186548,-0.707106781186548));
#1499=DIRECTION('',(0.,-1.,0.));
#1500=DIRECTION('center_axis',(1.,0.,0.));
#1501=DIRECTION('ref_axis',(0.,-0.935220467202071,-0.354065922853837));
#1502=DIRECTION('',(0.,0.928476690885259,-0.371390676354106));
#1503=DIRECTION('',(0.,0.,1.));
#1504=DIRECTION('center_axis',(1.,0.,0.));
#1505=DIRECTION('ref_axis',(0.,0.923879532511288,-0.382683432365087));
#1506=DIRECTION('',(0.,0.707106781186541,0.707106781186554));
#1507=DIRECTION('center_axis',(1.,0.,0.));
#1508=DIRECTION('ref_axis',(0.,0.382683432365087,-0.923879532511288));
#1509=DIRECTION('',(0.,1.,0.));
#1510=DIRECTION('center_axis',(1.,0.,0.));
#1511=DIRECTION('ref_axis',(0.,-0.382683432365087,-0.923879532511288));
#1512=DIRECTION('',(0.,0.707106781186547,-0.707106781186547));
#1513=DIRECTION('center_axis',(1.,0.,0.));
#1514=DIRECTION('ref_axis',(0.,-0.923879532511287,-0.38268343236509));
#1515=DIRECTION('',(0.,0.,-1.));
#1516=DIRECTION('',(0.,0.928476690885258,0.371390676354106));
#1517=DIRECTION('center_axis',(1.,0.,0.));
#1518=DIRECTION('ref_axis',(0.,1.,0.));
#1519=DIRECTION('center_axis',(1.,0.,0.));
#1520=DIRECTION('ref_axis',(0.,1.,0.));
#1521=DIRECTION('center_axis',(1.,0.,0.));
#1522=DIRECTION('ref_axis',(0.,1.,0.));
#1523=DIRECTION('center_axis',(1.,0.,0.));
#1524=DIRECTION('ref_axis',(0.,1.,0.));
#1525=DIRECTION('center_axis',(-1.,0.,0.));
#1526=DIRECTION('ref_axis',(0.,1.,0.));
#1527=DIRECTION('',(0.,0.,1.));
#1528=DIRECTION('',(0.,-0.928476690885259,-0.371390676354105));
#1529=DIRECTION('',(0.,0.,-1.));
#1530=DIRECTION('',(0.,0.928476690885258,-0.371390676354106));
#1531=DIRECTION('',(0.,0.,-1.));
#1532=DIRECTION('',(0.,0.928476690885258,0.371390676354106));
#1533=DIRECTION('',(0.,0.,1.));
#1534=DIRECTION('',(0.,-0.928476690885259,0.371390676354104));
#1535=DIRECTION('center_axis',(-1.,0.,0.));
#1536=DIRECTION('ref_axis',(0.,1.,0.));
#1537=DIRECTION('center_axis',(-1.,0.,0.));
#1538=DIRECTION('ref_axis',(0.,1.,0.));
#1539=DIRECTION('center_axis',(-1.,0.,0.));
#1540=DIRECTION('ref_axis',(0.,1.,0.));
#1541=DIRECTION('center_axis',(1.,0.,0.));
#1542=DIRECTION('ref_axis',(0.,0.935220467202018,0.354065922853979));
#1543=DIRECTION('',(1.,0.,0.));
#1544=DIRECTION('center_axis',(-1.,0.,0.));
#1545=DIRECTION('ref_axis',(0.,0.935220467202018,0.354065922853979));
#1546=DIRECTION('',(1.,0.,0.));
#1547=DIRECTION('center_axis',(0.,0.,1.));
#1548=DIRECTION('ref_axis',(0.,-1.,0.));
#1549=DIRECTION('',(-1.,0.,0.));
#1550=DIRECTION('',(0.,-1.,0.));
#1551=DIRECTION('center_axis',(1.,0.,0.));
#1552=DIRECTION('ref_axis',(0.,0.707106781186548,0.707106781186548));
#1553=DIRECTION('center_axis',(-1.,0.,0.));
#1554=DIRECTION('ref_axis',(0.,0.707106781186548,0.707106781186548));
#1555=DIRECTION('',(-1.,0.,0.));
#1556=DIRECTION('',(1.,0.,0.));
#1557=DIRECTION('center_axis',(0.,0.,1.));
#1558=DIRECTION('ref_axis',(0.,-1.,0.));
#1559=DIRECTION('',(-1.,0.,0.));
#1560=DIRECTION('',(0.,-1.,0.));
#1561=DIRECTION('center_axis',(1.,0.,0.));
#1562=DIRECTION('ref_axis',(0.,0.707106781186548,-0.707106781186548));
#1563=DIRECTION('center_axis',(-1.,0.,0.));
#1564=DIRECTION('ref_axis',(0.,0.707106781186548,-0.707106781186548));
#1565=DIRECTION('',(-1.,0.,0.));
#1566=DIRECTION('',(1.,0.,0.));
#1567=DIRECTION('center_axis',(0.,0.,-1.));
#1568=DIRECTION('ref_axis',(0.,1.,0.));
#1569=DIRECTION('',(0.,1.,0.));
#1570=DIRECTION('',(1.,0.,0.));
#1571=DIRECTION('center_axis',(1.,0.,0.));
#1572=DIRECTION('ref_axis',(0.,-0.935220467202071,-0.354065922853837));
#1573=DIRECTION('center_axis',(-1.,0.,0.));
#1574=DIRECTION('ref_axis',(0.,-0.935220467202071,-0.354065922853837));
#1575=DIRECTION('',(1.,0.,0.));
#1576=DIRECTION('center_axis',(-1.,0.,0.));
#1577=DIRECTION('ref_axis',(0.,-0.935220467202032,0.354065922853942));
#1578=DIRECTION('center_axis',(-1.,0.,0.));
#1579=DIRECTION('ref_axis',(0.,-0.935220467202032,0.354065922853942));
#1580=DIRECTION('',(1.,0.,0.));
#1581=DIRECTION('center_axis',(1.,0.,0.));
#1582=DIRECTION('ref_axis',(0.,-0.707106781186535,0.70710678118656));
#1583=DIRECTION('center_axis',(-1.,0.,0.));
#1584=DIRECTION('ref_axis',(0.,-0.707106781186535,0.70710678118656));
#1585=DIRECTION('',(1.,0.,0.));
#1586=DIRECTION('center_axis',(0.,-1.,0.));
#1587=DIRECTION('ref_axis',(0.,0.,-1.));
#1588=DIRECTION('',(-1.,0.,0.));
#1589=DIRECTION('',(0.,0.,-1.));
#1590=DIRECTION('center_axis',(1.,0.,0.));
#1591=DIRECTION('ref_axis',(0.,-0.707106781186548,-0.707106781186548));
#1592=DIRECTION('center_axis',(-1.,0.,0.));
#1593=DIRECTION('ref_axis',(0.,-0.707106781186548,-0.707106781186548));
#1594=DIRECTION('',(1.,0.,0.));
#1595=DIRECTION('center_axis',(0.,0.,-1.));
#1596=DIRECTION('ref_axis',(0.,1.,0.));
#1597=DIRECTION('',(0.,1.,0.));
#1598=DIRECTION('center_axis',(-1.,0.,0.));
#1599=DIRECTION('ref_axis',(0.,0.923879532511287,0.38268343236509));
#1600=DIRECTION('',(1.,0.,0.));
#1601=DIRECTION('center_axis',(-1.,0.,0.));
#1602=DIRECTION('ref_axis',(0.,0.923879532511287,0.38268343236509));
#1603=DIRECTION('',(-1.,0.,0.));
#1604=DIRECTION('center_axis',(0.,0.707106781186548,0.707106781186548));
#1605=DIRECTION('ref_axis',(1.,0.,0.));
#1606=DIRECTION('',(-1.,0.,0.));
#1607=DIRECTION('',(0.,0.707106781186547,-0.707106781186547));
#1608=DIRECTION('center_axis',(1.,0.,0.));
#1609=DIRECTION('ref_axis',(0.,0.923879532511288,-0.382683432365087));
#1610=DIRECTION('center_axis',(-1.,0.,0.));
#1611=DIRECTION('ref_axis',(0.,0.923879532511288,-0.382683432365087));
#1612=DIRECTION('',(-1.,0.,0.));
#1613=DIRECTION('',(1.,0.,0.));
#1614=DIRECTION('center_axis',(0.,0.707106781186554,-0.707106781186541));
#1615=DIRECTION('ref_axis',(-1.,0.,0.));
#1616=DIRECTION('',(0.,-0.707106781186541,-0.707106781186554));
#1617=DIRECTION('',(1.,0.,0.));
#1618=DIRECTION('center_axis',(-1.,0.,0.));
#1619=DIRECTION('ref_axis',(0.,0.382683432365087,-0.923879532511288));
#1620=DIRECTION('center_axis',(-1.,0.,0.));
#1621=DIRECTION('ref_axis',(0.,0.382683432365087,-0.923879532511288));
#1622=DIRECTION('',(-1.,0.,0.));
#1623=DIRECTION('center_axis',(1.,0.,0.));
#1624=DIRECTION('ref_axis',(0.,-0.382683432365087,-0.923879532511288));
#1625=DIRECTION('center_axis',(-1.,0.,0.));
#1626=DIRECTION('ref_axis',(0.,-0.382683432365087,-0.923879532511288));
#1627=DIRECTION('',(-1.,0.,0.));
#1628=DIRECTION('',(1.,0.,0.));
#1629=DIRECTION('center_axis',(0.,-0.707106781186548,-0.707106781186548));
#1630=DIRECTION('ref_axis',(-1.,0.,0.));
#1631=DIRECTION('',(0.,-0.707106781186547,0.707106781186547));
#1632=DIRECTION('',(1.,0.,0.));
#1633=DIRECTION('center_axis',(-1.,0.,0.));
#1634=DIRECTION('ref_axis',(0.,-0.923879532511287,-0.38268343236509));
#1635=DIRECTION('center_axis',(-1.,0.,0.));
#1636=DIRECTION('ref_axis',(0.,-0.923879532511287,-0.38268343236509));
#1637=DIRECTION('',(-1.,0.,0.));
#1638=DIRECTION('center_axis',(1.,0.,0.));
#1639=DIRECTION('ref_axis',(0.,-0.923879532511288,0.382683432365087));
#1640=DIRECTION('center_axis',(-1.,0.,0.));
#1641=DIRECTION('ref_axis',(0.,-0.923879532511288,0.382683432365087));
#1642=DIRECTION('',(-1.,0.,0.));
#1643=DIRECTION('',(1.,0.,0.));
#1644=DIRECTION('center_axis',(0.,-1.,0.));
#1645=DIRECTION('ref_axis',(0.,0.,-1.));
#1646=DIRECTION('',(1.,0.,0.));
#1647=DIRECTION('',(0.,0.,-1.));
#1648=DIRECTION('center_axis',(-1.,0.,0.));
#1649=DIRECTION('ref_axis',(0.,-0.382683432365087,0.923879532511288));
#1650=DIRECTION('',(1.,0.,0.));
#1651=DIRECTION('center_axis',(-1.,0.,0.));
#1652=DIRECTION('ref_axis',(0.,-0.382683432365087,0.923879532511288));
#1653=DIRECTION('',(-1.,0.,0.));
#1654=DIRECTION('center_axis',(0.,0.,1.));
#1655=DIRECTION('ref_axis',(0.,-1.,0.));
#1656=DIRECTION('',(0.,-1.,0.));
#1657=DIRECTION('',(1.,0.,0.));
#1658=DIRECTION('center_axis',(1.,0.,0.));
#1659=DIRECTION('ref_axis',(0.,0.382683432365087,0.923879532511288));
#1660=DIRECTION('center_axis',(-1.,0.,0.));
#1661=DIRECTION('ref_axis',(0.,0.382683432365087,0.923879532511288));
#1662=DIRECTION('center_axis',(0.,0.,-1.));
#1663=DIRECTION('ref_axis',(0.,1.,0.));
#1664=DIRECTION('',(0.,1.,0.));
#1665=DIRECTION('center_axis',(0.,1.,0.));
#1666=DIRECTION('ref_axis',(0.,0.,1.));
#1667=DIRECTION('',(1.,0.,0.));
#1668=DIRECTION('',(0.,0.,1.));
#1669=DIRECTION('center_axis',(0.,-0.707106781186554,0.707106781186541));
#1670=DIRECTION('ref_axis',(1.,0.,0.));
#1671=DIRECTION('',(0.,0.707106781186541,0.707106781186554));
#1672=DIRECTION('center_axis',(0.,1.,0.));
#1673=DIRECTION('ref_axis',(0.,0.,1.));
#1674=DIRECTION('',(0.,0.,1.));
#1675=DIRECTION('',(1.,0.,0.));
#1676=DIRECTION('center_axis',(-1.,0.,0.));
#1677=DIRECTION('ref_axis',(0.,1.,0.));
#1678=DIRECTION('center_axis',(-1.,0.,0.));
#1679=DIRECTION('ref_axis',(0.,1.,0.));
#1680=DIRECTION('',(-1.,0.,0.));
#1681=DIRECTION('center_axis',(-1.,0.,0.));
#1682=DIRECTION('ref_axis',(0.,1.,0.));
#1683=DIRECTION('center_axis',(1.,0.,0.));
#1684=DIRECTION('ref_axis',(0.,0.,-1.));
#1685=DIRECTION('center_axis',(1.,0.,0.));
#1686=DIRECTION('ref_axis',(0.,1.,0.));
#1687=DIRECTION('center_axis',(-1.,0.,0.));
#1688=DIRECTION('ref_axis',(0.,1.,0.));
#1689=DIRECTION('center_axis',(-1.,0.,0.));
#1690=DIRECTION('ref_axis',(0.,1.,0.));
#1691=DIRECTION('',(-1.,0.,0.));
#1692=DIRECTION('center_axis',(-1.,0.,0.));
#1693=DIRECTION('ref_axis',(0.,1.,0.));
#1694=DIRECTION('center_axis',(1.,0.,0.));
#1695=DIRECTION('ref_axis',(0.,0.,-1.));
#1696=DIRECTION('center_axis',(1.,0.,0.));
#1697=DIRECTION('ref_axis',(0.,1.,0.));
#1698=DIRECTION('center_axis',(-1.,0.,0.));
#1699=DIRECTION('ref_axis',(0.,1.,0.));
#1700=DIRECTION('center_axis',(-1.,0.,0.));
#1701=DIRECTION('ref_axis',(0.,1.,0.));
#1702=DIRECTION('',(-1.,0.,0.));
#1703=DIRECTION('center_axis',(-1.,0.,0.));
#1704=DIRECTION('ref_axis',(0.,1.,0.));
#1705=DIRECTION('center_axis',(1.,0.,0.));
#1706=DIRECTION('ref_axis',(0.,0.,-1.));
#1707=DIRECTION('center_axis',(1.,0.,0.));
#1708=DIRECTION('ref_axis',(0.,1.,0.));
#1709=DIRECTION('center_axis',(-1.,0.,0.));
#1710=DIRECTION('ref_axis',(0.,1.,0.));
#1711=DIRECTION('center_axis',(-1.,0.,0.));
#1712=DIRECTION('ref_axis',(0.,1.,0.));
#1713=DIRECTION('',(-1.,0.,0.));
#1714=DIRECTION('center_axis',(-1.,0.,0.));
#1715=DIRECTION('ref_axis',(0.,1.,0.));
#1716=DIRECTION('center_axis',(1.,0.,0.));
#1717=DIRECTION('ref_axis',(0.,0.,-1.));
#1718=DIRECTION('center_axis',(1.,0.,0.));
#1719=DIRECTION('ref_axis',(0.,1.,0.));
#1720=DIRECTION('center_axis',(1.,0.,0.));
#1721=DIRECTION('ref_axis',(0.,1.,0.));
#1722=DIRECTION('',(1.,0.,0.));
#1723=DIRECTION('center_axis',(1.,0.,0.));
#1724=DIRECTION('ref_axis',(0.,1.,0.));
#1725=DIRECTION('center_axis',(1.,0.,0.));
#1726=DIRECTION('ref_axis',(0.,1.,0.));
#1727=DIRECTION('center_axis',(-1.,0.,0.));
#1728=DIRECTION('ref_axis',(0.,1.,0.));
#1729=DIRECTION('center_axis',(1.,0.,0.));
#1730=DIRECTION('ref_axis',(0.,1.,0.));
#1731=DIRECTION('',(1.,0.,0.));
#1732=DIRECTION('center_axis',(1.,0.,0.));
#1733=DIRECTION('ref_axis',(0.,1.,0.));
#1734=DIRECTION('center_axis',(1.,0.,0.));
#1735=DIRECTION('ref_axis',(0.,1.,0.));
#1736=DIRECTION('center_axis',(-1.,0.,0.));
#1737=DIRECTION('ref_axis',(0.,1.,0.));
#1738=DIRECTION('center_axis',(1.,0.,0.));
#1739=DIRECTION('ref_axis',(0.,1.,0.));
#1740=DIRECTION('',(1.,0.,0.));
#1741=DIRECTION('center_axis',(1.,0.,0.));
#1742=DIRECTION('ref_axis',(0.,1.,0.));
#1743=DIRECTION('center_axis',(1.,0.,0.));
#1744=DIRECTION('ref_axis',(0.,1.,0.));
#1745=DIRECTION('center_axis',(-1.,0.,0.));
#1746=DIRECTION('ref_axis',(0.,1.,0.));
#1747=DIRECTION('center_axis',(1.,0.,0.));
#1748=DIRECTION('ref_axis',(0.,1.,0.));
#1749=DIRECTION('',(1.,0.,0.));
#1750=DIRECTION('center_axis',(1.,0.,0.));
#1751=DIRECTION('ref_axis',(0.,1.,0.));
#1752=DIRECTION('center_axis',(1.,0.,0.));
#1753=DIRECTION('ref_axis',(0.,1.,0.));
#1754=DIRECTION('center_axis',(-1.,0.,0.));
#1755=DIRECTION('ref_axis',(0.,1.,0.));
#1756=DIRECTION('center_axis',(1.,0.,0.));
#1757=DIRECTION('ref_axis',(0.,1.,0.));
#1758=DIRECTION('',(1.,0.,0.));
#1759=DIRECTION('center_axis',(1.,0.,0.));
#1760=DIRECTION('ref_axis',(0.,1.,0.));
#1761=DIRECTION('',(1.,0.,0.));
#1762=DIRECTION('center_axis',(1.,0.,0.));
#1763=DIRECTION('ref_axis',(0.,1.,0.));
#1764=DIRECTION('',(1.,0.,0.));
#1765=DIRECTION('center_axis',(0.,0.371390676354106,-0.928476690885258));
#1766=DIRECTION('ref_axis',(0.,0.928476690885258,0.371390676354106));
#1767=DIRECTION('',(1.,0.,0.));
#1768=DIRECTION('',(0.,0.928476690885258,0.371390676354106));
#1769=DIRECTION('',(1.,0.,0.));
#1770=DIRECTION('center_axis',(0.,1.,0.));
#1771=DIRECTION('ref_axis',(0.,0.,1.));
#1772=DIRECTION('',(0.,0.,1.));
#1773=DIRECTION('',(1.,0.,0.));
#1774=DIRECTION('center_axis',(0.,0.371390676354104,0.928476690885259));
#1775=DIRECTION('ref_axis',(0.,-0.928476690885259,0.371390676354104));
#1776=DIRECTION('',(0.,-0.928476690885259,0.371390676354104));
#1777=DIRECTION('',(1.,0.,0.));
#1778=DIRECTION('center_axis',(0.,-1.,0.));
#1779=DIRECTION('ref_axis',(0.,0.,-1.));
#1780=DIRECTION('',(0.,0.,-1.));
#1781=DIRECTION('center_axis',(1.,0.,0.));
#1782=DIRECTION('ref_axis',(0.,1.,0.));
#1783=DIRECTION('',(1.,0.,0.));
#1784=DIRECTION('center_axis',(-1.,0.,0.));
#1785=DIRECTION('ref_axis',(0.,1.,0.));
#1786=DIRECTION('center_axis',(1.,0.,0.));
#1787=DIRECTION('ref_axis',(0.,1.,0.));
#1788=DIRECTION('',(1.,0.,0.));
#1789=DIRECTION('center_axis',(-1.,0.,0.));
#1790=DIRECTION('ref_axis',(0.,1.,0.));
#1791=DIRECTION('center_axis',(1.,0.,0.));
#1792=DIRECTION('ref_axis',(0.,1.,0.));
#1793=DIRECTION('',(1.,0.,0.));
#1794=DIRECTION('center_axis',(-1.,0.,0.));
#1795=DIRECTION('ref_axis',(0.,1.,0.));
#1796=DIRECTION('center_axis',(0.,-0.371390676354105,0.928476690885259));
#1797=DIRECTION('ref_axis',(0.,-0.928476690885259,-0.371390676354105));
#1798=DIRECTION('',(1.,0.,0.));
#1799=DIRECTION('',(0.,-0.928476690885259,-0.371390676354105));
#1800=DIRECTION('',(1.,0.,0.));
#1801=DIRECTION('center_axis',(0.,-1.,0.));
#1802=DIRECTION('ref_axis',(0.,0.,-1.));
#1803=DIRECTION('',(0.,0.,-1.));
#1804=DIRECTION('',(1.,0.,0.));
#1805=DIRECTION('center_axis',(0.,-0.371390676354106,-0.928476690885259));
#1806=DIRECTION('ref_axis',(0.,0.928476690885259,-0.371390676354106));
#1807=DIRECTION('',(0.,0.928476690885258,-0.371390676354106));
#1808=DIRECTION('',(1.,0.,0.));
#1809=DIRECTION('center_axis',(0.,1.,0.));
#1810=DIRECTION('ref_axis',(0.,0.,1.));
#1811=DIRECTION('',(0.,0.,1.));
#1812=DIRECTION('center_axis',(1.,0.,0.));
#1813=DIRECTION('ref_axis',(0.,1.,0.));
#1814=DIRECTION('',(1.,0.,0.));
#1815=DIRECTION('center_axis',(-1.,0.,0.));
#1816=DIRECTION('ref_axis',(0.,1.,0.));
#1817=DIRECTION('center_axis',(1.,0.,0.));
#1818=DIRECTION('ref_axis',(0.,1.,0.));
#1819=DIRECTION('',(1.,0.,0.));
#1820=DIRECTION('center_axis',(0.,0.371390676354104,0.928476690885259));
#1821=DIRECTION('ref_axis',(0.,-0.928476690885259,0.371390676354104));
#1822=DIRECTION('',(0.,-0.928476690885259,0.371390676354104));
#1823=DIRECTION('center_axis',(0.,-0.371390676354105,0.928476690885259));
#1824=DIRECTION('ref_axis',(0.,-0.928476690885259,-0.371390676354105));
#1825=DIRECTION('',(0.,-0.928476690885259,-0.371390676354105));
#1826=DIRECTION('center_axis',(0.,1.,0.));
#1827=DIRECTION('ref_axis',(0.,0.,1.));
#1828=DIRECTION('',(0.,0.,1.));
#1829=DIRECTION('center_axis',(0.,-0.371390676354106,-0.928476690885259));
#1830=DIRECTION('ref_axis',(0.,0.928476690885259,-0.371390676354106));
#1831=DIRECTION('',(0.,0.928476690885259,-0.371390676354106));
#1832=DIRECTION('center_axis',(0.,-1.,0.));
#1833=DIRECTION('ref_axis',(0.,0.,-1.));
#1834=DIRECTION('',(0.,0.,-1.));
#1835=DIRECTION('',(1.,0.,0.));
#1836=DIRECTION('center_axis',(0.,0.371390676354106,-0.928476690885258));
#1837=DIRECTION('ref_axis',(0.,0.928476690885258,0.371390676354106));
#1838=DIRECTION('',(0.,0.928476690885258,0.371390676354106));
#1839=DIRECTION('center_axis',(1.,0.,0.));
#1840=DIRECTION('ref_axis',(0.,1.,0.));
#1841=CARTESIAN_POINT('',(0.,0.,0.));
#1842=CARTESIAN_POINT('Origin',(0.,243.820619156493,515.692692526776));
#1843=CARTESIAN_POINT('',(3.,245.691060090897,514.984560681068));
#1844=CARTESIAN_POINT('',(3.,243.820619156493,513.692692526776));
#1845=CARTESIAN_POINT('Origin',(3.,243.820619156493,515.692692526776));
#1846=CARTESIAN_POINT('',(0.,243.820619156493,513.692692526776));
#1847=CARTESIAN_POINT('',(0.,243.820619156493,513.692692526776));
#1848=CARTESIAN_POINT('',(0.,245.691060090897,514.984560681068));
#1849=CARTESIAN_POINT('Origin',(0.,243.820619156493,515.692692526776));
#1850=CARTESIAN_POINT('',(0.,245.691060090897,514.984560681068));
#1851=CARTESIAN_POINT('Origin',(0.,291.691060090897,537.692692526776));
#1852=CARTESIAN_POINT('',(0.,239.691060090897,513.692692526776));
#1853=CARTESIAN_POINT('',(0.,245.691060090897,513.692692526776));
#1854=CARTESIAN_POINT('',(0.,237.691060090897,515.692692526776));
#1855=CARTESIAN_POINT('Origin',(0.,239.691060090897,515.692692526776));
#1856=CARTESIAN_POINT('',(0.,237.691060090897,559.692692526776));
#1857=CARTESIAN_POINT('',(0.,237.691060090897,513.692692526776));
#1858=CARTESIAN_POINT('',(0.,239.691060090897,561.692692526776));
#1859=CARTESIAN_POINT('Origin',(0.,239.691060090897,559.692692526776));
#1860=CARTESIAN_POINT('',(0.,243.820619156493,561.692692526776));
#1861=CARTESIAN_POINT('',(0.,237.691060090897,561.692692526776));
#1862=CARTESIAN_POINT('',(0.,245.691060090897,560.400824372484));
#1863=CARTESIAN_POINT('Origin',(0.,243.820619156493,559.692692526776));
#1864=CARTESIAN_POINT('',(0.,276.691060090897,548.000824372484));
#1865=CARTESIAN_POINT('',(0.,343.176622796314,521.406599290317));
#1866=CARTESIAN_POINT('',(0.,276.691060090897,549.035838277284));
#1867=CARTESIAN_POINT('',(0.,276.691060090897,554.692692526776));
#1868=CARTESIAN_POINT('',(0.,277.862632966151,551.86426540203));
#1869=CARTESIAN_POINT('Origin',(0.,280.691060090897,549.035838277284));
#1870=CARTESIAN_POINT('',(0.,279.519487215643,553.521119651522));
#1871=CARTESIAN_POINT('',(0.,278.191060090897,552.192692526776));
#1872=CARTESIAN_POINT('',(0.,282.347914340389,554.692692526776));
#1873=CARTESIAN_POINT('Origin',(0.,282.347914340389,550.692692526776));
#1874=CARTESIAN_POINT('',(0.,301.034205841405,554.692692526776));
#1875=CARTESIAN_POINT('',(0.,306.691060090897,554.692692526776));
#1876=CARTESIAN_POINT('',(0.,303.862632966151,553.521119651522));
#1877=CARTESIAN_POINT('Origin',(0.,301.034205841405,550.692692526776));
#1878=CARTESIAN_POINT('',(0.,305.519487215643,551.86426540203));
#1879=CARTESIAN_POINT('',(0.,305.191060090897,552.192692526776));
#1880=CARTESIAN_POINT('',(0.,306.691060090897,549.035838277284));
#1881=CARTESIAN_POINT('Origin',(0.,302.691060090897,549.035838277284));
#1882=CARTESIAN_POINT('',(0.,306.691060090897,548.000824372484));
#1883=CARTESIAN_POINT('',(0.,306.691060090897,520.692692526776));
#1884=CARTESIAN_POINT('',(0.,337.691060090897,560.400824372484));
#1885=CARTESIAN_POINT('',(0.,340.20549738548,561.406599290317));
#1886=CARTESIAN_POINT('',(0.,339.561501025301,561.692692526776));
#1887=CARTESIAN_POINT('Origin',(0.,339.561501025301,559.692692526776));
#1888=CARTESIAN_POINT('',(0.,343.691060090897,561.692692526776));
#1889=CARTESIAN_POINT('',(0.,337.691060090897,561.692692526776));
#1890=CARTESIAN_POINT('',(0.,345.691060090897,559.692692526776));
#1891=CARTESIAN_POINT('Origin',(0.,343.691060090897,559.692692526776));
#1892=CARTESIAN_POINT('',(0.,345.691060090897,515.692692526776));
#1893=CARTESIAN_POINT('',(0.,345.691060090897,561.692692526776));
#1894=CARTESIAN_POINT('',(0.,343.691060090897,513.692692526776));
#1895=CARTESIAN_POINT('Origin',(0.,343.691060090897,515.692692526776));
#1896=CARTESIAN_POINT('',(0.,339.561501025301,513.692692526776));
#1897=CARTESIAN_POINT('',(0.,345.691060090897,513.692692526776));
#1898=CARTESIAN_POINT('',(0.,337.691060090897,514.984560681069));
#1899=CARTESIAN_POINT('Origin',(0.,339.561501025301,515.692692526776));
#1900=CARTESIAN_POINT('',(0.,306.691060090897,527.384560681069));
#1901=CARTESIAN_POINT('',(0.,240.205497385481,553.978785763235));
#1902=CARTESIAN_POINT('',(0.,306.691060090897,526.349546776269));
#1903=CARTESIAN_POINT('',(0.,306.691060090897,520.692692526776));
#1904=CARTESIAN_POINT('',(0.,305.519487215643,523.521119651522));
#1905=CARTESIAN_POINT('Origin',(0.,302.691060090897,526.349546776269));
#1906=CARTESIAN_POINT('',(0.,303.862632966151,521.86426540203));
#1907=CARTESIAN_POINT('',(0.,305.191060090897,523.192692526776));
#1908=CARTESIAN_POINT('',(0.,301.034205841405,520.692692526776));
#1909=CARTESIAN_POINT('Origin',(0.,301.034205841405,524.692692526776));
#1910=CARTESIAN_POINT('',(0.,282.347914340389,520.692692526776));
#1911=CARTESIAN_POINT('',(0.,276.691060090897,520.692692526776));
#1912=CARTESIAN_POINT('',(0.,279.519487215643,521.86426540203));
#1913=CARTESIAN_POINT('Origin',(0.,282.347914340389,524.692692526776));
#1914=CARTESIAN_POINT('',(0.,277.862632966151,523.521119651522));
#1915=CARTESIAN_POINT('',(0.,278.191060090897,523.192692526776));
#1916=CARTESIAN_POINT('',(0.,276.691060090897,526.349546776269));
#1917=CARTESIAN_POINT('Origin',(0.,280.691060090897,526.349546776269));
#1918=CARTESIAN_POINT('',(0.,276.691060090897,527.384560681068));
#1919=CARTESIAN_POINT('',(0.,276.691060090897,554.692692526776));
#1920=CARTESIAN_POINT('',(0.,243.176622796313,513.978785763235));
#1921=CARTESIAN_POINT('',(0.,237.941060090897,557.692692526776));
#1922=CARTESIAN_POINT('Origin',(0.,241.691060090897,557.692692526776));
#1923=CARTESIAN_POINT('',(0.,337.941060090897,557.692692526776));
#1924=CARTESIAN_POINT('Origin',(0.,341.691060090897,557.692692526776));
#1925=CARTESIAN_POINT('',(0.,237.941060090897,517.692692526776));
#1926=CARTESIAN_POINT('Origin',(0.,241.691060090897,517.692692526776));
#1927=CARTESIAN_POINT('',(0.,337.941060090897,517.692692526776));
#1928=CARTESIAN_POINT('Origin',(0.,341.691060090897,517.692692526776));
#1929=CARTESIAN_POINT('',(0.,299.991060090897,550.192692526776));
#1930=CARTESIAN_POINT('Origin',(0.,301.691060090897,550.192692526776));
#1931=CARTESIAN_POINT('',(0.,245.691060090897,523.600824372484));
#1932=CARTESIAN_POINT('',(0.,245.691060090897,551.784560681069));
#1933=CARTESIAN_POINT('',(0.,245.691060090897,561.692692526776));
#1934=CARTESIAN_POINT('',(0.,276.691060090897,536.000824372484));
#1935=CARTESIAN_POINT('',(0.,340.20549738548,561.406599290317));
#1936=CARTESIAN_POINT('',(0.,276.691060090897,539.384560681069));
#1937=CARTESIAN_POINT('',(0.,276.691060090897,554.692692526776));
#1938=CARTESIAN_POINT('',(0.,240.205497385481,553.978785763235));
#1939=CARTESIAN_POINT('',(0.,337.691060090897,551.784560681069));
#1940=CARTESIAN_POINT('',(0.,337.691060090897,523.600824372484));
#1941=CARTESIAN_POINT('',(0.,337.691060090897,513.692692526776));
#1942=CARTESIAN_POINT('',(0.,306.691060090897,539.384560681068));
#1943=CARTESIAN_POINT('',(0.,243.176622796313,513.978785763235));
#1944=CARTESIAN_POINT('',(0.,306.691060090897,536.000824372484));
#1945=CARTESIAN_POINT('',(0.,306.691060090897,520.692692526776));
#1946=CARTESIAN_POINT('',(0.,343.176622796314,521.406599290317));
#1947=CARTESIAN_POINT('',(0.,279.991060090897,525.192692526776));
#1948=CARTESIAN_POINT('Origin',(0.,281.691060090897,525.192692526776));
#1949=CARTESIAN_POINT('',(0.,279.991060090897,550.192692526776));
#1950=CARTESIAN_POINT('Origin',(0.,281.691060090897,550.192692526776));
#1951=CARTESIAN_POINT('',(0.,299.991060090897,525.192692526776));
#1952=CARTESIAN_POINT('Origin',(0.,301.691060090897,525.192692526776));
#1953=CARTESIAN_POINT('Origin',(0.,243.820619156493,559.692692526776));
#1954=CARTESIAN_POINT('',(3.,243.820619156493,561.692692526776));
#1955=CARTESIAN_POINT('',(0.,243.820619156493,561.692692526776));
#1956=CARTESIAN_POINT('',(3.,245.691060090897,560.400824372484));
#1957=CARTESIAN_POINT('Origin',(3.,243.820619156493,559.692692526776));
#1958=CARTESIAN_POINT('',(0.,245.691060090897,560.400824372484));
#1959=CARTESIAN_POINT('Origin',(0.,245.691060090897,561.692692526776));
#1960=CARTESIAN_POINT('',(3.,239.691060090897,561.692692526776));
#1961=CARTESIAN_POINT('',(0.,239.691060090897,561.692692526776));
#1962=CARTESIAN_POINT('',(3.,237.691060090897,561.692692526776));
#1963=CARTESIAN_POINT('Origin',(0.,343.691060090897,559.692692526776));
#1964=CARTESIAN_POINT('',(3.,343.691060090897,561.692692526776));
#1965=CARTESIAN_POINT('',(3.,345.691060090897,559.692692526776));
#1966=CARTESIAN_POINT('Origin',(3.,343.691060090897,559.692692526776));
#1967=CARTESIAN_POINT('',(0.,345.691060090897,559.692692526776));
#1968=CARTESIAN_POINT('',(0.,343.691060090897,561.692692526776));
#1969=CARTESIAN_POINT('Origin',(0.,345.691060090897,561.692692526776));
#1970=CARTESIAN_POINT('',(3.,339.561501025301,561.692692526776));
#1971=CARTESIAN_POINT('',(0.,339.561501025301,561.692692526776));
#1972=CARTESIAN_POINT('',(3.,337.691060090897,561.692692526776));
#1973=CARTESIAN_POINT('Origin',(0.,343.691060090897,515.692692526776));
#1974=CARTESIAN_POINT('',(3.,345.691060090897,515.692692526776));
#1975=CARTESIAN_POINT('',(3.,343.691060090897,513.692692526776));
#1976=CARTESIAN_POINT('Origin',(3.,343.691060090897,515.692692526776));
#1977=CARTESIAN_POINT('',(0.,343.691060090897,513.692692526776));
#1978=CARTESIAN_POINT('',(0.,345.691060090897,515.692692526776));
#1979=CARTESIAN_POINT('Origin',(0.,337.691060090897,513.692692526776));
#1980=CARTESIAN_POINT('',(3.,339.561501025301,513.692692526776));
#1981=CARTESIAN_POINT('',(3.,345.691060090897,513.692692526776));
#1982=CARTESIAN_POINT('',(0.,339.561501025301,513.692692526776));
#1983=CARTESIAN_POINT('Origin',(0.,339.561501025301,515.692692526776));
#1984=CARTESIAN_POINT('',(3.,337.691060090897,514.984560681069));
#1985=CARTESIAN_POINT('Origin',(3.,339.561501025301,515.692692526776));
#1986=CARTESIAN_POINT('',(0.,337.691060090897,514.984560681069));
#1987=CARTESIAN_POINT('Origin',(0.,339.561501025301,559.692692526776));
#1988=CARTESIAN_POINT('',(3.,337.691060090897,560.400824372484));
#1989=CARTESIAN_POINT('Origin',(3.,339.561501025301,559.692692526776));
#1990=CARTESIAN_POINT('',(0.,337.691060090897,560.400824372484));
#1991=CARTESIAN_POINT('Origin',(0.,239.691060090897,559.692692526776));
#1992=CARTESIAN_POINT('',(3.,237.691060090897,559.692692526776));
#1993=CARTESIAN_POINT('Origin',(3.,239.691060090897,559.692692526776));
#1994=CARTESIAN_POINT('',(0.,237.691060090897,559.692692526776));
#1995=CARTESIAN_POINT('Origin',(0.,237.691060090897,561.692692526776));
#1996=CARTESIAN_POINT('',(3.,237.691060090897,515.692692526776));
#1997=CARTESIAN_POINT('',(0.,237.691060090897,515.692692526776));
#1998=CARTESIAN_POINT('',(3.,237.691060090897,513.692692526776));
#1999=CARTESIAN_POINT('Origin',(0.,239.691060090897,515.692692526776));
#2000=CARTESIAN_POINT('',(3.,239.691060090897,513.692692526776));
#2001=CARTESIAN_POINT('Origin',(3.,239.691060090897,515.692692526776));
#2002=CARTESIAN_POINT('',(0.,239.691060090897,513.692692526776));
#2003=CARTESIAN_POINT('Origin',(0.,237.691060090897,513.692692526776));
#2004=CARTESIAN_POINT('',(3.,245.691060090897,513.692692526776));
#2005=CARTESIAN_POINT('Origin',(0.,302.691060090897,549.035838277284));
#2006=CARTESIAN_POINT('',(3.,305.519487215643,551.86426540203));
#2007=CARTESIAN_POINT('',(0.,305.519487215643,551.86426540203));
#2008=CARTESIAN_POINT('',(3.,306.691060090897,549.035838277284));
#2009=CARTESIAN_POINT('Origin',(3.,302.691060090897,549.035838277284));
#2010=CARTESIAN_POINT('',(0.,306.691060090897,549.035838277284));
#2011=CARTESIAN_POINT('Origin',(0.,304.691060090897,552.692692526776));
#2012=CARTESIAN_POINT('',(3.,303.862632966151,553.521119651522));
#2013=CARTESIAN_POINT('',(0.,303.862632966151,553.521119651522));
#2014=CARTESIAN_POINT('',(3.,305.191060090897,552.192692526776));
#2015=CARTESIAN_POINT('Origin',(0.,302.691060090897,526.349546776269));
#2016=CARTESIAN_POINT('',(3.,306.691060090897,526.349546776269));
#2017=CARTESIAN_POINT('',(3.,305.519487215643,523.521119651522));
#2018=CARTESIAN_POINT('Origin',(3.,302.691060090897,526.349546776269));
#2019=CARTESIAN_POINT('',(0.,305.519487215643,523.521119651522));
#2020=CARTESIAN_POINT('',(0.,306.691060090897,526.349546776269));
#2021=CARTESIAN_POINT('Origin',(0.,304.691060090897,522.692692526776));
#2022=CARTESIAN_POINT('',(3.,303.862632966151,521.86426540203));
#2023=CARTESIAN_POINT('',(3.,305.191060090897,523.192692526776));
#2024=CARTESIAN_POINT('',(0.,303.862632966151,521.86426540203));
#2025=CARTESIAN_POINT('Origin',(0.,301.034205841405,524.692692526776));
#2026=CARTESIAN_POINT('',(3.,301.034205841405,520.692692526776));
#2027=CARTESIAN_POINT('Origin',(3.,301.034205841405,524.692692526776));
#2028=CARTESIAN_POINT('',(0.,301.034205841405,520.692692526776));
#2029=CARTESIAN_POINT('Origin',(0.,282.347914340389,524.692692526776));
#2030=CARTESIAN_POINT('',(3.,282.347914340389,520.692692526776));
#2031=CARTESIAN_POINT('',(3.,279.519487215643,521.86426540203));
#2032=CARTESIAN_POINT('Origin',(3.,282.347914340389,524.692692526776));
#2033=CARTESIAN_POINT('',(0.,279.519487215643,521.86426540203));
#2034=CARTESIAN_POINT('',(0.,282.347914340389,520.692692526776));
#2035=CARTESIAN_POINT('Origin',(0.,278.691060090897,522.692692526776));
#2036=CARTESIAN_POINT('',(3.,277.862632966151,523.521119651522));
#2037=CARTESIAN_POINT('',(3.,278.191060090897,523.192692526776));
#2038=CARTESIAN_POINT('',(0.,277.862632966151,523.521119651522));
#2039=CARTESIAN_POINT('Origin',(0.,280.691060090897,526.349546776269));
#2040=CARTESIAN_POINT('',(3.,276.691060090897,526.349546776269));
#2041=CARTESIAN_POINT('Origin',(3.,280.691060090897,526.349546776269));
#2042=CARTESIAN_POINT('',(0.,276.691060090897,526.349546776269));
#2043=CARTESIAN_POINT('Origin',(0.,280.691060090897,549.035838277284));
#2044=CARTESIAN_POINT('',(3.,276.691060090897,549.035838277284));
#2045=CARTESIAN_POINT('',(3.,277.862632966151,551.86426540203));
#2046=CARTESIAN_POINT('Origin',(3.,280.691060090897,549.035838277284));
#2047=CARTESIAN_POINT('',(0.,277.862632966151,551.86426540203));
#2048=CARTESIAN_POINT('',(0.,276.691060090897,549.035838277284));
#2049=CARTESIAN_POINT('Origin',(0.,276.691060090897,554.692692526776));
#2050=CARTESIAN_POINT('',(3.,276.691060090897,548.000824372484));
#2051=CARTESIAN_POINT('',(0.,276.691060090897,548.000824372484));
#2052=CARTESIAN_POINT('',(3.,276.691060090897,554.692692526776));
#2053=CARTESIAN_POINT('Origin',(0.,282.347914340389,550.692692526776));
#2054=CARTESIAN_POINT('',(3.,279.519487215643,553.521119651522));
#2055=CARTESIAN_POINT('',(0.,279.519487215643,553.521119651522));
#2056=CARTESIAN_POINT('',(3.,282.347914340389,554.692692526776));
#2057=CARTESIAN_POINT('Origin',(3.,282.347914340389,550.692692526776));
#2058=CARTESIAN_POINT('',(0.,282.347914340389,554.692692526776));
#2059=CARTESIAN_POINT('Origin',(0.,306.691060090897,554.692692526776));
#2060=CARTESIAN_POINT('',(3.,301.034205841405,554.692692526776));
#2061=CARTESIAN_POINT('',(3.,306.691060090897,554.692692526776));
#2062=CARTESIAN_POINT('',(0.,301.034205841405,554.692692526776));
#2063=CARTESIAN_POINT('Origin',(0.,301.034205841405,550.692692526776));
#2064=CARTESIAN_POINT('Origin',(3.,301.034205841405,550.692692526776));
#2065=CARTESIAN_POINT('Origin',(0.,276.691060090897,520.692692526776));
#2066=CARTESIAN_POINT('',(3.,276.691060090897,520.692692526776));
#2067=CARTESIAN_POINT('Origin',(0.,306.691060090897,520.692692526776));
#2068=CARTESIAN_POINT('',(3.,306.691060090897,527.384560681069));
#2069=CARTESIAN_POINT('',(0.,306.691060090897,527.384560681069));
#2070=CARTESIAN_POINT('',(3.,306.691060090897,520.692692526776));
#2071=CARTESIAN_POINT('Origin',(0.,278.691060090897,552.692692526776));
#2072=CARTESIAN_POINT('',(3.,278.191060090897,552.192692526776));
#2073=CARTESIAN_POINT('Origin',(0.,306.691060090897,548.000824372484));
#2074=CARTESIAN_POINT('',(3.,306.691060090897,548.000824372484));
#2075=CARTESIAN_POINT('',(3.,306.691060090897,520.692692526776));
#2076=CARTESIAN_POINT('',(0.,306.691060090897,548.000824372484));
#2077=CARTESIAN_POINT('Origin',(3.,301.691060090897,550.192692526776));
#2078=CARTESIAN_POINT('',(3.,298.691060090897,550.192692526776));
#2079=CARTESIAN_POINT('Origin',(3.,301.691060090897,550.192692526776));
#2080=CARTESIAN_POINT('',(1.,298.691060090897,550.192692526776));
#2081=CARTESIAN_POINT('',(3.,298.691060090897,550.192692526776));
#2082=CARTESIAN_POINT('Origin',(1.,301.691060090897,550.192692526776));
#2083=CARTESIAN_POINT('Origin',(1.,291.691060090897,537.692692526776));
#2084=CARTESIAN_POINT('',(1.,299.991060090897,550.192692526776));
#2085=CARTESIAN_POINT('Origin',(1.,301.691060090897,550.192692526776));
#2086=CARTESIAN_POINT('Origin',(3.,281.691060090897,550.192692526776));
#2087=CARTESIAN_POINT('',(3.,278.691060090897,550.192692526776));
#2088=CARTESIAN_POINT('Origin',(3.,281.691060090897,550.192692526776));
#2089=CARTESIAN_POINT('',(1.,278.691060090897,550.192692526776));
#2090=CARTESIAN_POINT('',(3.,278.691060090897,550.192692526776));
#2091=CARTESIAN_POINT('Origin',(1.,281.691060090897,550.192692526776));
#2092=CARTESIAN_POINT('Origin',(1.,291.691060090897,537.692692526776));
#2093=CARTESIAN_POINT('',(1.,279.991060090897,550.192692526776));
#2094=CARTESIAN_POINT('Origin',(1.,281.691060090897,550.192692526776));
#2095=CARTESIAN_POINT('Origin',(3.,301.691060090897,525.192692526776));
#2096=CARTESIAN_POINT('',(3.,298.691060090897,525.192692526776));
#2097=CARTESIAN_POINT('Origin',(3.,301.691060090897,525.192692526776));
#2098=CARTESIAN_POINT('',(1.,298.691060090897,525.192692526776));
#2099=CARTESIAN_POINT('',(3.,298.691060090897,525.192692526776));
#2100=CARTESIAN_POINT('Origin',(1.,301.691060090897,525.192692526776));
#2101=CARTESIAN_POINT('Origin',(1.,291.691060090897,537.692692526776));
#2102=CARTESIAN_POINT('',(1.,299.991060090897,525.192692526776));
#2103=CARTESIAN_POINT('Origin',(1.,301.691060090897,525.192692526776));
#2104=CARTESIAN_POINT('Origin',(3.,281.691060090897,525.192692526776));
#2105=CARTESIAN_POINT('',(3.,278.691060090897,525.192692526776));
#2106=CARTESIAN_POINT('Origin',(3.,281.691060090897,525.192692526776));
#2107=CARTESIAN_POINT('',(1.,278.691060090897,525.192692526776));
#2108=CARTESIAN_POINT('',(3.,278.691060090897,525.192692526776));
#2109=CARTESIAN_POINT('Origin',(1.,281.691060090897,525.192692526776));
#2110=CARTESIAN_POINT('Origin',(1.,291.691060090897,537.692692526776));
#2111=CARTESIAN_POINT('',(1.,279.991060090897,525.192692526776));
#2112=CARTESIAN_POINT('Origin',(1.,281.691060090897,525.192692526776));
#2113=CARTESIAN_POINT('Origin',(0.,241.691060090897,557.692692526776));
#2114=CARTESIAN_POINT('',(2.,237.941060090897,557.692692526776));
#2115=CARTESIAN_POINT('',(0.,237.941060090897,557.692692526776));
#2116=CARTESIAN_POINT('Origin',(2.,241.691060090897,557.692692526776));
#2117=CARTESIAN_POINT('Origin',(2.,241.691060090897,557.692692526776));
#2118=CARTESIAN_POINT('',(2.,239.491060090897,557.692692526776));
#2119=CARTESIAN_POINT('Origin',(2.,241.691060090897,557.692692526776));
#2120=CARTESIAN_POINT('Origin',(0.,341.691060090897,557.692692526776));
#2121=CARTESIAN_POINT('',(2.,337.941060090897,557.692692526776));
#2122=CARTESIAN_POINT('',(0.,337.941060090897,557.692692526776));
#2123=CARTESIAN_POINT('Origin',(2.,341.691060090897,557.692692526776));
#2124=CARTESIAN_POINT('Origin',(2.,341.691060090897,557.692692526776));
#2125=CARTESIAN_POINT('',(2.,339.491060090897,557.692692526776));
#2126=CARTESIAN_POINT('Origin',(2.,341.691060090897,557.692692526776));
#2127=CARTESIAN_POINT('Origin',(0.,241.691060090897,517.692692526776));
#2128=CARTESIAN_POINT('',(2.,237.941060090897,517.692692526776));
#2129=CARTESIAN_POINT('',(0.,237.941060090897,517.692692526776));
#2130=CARTESIAN_POINT('Origin',(2.,241.691060090897,517.692692526776));
#2131=CARTESIAN_POINT('Origin',(2.,241.691060090897,517.692692526776));
#2132=CARTESIAN_POINT('',(2.,239.491060090897,517.692692526776));
#2133=CARTESIAN_POINT('Origin',(2.,241.691060090897,517.692692526776));
#2134=CARTESIAN_POINT('Origin',(0.,341.691060090897,517.692692526776));
#2135=CARTESIAN_POINT('',(2.,337.941060090897,517.692692526776));
#2136=CARTESIAN_POINT('',(0.,337.941060090897,517.692692526776));
#2137=CARTESIAN_POINT('Origin',(2.,341.691060090897,517.692692526776));
#2138=CARTESIAN_POINT('Origin',(2.,341.691060090897,517.692692526776));
#2139=CARTESIAN_POINT('',(2.,339.491060090897,517.692692526776));
#2140=CARTESIAN_POINT('Origin',(2.,341.691060090897,517.692692526776));
#2141=CARTESIAN_POINT('Origin',(0.,301.691060090897,525.192692526776));
#2142=CARTESIAN_POINT('',(0.,299.991060090897,525.192692526776));
#2143=CARTESIAN_POINT('Origin',(0.,281.691060090897,550.192692526776));
#2144=CARTESIAN_POINT('',(0.,279.991060090897,550.192692526776));
#2145=CARTESIAN_POINT('Origin',(0.,281.691060090897,525.192692526776));
#2146=CARTESIAN_POINT('',(0.,279.991060090897,525.192692526776));
#2147=CARTESIAN_POINT('Origin',(0.,306.691060090897,539.384560681068));
#2148=CARTESIAN_POINT('',(3.,337.691060090897,551.784560681069));
#2149=CARTESIAN_POINT('',(0.,337.691060090897,551.784560681069));
#2150=CARTESIAN_POINT('',(3.,306.691060090897,539.384560681068));
#2151=CARTESIAN_POINT('',(3.,243.176622796313,513.978785763235));
#2152=CARTESIAN_POINT('',(0.,306.691060090897,539.384560681068));
#2153=CARTESIAN_POINT('Origin',(0.,306.691060090897,536.000824372484));
#2154=CARTESIAN_POINT('',(3.,306.691060090897,536.000824372484));
#2155=CARTESIAN_POINT('',(3.,306.691060090897,520.692692526776));
#2156=CARTESIAN_POINT('',(0.,306.691060090897,536.000824372484));
#2157=CARTESIAN_POINT('Origin',(0.,337.691060090897,523.600824372484));
#2158=CARTESIAN_POINT('',(3.,337.691060090897,523.600824372484));
#2159=CARTESIAN_POINT('',(3.,343.176622796314,521.406599290317));
#2160=CARTESIAN_POINT('',(0.,337.691060090897,523.600824372484));
#2161=CARTESIAN_POINT('Origin',(0.,337.691060090897,551.784560681069));
#2162=CARTESIAN_POINT('',(3.,337.691060090897,513.692692526776));
#2163=CARTESIAN_POINT('Origin',(0.,341.691060090897,517.692692526776));
#2164=CARTESIAN_POINT('',(3.,339.491060090897,517.692692526776));
#2165=CARTESIAN_POINT('',(0.,339.491060090897,517.692692526776));
#2166=CARTESIAN_POINT('Origin',(3.,341.691060090897,517.692692526776));
#2167=CARTESIAN_POINT('Origin',(0.,241.691060090897,517.692692526776));
#2168=CARTESIAN_POINT('',(3.,239.491060090897,517.692692526776));
#2169=CARTESIAN_POINT('',(0.,239.491060090897,517.692692526776));
#2170=CARTESIAN_POINT('Origin',(3.,241.691060090897,517.692692526776));
#2171=CARTESIAN_POINT('Origin',(0.,241.691060090897,557.692692526776));
#2172=CARTESIAN_POINT('',(3.,239.491060090897,557.692692526776));
#2173=CARTESIAN_POINT('',(0.,239.491060090897,557.692692526776));
#2174=CARTESIAN_POINT('Origin',(3.,241.691060090897,557.692692526776));
#2175=CARTESIAN_POINT('Origin',(0.,276.691060090897,536.000824372484));
#2176=CARTESIAN_POINT('',(3.,245.691060090897,523.600824372484));
#2177=CARTESIAN_POINT('',(0.,245.691060090897,523.600824372484));
#2178=CARTESIAN_POINT('',(3.,276.691060090897,536.000824372484));
#2179=CARTESIAN_POINT('',(3.,340.20549738548,561.406599290317));
#2180=CARTESIAN_POINT('',(0.,276.691060090897,536.000824372484));
#2181=CARTESIAN_POINT('Origin',(0.,276.691060090897,539.384560681069));
#2182=CARTESIAN_POINT('',(3.,276.691060090897,539.384560681069));
#2183=CARTESIAN_POINT('',(3.,276.691060090897,554.692692526776));
#2184=CARTESIAN_POINT('',(0.,276.691060090897,539.384560681069));
#2185=CARTESIAN_POINT('Origin',(0.,245.691060090897,551.784560681069));
#2186=CARTESIAN_POINT('',(3.,245.691060090897,551.784560681069));
#2187=CARTESIAN_POINT('',(3.,240.205497385481,553.978785763235));
#2188=CARTESIAN_POINT('',(0.,245.691060090897,551.784560681069));
#2189=CARTESIAN_POINT('Origin',(0.,245.691060090897,523.600824372484));
#2190=CARTESIAN_POINT('',(3.,245.691060090897,561.692692526776));
#2191=CARTESIAN_POINT('Origin',(0.,341.691060090897,557.692692526776));
#2192=CARTESIAN_POINT('',(3.,339.491060090897,557.692692526776));
#2193=CARTESIAN_POINT('',(0.,339.491060090897,557.692692526776));
#2194=CARTESIAN_POINT('Origin',(3.,341.691060090897,557.692692526776));
#2195=CARTESIAN_POINT('Origin',(0.,301.691060090897,550.192692526776));
#2196=CARTESIAN_POINT('',(0.,299.991060090897,550.192692526776));
#2197=CARTESIAN_POINT('Origin',(0.,276.691060090897,548.000824372484));
#2198=CARTESIAN_POINT('',(3.,343.176622796314,521.406599290317));
#2199=CARTESIAN_POINT('Origin',(0.,337.691060090897,560.400824372484));
#2200=CARTESIAN_POINT('',(3.,340.20549738548,561.406599290317));
#2201=CARTESIAN_POINT('Origin',(0.,345.691060090897,513.692692526776));
#2202=CARTESIAN_POINT('',(3.,345.691060090897,561.692692526776));
#2203=CARTESIAN_POINT('Origin',(0.,306.691060090897,527.384560681069));
#2204=CARTESIAN_POINT('',(3.,240.205497385481,553.978785763235));
#2205=CARTESIAN_POINT('Origin',(0.,276.691060090897,527.384560681068));
#2206=CARTESIAN_POINT('',(3.,276.691060090897,527.384560681068));
#2207=CARTESIAN_POINT('',(3.,276.691060090897,554.692692526776));
#2208=CARTESIAN_POINT('',(0.,276.691060090897,527.384560681068));
#2209=CARTESIAN_POINT('Origin',(0.,245.691060090897,514.984560681068));
#2210=CARTESIAN_POINT('',(3.,243.176622796313,513.978785763235));
#2211=CARTESIAN_POINT('Origin',(3.,291.691060090897,537.692692526776));
#2212=UNCERTAINTY_MEASURE_WITH_UNIT(LENGTH_MEASURE(0.01),#2216,
'DISTANCE_ACCURACY_VALUE',
'Maximum model space distance between geometric entities at asserted c
onnectivities');
#2213=UNCERTAINTY_MEASURE_WITH_UNIT(LENGTH_MEASURE(0.01),#2216,
'DISTANCE_ACCURACY_VALUE',
'Maximum model space distance between geometric entities at asserted c
onnectivities');
#2214=(
GEOMETRIC_REPRESENTATION_CONTEXT(3)
GLOBAL_UNCERTAINTY_ASSIGNED_CONTEXT((#2212))
GLOBAL_UNIT_ASSIGNED_CONTEXT((#2216,#2218,#2219))
REPRESENTATION_CONTEXT('','3D')
);
#2215=(
GEOMETRIC_REPRESENTATION_CONTEXT(3)
GLOBAL_UNCERTAINTY_ASSIGNED_CONTEXT((#2213))
GLOBAL_UNIT_ASSIGNED_CONTEXT((#2216,#2218,#2219))
REPRESENTATION_CONTEXT('','3D')
);
#2216=(
LENGTH_UNIT()
NAMED_UNIT(*)
SI_UNIT(.MILLI.,.METRE.)
);
#2217=(
LENGTH_UNIT()
NAMED_UNIT(*)
SI_UNIT($,.METRE.)
);
#2218=(
NAMED_UNIT(*)
PLANE_ANGLE_UNIT()
SI_UNIT($,.RADIAN.)
);
#2219=(
NAMED_UNIT(*)
SI_UNIT($,.STERADIAN.)
SOLID_ANGLE_UNIT()
);
#2220=SHAPE_DEFINITION_REPRESENTATION(#2221,#2222);
#2221=PRODUCT_DEFINITION_SHAPE('',$,#2224);
#2222=SHAPE_REPRESENTATION('',(#1320),#2214);
#2223=PRODUCT_DEFINITION_CONTEXT('part definition',#2228,'design');
#2224=PRODUCT_DEFINITION('2026-08-20-10-51-55-518','ForceGageFixer',#2225,
#2223);
#2225=PRODUCT_DEFINITION_FORMATION('',$,#2230);
#2226=PRODUCT_RELATED_PRODUCT_CATEGORY('ForceGageFixer',
'ForceGageFixer',(#2230));
#2227=APPLICATION_PROTOCOL_DEFINITION('international standard',
'automotive_design',2009,#2228);
#2228=APPLICATION_CONTEXT(
'Core Data for Automotive Mechanical Design Process');
#2229=PRODUCT_CONTEXT('part definition',#2228,'mechanical');
#2230=PRODUCT('2026-08-20-10-51-55-518','ForceGageFixer',$,(#2229));
#2231=PRESENTATION_STYLE_ASSIGNMENT((#2233));
#2232=PRESENTATION_STYLE_ASSIGNMENT((#2234));
#2233=SURFACE_STYLE_USAGE(.BOTH.,#2235);
#2234=SURFACE_STYLE_USAGE(.BOTH.,#2236);
#2235=SURFACE_SIDE_STYLE('',(#2237));
#2236=SURFACE_SIDE_STYLE('',(#2238));
#2237=SURFACE_STYLE_FILL_AREA(#2239);
#2238=SURFACE_STYLE_FILL_AREA(#2240);
#2239=FILL_AREA_STYLE('\X2\92FC\X0\ - \X2\30B530C630F3\X0\',(#2241));
#2240=FILL_AREA_STYLE('Opaque(160,160,160)',(#2242));
#2241=FILL_AREA_STYLE_COLOUR('\X2\92FC\X0\ - \X2\30B530C630F3\X0\',#2243);
#2242=FILL_AREA_STYLE_COLOUR('Opaque(160,160,160)',#2244);
#2243=COLOUR_RGB('\X2\92FC\X0\ - \X2\30B530C630F3\X0\',0.627450980392157,
0.627450980392157,0.627450980392157);
#2244=COLOUR_RGB('Opaque(160,160,160)',0.627450980392157,0.627450980392157,
0.627450980392157);
ENDSEC;
END-ISO-10303-21;
