ISO-10303-21;
HEADER;
/* Generated by software containing ST-Developer
 * from STEP Tools, Inc. (www.steptools.com) 
 */

FILE_DESCRIPTION(
/* description */ (''),
/* implementation_level */ '2;1');

FILE_NAME(
/* name */ 'jig_ligament_wrist_palmar_2.step',
/* time_stamp */ '2026-08-19T19:41:27+09:00',
/* author */ (''),
/* organization */ (''),
/* preprocessor_version */ 'ST-DEVELOPER v20.1',
/* originating_system */ 'Autodesk Translation Framework v15.8.0.0',
/* authorisation */ '');

FILE_SCHEMA (('AUTOMOTIVE_DESIGN { 1 0 10303 214 3 1 1 }'));
ENDSEC;

DATA;
#10=MECHANICAL_DESIGN_GEOMETRIC_PRESENTATION_REPRESENTATION('',(#13),#871);
#11=SHAPE_REPRESENTATION_RELATIONSHIP('SRR','None',#878,#12);
#12=ADVANCED_BREP_SHAPE_REPRESENTATION('',(#14),#870);
#13=STYLED_ITEM('',(#888),#14);
#14=MANIFOLD_SOLID_BREP('\X2\30DC30C730A3\X0\1',#515);
#15=ELLIPSE('',#546,2.00058650940987,2.);
#16=ELLIPSE('',#547,2.00502874356017,2.);
#17=ELLIPSE('',#550,2.06740918857614,2.);
#18=ELLIPSE('',#551,2.04468118973006,2.);
#19=FACE_BOUND('',#67,.T.);
#20=FACE_BOUND('',#74,.T.);
#21=FACE_BOUND('',#84,.T.);
#22=FACE_BOUND('',#89,.T.);
#23=PLANE('',#532);
#24=PLANE('',#534);
#25=PLANE('',#539);
#26=PLANE('',#544);
#27=PLANE('',#548);
#28=PLANE('',#552);
#29=PLANE('',#553);
#30=PLANE('',#554);
#31=PLANE('',#555);
#32=PLANE('',#559);
#33=PLANE('',#561);
#34=PLANE('',#566);
#35=PLANE('',#567);
#36=PLANE('',#572);
#37=PLANE('',#573);
#38=PLANE('',#574);
#39=FACE_OUTER_BOUND('',#65,.T.);
#40=FACE_OUTER_BOUND('',#66,.T.);
#41=FACE_OUTER_BOUND('',#68,.T.);
#42=FACE_OUTER_BOUND('',#69,.T.);
#43=FACE_OUTER_BOUND('',#70,.T.);
#44=FACE_OUTER_BOUND('',#71,.T.);
#45=FACE_OUTER_BOUND('',#72,.T.);
#46=FACE_OUTER_BOUND('',#73,.T.);
#47=FACE_OUTER_BOUND('',#75,.T.);
#48=FACE_OUTER_BOUND('',#76,.T.);
#49=FACE_OUTER_BOUND('',#77,.T.);
#50=FACE_OUTER_BOUND('',#78,.T.);
#51=FACE_OUTER_BOUND('',#79,.T.);
#52=FACE_OUTER_BOUND('',#80,.T.);
#53=FACE_OUTER_BOUND('',#81,.T.);
#54=FACE_OUTER_BOUND('',#82,.T.);
#55=FACE_OUTER_BOUND('',#83,.T.);
#56=FACE_OUTER_BOUND('',#85,.T.);
#57=FACE_OUTER_BOUND('',#86,.T.);
#58=FACE_OUTER_BOUND('',#87,.T.);
#59=FACE_OUTER_BOUND('',#88,.T.);
#60=FACE_OUTER_BOUND('',#90,.T.);
#61=FACE_OUTER_BOUND('',#91,.T.);
#62=FACE_OUTER_BOUND('',#92,.T.);
#63=FACE_OUTER_BOUND('',#93,.T.);
#64=FACE_OUTER_BOUND('',#94,.T.);
#65=EDGE_LOOP('',(#335,#336,#337,#338));
#66=EDGE_LOOP('',(#339,#340));
#67=EDGE_LOOP('',(#341));
#68=EDGE_LOOP('',(#342,#343,#344,#345,#346,#347,#348,#349));
#69=EDGE_LOOP('',(#350,#351,#352,#353));
#70=EDGE_LOOP('',(#354,#355,#356,#357,#358,#359,#360,#361));
#71=EDGE_LOOP('',(#362,#363,#364,#365));
#72=EDGE_LOOP('',(#366,#367,#368,#369));
#73=EDGE_LOOP('',(#370,#371,#372,#373,#374,#375));
#74=EDGE_LOOP('',(#376));
#75=EDGE_LOOP('',(#377,#378,#379,#380));
#76=EDGE_LOOP('',(#381,#382,#383,#384));
#77=EDGE_LOOP('',(#385,#386,#387,#388));
#78=EDGE_LOOP('',(#389,#390,#391,#392));
#79=EDGE_LOOP('',(#393,#394,#395,#396));
#80=EDGE_LOOP('',(#397,#398,#399,#400));
#81=EDGE_LOOP('',(#401,#402,#403,#404));
#82=EDGE_LOOP('',(#405,#406,#407,#408));
#83=EDGE_LOOP('',(#409,#410));
#84=EDGE_LOOP('',(#411));
#85=EDGE_LOOP('',(#412,#413,#414,#415,#416,#417,#418,#419));
#86=EDGE_LOOP('',(#420,#421,#422,#423));
#87=EDGE_LOOP('',(#424,#425,#426,#427,#428,#429,#430,#431));
#88=EDGE_LOOP('',(#432,#433,#434,#435,#436,#437));
#89=EDGE_LOOP('',(#438));
#90=EDGE_LOOP('',(#439,#440,#441,#442));
#91=EDGE_LOOP('',(#443,#444,#445,#446));
#92=EDGE_LOOP('',(#447,#448,#449,#450,#451,#452,#453,#454,#455,#456,#457,
#458,#459,#460));
#93=EDGE_LOOP('',(#461,#462,#463,#464));
#94=EDGE_LOOP('',(#465,#466,#467,#468,#469,#470,#471,#472,#473,#474,#475,
#476,#477,#478));
#95=CIRCLE('',#530,2.);
#96=CIRCLE('',#531,2.);
#97=CIRCLE('',#533,1.15);
#98=CIRCLE('',#535,3.);
#99=CIRCLE('',#536,3.);
#100=CIRCLE('',#538,3.);
#101=CIRCLE('',#541,3.);
#102=CIRCLE('',#543,1.15);
#103=CIRCLE('',#557,2.);
#104=CIRCLE('',#558,2.);
#105=CIRCLE('',#560,1.15);
#106=CIRCLE('',#562,3.);
#107=CIRCLE('',#563,3.);
#108=CIRCLE('',#565,3.);
#109=CIRCLE('',#568,3.);
#110=CIRCLE('',#569,1.15);
#111=LINE('',#725,#163);
#112=LINE('',#729,#164);
#113=LINE('',#732,#165);
#114=LINE('',#738,#166);
#115=LINE('',#740,#167);
#116=LINE('',#743,#168);
#117=LINE('',#745,#169);
#118=LINE('',#748,#170);
#119=LINE('',#751,#171);
#120=LINE('',#754,#172);
#121=LINE('',#757,#173);
#122=LINE('',#758,#174);
#123=LINE('',#761,#175);
#124=LINE('',#766,#176);
#125=LINE('',#769,#177);
#126=LINE('',#771,#178);
#127=LINE('',#772,#179);
#128=LINE('',#778,#180);
#129=LINE('',#781,#181);
#130=LINE('',#784,#182);
#131=LINE('',#786,#183);
#132=LINE('',#787,#184);
#133=LINE('',#793,#185);
#134=LINE('',#796,#186);
#135=LINE('',#798,#187);
#136=LINE('',#799,#188);
#137=LINE('',#801,#189);
#138=LINE('',#802,#190);
#139=LINE('',#806,#191);
#140=LINE('',#808,#192);
#141=LINE('',#810,#193);
#142=LINE('',#811,#194);
#143=LINE('',#813,#195);
#144=LINE('',#814,#196);
#145=LINE('',#818,#197);
#146=LINE('',#822,#198);
#147=LINE('',#825,#199);
#148=LINE('',#830,#200);
#149=LINE('',#833,#201);
#150=LINE('',#835,#202);
#151=LINE('',#838,#203);
#152=LINE('',#841,#204);
#153=LINE('',#844,#205);
#154=LINE('',#847,#206);
#155=LINE('',#848,#207);
#156=LINE('',#851,#208);
#157=LINE('',#853,#209);
#158=LINE('',#855,#210);
#159=LINE('',#860,#211);
#160=LINE('',#862,#212);
#161=LINE('',#864,#213);
#162=LINE('',#866,#214);
#163=VECTOR('',#579,10.);
#164=VECTOR('',#582,10.);
#165=VECTOR('',#587,10.);
#166=VECTOR('',#592,10.);
#167=VECTOR('',#593,10.);
#168=VECTOR('',#596,10.);
#169=VECTOR('',#597,10.);
#170=VECTOR('',#600,10.);
#171=VECTOR('',#603,10.);
#172=VECTOR('',#606,10.);
#173=VECTOR('',#609,10.);
#174=VECTOR('',#610,10.);
#175=VECTOR('',#613,10.);
#176=VECTOR('',#620,1.15);
#177=VECTOR('',#623,10.);
#178=VECTOR('',#624,10.);
#179=VECTOR('',#625,10.);
#180=VECTOR('',#630,10.);
#181=VECTOR('',#633,10.);
#182=VECTOR('',#636,10.);
#183=VECTOR('',#637,10.);
#184=VECTOR('',#638,10.);
#185=VECTOR('',#643,10.);
#186=VECTOR('',#646,10.);
#187=VECTOR('',#649,10.);
#188=VECTOR('',#650,10.);
#189=VECTOR('',#653,10.);
#190=VECTOR('',#654,10.);
#191=VECTOR('',#657,10.);
#192=VECTOR('',#658,10.);
#193=VECTOR('',#659,10.);
#194=VECTOR('',#660,10.);
#195=VECTOR('',#663,10.);
#196=VECTOR('',#664,10.);
#197=VECTOR('',#667,10.);
#198=VECTOR('',#670,10.);
#199=VECTOR('',#675,10.);
#200=VECTOR('',#680,10.);
#201=VECTOR('',#683,10.);
#202=VECTOR('',#684,10.);
#203=VECTOR('',#687,10.);
#204=VECTOR('',#690,10.);
#205=VECTOR('',#693,10.);
#206=VECTOR('',#696,10.);
#207=VECTOR('',#697,10.);
#208=VECTOR('',#700,10.);
#209=VECTOR('',#701,10.);
#210=VECTOR('',#702,10.);
#211=VECTOR('',#709,10.);
#212=VECTOR('',#712,1.15);
#213=VECTOR('',#715,10.);
#214=VECTOR('',#718,10.);
#215=VERTEX_POINT('',#723);
#216=VERTEX_POINT('',#724);
#217=VERTEX_POINT('',#726);
#218=VERTEX_POINT('',#728);
#219=VERTEX_POINT('',#733);
#220=VERTEX_POINT('',#736);
#221=VERTEX_POINT('',#737);
#222=VERTEX_POINT('',#739);
#223=VERTEX_POINT('',#741);
#224=VERTEX_POINT('',#744);
#225=VERTEX_POINT('',#746);
#226=VERTEX_POINT('',#750);
#227=VERTEX_POINT('',#752);
#228=VERTEX_POINT('',#756);
#229=VERTEX_POINT('',#760);
#230=VERTEX_POINT('',#764);
#231=VERTEX_POINT('',#768);
#232=VERTEX_POINT('',#770);
#233=VERTEX_POINT('',#774);
#234=VERTEX_POINT('',#775);
#235=VERTEX_POINT('',#777);
#236=VERTEX_POINT('',#779);
#237=VERTEX_POINT('',#783);
#238=VERTEX_POINT('',#785);
#239=VERTEX_POINT('',#789);
#240=VERTEX_POINT('',#790);
#241=VERTEX_POINT('',#792);
#242=VERTEX_POINT('',#794);
#243=VERTEX_POINT('',#804);
#244=VERTEX_POINT('',#805);
#245=VERTEX_POINT('',#807);
#246=VERTEX_POINT('',#809);
#247=VERTEX_POINT('',#816);
#248=VERTEX_POINT('',#817);
#249=VERTEX_POINT('',#819);
#250=VERTEX_POINT('',#821);
#251=VERTEX_POINT('',#826);
#252=VERTEX_POINT('',#829);
#253=VERTEX_POINT('',#831);
#254=VERTEX_POINT('',#834);
#255=VERTEX_POINT('',#836);
#256=VERTEX_POINT('',#840);
#257=VERTEX_POINT('',#842);
#258=VERTEX_POINT('',#846);
#259=VERTEX_POINT('',#850);
#260=VERTEX_POINT('',#852);
#261=VERTEX_POINT('',#854);
#262=VERTEX_POINT('',#857);
#263=EDGE_CURVE('',#215,#216,#111,.T.);
#264=EDGE_CURVE('',#215,#217,#95,.T.);
#265=EDGE_CURVE('',#218,#217,#112,.T.);
#266=EDGE_CURVE('',#216,#218,#96,.T.);
#267=EDGE_CURVE('',#217,#215,#113,.T.);
#268=EDGE_CURVE('',#219,#219,#97,.T.);
#269=EDGE_CURVE('',#220,#221,#114,.T.);
#270=EDGE_CURVE('',#221,#222,#115,.T.);
#271=EDGE_CURVE('',#223,#222,#98,.T.);
#272=EDGE_CURVE('',#223,#216,#116,.T.);
#273=EDGE_CURVE('',#218,#224,#117,.T.);
#274=EDGE_CURVE('',#225,#224,#99,.T.);
#275=EDGE_CURVE('',#225,#220,#118,.T.);
#276=EDGE_CURVE('',#224,#226,#119,.T.);
#277=EDGE_CURVE('',#226,#227,#100,.T.);
#278=EDGE_CURVE('',#227,#225,#120,.T.);
#279=EDGE_CURVE('',#228,#223,#121,.T.);
#280=EDGE_CURVE('',#228,#226,#122,.T.);
#281=EDGE_CURVE('',#222,#229,#123,.T.);
#282=EDGE_CURVE('',#229,#228,#101,.T.);
#283=EDGE_CURVE('',#230,#230,#102,.T.);
#284=EDGE_CURVE('',#230,#219,#124,.T.);
#285=EDGE_CURVE('',#231,#229,#125,.T.);
#286=EDGE_CURVE('',#231,#232,#126,.T.);
#287=EDGE_CURVE('',#227,#232,#127,.T.);
#288=EDGE_CURVE('',#233,#234,#15,.T.);
#289=EDGE_CURVE('',#234,#235,#128,.T.);
#290=EDGE_CURVE('',#235,#236,#16,.T.);
#291=EDGE_CURVE('',#236,#233,#129,.T.);
#292=EDGE_CURVE('',#237,#236,#130,.T.);
#293=EDGE_CURVE('',#238,#237,#131,.T.);
#294=EDGE_CURVE('',#238,#233,#132,.T.);
#295=EDGE_CURVE('',#239,#240,#17,.T.);
#296=EDGE_CURVE('',#240,#241,#133,.T.);
#297=EDGE_CURVE('',#241,#242,#18,.T.);
#298=EDGE_CURVE('',#242,#239,#134,.T.);
#299=EDGE_CURVE('',#221,#242,#135,.T.);
#300=EDGE_CURVE('',#220,#239,#136,.T.);
#301=EDGE_CURVE('',#234,#241,#137,.T.);
#302=EDGE_CURVE('',#240,#235,#138,.T.);
#303=EDGE_CURVE('',#243,#244,#139,.T.);
#304=EDGE_CURVE('',#244,#245,#140,.T.);
#305=EDGE_CURVE('',#245,#246,#141,.T.);
#306=EDGE_CURVE('',#246,#243,#142,.T.);
#307=EDGE_CURVE('',#231,#246,#143,.T.);
#308=EDGE_CURVE('',#232,#245,#144,.T.);
#309=EDGE_CURVE('',#247,#248,#145,.T.);
#310=EDGE_CURVE('',#247,#249,#103,.T.);
#311=EDGE_CURVE('',#250,#249,#146,.T.);
#312=EDGE_CURVE('',#248,#250,#104,.T.);
#313=EDGE_CURVE('',#249,#247,#147,.T.);
#314=EDGE_CURVE('',#251,#251,#105,.T.);
#315=EDGE_CURVE('',#237,#252,#148,.T.);
#316=EDGE_CURVE('',#253,#252,#106,.T.);
#317=EDGE_CURVE('',#253,#248,#149,.T.);
#318=EDGE_CURVE('',#250,#254,#150,.T.);
#319=EDGE_CURVE('',#255,#254,#107,.T.);
#320=EDGE_CURVE('',#255,#238,#151,.T.);
#321=EDGE_CURVE('',#252,#256,#152,.T.);
#322=EDGE_CURVE('',#256,#257,#108,.T.);
#323=EDGE_CURVE('',#257,#253,#153,.T.);
#324=EDGE_CURVE('',#257,#258,#154,.T.);
#325=EDGE_CURVE('',#254,#258,#155,.T.);
#326=EDGE_CURVE('',#259,#256,#156,.T.);
#327=EDGE_CURVE('',#260,#259,#157,.T.);
#328=EDGE_CURVE('',#261,#260,#158,.T.);
#329=EDGE_CURVE('',#258,#261,#109,.T.);
#330=EDGE_CURVE('',#262,#262,#110,.T.);
#331=EDGE_CURVE('',#261,#255,#159,.T.);
#332=EDGE_CURVE('',#262,#251,#160,.T.);
#333=EDGE_CURVE('',#259,#244,#161,.T.);
#334=EDGE_CURVE('',#260,#243,#162,.T.);
#335=ORIENTED_EDGE('',*,*,#263,.F.);
#336=ORIENTED_EDGE('',*,*,#264,.T.);
#337=ORIENTED_EDGE('',*,*,#265,.F.);
#338=ORIENTED_EDGE('',*,*,#266,.F.);
#339=ORIENTED_EDGE('',*,*,#267,.F.);
#340=ORIENTED_EDGE('',*,*,#264,.F.);
#341=ORIENTED_EDGE('',*,*,#268,.F.);
#342=ORIENTED_EDGE('',*,*,#269,.T.);
#343=ORIENTED_EDGE('',*,*,#270,.T.);
#344=ORIENTED_EDGE('',*,*,#271,.F.);
#345=ORIENTED_EDGE('',*,*,#272,.T.);
#346=ORIENTED_EDGE('',*,*,#266,.T.);
#347=ORIENTED_EDGE('',*,*,#273,.T.);
#348=ORIENTED_EDGE('',*,*,#274,.F.);
#349=ORIENTED_EDGE('',*,*,#275,.T.);
#350=ORIENTED_EDGE('',*,*,#274,.T.);
#351=ORIENTED_EDGE('',*,*,#276,.T.);
#352=ORIENTED_EDGE('',*,*,#277,.T.);
#353=ORIENTED_EDGE('',*,*,#278,.T.);
#354=ORIENTED_EDGE('',*,*,#263,.T.);
#355=ORIENTED_EDGE('',*,*,#272,.F.);
#356=ORIENTED_EDGE('',*,*,#279,.F.);
#357=ORIENTED_EDGE('',*,*,#280,.T.);
#358=ORIENTED_EDGE('',*,*,#276,.F.);
#359=ORIENTED_EDGE('',*,*,#273,.F.);
#360=ORIENTED_EDGE('',*,*,#265,.T.);
#361=ORIENTED_EDGE('',*,*,#267,.T.);
#362=ORIENTED_EDGE('',*,*,#271,.T.);
#363=ORIENTED_EDGE('',*,*,#281,.T.);
#364=ORIENTED_EDGE('',*,*,#282,.T.);
#365=ORIENTED_EDGE('',*,*,#279,.T.);
#366=ORIENTED_EDGE('',*,*,#283,.T.);
#367=ORIENTED_EDGE('',*,*,#284,.T.);
#368=ORIENTED_EDGE('',*,*,#268,.T.);
#369=ORIENTED_EDGE('',*,*,#284,.F.);
#370=ORIENTED_EDGE('',*,*,#277,.F.);
#371=ORIENTED_EDGE('',*,*,#280,.F.);
#372=ORIENTED_EDGE('',*,*,#282,.F.);
#373=ORIENTED_EDGE('',*,*,#285,.F.);
#374=ORIENTED_EDGE('',*,*,#286,.T.);
#375=ORIENTED_EDGE('',*,*,#287,.F.);
#376=ORIENTED_EDGE('',*,*,#283,.F.);
#377=ORIENTED_EDGE('',*,*,#288,.T.);
#378=ORIENTED_EDGE('',*,*,#289,.T.);
#379=ORIENTED_EDGE('',*,*,#290,.T.);
#380=ORIENTED_EDGE('',*,*,#291,.T.);
#381=ORIENTED_EDGE('',*,*,#291,.F.);
#382=ORIENTED_EDGE('',*,*,#292,.F.);
#383=ORIENTED_EDGE('',*,*,#293,.F.);
#384=ORIENTED_EDGE('',*,*,#294,.T.);
#385=ORIENTED_EDGE('',*,*,#295,.T.);
#386=ORIENTED_EDGE('',*,*,#296,.T.);
#387=ORIENTED_EDGE('',*,*,#297,.T.);
#388=ORIENTED_EDGE('',*,*,#298,.T.);
#389=ORIENTED_EDGE('',*,*,#298,.F.);
#390=ORIENTED_EDGE('',*,*,#299,.F.);
#391=ORIENTED_EDGE('',*,*,#269,.F.);
#392=ORIENTED_EDGE('',*,*,#300,.T.);
#393=ORIENTED_EDGE('',*,*,#289,.F.);
#394=ORIENTED_EDGE('',*,*,#301,.T.);
#395=ORIENTED_EDGE('',*,*,#296,.F.);
#396=ORIENTED_EDGE('',*,*,#302,.T.);
#397=ORIENTED_EDGE('',*,*,#303,.T.);
#398=ORIENTED_EDGE('',*,*,#304,.T.);
#399=ORIENTED_EDGE('',*,*,#305,.T.);
#400=ORIENTED_EDGE('',*,*,#306,.T.);
#401=ORIENTED_EDGE('',*,*,#307,.T.);
#402=ORIENTED_EDGE('',*,*,#305,.F.);
#403=ORIENTED_EDGE('',*,*,#308,.F.);
#404=ORIENTED_EDGE('',*,*,#286,.F.);
#405=ORIENTED_EDGE('',*,*,#309,.F.);
#406=ORIENTED_EDGE('',*,*,#310,.T.);
#407=ORIENTED_EDGE('',*,*,#311,.F.);
#408=ORIENTED_EDGE('',*,*,#312,.F.);
#409=ORIENTED_EDGE('',*,*,#313,.F.);
#410=ORIENTED_EDGE('',*,*,#310,.F.);
#411=ORIENTED_EDGE('',*,*,#314,.F.);
#412=ORIENTED_EDGE('',*,*,#293,.T.);
#413=ORIENTED_EDGE('',*,*,#315,.T.);
#414=ORIENTED_EDGE('',*,*,#316,.F.);
#415=ORIENTED_EDGE('',*,*,#317,.T.);
#416=ORIENTED_EDGE('',*,*,#312,.T.);
#417=ORIENTED_EDGE('',*,*,#318,.T.);
#418=ORIENTED_EDGE('',*,*,#319,.F.);
#419=ORIENTED_EDGE('',*,*,#320,.T.);
#420=ORIENTED_EDGE('',*,*,#316,.T.);
#421=ORIENTED_EDGE('',*,*,#321,.T.);
#422=ORIENTED_EDGE('',*,*,#322,.T.);
#423=ORIENTED_EDGE('',*,*,#323,.T.);
#424=ORIENTED_EDGE('',*,*,#309,.T.);
#425=ORIENTED_EDGE('',*,*,#317,.F.);
#426=ORIENTED_EDGE('',*,*,#323,.F.);
#427=ORIENTED_EDGE('',*,*,#324,.T.);
#428=ORIENTED_EDGE('',*,*,#325,.F.);
#429=ORIENTED_EDGE('',*,*,#318,.F.);
#430=ORIENTED_EDGE('',*,*,#311,.T.);
#431=ORIENTED_EDGE('',*,*,#313,.T.);
#432=ORIENTED_EDGE('',*,*,#322,.F.);
#433=ORIENTED_EDGE('',*,*,#326,.F.);
#434=ORIENTED_EDGE('',*,*,#327,.F.);
#435=ORIENTED_EDGE('',*,*,#328,.F.);
#436=ORIENTED_EDGE('',*,*,#329,.F.);
#437=ORIENTED_EDGE('',*,*,#324,.F.);
#438=ORIENTED_EDGE('',*,*,#330,.F.);
#439=ORIENTED_EDGE('',*,*,#319,.T.);
#440=ORIENTED_EDGE('',*,*,#325,.T.);
#441=ORIENTED_EDGE('',*,*,#329,.T.);
#442=ORIENTED_EDGE('',*,*,#331,.T.);
#443=ORIENTED_EDGE('',*,*,#330,.T.);
#444=ORIENTED_EDGE('',*,*,#332,.T.);
#445=ORIENTED_EDGE('',*,*,#314,.T.);
#446=ORIENTED_EDGE('',*,*,#332,.F.);
#447=ORIENTED_EDGE('',*,*,#321,.F.);
#448=ORIENTED_EDGE('',*,*,#315,.F.);
#449=ORIENTED_EDGE('',*,*,#292,.T.);
#450=ORIENTED_EDGE('',*,*,#290,.F.);
#451=ORIENTED_EDGE('',*,*,#302,.F.);
#452=ORIENTED_EDGE('',*,*,#295,.F.);
#453=ORIENTED_EDGE('',*,*,#300,.F.);
#454=ORIENTED_EDGE('',*,*,#275,.F.);
#455=ORIENTED_EDGE('',*,*,#278,.F.);
#456=ORIENTED_EDGE('',*,*,#287,.T.);
#457=ORIENTED_EDGE('',*,*,#308,.T.);
#458=ORIENTED_EDGE('',*,*,#304,.F.);
#459=ORIENTED_EDGE('',*,*,#333,.F.);
#460=ORIENTED_EDGE('',*,*,#326,.T.);
#461=ORIENTED_EDGE('',*,*,#327,.T.);
#462=ORIENTED_EDGE('',*,*,#333,.T.);
#463=ORIENTED_EDGE('',*,*,#303,.F.);
#464=ORIENTED_EDGE('',*,*,#334,.F.);
#465=ORIENTED_EDGE('',*,*,#331,.F.);
#466=ORIENTED_EDGE('',*,*,#328,.T.);
#467=ORIENTED_EDGE('',*,*,#334,.T.);
#468=ORIENTED_EDGE('',*,*,#306,.F.);
#469=ORIENTED_EDGE('',*,*,#307,.F.);
#470=ORIENTED_EDGE('',*,*,#285,.T.);
#471=ORIENTED_EDGE('',*,*,#281,.F.);
#472=ORIENTED_EDGE('',*,*,#270,.F.);
#473=ORIENTED_EDGE('',*,*,#299,.T.);
#474=ORIENTED_EDGE('',*,*,#297,.F.);
#475=ORIENTED_EDGE('',*,*,#301,.F.);
#476=ORIENTED_EDGE('',*,*,#288,.F.);
#477=ORIENTED_EDGE('',*,*,#294,.F.);
#478=ORIENTED_EDGE('',*,*,#320,.F.);
#479=CYLINDRICAL_SURFACE('',#529,2.);
#480=CYLINDRICAL_SURFACE('',#537,3.);
#481=CYLINDRICAL_SURFACE('',#540,3.);
#482=CYLINDRICAL_SURFACE('',#542,1.15);
#483=CYLINDRICAL_SURFACE('',#545,2.);
#484=CYLINDRICAL_SURFACE('',#549,2.);
#485=CYLINDRICAL_SURFACE('',#556,2.);
#486=CYLINDRICAL_SURFACE('',#564,3.);
#487=CYLINDRICAL_SURFACE('',#570,3.);
#488=CYLINDRICAL_SURFACE('',#571,1.15);
#489=ADVANCED_FACE('',(#39),#479,.F.);
#490=ADVANCED_FACE('',(#40,#19),#23,.T.);
#491=ADVANCED_FACE('',(#41),#24,.T.);
#492=ADVANCED_FACE('',(#42),#480,.T.);
#493=ADVANCED_FACE('',(#43),#25,.T.);
#494=ADVANCED_FACE('',(#44),#481,.T.);
#495=ADVANCED_FACE('',(#45),#482,.F.);
#496=ADVANCED_FACE('',(#46,#20),#26,.F.);
#497=ADVANCED_FACE('',(#47),#483,.T.);
#498=ADVANCED_FACE('',(#48),#27,.T.);
#499=ADVANCED_FACE('',(#49),#484,.T.);
#500=ADVANCED_FACE('',(#50),#28,.T.);
#501=ADVANCED_FACE('',(#51),#29,.T.);
#502=ADVANCED_FACE('',(#52),#30,.F.);
#503=ADVANCED_FACE('',(#53),#31,.T.);
#504=ADVANCED_FACE('',(#54),#485,.F.);
#505=ADVANCED_FACE('',(#55,#21),#32,.T.);
#506=ADVANCED_FACE('',(#56),#33,.T.);
#507=ADVANCED_FACE('',(#57),#486,.T.);
#508=ADVANCED_FACE('',(#58),#34,.T.);
#509=ADVANCED_FACE('',(#59,#22),#35,.F.);
#510=ADVANCED_FACE('',(#60),#487,.T.);
#511=ADVANCED_FACE('',(#61),#488,.F.);
#512=ADVANCED_FACE('',(#62),#36,.T.);
#513=ADVANCED_FACE('',(#63),#37,.T.);
#514=ADVANCED_FACE('',(#64),#38,.T.);
#515=CLOSED_SHELL('',(#489,#490,#491,#492,#493,#494,#495,#496,#497,#498,
#499,#500,#501,#502,#503,#504,#505,#506,#507,#508,#509,#510,#511,#512,#513,
#514));
#516=DERIVED_UNIT_ELEMENT(#518,1.);
#517=DERIVED_UNIT_ELEMENT(#873,-3.);
#518=(
MASS_UNIT()
NAMED_UNIT(*)
SI_UNIT(.KILO.,.GRAM.)
);
#519=DERIVED_UNIT((#516,#517));
#520=MEASURE_REPRESENTATION_ITEM('density measure',
POSITIVE_RATIO_MEASURE(7850.),#519);
#521=PROPERTY_DEFINITION_REPRESENTATION(#526,#523);
#522=PROPERTY_DEFINITION_REPRESENTATION(#527,#524);
#523=REPRESENTATION('material name',(#525),#870);
#524=REPRESENTATION('density',(#520),#870);
#525=DESCRIPTIVE_REPRESENTATION_ITEM('\X2\92FC\X0\','\X2\92FC\X0\');
#526=PROPERTY_DEFINITION('material property','material name',#880);
#527=PROPERTY_DEFINITION('material property','density of part',#880);
#528=AXIS2_PLACEMENT_3D('',#721,#575,#576);
#529=AXIS2_PLACEMENT_3D('',#722,#577,#578);
#530=AXIS2_PLACEMENT_3D('',#727,#580,#581);
#531=AXIS2_PLACEMENT_3D('',#730,#583,#584);
#532=AXIS2_PLACEMENT_3D('',#731,#585,#586);
#533=AXIS2_PLACEMENT_3D('',#734,#588,#589);
#534=AXIS2_PLACEMENT_3D('',#735,#590,#591);
#535=AXIS2_PLACEMENT_3D('',#742,#594,#595);
#536=AXIS2_PLACEMENT_3D('',#747,#598,#599);
#537=AXIS2_PLACEMENT_3D('',#749,#601,#602);
#538=AXIS2_PLACEMENT_3D('',#753,#604,#605);
#539=AXIS2_PLACEMENT_3D('',#755,#607,#608);
#540=AXIS2_PLACEMENT_3D('',#759,#611,#612);
#541=AXIS2_PLACEMENT_3D('',#762,#614,#615);
#542=AXIS2_PLACEMENT_3D('',#763,#616,#617);
#543=AXIS2_PLACEMENT_3D('',#765,#618,#619);
#544=AXIS2_PLACEMENT_3D('',#767,#621,#622);
#545=AXIS2_PLACEMENT_3D('',#773,#626,#627);
#546=AXIS2_PLACEMENT_3D('',#776,#628,#629);
#547=AXIS2_PLACEMENT_3D('',#780,#631,#632);
#548=AXIS2_PLACEMENT_3D('',#782,#634,#635);
#549=AXIS2_PLACEMENT_3D('',#788,#639,#640);
#550=AXIS2_PLACEMENT_3D('',#791,#641,#642);
#551=AXIS2_PLACEMENT_3D('',#795,#644,#645);
#552=AXIS2_PLACEMENT_3D('',#797,#647,#648);
#553=AXIS2_PLACEMENT_3D('',#800,#651,#652);
#554=AXIS2_PLACEMENT_3D('',#803,#655,#656);
#555=AXIS2_PLACEMENT_3D('',#812,#661,#662);
#556=AXIS2_PLACEMENT_3D('',#815,#665,#666);
#557=AXIS2_PLACEMENT_3D('',#820,#668,#669);
#558=AXIS2_PLACEMENT_3D('',#823,#671,#672);
#559=AXIS2_PLACEMENT_3D('',#824,#673,#674);
#560=AXIS2_PLACEMENT_3D('',#827,#676,#677);
#561=AXIS2_PLACEMENT_3D('',#828,#678,#679);
#562=AXIS2_PLACEMENT_3D('',#832,#681,#682);
#563=AXIS2_PLACEMENT_3D('',#837,#685,#686);
#564=AXIS2_PLACEMENT_3D('',#839,#688,#689);
#565=AXIS2_PLACEMENT_3D('',#843,#691,#692);
#566=AXIS2_PLACEMENT_3D('',#845,#694,#695);
#567=AXIS2_PLACEMENT_3D('',#849,#698,#699);
#568=AXIS2_PLACEMENT_3D('',#856,#703,#704);
#569=AXIS2_PLACEMENT_3D('',#858,#705,#706);
#570=AXIS2_PLACEMENT_3D('',#859,#707,#708);
#571=AXIS2_PLACEMENT_3D('',#861,#710,#711);
#572=AXIS2_PLACEMENT_3D('',#863,#713,#714);
#573=AXIS2_PLACEMENT_3D('',#865,#716,#717);
#574=AXIS2_PLACEMENT_3D('',#867,#719,#720);
#575=DIRECTION('axis',(0.,0.,1.));
#576=DIRECTION('refdir',(1.,0.,0.));
#577=DIRECTION('center_axis',(0.,-0.967449594266474,0.253063791470915));
#578=DIRECTION('ref_axis',(0.95679559179018,-0.0735811839514538,-0.281297004781746));
#579=DIRECTION('',(0.,0.967449594266474,-0.253063791470915));
#580=DIRECTION('center_axis',(0.,-0.967449594266474,0.253063791470916));
#581=DIRECTION('ref_axis',(0.,0.253063791470916,0.967449594266474));
#582=DIRECTION('',(0.,-0.967449594266474,0.253063791470915));
#583=DIRECTION('center_axis',(-1.37739970787205E-18,-0.967449594266474,
0.253063791470915));
#584=DIRECTION('ref_axis',(-4.81482486096809E-35,0.253063791470915,0.967449594266474));
#585=DIRECTION('center_axis',(0.,0.967449594266474,-0.253063791470916));
#586=DIRECTION('ref_axis',(0.,0.253063791470916,0.967449594266474));
#587=DIRECTION('',(-0.290761406536147,-0.242130320121081,-0.925651507073361));
#588=DIRECTION('center_axis',(0.,0.967449594266474,-0.253063791470916));
#589=DIRECTION('ref_axis',(0.,0.253063791470916,0.967449594266474));
#590=DIRECTION('center_axis',(1.37739970787205E-18,0.967449594266474,-0.253063791470915));
#591=DIRECTION('ref_axis',(-4.81482486096809E-35,0.253063791470915,0.967449594266474));
#592=DIRECTION('',(-0.1762176327923,-0.249103654645879,-0.952310199008256));
#593=DIRECTION('',(-0.999478500828946,-0.00817175224624517,-0.0312401799922635));
#594=DIRECTION('center_axis',(-1.37739970787205E-18,-0.967449594266474,
0.253063791470915));
#595=DIRECTION('ref_axis',(-0.79363518886994,-0.15396247732211,-0.588590471010373));
#596=DIRECTION('',(0.290761406536147,0.242130320121081,0.925651507073361));
#597=DIRECTION('',(0.290761406536147,0.242130320121081,0.925651507073361));
#598=DIRECTION('center_axis',(-1.37739970787205E-18,-0.967449594266474,
0.253063791470915));
#599=DIRECTION('ref_axis',(-0.626728361082906,0.19719687414959,0.753873301185262));
#600=DIRECTION('',(0.996887326186759,0.019951410153601,0.0762731939877843));
#601=DIRECTION('center_axis',(0.,0.967449594266474,-0.253063791470916));
#602=DIRECTION('ref_axis',(-0.626728361082906,0.19719687414959,0.753873301185262));
#603=DIRECTION('',(1.32782061983164E-17,-0.967449594266474,0.253063791470916));
#604=DIRECTION('center_axis',(1.37739970787205E-18,0.967449594266474,-0.253063791470915));
#605=DIRECTION('ref_axis',(-0.626728361082906,0.19719687414959,0.753873301185262));
#606=DIRECTION('',(-2.18823431806657E-18,0.967449594266474,-0.253063791470916));
#607=DIRECTION('center_axis',(-0.95679559179018,0.0735811839514537,0.281297004781745));
#608=DIRECTION('ref_axis',(0.290761406536147,0.242130320121081,0.925651507073361));
#609=DIRECTION('',(1.32782061983164E-17,0.967449594266474,-0.253063791470915));
#610=DIRECTION('',(0.290761406536147,0.242130320121081,0.925651507073361));
#611=DIRECTION('center_axis',(0.,0.967449594266474,-0.253063791470915));
#612=DIRECTION('ref_axis',(-0.79363518886994,-0.15396247732211,-0.588590471010373));
#613=DIRECTION('',(-8.96262899028408E-19,-0.967449594266474,0.253063791470915));
#614=DIRECTION('center_axis',(1.37739970787205E-18,0.967449594266474,-0.253063791470915));
#615=DIRECTION('ref_axis',(-0.79363518886994,-0.15396247732211,-0.588590471010373));
#616=DIRECTION('center_axis',(0.,0.967449594266474,-0.253063791470916));
#617=DIRECTION('ref_axis',(0.,0.253063791470916,0.967449594266474));
#618=DIRECTION('center_axis',(0.,-0.967449594266474,0.253063791470915));
#619=DIRECTION('ref_axis',(0.,0.253063791470915,0.967449594266474));
#620=DIRECTION('',(0.,0.967449594266474,-0.253063791470916));
#621=DIRECTION('center_axis',(1.37739970787205E-18,0.967449594266474,-0.253063791470915));
#622=DIRECTION('ref_axis',(-4.81482486096809E-35,0.253063791470915,0.967449594266474));
#623=DIRECTION('',(-0.999478500828946,-0.00817175224624517,-0.0312401799922635));
#624=DIRECTION('',(0.176217632792299,0.249103654645879,0.952310199008257));
#625=DIRECTION('',(0.996887326186759,0.019951410153601,0.0762731939877843));
#626=DIRECTION('center_axis',(0.0080818028137121,-0.253055526837279,-0.967417999005801));
#627=DIRECTION('ref_axis',(0.707083688279994,0.685536351597131,-0.173414441172746));
#628=DIRECTION('center_axis',(-0.0322912740647227,0.25293181891344,0.966945070105027));
#629=DIRECTION('ref_axis',(0.999478500828946,0.00817175224610261,0.0312401799923008));
#630=DIRECTION('',(-0.00808180281371209,0.253055526837279,0.967417999005801));
#631=DIRECTION('center_axis',(0.0788394500755516,-0.252276086434124,-0.96443823924877));
#632=DIRECTION('ref_axis',(0.996887326186759,0.0199514101535849,0.0762731939877885));
#633=DIRECTION('',(0.00808180281371209,-0.253055526837279,-0.967417999005801));
#634=DIRECTION('center_axis',(0.999967341698358,0.00204521166195829,0.00781873685306741));
#635=DIRECTION('ref_axis',(0.00808180281371209,-0.253055526837279,-0.967417999005801));
#636=DIRECTION('',(0.,0.967449594266474,-0.253063791470915));
#637=DIRECTION('',(-0.00808180281371209,0.253055526837278,0.967417999005801));
#638=DIRECTION('',(0.,0.967449594266474,-0.253063791470915));
#639=DIRECTION('center_axis',(0.1762176327923,0.249103654645879,0.952310199008256));
#640=DIRECTION('ref_axis',(-0.696041430481361,0.715623102105372,-0.0583943729013821));
#641=DIRECTION('center_axis',(0.0788394500755516,-0.252276086434124,-0.96443823924877));
#642=DIRECTION('ref_axis',(-0.996887326186758,-0.0199514101536042,-0.0762731939877834));
#643=DIRECTION('',(-0.1762176327923,-0.249103654645879,-0.952310199008256));
#644=DIRECTION('center_axis',(-0.0322912740647227,0.25293181891344,0.966945070105027));
#645=DIRECTION('ref_axis',(-0.999478500828946,-0.00817175224624652,-0.0312401799922631));
#646=DIRECTION('',(0.1762176327923,0.249103654645879,0.952310199008256));
#647=DIRECTION('center_axis',(-0.98435123096031,0.0445943022784489,0.170481677347509));
#648=DIRECTION('ref_axis',(0.1762176327923,0.249103654645879,0.952310199008256));
#649=DIRECTION('',(0.,0.967449594266474,-0.253063791470915));
#650=DIRECTION('',(0.,0.967449594266474,-0.253063791470915));
#651=DIRECTION('center_axis',(0.,0.967449594266474,-0.253063791470916));
#652=DIRECTION('ref_axis',(0.,0.253063791470916,0.967449594266474));
#653=DIRECTION('',(-0.999478500828946,-0.00817175224624517,-0.0312401799922635));
#654=DIRECTION('',(0.996887326186759,0.019951410153601,0.0762731939877843));
#655=DIRECTION('center_axis',(0.,0.967449594266474,-0.253063791470916));
#656=DIRECTION('ref_axis',(0.,0.253063791470916,0.967449594266474));
#657=DIRECTION('',(-0.00808180281371211,0.253055526837279,0.967417999005801));
#658=DIRECTION('',(-0.996887326186759,-0.019951410153601,-0.0762731939877843));
#659=DIRECTION('',(-0.176217632792299,-0.249103654645879,-0.952310199008257));
#660=DIRECTION('',(0.999478500828946,0.00817175224624517,0.0312401799922635));
#661=DIRECTION('center_axis',(0.984351230960311,-0.0445943022784487,-0.170481677347508));
#662=DIRECTION('ref_axis',(-0.176217632792299,-0.249103654645879,-0.952310199008257));
#663=DIRECTION('',(0.,0.967449594266474,-0.253063791470915));
#664=DIRECTION('',(0.,0.967449594266474,-0.253063791470915));
#665=DIRECTION('center_axis',(0.,-0.967449594266474,0.253063791470915));
#666=DIRECTION('ref_axis',(-0.999967341698358,-0.00204521166195807,-0.00781873685306658));
#667=DIRECTION('',(0.,0.967449594266474,-0.253063791470915));
#668=DIRECTION('center_axis',(0.,-0.967449594266474,0.253063791470916));
#669=DIRECTION('ref_axis',(0.,0.253063791470916,0.967449594266474));
#670=DIRECTION('',(0.,-0.967449594266474,0.253063791470915));
#671=DIRECTION('center_axis',(6.08412880357432E-18,-0.967449594266474,0.253063791470915));
#672=DIRECTION('ref_axis',(0.,0.253063791470915,0.967449594266474));
#673=DIRECTION('center_axis',(0.,0.967449594266474,-0.253063791470916));
#674=DIRECTION('ref_axis',(0.,0.253063791470916,0.967449594266474));
#675=DIRECTION('',(-0.00808180281371192,0.253055526837279,0.967417999005801));
#676=DIRECTION('center_axis',(0.,0.967449594266474,-0.253063791470916));
#677=DIRECTION('ref_axis',(0.,0.253063791470916,0.967449594266474));
#678=DIRECTION('center_axis',(-6.08412880357432E-18,0.967449594266474,-0.253063791470915));
#679=DIRECTION('ref_axis',(0.,0.253063791470915,0.967449594266474));
#680=DIRECTION('',(0.996887326186759,0.019951410153601,0.0762731939877843));
#681=DIRECTION('center_axis',(6.08412880357432E-18,-0.967449594266474,0.253063791470915));
#682=DIRECTION('ref_axis',(0.675687234557993,0.18655569564504,0.713192634200443));
#683=DIRECTION('',(0.00808180281371192,-0.253055526837279,-0.967417999005801));
#684=DIRECTION('',(0.00808180281371192,-0.253055526837279,-0.967417999005801));
#685=DIRECTION('center_axis',(6.08412880357432E-18,-0.967449594266474,0.253063791470915));
#686=DIRECTION('ref_axis',(0.721237758179229,-0.175294147617733,-0.670140327086478));
#687=DIRECTION('',(-0.999478500828946,-0.00817175224624517,-0.0312401799922635));
#688=DIRECTION('center_axis',(-4.34771303932764E-19,0.967449594266474,-0.253063791470915));
#689=DIRECTION('ref_axis',(0.675687234557993,0.18655569564504,0.713192634200443));
#690=DIRECTION('',(-1.75346301413381E-18,-0.967449594266474,0.253063791470915));
#691=DIRECTION('center_axis',(-6.08412880357432E-18,0.967449594266474,-0.253063791470915));
#692=DIRECTION('ref_axis',(0.675687234557993,0.18655569564504,0.713192634200443));
#693=DIRECTION('',(-4.34771303932764E-19,0.967449594266474,-0.253063791470915));
#694=DIRECTION('center_axis',(0.999967341698358,0.00204521166195825,0.00781873685306724));
#695=DIRECTION('ref_axis',(0.00808180281371191,-0.253055526837279,-0.967417999005801));
#696=DIRECTION('',(0.00808180281371192,-0.253055526837279,-0.967417999005801));
#697=DIRECTION('',(0.,-0.967449594266474,0.253063791470916));
#698=DIRECTION('center_axis',(-6.08412880357432E-18,0.967449594266474,-0.253063791470915));
#699=DIRECTION('ref_axis',(0.,0.253063791470915,0.967449594266474));
#700=DIRECTION('',(0.996887326186759,0.019951410153601,0.0762731939877843));
#701=DIRECTION('',(-0.00808180281371211,0.253055526837279,0.967417999005801));
#702=DIRECTION('',(-0.999478500828946,-0.00817175224624517,-0.0312401799922635));
#703=DIRECTION('center_axis',(-6.08412880357432E-18,0.967449594266474,-0.253063791470915));
#704=DIRECTION('ref_axis',(0.721237758179229,-0.175294147617733,-0.670140327086478));
#705=DIRECTION('center_axis',(0.,-0.967449594266474,0.253063791470915));
#706=DIRECTION('ref_axis',(0.,0.253063791470915,0.967449594266474));
#707=DIRECTION('center_axis',(0.,0.967449594266474,-0.253063791470916));
#708=DIRECTION('ref_axis',(0.721237758179229,-0.175294147617734,-0.670140327086478));
#709=DIRECTION('',(-8.96262899028408E-19,0.967449594266474,-0.253063791470916));
#710=DIRECTION('center_axis',(0.,0.967449594266474,-0.253063791470916));
#711=DIRECTION('ref_axis',(0.,0.253063791470916,0.967449594266474));
#712=DIRECTION('',(0.,0.967449594266474,-0.253063791470916));
#713=DIRECTION('center_axis',(-0.0788394500755516,0.252276086434124,0.96443823924877));
#714=DIRECTION('ref_axis',(0.996887326186758,0.019951410153601,0.0762731939877843));
#715=DIRECTION('',(0.,0.967449594266474,-0.253063791470915));
#716=DIRECTION('center_axis',(-0.999967341698358,-0.0020452116619583,-0.00781873685306743));
#717=DIRECTION('ref_axis',(-0.00808180281371211,0.253055526837279,0.967417999005801));
#718=DIRECTION('',(0.,0.967449594266474,-0.253063791470915));
#719=DIRECTION('center_axis',(0.0322912740647227,-0.25293181891344,-0.966945070105027));
#720=DIRECTION('ref_axis',(-0.999478500828946,-0.00817175224624517,-0.0312401799922635));
#721=CARTESIAN_POINT('',(0.,0.,0.));
#722=CARTESIAN_POINT('Origin',(-22.2033831604686,-0.0808558862567932,-61.1841472129865));
#723=CARTESIAN_POINT('',(-24.1790951432455,-4.99674204579153,-60.2194579222786));
#724=CARTESIAN_POINT('',(-24.1790951432455,-4.02929245152506,-60.4725217137495));
#725=CARTESIAN_POINT('',(-24.1790951432455,-0.159494074459164,-61.4847768796332));
#726=CARTESIAN_POINT('',(-23.6721353081364,-4.57457340716156,-58.605529371771));
#727=CARTESIAN_POINT('Origin',(-22.2033831604686,-4.91810385758916,-59.918828255632));
#728=CARTESIAN_POINT('',(-23.6721353081364,-3.60712381289509,-58.858593163242));
#729=CARTESIAN_POINT('',(-23.6721353081364,0.262674564170811,-59.8708483291256));
#730=CARTESIAN_POINT('Origin',(-22.2033831604686,-3.95065426332269,-60.1718920471029));
#731=CARTESIAN_POINT('Origin',(-13.5760070401643,-4.80386197463498,-59.4820875323943));
#732=CARTESIAN_POINT('',(-25.0633240267199,-5.73307987400096,-63.0344387972733));
#733=CARTESIAN_POINT('',(-22.2033831604686,-5.20912721778072,-61.0313952890384));
#734=CARTESIAN_POINT('Origin',(-22.2033831604686,-4.91810385758916,-59.918828255632));
#735=CARTESIAN_POINT('Origin',(-22.0394196018686,-3.93442701807639,-60.1098561401154));
#736=CARTESIAN_POINT('',(-18.0533271626035,-1.46445600107584,-50.6672865636544));
#737=CARTESIAN_POINT('',(-21.5305073094109,-6.37984539035881,-69.4585622443164));
#738=CARTESIAN_POINT('',(-20.5386922780763,-4.97780210375213,-64.0986243374051));
#739=CARTESIAN_POINT('',(-22.8713770091841,-6.39080836252075,-69.500473111566));
#740=CARTESIAN_POINT('',(-3.06851503030581,-6.22889984550536,-68.8815053478082));
#741=CARTESIAN_POINT('',(-25.8386376067488,-5.41126935392607,-65.7557468869057));
#742=CARTESIAN_POINT('Origin',(-22.9682508313783,-5.63201290578044,-66.599637901251));
#743=CARTESIAN_POINT('',(-27.0559990502006,-6.42502189941524,-69.6312696676225));
#744=CARTESIAN_POINT('',(-21.7688715632594,-2.02218905380204,-52.7994707549711));
#745=CARTESIAN_POINT('',(-27.0559990502006,-6.42502189941524,-69.6312696676225));
#746=CARTESIAN_POINT('',(-19.1350031381155,-1.48610434635402,-50.75004705157));
#747=CARTESIAN_POINT('Origin',(-18.8984847878888,-2.2429326056564,-53.6433617693164));
#748=CARTESIAN_POINT('',(-21.1741229579417,-1.52691469152443,-50.9060628594717));
#749=CARTESIAN_POINT('Origin',(-18.8984847878888,-4.17783179418934,-53.1372341863745));
#750=CARTESIAN_POINT('',(-21.7688715632594,-3.95708824233498,-52.2933431720293));
#751=CARTESIAN_POINT('',(-21.7688715632594,-3.95708824233498,-52.2933431720293));
#752=CARTESIAN_POINT('',(-19.1350031381155,-3.42100353488697,-50.2439194686282));
#753=CARTESIAN_POINT('Origin',(-18.8984847878888,-4.17783179418934,-53.1372341863745));
#754=CARTESIAN_POINT('',(-19.1350031381155,-3.42100353488697,-50.2439194686282));
#755=CARTESIAN_POINT('Origin',(-27.0559990502006,-8.35992108794819,-69.1251420846807));
#756=CARTESIAN_POINT('',(-25.8386376067488,-7.34616854245902,-65.2496193039639));
#757=CARTESIAN_POINT('',(-25.8386376067488,-7.34616854245902,-65.2496193039639));
#758=CARTESIAN_POINT('',(-27.0559990502006,-8.35992108794819,-69.1251420846807));
#759=CARTESIAN_POINT('Origin',(-22.9682508313783,-7.56691209431338,-66.0935103183091));
#760=CARTESIAN_POINT('',(-22.8713770091841,-8.3257075510537,-68.9943455286242));
#761=CARTESIAN_POINT('',(-22.8713770091841,-8.32570755105369,-68.9943455286242));
#762=CARTESIAN_POINT('Origin',(-22.9682508313783,-7.56691209431338,-66.0935103183091));
#763=CARTESIAN_POINT('Origin',(-22.2033831604686,-5.88555345185564,-59.6657644641611));
#764=CARTESIAN_POINT('',(-22.2033831604686,-6.17657681204719,-60.7783314975675));
#765=CARTESIAN_POINT('Origin',(-22.2033831604686,-5.88555345185564,-59.6657644641611));
#766=CARTESIAN_POINT('',(-22.2033831604686,-6.17657681204719,-60.7783314975675));
#767=CARTESIAN_POINT('Origin',(-22.0394196018686,-5.86932620660934,-59.6037285571736));
#768=CARTESIAN_POINT('',(-20.5086998643187,-8.30639026483924,-68.9204965571776));
#769=CARTESIAN_POINT('',(-3.06851503030581,-8.1637990340383,-68.3753777648664));
#770=CARTESIAN_POINT('',(-17.0228401535367,-3.37873132527049,-50.0823150296664));
#771=CARTESIAN_POINT('',(-20.5086998643187,-8.30639026483924,-68.9204965571776));
#772=CARTESIAN_POINT('',(-21.1741229579417,-3.46181388005738,-50.3999352765299));
#773=CARTESIAN_POINT('Origin',(-9.17717452547754,1.34236588007975,-55.7432450894927));
#774=CARTESIAN_POINT('',(-7.05785422356328,-2.39171836963994,-70.01845321528));
#775=CARTESIAN_POINT('',(-9.05739742876687,-0.473167478409066,-70.5870794808658));
#776=CARTESIAN_POINT('Origin',(-9.05739742876687,-2.40806666694202,-70.080951897924));
#777=CARTESIAN_POINT('',(-9.21677078138395,4.51709380857902,-51.5095724644771));
#778=CARTESIAN_POINT('',(-9.17717452547754,3.2772650686127,-56.2493726724345));
#779=CARTESIAN_POINT('',(-7.21798303828866,2.6221977708786,-50.8505149352267));
#780=CARTESIAN_POINT('Origin',(-9.21677078138395,2.58219462004607,-51.0034448815353));
#781=CARTESIAN_POINT('',(-7.17723984208082,1.34645630340367,-55.7276076157866));
#782=CARTESIAN_POINT('Origin',(-7.21798303828866,-1.2476006061873,-49.838259769343));
#783=CARTESIAN_POINT('',(-7.21798303828866,-1.2476006061873,-49.838259769343));
#784=CARTESIAN_POINT('',(-7.21798303828866,-1.2476006061873,-49.838259769343));
#785=CARTESIAN_POINT('',(-7.05785422356328,-6.26151674670583,-69.0061980493963));
#786=CARTESIAN_POINT('',(-7.17847394145062,-2.48470024171066,-54.5676267542355));
#787=CARTESIAN_POINT('',(-7.05785422356328,-6.26151674670583,-69.0061980493963));
#788=CARTESIAN_POINT('Origin',(-18.5699898161557,-1.19719233124313,-65.4518428579838));
#789=CARTESIAN_POINT('',(-18.0533271626035,2.40534237599005,-51.6795417295381));
#790=CARTESIAN_POINT('',(-15.9923531444699,4.38148929319961,-52.0279814103875));
#791=CARTESIAN_POINT('Origin',(-15.9923531444699,2.44659010466666,-51.5218538274457));
#792=CARTESIAN_POINT('',(-19.4868924192264,-0.558439196654936,-70.913068784748));
#793=CARTESIAN_POINT('',(-18.5699898161557,0.737706857289817,-65.9579704409256));
#794=CARTESIAN_POINT('',(-21.5305073094109,-2.51004701329292,-70.4708174102001));
#795=CARTESIAN_POINT('Origin',(-19.4868924192264,-2.49333838518789,-70.4069412018061));
#796=CARTESIAN_POINT('',(-20.5386922780763,-1.10800372668623,-65.1108795032887));
#797=CARTESIAN_POINT('Origin',(-21.5305073094109,-6.37984539035881,-69.4585622443164));
#798=CARTESIAN_POINT('',(-21.5305073094109,-6.37984539035881,-69.4585622443164));
#799=CARTESIAN_POINT('',(-18.0533271626035,-1.46445600107584,-50.6672865636544));
#800=CARTESIAN_POINT('Origin',(-14.2941807664871,1.99097456732579,-61.1667937556552));
#801=CARTESIAN_POINT('',(-10.5161553259046,-0.48509430636262,-70.6326751182247));
#802=CARTESIAN_POINT('',(-16.5502428007656,4.37032385347456,-52.0706663005056));
#803=CARTESIAN_POINT('Origin',(-14.2941807664871,0.0560753787928425,-60.6606661727134));
#804=CARTESIAN_POINT('',(-8.05762582616508,-2.39989251829098,-70.049702556602));
#805=CARTESIAN_POINT('',(-8.2173769098363,2.60219619546233,-50.926979908381));
#806=CARTESIAN_POINT('',(-8.09704490686821,-1.16561144701209,-65.3311107949008));
#807=CARTESIAN_POINT('',(-17.0228401535367,2.42596624032836,-51.6006977784919));
#808=CARTESIAN_POINT('',(-16.5502428007656,2.43542466494161,-51.5645387175638));
#809=CARTESIAN_POINT('',(-20.5086998643187,-2.5016926992404,-70.4388793060031));
#810=CARTESIAN_POINT('',(-17.7926830846591,1.33770574898518,-55.7610605261084));
#811=CARTESIAN_POINT('',(-10.5161553259046,-2.41999349489557,-70.1265475352828));
#812=CARTESIAN_POINT('Origin',(-17.0228401535367,-1.44383213673754,-50.5884426126082));
#813=CARTESIAN_POINT('',(-20.5086998643187,-6.3714910763063,-69.4266241401195));
#814=CARTESIAN_POINT('',(-17.0228401535367,-1.44383213673754,-50.5884426126082));
#815=CARTESIAN_POINT('Origin',(-4.94863091985996,0.147627879651578,-60.3106657665113));
#816=CARTESIAN_POINT('',(-3.15573525715224,-4.46533001697164,-58.1878976240555));
#817=CARTESIAN_POINT('',(-3.15573525715224,-3.49788042270516,-58.4409614155264));
#818=CARTESIAN_POINT('',(-3.15573525715224,0.371917954360732,-59.45321658141));
#819=CARTESIAN_POINT('',(-3.1416441524536,-4.9065474044069,-59.8746485415869));
#820=CARTESIAN_POINT('Origin',(-4.94863091985996,-4.68962009168079,-59.0453468091567));
#821=CARTESIAN_POINT('',(-3.1416441524536,-3.93909781014042,-60.1277123330578));
#822=CARTESIAN_POINT('',(-3.1416441524536,-0.0692994330745246,-61.1399674989415));
#823=CARTESIAN_POINT('Origin',(-4.94863091985996,-3.72217049741432,-59.2984106006276));
#824=CARTESIAN_POINT('Origin',(-13.5760070401643,-4.80386197463498,-59.4820875323943));
#825=CARTESIAN_POINT('',(-3.18787800130815,-3.45888390044792,-54.3403069378397));
#826=CARTESIAN_POINT('',(-4.94863091985996,-4.98064345187235,-60.1579138425631));
#827=CARTESIAN_POINT('Origin',(-4.94863091985996,-4.68962009168079,-59.0453468091567));
#828=CARTESIAN_POINT('Origin',(-5.64294597007106,-3.71874010205824,-59.2852963792049));
#829=CARTESIAN_POINT('',(-6.44054468103774,-1.23204118324429,-49.7787769119744));
#830=CARTESIAN_POINT('',(-21.1741229579417,-1.52691469152443,-50.9060628594717));
#831=CARTESIAN_POINT('',(-3.20412430571601,-1.98273380756079,-52.6486354191615));
#832=CARTESIAN_POINT('Origin',(-6.20402633081108,-1.98886944254667,-52.6720916297207));
#833=CARTESIAN_POINT('',(-3.23015108658006,-1.16778930875962,-49.5331453676916));
#834=CARTESIAN_POINT('',(-3.09218033153736,-5.4878974467892,-66.0486920645582));
#835=CARTESIAN_POINT('',(-3.23015108658006,-1.16778930875962,-49.5331453676916));
#836=CARTESIAN_POINT('',(-5.99520853443827,-6.25282853851539,-68.9729834854325));
#837=CARTESIAN_POINT('Origin',(-6.09208235663243,-5.49403308177507,-66.0721482751174));
#838=CARTESIAN_POINT('',(-3.06851503030581,-6.22889984550535,-68.8815053478082));
#839=CARTESIAN_POINT('Origin',(-6.20402633081108,-3.92376863107962,-52.1659640467789));
#840=CARTESIAN_POINT('',(-6.44054468103774,-3.16694037177724,-49.2726493290326));
#841=CARTESIAN_POINT('',(-6.44054468103774,-3.16694037177724,-49.2726493290326));
#842=CARTESIAN_POINT('',(-3.20412430571601,-3.91763299609374,-52.1425078362197));
#843=CARTESIAN_POINT('Origin',(-6.20402633081108,-3.92376863107962,-52.1659640467789));
#844=CARTESIAN_POINT('',(-3.20412430571601,-3.91763299609374,-52.1425078362197));
#845=CARTESIAN_POINT('Origin',(-3.23015108658006,-3.10268849729257,-49.0270177847498));
#846=CARTESIAN_POINT('',(-3.09218033153736,-7.42279663532214,-65.5425644816163));
#847=CARTESIAN_POINT('',(-3.23015108658006,-3.10268849729257,-49.0270177847498));
#848=CARTESIAN_POINT('',(-3.09218033153736,-7.42279663532215,-65.5425644816163));
#849=CARTESIAN_POINT('Origin',(-5.64294597007106,-5.65363929059119,-58.7791687962631));
#850=CARTESIAN_POINT('',(-8.2173769098363,-3.20250137013651,-49.4085971595555));
#851=CARTESIAN_POINT('',(-21.1741229579417,-3.46181388005738,-50.3999352765299));
#852=CARTESIAN_POINT('',(-8.05762582616508,-8.20459008388982,-68.5313198077765));
#853=CARTESIAN_POINT('',(-8.05762582616508,-8.20459008388981,-68.5313198077765));
#854=CARTESIAN_POINT('',(-5.99520853443827,-8.18772772704834,-68.4668559024906));
#855=CARTESIAN_POINT('',(-3.06851503030581,-8.1637990340383,-68.3753777648664));
#856=CARTESIAN_POINT('Origin',(-6.09208235663243,-7.42893227030802,-65.5660206921755));
#857=CARTESIAN_POINT('',(-4.94863091985996,-5.94809304613881,-59.9048500510922));
#858=CARTESIAN_POINT('Origin',(-4.94863091985996,-5.65706968594726,-58.7922830176858));
#859=CARTESIAN_POINT('Origin',(-6.09208235663243,-7.42893227030802,-65.5660206921755));
#860=CARTESIAN_POINT('',(-5.99520853443827,-8.18772772704834,-68.4668559024906));
#861=CARTESIAN_POINT('Origin',(-4.94863091985996,-5.65706968594726,-58.7922830176858));
#862=CARTESIAN_POINT('',(-4.94863091985996,-5.94809304613881,-59.9048500510922));
#863=CARTESIAN_POINT('Origin',(-8.2173769098363,-3.20250137013651,-49.4085971595555));
#864=CARTESIAN_POINT('',(-8.2173769098363,-1.26760218160356,-49.9147247424973));
#865=CARTESIAN_POINT('Origin',(-8.05762582616508,-8.20459008388981,-68.5313198077765));
#866=CARTESIAN_POINT('',(-8.05762582616508,-6.26969089535687,-69.0374473907183));
#867=CARTESIAN_POINT('Origin',(-3.06851503030581,-8.1637990340383,-68.3753777648664));
#868=UNCERTAINTY_MEASURE_WITH_UNIT(LENGTH_MEASURE(0.01),#872,
'DISTANCE_ACCURACY_VALUE',
'Maximum model space distance between geometric entities at asserted c
onnectivities');
#869=UNCERTAINTY_MEASURE_WITH_UNIT(LENGTH_MEASURE(0.01),#872,
'DISTANCE_ACCURACY_VALUE',
'Maximum model space distance between geometric entities at asserted c
onnectivities');
#870=(
GEOMETRIC_REPRESENTATION_CONTEXT(3)
GLOBAL_UNCERTAINTY_ASSIGNED_CONTEXT((#868))
GLOBAL_UNIT_ASSIGNED_CONTEXT((#872,#874,#875))
REPRESENTATION_CONTEXT('','3D')
);
#871=(
GEOMETRIC_REPRESENTATION_CONTEXT(3)
GLOBAL_UNCERTAINTY_ASSIGNED_CONTEXT((#869))
GLOBAL_UNIT_ASSIGNED_CONTEXT((#872,#874,#875))
REPRESENTATION_CONTEXT('','3D')
);
#872=(
LENGTH_UNIT()
NAMED_UNIT(*)
SI_UNIT(.MILLI.,.METRE.)
);
#873=(
LENGTH_UNIT()
NAMED_UNIT(*)
SI_UNIT($,.METRE.)
);
#874=(
NAMED_UNIT(*)
PLANE_ANGLE_UNIT()
SI_UNIT($,.RADIAN.)
);
#875=(
NAMED_UNIT(*)
SI_UNIT($,.STERADIAN.)
SOLID_ANGLE_UNIT()
);
#876=SHAPE_DEFINITION_REPRESENTATION(#877,#878);
#877=PRODUCT_DEFINITION_SHAPE('',$,#880);
#878=SHAPE_REPRESENTATION('',(#528),#870);
#879=PRODUCT_DEFINITION_CONTEXT('part definition',#884,'design');
#880=PRODUCT_DEFINITION('2026-08-19-19-41-27-748','back finger',#881,#879);
#881=PRODUCT_DEFINITION_FORMATION('',$,#886);
#882=PRODUCT_RELATED_PRODUCT_CATEGORY('back finger','back finger',(#886));
#883=APPLICATION_PROTOCOL_DEFINITION('international standard',
'automotive_design',2009,#884);
#884=APPLICATION_CONTEXT(
'Core Data for Automotive Mechanical Design Process');
#885=PRODUCT_CONTEXT('part definition',#884,'mechanical');
#886=PRODUCT('2026-08-19-19-41-27-748','back finger',$,(#885));
#887=PRESENTATION_STYLE_ASSIGNMENT((#889));
#888=PRESENTATION_STYLE_ASSIGNMENT((#890));
#889=SURFACE_STYLE_USAGE(.BOTH.,#891);
#890=SURFACE_STYLE_USAGE(.BOTH.,#892);
#891=SURFACE_SIDE_STYLE('',(#893));
#892=SURFACE_SIDE_STYLE('',(#894));
#893=SURFACE_STYLE_FILL_AREA(#895);
#894=SURFACE_STYLE_FILL_AREA(#896);
#895=FILL_AREA_STYLE('\X2\30D730EC30FC30C8\X0\',(#897));
#896=FILL_AREA_STYLE('Opaque(160,160,160)',(#898));
#897=FILL_AREA_STYLE_COLOUR('\X2\30D730EC30FC30C8\X0\',#899);
#898=FILL_AREA_STYLE_COLOUR('Opaque(160,160,160)',#900);
#899=COLOUR_RGB('\X2\30D730EC30FC30C8\X0\',0.6,0.6,0.6);
#900=COLOUR_RGB('Opaque(160,160,160)',0.627450980392157,0.627450980392157,
0.627450980392157);
ENDSEC;
END-ISO-10303-21;
