ISO-10303-21;
HEADER;
/* Generated by software containing ST-Developer
 * from STEP Tools, Inc. (www.steptools.com) 
 */

FILE_DESCRIPTION(
/* description */ (''),
/* implementation_level */ '2;1');

FILE_NAME(
/* name */ 'jig_ligament_wrist_dorsal.step',
/* time_stamp */ '2026-08-19T19:32:39+09:00',
/* author */ (''),
/* organization */ (''),
/* preprocessor_version */ 'ST-DEVELOPER v20.1',
/* originating_system */ 'Autodesk Translation Framework v15.8.0.0',
/* authorisation */ '');

FILE_SCHEMA (('AUTOMOTIVE_DESIGN { 1 0 10303 214 3 1 1 }'));
ENDSEC;

DATA;
#10=MECHANICAL_DESIGN_GEOMETRIC_PRESENTATION_REPRESENTATION('',(#13),#1702);
#11=SHAPE_REPRESENTATION_RELATIONSHIP('SRR','None',#1709,#12);
#12=ADVANCED_BREP_SHAPE_REPRESENTATION('',(#14),#1701);
#13=STYLED_ITEM('',(#1719),#14);
#14=MANIFOLD_SOLID_BREP('\X2\30DC30C730A3\X0\1',#1005);
#15=CIRCLE('',#1053,2.99999999999999);
#16=CIRCLE('',#1054,3.);
#17=CIRCLE('',#1055,2.99999999999998);
#18=CIRCLE('',#1056,2.99999999999999);
#19=CIRCLE('',#1057,1.65);
#20=CIRCLE('',#1058,1.65);
#21=CIRCLE('',#1064,1.65);
#22=CIRCLE('',#1066,2.99999999999998);
#23=CIRCLE('',#1069,2.99999999999999);
#24=CIRCLE('',#1073,1.65);
#25=CIRCLE('',#1077,3.);
#26=CIRCLE('',#1080,2.99999999999999);
#27=CIRCLE('',#1084,0.9);
#28=CIRCLE('',#1085,0.9);
#29=CIRCLE('',#1088,0.9);
#30=CIRCLE('',#1093,0.9);
#31=B_SPLINE_CURVE_WITH_KNOTS('',3,(#1480,#1481,#1482,#1483,#1484,#1485),
 .UNSPECIFIED.,.F.,.F.,(4,2,4),(0.11920032489949,0.523465395606598,1.04847595155038),
 .UNSPECIFIED.);
#32=B_SPLINE_CURVE_WITH_KNOTS('',3,(#1487,#1488,#1489,#1490),
 .UNSPECIFIED.,.F.,.F.,(4,4),(0.,0.119876108744905),.UNSPECIFIED.);
#33=B_SPLINE_CURVE_WITH_KNOTS('',3,(#1516,#1517,#1518,#1519,#1520,#1521,
#1522,#1523,#1524,#1525),.UNSPECIFIED.,.F.,.F.,(4,3,3,4),(0.,0.874492924607947,
1.10167465827916,1.86139895820942),.UNSPECIFIED.);
#34=B_SPLINE_SURFACE_WITH_KNOTS('',3,3,((#1462,#1463,#1464,#1465),(#1466,
#1467,#1468,#1469),(#1470,#1471,#1472,#1473),(#1474,#1475,#1476,#1477)),
 .UNSPECIFIED.,.F.,.F.,.F.,(4,4),(4,4),(0.,1.),(0.,1.),.UNSPECIFIED.);
#35=B_SPLINE_SURFACE_WITH_KNOTS('',3,3,((#1498,#1499,#1500,#1501),(#1502,
#1503,#1504,#1505),(#1506,#1507,#1508,#1509),(#1510,#1511,#1512,#1513)),
 .UNSPECIFIED.,.F.,.F.,.F.,(4,4),(4,4),(0.,1.),(0.,1.),.UNSPECIFIED.);
#36=FACE_BOUND('',#133,.T.);
#37=FACE_BOUND('',#134,.T.);
#38=FACE_BOUND('',#141,.T.);
#39=FACE_BOUND('',#142,.T.);
#40=FACE_BOUND('',#152,.T.);
#41=FACE_BOUND('',#153,.T.);
#42=FACE_BOUND('',#164,.T.);
#43=FACE_BOUND('',#173,.T.);
#44=FACE_BOUND('',#175,.T.);
#45=FACE_BOUND('',#176,.T.);
#46=FACE_BOUND('',#182,.T.);
#47=FACE_BOUND('',#188,.T.);
#48=PLANE('',#1022);
#49=PLANE('',#1026);
#50=PLANE('',#1027);
#51=PLANE('',#1030);
#52=PLANE('',#1033);
#53=PLANE('',#1039);
#54=PLANE('',#1049);
#55=PLANE('',#1050);
#56=PLANE('',#1051);
#57=PLANE('',#1052);
#58=PLANE('',#1059);
#59=PLANE('',#1060);
#60=PLANE('',#1061);
#61=PLANE('',#1062);
#62=PLANE('',#1067);
#63=PLANE('',#1070);
#64=PLANE('',#1071);
#65=PLANE('',#1074);
#66=PLANE('',#1075);
#67=PLANE('',#1078);
#68=PLANE('',#1081);
#69=PLANE('',#1082);
#70=PLANE('',#1083);
#71=PLANE('',#1086);
#72=PLANE('',#1089);
#73=PLANE('',#1090);
#74=PLANE('',#1091);
#75=PLANE('',#1094);
#76=PLANE('',#1095);
#77=PLANE('',#1096);
#78=PLANE('',#1097);
#79=FACE_OUTER_BOUND('',#128,.T.);
#80=FACE_OUTER_BOUND('',#129,.T.);
#81=FACE_OUTER_BOUND('',#130,.T.);
#82=FACE_OUTER_BOUND('',#131,.T.);
#83=FACE_OUTER_BOUND('',#132,.T.);
#84=FACE_OUTER_BOUND('',#135,.T.);
#85=FACE_OUTER_BOUND('',#136,.T.);
#86=FACE_OUTER_BOUND('',#137,.T.);
#87=FACE_OUTER_BOUND('',#138,.T.);
#88=FACE_OUTER_BOUND('',#139,.T.);
#89=FACE_OUTER_BOUND('',#140,.T.);
#90=FACE_OUTER_BOUND('',#143,.T.);
#91=FACE_OUTER_BOUND('',#144,.T.);
#92=FACE_OUTER_BOUND('',#145,.T.);
#93=FACE_OUTER_BOUND('',#146,.T.);
#94=FACE_OUTER_BOUND('',#147,.T.);
#95=FACE_OUTER_BOUND('',#148,.T.);
#96=FACE_OUTER_BOUND('',#149,.T.);
#97=FACE_OUTER_BOUND('',#150,.T.);
#98=FACE_OUTER_BOUND('',#151,.T.);
#99=FACE_OUTER_BOUND('',#154,.T.);
#100=FACE_OUTER_BOUND('',#155,.T.);
#101=FACE_OUTER_BOUND('',#156,.T.);
#102=FACE_OUTER_BOUND('',#157,.T.);
#103=FACE_OUTER_BOUND('',#158,.T.);
#104=FACE_OUTER_BOUND('',#159,.T.);
#105=FACE_OUTER_BOUND('',#160,.T.);
#106=FACE_OUTER_BOUND('',#161,.T.);
#107=FACE_OUTER_BOUND('',#162,.T.);
#108=FACE_OUTER_BOUND('',#163,.T.);
#109=FACE_OUTER_BOUND('',#165,.T.);
#110=FACE_OUTER_BOUND('',#166,.T.);
#111=FACE_OUTER_BOUND('',#167,.T.);
#112=FACE_OUTER_BOUND('',#168,.T.);
#113=FACE_OUTER_BOUND('',#169,.T.);
#114=FACE_OUTER_BOUND('',#170,.T.);
#115=FACE_OUTER_BOUND('',#171,.T.);
#116=FACE_OUTER_BOUND('',#172,.T.);
#117=FACE_OUTER_BOUND('',#174,.T.);
#118=FACE_OUTER_BOUND('',#177,.T.);
#119=FACE_OUTER_BOUND('',#178,.T.);
#120=FACE_OUTER_BOUND('',#179,.T.);
#121=FACE_OUTER_BOUND('',#180,.T.);
#122=FACE_OUTER_BOUND('',#181,.T.);
#123=FACE_OUTER_BOUND('',#183,.T.);
#124=FACE_OUTER_BOUND('',#184,.T.);
#125=FACE_OUTER_BOUND('',#185,.T.);
#126=FACE_OUTER_BOUND('',#186,.T.);
#127=FACE_OUTER_BOUND('',#187,.T.);
#128=EDGE_LOOP('',(#656,#657,#658,#659));
#129=EDGE_LOOP('',(#660,#661,#662,#663));
#130=EDGE_LOOP('',(#664,#665,#666,#667));
#131=EDGE_LOOP('',(#668,#669,#670,#671));
#132=EDGE_LOOP('',(#672,#673,#674,#675));
#133=EDGE_LOOP('',(#676,#677,#678,#679));
#134=EDGE_LOOP('',(#680,#681,#682,#683));
#135=EDGE_LOOP('',(#684,#685,#686,#687));
#136=EDGE_LOOP('',(#688,#689,#690,#691));
#137=EDGE_LOOP('',(#692,#693,#694,#695));
#138=EDGE_LOOP('',(#696,#697,#698,#699));
#139=EDGE_LOOP('',(#700,#701,#702,#703));
#140=EDGE_LOOP('',(#704,#705,#706,#707,#708,#709,#710));
#141=EDGE_LOOP('',(#711,#712,#713,#714));
#142=EDGE_LOOP('',(#715,#716,#717,#718));
#143=EDGE_LOOP('',(#719,#720,#721,#722));
#144=EDGE_LOOP('',(#723,#724,#725,#726));
#145=EDGE_LOOP('',(#727,#728,#729,#730));
#146=EDGE_LOOP('',(#731,#732,#733,#734,#735,#736));
#147=EDGE_LOOP('',(#737,#738,#739,#740));
#148=EDGE_LOOP('',(#741,#742,#743));
#149=EDGE_LOOP('',(#744,#745,#746,#747,#748,#749,#750));
#150=EDGE_LOOP('',(#751,#752,#753,#754,#755,#756));
#151=EDGE_LOOP('',(#757,#758,#759,#760,#761,#762,#763,#764,#765,#766,#767,
#768,#769,#770,#771,#772));
#152=EDGE_LOOP('',(#773));
#153=EDGE_LOOP('',(#774));
#154=EDGE_LOOP('',(#775,#776,#777,#778,#779,#780,#781,#782,#783,#784,#785,
#786));
#155=EDGE_LOOP('',(#787,#788,#789,#790,#791,#792));
#156=EDGE_LOOP('',(#793,#794,#795,#796,#797,#798));
#157=EDGE_LOOP('',(#799,#800,#801,#802));
#158=EDGE_LOOP('',(#803,#804,#805,#806));
#159=EDGE_LOOP('',(#807,#808,#809,#810));
#160=EDGE_LOOP('',(#811,#812,#813,#814));
#161=EDGE_LOOP('',(#815,#816,#817,#818));
#162=EDGE_LOOP('',(#819,#820,#821,#822));
#163=EDGE_LOOP('',(#823,#824,#825,#826,#827,#828));
#164=EDGE_LOOP('',(#829));
#165=EDGE_LOOP('',(#830,#831,#832,#833));
#166=EDGE_LOOP('',(#834,#835,#836,#837));
#167=EDGE_LOOP('',(#838,#839,#840,#841,#842,#843,#844,#845));
#168=EDGE_LOOP('',(#846,#847,#848,#849));
#169=EDGE_LOOP('',(#850,#851,#852,#853));
#170=EDGE_LOOP('',(#854,#855,#856,#857));
#171=EDGE_LOOP('',(#858,#859,#860,#861,#862,#863,#864,#865,#866,#867,#868,
#869,#870,#871));
#172=EDGE_LOOP('',(#872,#873,#874,#875,#876,#877));
#173=EDGE_LOOP('',(#878));
#174=EDGE_LOOP('',(#879,#880,#881,#882,#883,#884,#885,#886,#887,#888,#889,
#890,#891));
#175=EDGE_LOOP('',(#892));
#176=EDGE_LOOP('',(#893));
#177=EDGE_LOOP('',(#894,#895,#896,#897));
#178=EDGE_LOOP('',(#898,#899,#900,#901));
#179=EDGE_LOOP('',(#902,#903,#904,#905));
#180=EDGE_LOOP('',(#906,#907,#908,#909));
#181=EDGE_LOOP('',(#910,#911,#912,#913));
#182=EDGE_LOOP('',(#914));
#183=EDGE_LOOP('',(#915,#916,#917,#918));
#184=EDGE_LOOP('',(#919,#920,#921,#922));
#185=EDGE_LOOP('',(#923,#924,#925,#926));
#186=EDGE_LOOP('',(#927,#928,#929,#930,#931,#932,#933,#934));
#187=EDGE_LOOP('',(#935,#936,#937,#938));
#188=EDGE_LOOP('',(#939));
#189=LINE('',#1371,#296);
#190=LINE('',#1374,#297);
#191=LINE('',#1377,#298);
#192=LINE('',#1379,#299);
#193=LINE('',#1380,#300);
#194=LINE('',#1386,#301);
#195=LINE('',#1388,#302);
#196=LINE('',#1389,#303);
#197=LINE('',#1393,#304);
#198=LINE('',#1395,#305);
#199=LINE('',#1397,#306);
#200=LINE('',#1398,#307);
#201=LINE('',#1401,#308);
#202=LINE('',#1405,#309);
#203=LINE('',#1409,#310);
#204=LINE('',#1411,#311);
#205=LINE('',#1412,#312);
#206=LINE('',#1416,#313);
#207=LINE('',#1419,#314);
#208=LINE('',#1420,#315);
#209=LINE('',#1428,#316);
#210=LINE('',#1431,#317);
#211=LINE('',#1434,#318);
#212=LINE('',#1436,#319);
#213=LINE('',#1438,#320);
#214=LINE('',#1440,#321);
#215=LINE('',#1442,#322);
#216=LINE('',#1443,#323);
#217=LINE('',#1449,#324);
#218=LINE('',#1455,#325);
#219=LINE('',#1461,#326);
#220=LINE('',#1492,#327);
#221=LINE('',#1494,#328);
#222=LINE('',#1496,#329);
#223=LINE('',#1497,#330);
#224=LINE('',#1527,#331);
#225=LINE('',#1529,#332);
#226=LINE('',#1530,#333);
#227=LINE('',#1533,#334);
#228=LINE('',#1534,#335);
#229=LINE('',#1536,#336);
#230=LINE('',#1538,#337);
#231=LINE('',#1539,#338);
#232=LINE('',#1541,#339);
#233=LINE('',#1542,#340);
#234=LINE('',#1544,#341);
#235=LINE('',#1546,#342);
#236=LINE('',#1550,#343);
#237=LINE('',#1554,#344);
#238=LINE('',#1558,#345);
#239=LINE('',#1561,#346);
#240=LINE('',#1562,#347);
#241=LINE('',#1569,#348);
#242=LINE('',#1571,#349);
#243=LINE('',#1573,#350);
#244=LINE('',#1575,#351);
#245=LINE('',#1577,#352);
#246=LINE('',#1579,#353);
#247=LINE('',#1581,#354);
#248=LINE('',#1583,#355);
#249=LINE('',#1584,#356);
#250=LINE('',#1586,#357);
#251=LINE('',#1588,#358);
#252=LINE('',#1592,#359);
#253=LINE('',#1594,#360);
#254=LINE('',#1596,#361);
#255=LINE('',#1597,#362);
#256=LINE('',#1601,#363);
#257=LINE('',#1606,#364);
#258=LINE('',#1607,#365);
#259=LINE('',#1611,#366);
#260=LINE('',#1612,#367);
#261=LINE('',#1613,#368);
#262=LINE('',#1618,#369);
#263=LINE('',#1619,#370);
#264=LINE('',#1621,#371);
#265=LINE('',#1623,#372);
#266=LINE('',#1624,#373);
#267=LINE('',#1628,#374);
#268=LINE('',#1632,#375);
#269=LINE('',#1633,#376);
#270=LINE('',#1634,#377);
#271=LINE('',#1637,#378);
#272=LINE('',#1638,#379);
#273=LINE('',#1642,#380);
#274=LINE('',#1645,#381);
#275=LINE('',#1646,#382);
#276=LINE('',#1650,#383);
#277=LINE('',#1652,#384);
#278=LINE('',#1656,#385);
#279=LINE('',#1658,#386);
#280=LINE('',#1659,#387);
#281=LINE('',#1666,#388);
#282=LINE('',#1668,#389);
#283=LINE('',#1669,#390);
#284=LINE('',#1673,#391);
#285=LINE('',#1676,#392);
#286=LINE('',#1677,#393);
#287=LINE('',#1680,#394);
#288=LINE('',#1681,#395);
#289=LINE('',#1683,#396);
#290=LINE('',#1687,#397);
#291=LINE('',#1690,#398);
#292=LINE('',#1691,#399);
#293=LINE('',#1694,#400);
#294=LINE('',#1695,#401);
#295=LINE('',#1697,#402);
#296=VECTOR('',#1104,10.);
#297=VECTOR('',#1107,10.);
#298=VECTOR('',#1110,10.);
#299=VECTOR('',#1111,10.);
#300=VECTOR('',#1112,10.);
#301=VECTOR('',#1119,10.);
#302=VECTOR('',#1122,10.);
#303=VECTOR('',#1123,10.);
#304=VECTOR('',#1126,10.);
#305=VECTOR('',#1127,10.);
#306=VECTOR('',#1128,10.);
#307=VECTOR('',#1129,10.);
#308=VECTOR('',#1130,10.);
#309=VECTOR('',#1133,10.);
#310=VECTOR('',#1138,10.);
#311=VECTOR('',#1139,10.);
#312=VECTOR('',#1140,10.);
#313=VECTOR('',#1145,10.);
#314=VECTOR('',#1148,10.);
#315=VECTOR('',#1149,10.);
#316=VECTOR('',#1158,10.);
#317=VECTOR('',#1161,10.);
#318=VECTOR('',#1164,10.);
#319=VECTOR('',#1165,10.);
#320=VECTOR('',#1166,10.);
#321=VECTOR('',#1167,9.99999999999999);
#322=VECTOR('',#1168,10.);
#323=VECTOR('',#1169,10.);
#324=VECTOR('',#1176,10.);
#325=VECTOR('',#1183,10.);
#326=VECTOR('',#1190,10.);
#327=VECTOR('',#1191,10.);
#328=VECTOR('',#1192,0.391463698766118);
#329=VECTOR('',#1193,10.);
#330=VECTOR('',#1194,10.);
#331=VECTOR('',#1195,10.);
#332=VECTOR('',#1196,0.334680176943164);
#333=VECTOR('',#1197,10.);
#334=VECTOR('',#1200,10.);
#335=VECTOR('',#1201,9.99999999999999);
#336=VECTOR('',#1204,10.);
#337=VECTOR('',#1205,9.99999999999999);
#338=VECTOR('',#1206,10.);
#339=VECTOR('',#1209,10.);
#340=VECTOR('',#1210,10.);
#341=VECTOR('',#1213,10.);
#342=VECTOR('',#1214,10.);
#343=VECTOR('',#1217,10.);
#344=VECTOR('',#1220,10.);
#345=VECTOR('',#1223,10.);
#346=VECTOR('',#1226,10.);
#347=VECTOR('',#1227,9.99999999999999);
#348=VECTOR('',#1234,10.);
#349=VECTOR('',#1235,10.);
#350=VECTOR('',#1236,10.);
#351=VECTOR('',#1237,10.);
#352=VECTOR('',#1238,10.);
#353=VECTOR('',#1239,10.);
#354=VECTOR('',#1240,10.);
#355=VECTOR('',#1241,10.);
#356=VECTOR('',#1242,10.);
#357=VECTOR('',#1245,10.);
#358=VECTOR('',#1248,10.);
#359=VECTOR('',#1251,10.);
#360=VECTOR('',#1252,10.);
#361=VECTOR('',#1253,10.);
#362=VECTOR('',#1254,10.);
#363=VECTOR('',#1259,1.65);
#364=VECTOR('',#1264,10.);
#365=VECTOR('',#1265,10.);
#366=VECTOR('',#1268,10.);
#367=VECTOR('',#1269,10.);
#368=VECTOR('',#1270,10.);
#369=VECTOR('',#1275,10.);
#370=VECTOR('',#1276,10.);
#371=VECTOR('',#1279,10.);
#372=VECTOR('',#1282,10.);
#373=VECTOR('',#1283,10.);
#374=VECTOR('',#1288,1.65);
#375=VECTOR('',#1291,10.);
#376=VECTOR('',#1292,10.);
#377=VECTOR('',#1293,10.);
#378=VECTOR('',#1296,10.);
#379=VECTOR('',#1297,10.);
#380=VECTOR('',#1302,10.);
#381=VECTOR('',#1305,10.);
#382=VECTOR('',#1306,10.);
#383=VECTOR('',#1311,10.);
#384=VECTOR('',#1314,10.);
#385=VECTOR('',#1319,10.);
#386=VECTOR('',#1320,10.);
#387=VECTOR('',#1321,10.);
#388=VECTOR('',#1328,9.99999999999999);
#389=VECTOR('',#1329,10.);
#390=VECTOR('',#1330,10.);
#391=VECTOR('',#1335,0.9);
#392=VECTOR('',#1338,10.);
#393=VECTOR('',#1339,10.);
#394=VECTOR('',#1342,10.);
#395=VECTOR('',#1343,10.);
#396=VECTOR('',#1346,10.);
#397=VECTOR('',#1351,0.9);
#398=VECTOR('',#1354,9.99999999999999);
#399=VECTOR('',#1355,10.);
#400=VECTOR('',#1358,9.99999999999999);
#401=VECTOR('',#1359,10.);
#402=VECTOR('',#1362,10.);
#403=ELLIPSE('',#1020,3.54177304428266,3.5);
#404=ELLIPSE('',#1021,3.53749230113098,3.5);
#405=ELLIPSE('',#1024,3.54177304428265,3.5);
#406=ELLIPSE('',#1025,3.53749230113097,3.49999999999999);
#407=ELLIPSE('',#1028,3.53958909596563,3.49999999999996);
#408=ELLIPSE('',#1029,3.53958909596567,3.5);
#409=ELLIPSE('',#1032,3.53958909596563,3.49999999999996);
#410=ELLIPSE('',#1035,3.53958909596567,3.5);
#411=ELLIPSE('',#1037,3.18162831713453,2.);
#412=ELLIPSE('',#1038,2.05090253070823,2.);
#413=ELLIPSE('',#1041,3.5510108173049,2.);
#414=ELLIPSE('',#1042,3.32201818004469,2.);
#415=ELLIPSE('',#1044,3.97191402325882,2.);
#416=ELLIPSE('',#1045,3.67494024662642,2.);
#417=ELLIPSE('',#1047,2.09743830122649,2.);
#418=ELLIPSE('',#1048,4.04385843742268,2.);
#419=VERTEX_POINT('',#1367);
#420=VERTEX_POINT('',#1368);
#421=VERTEX_POINT('',#1370);
#422=VERTEX_POINT('',#1372);
#423=VERTEX_POINT('',#1376);
#424=VERTEX_POINT('',#1378);
#425=VERTEX_POINT('',#1382);
#426=VERTEX_POINT('',#1384);
#427=VERTEX_POINT('',#1391);
#428=VERTEX_POINT('',#1392);
#429=VERTEX_POINT('',#1394);
#430=VERTEX_POINT('',#1396);
#431=VERTEX_POINT('',#1399);
#432=VERTEX_POINT('',#1400);
#433=VERTEX_POINT('',#1402);
#434=VERTEX_POINT('',#1404);
#435=VERTEX_POINT('',#1408);
#436=VERTEX_POINT('',#1410);
#437=VERTEX_POINT('',#1414);
#438=VERTEX_POINT('',#1418);
#439=VERTEX_POINT('',#1424);
#440=VERTEX_POINT('',#1425);
#441=VERTEX_POINT('',#1427);
#442=VERTEX_POINT('',#1429);
#443=VERTEX_POINT('',#1433);
#444=VERTEX_POINT('',#1435);
#445=VERTEX_POINT('',#1437);
#446=VERTEX_POINT('',#1439);
#447=VERTEX_POINT('',#1441);
#448=VERTEX_POINT('',#1445);
#449=VERTEX_POINT('',#1447);
#450=VERTEX_POINT('',#1451);
#451=VERTEX_POINT('',#1453);
#452=VERTEX_POINT('',#1457);
#453=VERTEX_POINT('',#1459);
#454=VERTEX_POINT('',#1478);
#455=VERTEX_POINT('',#1479);
#456=VERTEX_POINT('',#1486);
#457=VERTEX_POINT('',#1491);
#458=VERTEX_POINT('',#1493);
#459=VERTEX_POINT('',#1495);
#460=VERTEX_POINT('',#1514);
#461=VERTEX_POINT('',#1515);
#462=VERTEX_POINT('',#1526);
#463=VERTEX_POINT('',#1528);
#464=VERTEX_POINT('',#1532);
#465=VERTEX_POINT('',#1537);
#466=VERTEX_POINT('',#1545);
#467=VERTEX_POINT('',#1547);
#468=VERTEX_POINT('',#1549);
#469=VERTEX_POINT('',#1551);
#470=VERTEX_POINT('',#1553);
#471=VERTEX_POINT('',#1555);
#472=VERTEX_POINT('',#1557);
#473=VERTEX_POINT('',#1559);
#474=VERTEX_POINT('',#1563);
#475=VERTEX_POINT('',#1565);
#476=VERTEX_POINT('',#1568);
#477=VERTEX_POINT('',#1570);
#478=VERTEX_POINT('',#1572);
#479=VERTEX_POINT('',#1574);
#480=VERTEX_POINT('',#1576);
#481=VERTEX_POINT('',#1578);
#482=VERTEX_POINT('',#1580);
#483=VERTEX_POINT('',#1582);
#484=VERTEX_POINT('',#1590);
#485=VERTEX_POINT('',#1591);
#486=VERTEX_POINT('',#1593);
#487=VERTEX_POINT('',#1595);
#488=VERTEX_POINT('',#1599);
#489=VERTEX_POINT('',#1603);
#490=VERTEX_POINT('',#1604);
#491=VERTEX_POINT('',#1609);
#492=VERTEX_POINT('',#1610);
#493=VERTEX_POINT('',#1615);
#494=VERTEX_POINT('',#1616);
#495=VERTEX_POINT('',#1626);
#496=VERTEX_POINT('',#1630);
#497=VERTEX_POINT('',#1631);
#498=VERTEX_POINT('',#1636);
#499=VERTEX_POINT('',#1640);
#500=VERTEX_POINT('',#1644);
#501=VERTEX_POINT('',#1648);
#502=VERTEX_POINT('',#1655);
#503=VERTEX_POINT('',#1657);
#504=VERTEX_POINT('',#1660);
#505=VERTEX_POINT('',#1662);
#506=VERTEX_POINT('',#1665);
#507=VERTEX_POINT('',#1667);
#508=VERTEX_POINT('',#1671);
#509=VERTEX_POINT('',#1675);
#510=VERTEX_POINT('',#1679);
#511=VERTEX_POINT('',#1685);
#512=VERTEX_POINT('',#1689);
#513=VERTEX_POINT('',#1693);
#514=EDGE_CURVE('',#419,#420,#403,.T.);
#515=EDGE_CURVE('',#419,#421,#189,.T.);
#516=EDGE_CURVE('',#422,#421,#404,.T.);
#517=EDGE_CURVE('',#420,#422,#190,.T.);
#518=EDGE_CURVE('',#420,#423,#191,.T.);
#519=EDGE_CURVE('',#424,#422,#192,.T.);
#520=EDGE_CURVE('',#424,#423,#193,.T.);
#521=EDGE_CURVE('',#423,#425,#405,.T.);
#522=EDGE_CURVE('',#426,#424,#406,.T.);
#523=EDGE_CURVE('',#426,#425,#194,.T.);
#524=EDGE_CURVE('',#425,#419,#195,.T.);
#525=EDGE_CURVE('',#421,#426,#196,.T.);
#526=EDGE_CURVE('',#427,#428,#197,.T.);
#527=EDGE_CURVE('',#427,#429,#198,.T.);
#528=EDGE_CURVE('',#430,#429,#199,.T.);
#529=EDGE_CURVE('',#430,#428,#200,.T.);
#530=EDGE_CURVE('',#431,#432,#201,.T.);
#531=EDGE_CURVE('',#432,#433,#407,.T.);
#532=EDGE_CURVE('',#433,#434,#202,.T.);
#533=EDGE_CURVE('',#434,#431,#408,.T.);
#534=EDGE_CURVE('',#435,#431,#203,.T.);
#535=EDGE_CURVE('',#436,#435,#204,.T.);
#536=EDGE_CURVE('',#436,#432,#205,.T.);
#537=EDGE_CURVE('',#437,#436,#409,.T.);
#538=EDGE_CURVE('',#433,#437,#206,.T.);
#539=EDGE_CURVE('',#438,#437,#207,.T.);
#540=EDGE_CURVE('',#438,#434,#208,.T.);
#541=EDGE_CURVE('',#435,#438,#410,.T.);
#542=EDGE_CURVE('',#439,#440,#411,.T.);
#543=EDGE_CURVE('',#440,#441,#209,.T.);
#544=EDGE_CURVE('',#441,#442,#412,.T.);
#545=EDGE_CURVE('',#442,#439,#210,.T.);
#546=EDGE_CURVE('',#441,#443,#211,.T.);
#547=EDGE_CURVE('',#440,#444,#212,.T.);
#548=EDGE_CURVE('',#445,#444,#213,.T.);
#549=EDGE_CURVE('',#446,#445,#214,.T.);
#550=EDGE_CURVE('',#446,#447,#215,.T.);
#551=EDGE_CURVE('',#447,#443,#216,.T.);
#552=EDGE_CURVE('',#448,#427,#413,.T.);
#553=EDGE_CURVE('',#428,#449,#414,.T.);
#554=EDGE_CURVE('',#449,#448,#217,.T.);
#555=EDGE_CURVE('',#450,#430,#415,.T.);
#556=EDGE_CURVE('',#429,#451,#416,.T.);
#557=EDGE_CURVE('',#451,#450,#218,.T.);
#558=EDGE_CURVE('',#452,#445,#417,.T.);
#559=EDGE_CURVE('',#444,#453,#418,.T.);
#560=EDGE_CURVE('',#453,#452,#219,.T.);
#561=EDGE_CURVE('',#454,#455,#31,.T.);
#562=EDGE_CURVE('',#456,#454,#32,.T.);
#563=EDGE_CURVE('',#457,#456,#220,.T.);
#564=EDGE_CURVE('',#458,#457,#221,.T.);
#565=EDGE_CURVE('',#458,#459,#222,.T.);
#566=EDGE_CURVE('',#459,#455,#223,.T.);
#567=EDGE_CURVE('',#460,#461,#33,.T.);
#568=EDGE_CURVE('',#460,#462,#224,.T.);
#569=EDGE_CURVE('',#463,#462,#225,.T.);
#570=EDGE_CURVE('',#461,#463,#226,.T.);
#571=EDGE_CURVE('',#464,#446,#227,.T.);
#572=EDGE_CURVE('',#464,#447,#228,.T.);
#573=EDGE_CURVE('',#455,#464,#229,.T.);
#574=EDGE_CURVE('',#465,#458,#230,.T.);
#575=EDGE_CURVE('',#443,#465,#231,.T.);
#576=EDGE_CURVE('',#453,#460,#232,.T.);
#577=EDGE_CURVE('',#462,#439,#233,.T.);
#578=EDGE_CURVE('',#451,#456,#234,.T.);
#579=EDGE_CURVE('',#454,#466,#235,.T.);
#580=EDGE_CURVE('',#466,#467,#15,.T.);
#581=EDGE_CURVE('',#467,#468,#236,.T.);
#582=EDGE_CURVE('',#468,#469,#16,.T.);
#583=EDGE_CURVE('',#469,#470,#237,.T.);
#584=EDGE_CURVE('',#470,#471,#17,.T.);
#585=EDGE_CURVE('',#471,#472,#238,.T.);
#586=EDGE_CURVE('',#472,#473,#18,.T.);
#587=EDGE_CURVE('',#473,#452,#239,.T.);
#588=EDGE_CURVE('',#461,#450,#240,.T.);
#589=EDGE_CURVE('',#474,#474,#19,.T.);
#590=EDGE_CURVE('',#475,#475,#20,.T.);
#591=EDGE_CURVE('',#476,#465,#241,.T.);
#592=EDGE_CURVE('',#477,#476,#242,.T.);
#593=EDGE_CURVE('',#478,#477,#243,.T.);
#594=EDGE_CURVE('',#478,#479,#244,.T.);
#595=EDGE_CURVE('',#480,#479,#245,.T.);
#596=EDGE_CURVE('',#481,#480,#246,.T.);
#597=EDGE_CURVE('',#482,#481,#247,.T.);
#598=EDGE_CURVE('',#482,#483,#248,.T.);
#599=EDGE_CURVE('',#442,#483,#249,.T.);
#600=EDGE_CURVE('',#457,#448,#250,.T.);
#601=EDGE_CURVE('',#449,#463,#251,.T.);
#602=EDGE_CURVE('',#484,#485,#252,.T.);
#603=EDGE_CURVE('',#485,#486,#253,.T.);
#604=EDGE_CURVE('',#486,#487,#254,.T.);
#605=EDGE_CURVE('',#487,#484,#255,.T.);
#606=EDGE_CURVE('',#488,#488,#21,.T.);
#607=EDGE_CURVE('',#488,#474,#256,.T.);
#608=EDGE_CURVE('',#489,#490,#22,.T.);
#609=EDGE_CURVE('',#490,#471,#257,.T.);
#610=EDGE_CURVE('',#489,#470,#258,.T.);
#611=EDGE_CURVE('',#491,#492,#259,.T.);
#612=EDGE_CURVE('',#492,#487,#260,.T.);
#613=EDGE_CURVE('',#491,#486,#261,.T.);
#614=EDGE_CURVE('',#493,#494,#23,.T.);
#615=EDGE_CURVE('',#494,#473,#262,.T.);
#616=EDGE_CURVE('',#493,#472,#263,.T.);
#617=EDGE_CURVE('',#490,#493,#264,.T.);
#618=EDGE_CURVE('',#492,#489,#265,.T.);
#619=EDGE_CURVE('',#494,#491,#266,.T.);
#620=EDGE_CURVE('',#495,#495,#24,.T.);
#621=EDGE_CURVE('',#495,#475,#267,.T.);
#622=EDGE_CURVE('',#496,#497,#268,.T.);
#623=EDGE_CURVE('',#497,#485,#269,.T.);
#624=EDGE_CURVE('',#496,#484,#270,.T.);
#625=EDGE_CURVE('',#498,#496,#271,.T.);
#626=EDGE_CURVE('',#498,#469,#272,.T.);
#627=EDGE_CURVE('',#499,#498,#25,.T.);
#628=EDGE_CURVE('',#499,#468,#273,.T.);
#629=EDGE_CURVE('',#500,#499,#274,.T.);
#630=EDGE_CURVE('',#500,#467,#275,.T.);
#631=EDGE_CURVE('',#501,#500,#26,.T.);
#632=EDGE_CURVE('',#501,#466,#276,.T.);
#633=EDGE_CURVE('',#497,#501,#277,.T.);
#634=EDGE_CURVE('',#483,#502,#278,.T.);
#635=EDGE_CURVE('',#502,#503,#279,.T.);
#636=EDGE_CURVE('',#503,#476,#280,.T.);
#637=EDGE_CURVE('',#504,#504,#27,.T.);
#638=EDGE_CURVE('',#505,#505,#28,.T.);
#639=EDGE_CURVE('',#479,#506,#281,.T.);
#640=EDGE_CURVE('',#506,#507,#282,.T.);
#641=EDGE_CURVE('',#507,#480,#283,.T.);
#642=EDGE_CURVE('',#508,#508,#29,.T.);
#643=EDGE_CURVE('',#508,#505,#284,.T.);
#644=EDGE_CURVE('',#509,#482,#285,.T.);
#645=EDGE_CURVE('',#509,#502,#286,.T.);
#646=EDGE_CURVE('',#510,#481,#287,.T.);
#647=EDGE_CURVE('',#510,#507,#288,.T.);
#648=EDGE_CURVE('',#509,#510,#289,.T.);
#649=EDGE_CURVE('',#511,#511,#30,.T.);
#650=EDGE_CURVE('',#511,#504,#290,.T.);
#651=EDGE_CURVE('',#512,#478,#291,.T.);
#652=EDGE_CURVE('',#512,#506,#292,.T.);
#653=EDGE_CURVE('',#477,#513,#293,.T.);
#654=EDGE_CURVE('',#513,#503,#294,.T.);
#655=EDGE_CURVE('',#512,#513,#295,.T.);
#656=ORIENTED_EDGE('',*,*,#514,.F.);
#657=ORIENTED_EDGE('',*,*,#515,.T.);
#658=ORIENTED_EDGE('',*,*,#516,.F.);
#659=ORIENTED_EDGE('',*,*,#517,.F.);
#660=ORIENTED_EDGE('',*,*,#518,.F.);
#661=ORIENTED_EDGE('',*,*,#517,.T.);
#662=ORIENTED_EDGE('',*,*,#519,.F.);
#663=ORIENTED_EDGE('',*,*,#520,.T.);
#664=ORIENTED_EDGE('',*,*,#521,.F.);
#665=ORIENTED_EDGE('',*,*,#520,.F.);
#666=ORIENTED_EDGE('',*,*,#522,.F.);
#667=ORIENTED_EDGE('',*,*,#523,.T.);
#668=ORIENTED_EDGE('',*,*,#524,.F.);
#669=ORIENTED_EDGE('',*,*,#523,.F.);
#670=ORIENTED_EDGE('',*,*,#525,.F.);
#671=ORIENTED_EDGE('',*,*,#515,.F.);
#672=ORIENTED_EDGE('',*,*,#526,.F.);
#673=ORIENTED_EDGE('',*,*,#527,.T.);
#674=ORIENTED_EDGE('',*,*,#528,.F.);
#675=ORIENTED_EDGE('',*,*,#529,.T.);
#676=ORIENTED_EDGE('',*,*,#524,.T.);
#677=ORIENTED_EDGE('',*,*,#514,.T.);
#678=ORIENTED_EDGE('',*,*,#518,.T.);
#679=ORIENTED_EDGE('',*,*,#521,.T.);
#680=ORIENTED_EDGE('',*,*,#530,.T.);
#681=ORIENTED_EDGE('',*,*,#531,.T.);
#682=ORIENTED_EDGE('',*,*,#532,.T.);
#683=ORIENTED_EDGE('',*,*,#533,.T.);
#684=ORIENTED_EDGE('',*,*,#530,.F.);
#685=ORIENTED_EDGE('',*,*,#534,.F.);
#686=ORIENTED_EDGE('',*,*,#535,.F.);
#687=ORIENTED_EDGE('',*,*,#536,.T.);
#688=ORIENTED_EDGE('',*,*,#531,.F.);
#689=ORIENTED_EDGE('',*,*,#536,.F.);
#690=ORIENTED_EDGE('',*,*,#537,.F.);
#691=ORIENTED_EDGE('',*,*,#538,.F.);
#692=ORIENTED_EDGE('',*,*,#532,.F.);
#693=ORIENTED_EDGE('',*,*,#538,.T.);
#694=ORIENTED_EDGE('',*,*,#539,.F.);
#695=ORIENTED_EDGE('',*,*,#540,.T.);
#696=ORIENTED_EDGE('',*,*,#533,.F.);
#697=ORIENTED_EDGE('',*,*,#540,.F.);
#698=ORIENTED_EDGE('',*,*,#541,.F.);
#699=ORIENTED_EDGE('',*,*,#534,.T.);
#700=ORIENTED_EDGE('',*,*,#542,.T.);
#701=ORIENTED_EDGE('',*,*,#543,.T.);
#702=ORIENTED_EDGE('',*,*,#544,.T.);
#703=ORIENTED_EDGE('',*,*,#545,.T.);
#704=ORIENTED_EDGE('',*,*,#546,.F.);
#705=ORIENTED_EDGE('',*,*,#543,.F.);
#706=ORIENTED_EDGE('',*,*,#547,.T.);
#707=ORIENTED_EDGE('',*,*,#548,.F.);
#708=ORIENTED_EDGE('',*,*,#549,.F.);
#709=ORIENTED_EDGE('',*,*,#550,.T.);
#710=ORIENTED_EDGE('',*,*,#551,.T.);
#711=ORIENTED_EDGE('',*,*,#516,.T.);
#712=ORIENTED_EDGE('',*,*,#525,.T.);
#713=ORIENTED_EDGE('',*,*,#522,.T.);
#714=ORIENTED_EDGE('',*,*,#519,.T.);
#715=ORIENTED_EDGE('',*,*,#535,.T.);
#716=ORIENTED_EDGE('',*,*,#541,.T.);
#717=ORIENTED_EDGE('',*,*,#539,.T.);
#718=ORIENTED_EDGE('',*,*,#537,.T.);
#719=ORIENTED_EDGE('',*,*,#552,.T.);
#720=ORIENTED_EDGE('',*,*,#526,.T.);
#721=ORIENTED_EDGE('',*,*,#553,.T.);
#722=ORIENTED_EDGE('',*,*,#554,.T.);
#723=ORIENTED_EDGE('',*,*,#555,.T.);
#724=ORIENTED_EDGE('',*,*,#528,.T.);
#725=ORIENTED_EDGE('',*,*,#556,.T.);
#726=ORIENTED_EDGE('',*,*,#557,.T.);
#727=ORIENTED_EDGE('',*,*,#558,.T.);
#728=ORIENTED_EDGE('',*,*,#548,.T.);
#729=ORIENTED_EDGE('',*,*,#559,.T.);
#730=ORIENTED_EDGE('',*,*,#560,.T.);
#731=ORIENTED_EDGE('',*,*,#561,.F.);
#732=ORIENTED_EDGE('',*,*,#562,.F.);
#733=ORIENTED_EDGE('',*,*,#563,.F.);
#734=ORIENTED_EDGE('',*,*,#564,.F.);
#735=ORIENTED_EDGE('',*,*,#565,.T.);
#736=ORIENTED_EDGE('',*,*,#566,.T.);
#737=ORIENTED_EDGE('',*,*,#567,.F.);
#738=ORIENTED_EDGE('',*,*,#568,.T.);
#739=ORIENTED_EDGE('',*,*,#569,.F.);
#740=ORIENTED_EDGE('',*,*,#570,.F.);
#741=ORIENTED_EDGE('',*,*,#571,.F.);
#742=ORIENTED_EDGE('',*,*,#572,.T.);
#743=ORIENTED_EDGE('',*,*,#550,.F.);
#744=ORIENTED_EDGE('',*,*,#573,.F.);
#745=ORIENTED_EDGE('',*,*,#566,.F.);
#746=ORIENTED_EDGE('',*,*,#565,.F.);
#747=ORIENTED_EDGE('',*,*,#574,.F.);
#748=ORIENTED_EDGE('',*,*,#575,.F.);
#749=ORIENTED_EDGE('',*,*,#551,.F.);
#750=ORIENTED_EDGE('',*,*,#572,.F.);
#751=ORIENTED_EDGE('',*,*,#576,.F.);
#752=ORIENTED_EDGE('',*,*,#559,.F.);
#753=ORIENTED_EDGE('',*,*,#547,.F.);
#754=ORIENTED_EDGE('',*,*,#542,.F.);
#755=ORIENTED_EDGE('',*,*,#577,.F.);
#756=ORIENTED_EDGE('',*,*,#568,.F.);
#757=ORIENTED_EDGE('',*,*,#578,.T.);
#758=ORIENTED_EDGE('',*,*,#562,.T.);
#759=ORIENTED_EDGE('',*,*,#579,.T.);
#760=ORIENTED_EDGE('',*,*,#580,.T.);
#761=ORIENTED_EDGE('',*,*,#581,.T.);
#762=ORIENTED_EDGE('',*,*,#582,.T.);
#763=ORIENTED_EDGE('',*,*,#583,.T.);
#764=ORIENTED_EDGE('',*,*,#584,.T.);
#765=ORIENTED_EDGE('',*,*,#585,.T.);
#766=ORIENTED_EDGE('',*,*,#586,.T.);
#767=ORIENTED_EDGE('',*,*,#587,.T.);
#768=ORIENTED_EDGE('',*,*,#560,.F.);
#769=ORIENTED_EDGE('',*,*,#576,.T.);
#770=ORIENTED_EDGE('',*,*,#567,.T.);
#771=ORIENTED_EDGE('',*,*,#588,.T.);
#772=ORIENTED_EDGE('',*,*,#557,.F.);
#773=ORIENTED_EDGE('',*,*,#589,.T.);
#774=ORIENTED_EDGE('',*,*,#590,.T.);
#775=ORIENTED_EDGE('',*,*,#546,.T.);
#776=ORIENTED_EDGE('',*,*,#575,.T.);
#777=ORIENTED_EDGE('',*,*,#591,.F.);
#778=ORIENTED_EDGE('',*,*,#592,.F.);
#779=ORIENTED_EDGE('',*,*,#593,.F.);
#780=ORIENTED_EDGE('',*,*,#594,.T.);
#781=ORIENTED_EDGE('',*,*,#595,.F.);
#782=ORIENTED_EDGE('',*,*,#596,.F.);
#783=ORIENTED_EDGE('',*,*,#597,.F.);
#784=ORIENTED_EDGE('',*,*,#598,.T.);
#785=ORIENTED_EDGE('',*,*,#599,.F.);
#786=ORIENTED_EDGE('',*,*,#544,.F.);
#787=ORIENTED_EDGE('',*,*,#600,.F.);
#788=ORIENTED_EDGE('',*,*,#563,.T.);
#789=ORIENTED_EDGE('',*,*,#578,.F.);
#790=ORIENTED_EDGE('',*,*,#556,.F.);
#791=ORIENTED_EDGE('',*,*,#527,.F.);
#792=ORIENTED_EDGE('',*,*,#552,.F.);
#793=ORIENTED_EDGE('',*,*,#601,.F.);
#794=ORIENTED_EDGE('',*,*,#553,.F.);
#795=ORIENTED_EDGE('',*,*,#529,.F.);
#796=ORIENTED_EDGE('',*,*,#555,.F.);
#797=ORIENTED_EDGE('',*,*,#588,.F.);
#798=ORIENTED_EDGE('',*,*,#570,.T.);
#799=ORIENTED_EDGE('',*,*,#602,.T.);
#800=ORIENTED_EDGE('',*,*,#603,.T.);
#801=ORIENTED_EDGE('',*,*,#604,.T.);
#802=ORIENTED_EDGE('',*,*,#605,.T.);
#803=ORIENTED_EDGE('',*,*,#606,.T.);
#804=ORIENTED_EDGE('',*,*,#607,.T.);
#805=ORIENTED_EDGE('',*,*,#589,.F.);
#806=ORIENTED_EDGE('',*,*,#607,.F.);
#807=ORIENTED_EDGE('',*,*,#608,.T.);
#808=ORIENTED_EDGE('',*,*,#609,.T.);
#809=ORIENTED_EDGE('',*,*,#584,.F.);
#810=ORIENTED_EDGE('',*,*,#610,.F.);
#811=ORIENTED_EDGE('',*,*,#611,.T.);
#812=ORIENTED_EDGE('',*,*,#612,.T.);
#813=ORIENTED_EDGE('',*,*,#604,.F.);
#814=ORIENTED_EDGE('',*,*,#613,.F.);
#815=ORIENTED_EDGE('',*,*,#614,.T.);
#816=ORIENTED_EDGE('',*,*,#615,.T.);
#817=ORIENTED_EDGE('',*,*,#586,.F.);
#818=ORIENTED_EDGE('',*,*,#616,.F.);
#819=ORIENTED_EDGE('',*,*,#617,.T.);
#820=ORIENTED_EDGE('',*,*,#616,.T.);
#821=ORIENTED_EDGE('',*,*,#585,.F.);
#822=ORIENTED_EDGE('',*,*,#609,.F.);
#823=ORIENTED_EDGE('',*,*,#617,.F.);
#824=ORIENTED_EDGE('',*,*,#608,.F.);
#825=ORIENTED_EDGE('',*,*,#618,.F.);
#826=ORIENTED_EDGE('',*,*,#611,.F.);
#827=ORIENTED_EDGE('',*,*,#619,.F.);
#828=ORIENTED_EDGE('',*,*,#614,.F.);
#829=ORIENTED_EDGE('',*,*,#606,.F.);
#830=ORIENTED_EDGE('',*,*,#620,.T.);
#831=ORIENTED_EDGE('',*,*,#621,.T.);
#832=ORIENTED_EDGE('',*,*,#590,.F.);
#833=ORIENTED_EDGE('',*,*,#621,.F.);
#834=ORIENTED_EDGE('',*,*,#622,.T.);
#835=ORIENTED_EDGE('',*,*,#623,.T.);
#836=ORIENTED_EDGE('',*,*,#602,.F.);
#837=ORIENTED_EDGE('',*,*,#624,.F.);
#838=ORIENTED_EDGE('',*,*,#625,.T.);
#839=ORIENTED_EDGE('',*,*,#624,.T.);
#840=ORIENTED_EDGE('',*,*,#605,.F.);
#841=ORIENTED_EDGE('',*,*,#612,.F.);
#842=ORIENTED_EDGE('',*,*,#618,.T.);
#843=ORIENTED_EDGE('',*,*,#610,.T.);
#844=ORIENTED_EDGE('',*,*,#583,.F.);
#845=ORIENTED_EDGE('',*,*,#626,.F.);
#846=ORIENTED_EDGE('',*,*,#627,.T.);
#847=ORIENTED_EDGE('',*,*,#626,.T.);
#848=ORIENTED_EDGE('',*,*,#582,.F.);
#849=ORIENTED_EDGE('',*,*,#628,.F.);
#850=ORIENTED_EDGE('',*,*,#629,.T.);
#851=ORIENTED_EDGE('',*,*,#628,.T.);
#852=ORIENTED_EDGE('',*,*,#581,.F.);
#853=ORIENTED_EDGE('',*,*,#630,.F.);
#854=ORIENTED_EDGE('',*,*,#631,.T.);
#855=ORIENTED_EDGE('',*,*,#630,.T.);
#856=ORIENTED_EDGE('',*,*,#580,.F.);
#857=ORIENTED_EDGE('',*,*,#632,.F.);
#858=ORIENTED_EDGE('',*,*,#561,.T.);
#859=ORIENTED_EDGE('',*,*,#573,.T.);
#860=ORIENTED_EDGE('',*,*,#571,.T.);
#861=ORIENTED_EDGE('',*,*,#549,.T.);
#862=ORIENTED_EDGE('',*,*,#558,.F.);
#863=ORIENTED_EDGE('',*,*,#587,.F.);
#864=ORIENTED_EDGE('',*,*,#615,.F.);
#865=ORIENTED_EDGE('',*,*,#619,.T.);
#866=ORIENTED_EDGE('',*,*,#613,.T.);
#867=ORIENTED_EDGE('',*,*,#603,.F.);
#868=ORIENTED_EDGE('',*,*,#623,.F.);
#869=ORIENTED_EDGE('',*,*,#633,.T.);
#870=ORIENTED_EDGE('',*,*,#632,.T.);
#871=ORIENTED_EDGE('',*,*,#579,.F.);
#872=ORIENTED_EDGE('',*,*,#633,.F.);
#873=ORIENTED_EDGE('',*,*,#622,.F.);
#874=ORIENTED_EDGE('',*,*,#625,.F.);
#875=ORIENTED_EDGE('',*,*,#627,.F.);
#876=ORIENTED_EDGE('',*,*,#629,.F.);
#877=ORIENTED_EDGE('',*,*,#631,.F.);
#878=ORIENTED_EDGE('',*,*,#620,.F.);
#879=ORIENTED_EDGE('',*,*,#545,.F.);
#880=ORIENTED_EDGE('',*,*,#599,.T.);
#881=ORIENTED_EDGE('',*,*,#634,.T.);
#882=ORIENTED_EDGE('',*,*,#635,.T.);
#883=ORIENTED_EDGE('',*,*,#636,.T.);
#884=ORIENTED_EDGE('',*,*,#591,.T.);
#885=ORIENTED_EDGE('',*,*,#574,.T.);
#886=ORIENTED_EDGE('',*,*,#564,.T.);
#887=ORIENTED_EDGE('',*,*,#600,.T.);
#888=ORIENTED_EDGE('',*,*,#554,.F.);
#889=ORIENTED_EDGE('',*,*,#601,.T.);
#890=ORIENTED_EDGE('',*,*,#569,.T.);
#891=ORIENTED_EDGE('',*,*,#577,.T.);
#892=ORIENTED_EDGE('',*,*,#637,.T.);
#893=ORIENTED_EDGE('',*,*,#638,.T.);
#894=ORIENTED_EDGE('',*,*,#639,.T.);
#895=ORIENTED_EDGE('',*,*,#640,.T.);
#896=ORIENTED_EDGE('',*,*,#641,.T.);
#897=ORIENTED_EDGE('',*,*,#595,.T.);
#898=ORIENTED_EDGE('',*,*,#642,.T.);
#899=ORIENTED_EDGE('',*,*,#643,.T.);
#900=ORIENTED_EDGE('',*,*,#638,.F.);
#901=ORIENTED_EDGE('',*,*,#643,.F.);
#902=ORIENTED_EDGE('',*,*,#644,.F.);
#903=ORIENTED_EDGE('',*,*,#645,.T.);
#904=ORIENTED_EDGE('',*,*,#634,.F.);
#905=ORIENTED_EDGE('',*,*,#598,.F.);
#906=ORIENTED_EDGE('',*,*,#646,.T.);
#907=ORIENTED_EDGE('',*,*,#596,.T.);
#908=ORIENTED_EDGE('',*,*,#641,.F.);
#909=ORIENTED_EDGE('',*,*,#647,.F.);
#910=ORIENTED_EDGE('',*,*,#648,.F.);
#911=ORIENTED_EDGE('',*,*,#644,.T.);
#912=ORIENTED_EDGE('',*,*,#597,.T.);
#913=ORIENTED_EDGE('',*,*,#646,.F.);
#914=ORIENTED_EDGE('',*,*,#642,.F.);
#915=ORIENTED_EDGE('',*,*,#649,.T.);
#916=ORIENTED_EDGE('',*,*,#650,.T.);
#917=ORIENTED_EDGE('',*,*,#637,.F.);
#918=ORIENTED_EDGE('',*,*,#650,.F.);
#919=ORIENTED_EDGE('',*,*,#651,.F.);
#920=ORIENTED_EDGE('',*,*,#652,.T.);
#921=ORIENTED_EDGE('',*,*,#639,.F.);
#922=ORIENTED_EDGE('',*,*,#594,.F.);
#923=ORIENTED_EDGE('',*,*,#653,.F.);
#924=ORIENTED_EDGE('',*,*,#592,.T.);
#925=ORIENTED_EDGE('',*,*,#636,.F.);
#926=ORIENTED_EDGE('',*,*,#654,.F.);
#927=ORIENTED_EDGE('',*,*,#655,.T.);
#928=ORIENTED_EDGE('',*,*,#654,.T.);
#929=ORIENTED_EDGE('',*,*,#635,.F.);
#930=ORIENTED_EDGE('',*,*,#645,.F.);
#931=ORIENTED_EDGE('',*,*,#648,.T.);
#932=ORIENTED_EDGE('',*,*,#647,.T.);
#933=ORIENTED_EDGE('',*,*,#640,.F.);
#934=ORIENTED_EDGE('',*,*,#652,.F.);
#935=ORIENTED_EDGE('',*,*,#655,.F.);
#936=ORIENTED_EDGE('',*,*,#651,.T.);
#937=ORIENTED_EDGE('',*,*,#593,.T.);
#938=ORIENTED_EDGE('',*,*,#653,.T.);
#939=ORIENTED_EDGE('',*,*,#649,.F.);
#940=CYLINDRICAL_SURFACE('',#1019,3.5);
#941=CYLINDRICAL_SURFACE('',#1023,3.5);
#942=CYLINDRICAL_SURFACE('',#1031,3.49999999999996);
#943=CYLINDRICAL_SURFACE('',#1034,3.5);
#944=CYLINDRICAL_SURFACE('',#1036,2.);
#945=CYLINDRICAL_SURFACE('',#1040,2.);
#946=CYLINDRICAL_SURFACE('',#1043,2.);
#947=CYLINDRICAL_SURFACE('',#1046,2.);
#948=CYLINDRICAL_SURFACE('',#1063,1.65);
#949=CYLINDRICAL_SURFACE('',#1065,2.99999999999998);
#950=CYLINDRICAL_SURFACE('',#1068,2.99999999999999);
#951=CYLINDRICAL_SURFACE('',#1072,1.65);
#952=CYLINDRICAL_SURFACE('',#1076,3.);
#953=CYLINDRICAL_SURFACE('',#1079,2.99999999999999);
#954=CYLINDRICAL_SURFACE('',#1087,0.9);
#955=CYLINDRICAL_SURFACE('',#1092,0.9);
#956=ADVANCED_FACE('',(#79),#940,.F.);
#957=ADVANCED_FACE('',(#80),#48,.F.);
#958=ADVANCED_FACE('',(#81),#941,.F.);
#959=ADVANCED_FACE('',(#82),#49,.F.);
#960=ADVANCED_FACE('',(#83,#36,#37),#50,.T.);
#961=ADVANCED_FACE('',(#84),#51,.F.);
#962=ADVANCED_FACE('',(#85),#942,.F.);
#963=ADVANCED_FACE('',(#86),#52,.F.);
#964=ADVANCED_FACE('',(#87),#943,.F.);
#965=ADVANCED_FACE('',(#88),#944,.F.);
#966=ADVANCED_FACE('',(#89,#38,#39),#53,.T.);
#967=ADVANCED_FACE('',(#90),#945,.F.);
#968=ADVANCED_FACE('',(#91),#946,.F.);
#969=ADVANCED_FACE('',(#92),#947,.F.);
#970=ADVANCED_FACE('',(#93),#34,.F.);
#971=ADVANCED_FACE('',(#94),#35,.F.);
#972=ADVANCED_FACE('',(#95),#54,.T.);
#973=ADVANCED_FACE('',(#96),#55,.T.);
#974=ADVANCED_FACE('',(#97),#56,.T.);
#975=ADVANCED_FACE('',(#98,#40,#41),#57,.T.);
#976=ADVANCED_FACE('',(#99),#58,.T.);
#977=ADVANCED_FACE('',(#100),#59,.T.);
#978=ADVANCED_FACE('',(#101),#60,.T.);
#979=ADVANCED_FACE('',(#102),#61,.F.);
#980=ADVANCED_FACE('',(#103),#948,.F.);
#981=ADVANCED_FACE('',(#104),#949,.T.);
#982=ADVANCED_FACE('',(#105),#62,.T.);
#983=ADVANCED_FACE('',(#106),#950,.T.);
#984=ADVANCED_FACE('',(#107),#63,.T.);
#985=ADVANCED_FACE('',(#108,#42),#64,.F.);
#986=ADVANCED_FACE('',(#109),#951,.F.);
#987=ADVANCED_FACE('',(#110),#65,.T.);
#988=ADVANCED_FACE('',(#111),#66,.T.);
#989=ADVANCED_FACE('',(#112),#952,.T.);
#990=ADVANCED_FACE('',(#113),#67,.T.);
#991=ADVANCED_FACE('',(#114),#953,.T.);
#992=ADVANCED_FACE('',(#115),#68,.T.);
#993=ADVANCED_FACE('',(#116,#43),#69,.F.);
#994=ADVANCED_FACE('',(#117,#44,#45),#70,.T.);
#995=ADVANCED_FACE('',(#118),#71,.F.);
#996=ADVANCED_FACE('',(#119),#954,.F.);
#997=ADVANCED_FACE('',(#120),#72,.T.);
#998=ADVANCED_FACE('',(#121),#73,.T.);
#999=ADVANCED_FACE('',(#122,#46),#74,.F.);
#1000=ADVANCED_FACE('',(#123),#955,.F.);
#1001=ADVANCED_FACE('',(#124),#75,.T.);
#1002=ADVANCED_FACE('',(#125),#76,.T.);
#1003=ADVANCED_FACE('',(#126),#77,.T.);
#1004=ADVANCED_FACE('',(#127,#47),#78,.F.);
#1005=CLOSED_SHELL('',(#956,#957,#958,#959,#960,#961,#962,#963,#964,#965,
#966,#967,#968,#969,#970,#971,#972,#973,#974,#975,#976,#977,#978,#979,#980,
#981,#982,#983,#984,#985,#986,#987,#988,#989,#990,#991,#992,#993,#994,#995,
#996,#997,#998,#999,#1000,#1001,#1002,#1003,#1004));
#1006=DERIVED_UNIT_ELEMENT(#1008,1.);
#1007=DERIVED_UNIT_ELEMENT(#1704,-3.);
#1008=(
MASS_UNIT()
NAMED_UNIT(*)
SI_UNIT(.KILO.,.GRAM.)
);
#1009=DERIVED_UNIT((#1006,#1007));
#1010=MEASURE_REPRESENTATION_ITEM('density measure',
POSITIVE_RATIO_MEASURE(7850.),#1009);
#1011=PROPERTY_DEFINITION_REPRESENTATION(#1016,#1013);
#1012=PROPERTY_DEFINITION_REPRESENTATION(#1017,#1014);
#1013=REPRESENTATION('material name',(#1015),#1701);
#1014=REPRESENTATION('density',(#1010),#1701);
#1015=DESCRIPTIVE_REPRESENTATION_ITEM('\X2\92FC\X0\','\X2\92FC\X0\');
#1016=PROPERTY_DEFINITION('material property','material name',#1711);
#1017=PROPERTY_DEFINITION('material property','density of part',#1711);
#1018=AXIS2_PLACEMENT_3D('',#1365,#1098,#1099);
#1019=AXIS2_PLACEMENT_3D('',#1366,#1100,#1101);
#1020=AXIS2_PLACEMENT_3D('',#1369,#1102,#1103);
#1021=AXIS2_PLACEMENT_3D('',#1373,#1105,#1106);
#1022=AXIS2_PLACEMENT_3D('',#1375,#1108,#1109);
#1023=AXIS2_PLACEMENT_3D('',#1381,#1113,#1114);
#1024=AXIS2_PLACEMENT_3D('',#1383,#1115,#1116);
#1025=AXIS2_PLACEMENT_3D('',#1385,#1117,#1118);
#1026=AXIS2_PLACEMENT_3D('',#1387,#1120,#1121);
#1027=AXIS2_PLACEMENT_3D('',#1390,#1124,#1125);
#1028=AXIS2_PLACEMENT_3D('',#1403,#1131,#1132);
#1029=AXIS2_PLACEMENT_3D('',#1406,#1134,#1135);
#1030=AXIS2_PLACEMENT_3D('',#1407,#1136,#1137);
#1031=AXIS2_PLACEMENT_3D('',#1413,#1141,#1142);
#1032=AXIS2_PLACEMENT_3D('',#1415,#1143,#1144);
#1033=AXIS2_PLACEMENT_3D('',#1417,#1146,#1147);
#1034=AXIS2_PLACEMENT_3D('',#1421,#1150,#1151);
#1035=AXIS2_PLACEMENT_3D('',#1422,#1152,#1153);
#1036=AXIS2_PLACEMENT_3D('',#1423,#1154,#1155);
#1037=AXIS2_PLACEMENT_3D('',#1426,#1156,#1157);
#1038=AXIS2_PLACEMENT_3D('',#1430,#1159,#1160);
#1039=AXIS2_PLACEMENT_3D('',#1432,#1162,#1163);
#1040=AXIS2_PLACEMENT_3D('',#1444,#1170,#1171);
#1041=AXIS2_PLACEMENT_3D('',#1446,#1172,#1173);
#1042=AXIS2_PLACEMENT_3D('',#1448,#1174,#1175);
#1043=AXIS2_PLACEMENT_3D('',#1450,#1177,#1178);
#1044=AXIS2_PLACEMENT_3D('',#1452,#1179,#1180);
#1045=AXIS2_PLACEMENT_3D('',#1454,#1181,#1182);
#1046=AXIS2_PLACEMENT_3D('',#1456,#1184,#1185);
#1047=AXIS2_PLACEMENT_3D('',#1458,#1186,#1187);
#1048=AXIS2_PLACEMENT_3D('',#1460,#1188,#1189);
#1049=AXIS2_PLACEMENT_3D('',#1531,#1198,#1199);
#1050=AXIS2_PLACEMENT_3D('',#1535,#1202,#1203);
#1051=AXIS2_PLACEMENT_3D('',#1540,#1207,#1208);
#1052=AXIS2_PLACEMENT_3D('',#1543,#1211,#1212);
#1053=AXIS2_PLACEMENT_3D('',#1548,#1215,#1216);
#1054=AXIS2_PLACEMENT_3D('',#1552,#1218,#1219);
#1055=AXIS2_PLACEMENT_3D('',#1556,#1221,#1222);
#1056=AXIS2_PLACEMENT_3D('',#1560,#1224,#1225);
#1057=AXIS2_PLACEMENT_3D('',#1564,#1228,#1229);
#1058=AXIS2_PLACEMENT_3D('',#1566,#1230,#1231);
#1059=AXIS2_PLACEMENT_3D('',#1567,#1232,#1233);
#1060=AXIS2_PLACEMENT_3D('',#1585,#1243,#1244);
#1061=AXIS2_PLACEMENT_3D('',#1587,#1246,#1247);
#1062=AXIS2_PLACEMENT_3D('',#1589,#1249,#1250);
#1063=AXIS2_PLACEMENT_3D('',#1598,#1255,#1256);
#1064=AXIS2_PLACEMENT_3D('',#1600,#1257,#1258);
#1065=AXIS2_PLACEMENT_3D('',#1602,#1260,#1261);
#1066=AXIS2_PLACEMENT_3D('',#1605,#1262,#1263);
#1067=AXIS2_PLACEMENT_3D('',#1608,#1266,#1267);
#1068=AXIS2_PLACEMENT_3D('',#1614,#1271,#1272);
#1069=AXIS2_PLACEMENT_3D('',#1617,#1273,#1274);
#1070=AXIS2_PLACEMENT_3D('',#1620,#1277,#1278);
#1071=AXIS2_PLACEMENT_3D('',#1622,#1280,#1281);
#1072=AXIS2_PLACEMENT_3D('',#1625,#1284,#1285);
#1073=AXIS2_PLACEMENT_3D('',#1627,#1286,#1287);
#1074=AXIS2_PLACEMENT_3D('',#1629,#1289,#1290);
#1075=AXIS2_PLACEMENT_3D('',#1635,#1294,#1295);
#1076=AXIS2_PLACEMENT_3D('',#1639,#1298,#1299);
#1077=AXIS2_PLACEMENT_3D('',#1641,#1300,#1301);
#1078=AXIS2_PLACEMENT_3D('',#1643,#1303,#1304);
#1079=AXIS2_PLACEMENT_3D('',#1647,#1307,#1308);
#1080=AXIS2_PLACEMENT_3D('',#1649,#1309,#1310);
#1081=AXIS2_PLACEMENT_3D('',#1651,#1312,#1313);
#1082=AXIS2_PLACEMENT_3D('',#1653,#1315,#1316);
#1083=AXIS2_PLACEMENT_3D('',#1654,#1317,#1318);
#1084=AXIS2_PLACEMENT_3D('',#1661,#1322,#1323);
#1085=AXIS2_PLACEMENT_3D('',#1663,#1324,#1325);
#1086=AXIS2_PLACEMENT_3D('',#1664,#1326,#1327);
#1087=AXIS2_PLACEMENT_3D('',#1670,#1331,#1332);
#1088=AXIS2_PLACEMENT_3D('',#1672,#1333,#1334);
#1089=AXIS2_PLACEMENT_3D('',#1674,#1336,#1337);
#1090=AXIS2_PLACEMENT_3D('',#1678,#1340,#1341);
#1091=AXIS2_PLACEMENT_3D('',#1682,#1344,#1345);
#1092=AXIS2_PLACEMENT_3D('',#1684,#1347,#1348);
#1093=AXIS2_PLACEMENT_3D('',#1686,#1349,#1350);
#1094=AXIS2_PLACEMENT_3D('',#1688,#1352,#1353);
#1095=AXIS2_PLACEMENT_3D('',#1692,#1356,#1357);
#1096=AXIS2_PLACEMENT_3D('',#1696,#1360,#1361);
#1097=AXIS2_PLACEMENT_3D('',#1698,#1363,#1364);
#1098=DIRECTION('axis',(0.,0.,1.));
#1099=DIRECTION('refdir',(1.,0.,0.));
#1100=DIRECTION('center_axis',(-0.983336760092632,0.147528148257438,0.106227405702374));
#1101=DIRECTION('ref_axis',(0.0133122220115279,0.641196658876133,-0.767261122038123));
#1102=DIRECTION('center_axis',(0.988901251497016,2.77555756156289E-16,-0.148574273639941));
#1103=DIRECTION('ref_axis',(-0.0398281203114618,0.96339978383249,-0.265093525654565));
#1104=DIRECTION('',(0.983336760092632,-0.147528148257438,-0.106227405702374));
#1105=DIRECTION('center_axis',(-0.955881146447312,0.285554710153205,0.0689183674784329));
#1106=DIRECTION('ref_axis',(0.258850016065461,0.929714411401001,-0.26196904858437));
#1107=DIRECTION('',(0.983336760092632,-0.147528148257438,-0.106227405702374));
#1108=DIRECTION('center_axis',(0.0133122220115281,0.641196658876133,-0.767261122038123));
#1109=DIRECTION('ref_axis',(-0.18130527018165,-0.753061943081587,-0.63247617258403));
#1110=DIRECTION('',(0.096044996960168,0.762961156697496,0.639269608169933));
#1111=DIRECTION('',(-0.265121576813488,-0.737601866645805,-0.621010495747498));
#1112=DIRECTION('',(-0.983336760092632,0.147528148257438,0.106227405702374));
#1113=DIRECTION('center_axis',(-0.983336760092632,0.147528148257438,0.106227405702374));
#1114=DIRECTION('ref_axis',(-0.0133122220115279,-0.641196658876133,0.767261122038123));
#1115=DIRECTION('center_axis',(0.988901251497016,2.77555756156289E-16,-0.148574273639941));
#1116=DIRECTION('ref_axis',(0.0398281203114612,-0.963399783832491,0.265093525654561));
#1117=DIRECTION('center_axis',(-0.955881146447312,0.285554710153205,0.0689183674784329));
#1118=DIRECTION('ref_axis',(-0.258850016065462,-0.929714411401003,0.261969048584364));
#1119=DIRECTION('',(-0.983336760092632,0.147528148257438,0.106227405702374));
#1120=DIRECTION('center_axis',(-0.013312222011528,-0.641196658876133,0.767261122038124));
#1121=DIRECTION('ref_axis',(0.18130527018165,0.753061943081587,0.632476172584029));
#1122=DIRECTION('',(-0.096044996960168,-0.762961156697496,-0.639269608169933));
#1123=DIRECTION('',(0.265121576813488,0.737601866645805,0.621010495747498));
#1124=DIRECTION('center_axis',(-0.988901251497016,-2.77555756156289E-16,
0.148574273639941));
#1125=DIRECTION('ref_axis',(0.148574273639941,0.,0.988901251497016));
#1126=DIRECTION('',(-0.143839827548713,-0.250432176603931,-0.957389068734427));
#1127=DIRECTION('',(0.0978997008270256,0.752206300121524,0.651614403336411));
#1128=DIRECTION('',(-0.0213098651067664,-0.989660604006257,-0.141837154959841));
#1129=DIRECTION('',(-0.0924500964565037,-0.782819897762448,-0.615342170936117));
#1130=DIRECTION('',(0.0960930106011671,0.762687228816176,0.639589184019168));
#1131=DIRECTION('center_axis',(0.988901251497016,2.77555756156289E-16,-0.148574273639941));
#1132=DIRECTION('ref_axis',(0.0372077787349995,-0.968134146139581,0.247652692858754));
#1133=DIRECTION('',(-0.0960930106011667,-0.762687228816179,-0.639589184019165));
#1134=DIRECTION('center_axis',(0.988901251497016,2.77555756156289E-16,-0.148574273639941));
#1135=DIRECTION('ref_axis',(-0.0372077787349989,0.968134146139582,-0.24765269285875));
#1136=DIRECTION('center_axis',(0.00850569287907904,0.641910090082223,-0.766732736642488));
#1137=DIRECTION('ref_axis',(-0.18130527018165,-0.753061943081588,-0.632476172584029));
#1138=DIRECTION('',(-0.983390081398529,0.144392334051417,0.10997636870791));
#1139=DIRECTION('',(-0.265175078415251,-0.737860707906798,-0.620680073399126));
#1140=DIRECTION('',(-0.983390081398529,0.144392334051417,0.10997636870791));
#1141=DIRECTION('center_axis',(-0.983390081398529,0.144392334051417,0.10997636870791));
#1142=DIRECTION('ref_axis',(-0.00850569287907823,-0.64191009008222,0.766732736642491));
#1143=DIRECTION('center_axis',(-0.955881146447312,0.285554710153205,0.0689183674784329));
#1144=DIRECTION('ref_axis',(-0.256127581250693,-0.925063366711024,0.280457536343623));
#1145=DIRECTION('',(0.983390081398529,-0.144392334051417,-0.10997636870791));
#1146=DIRECTION('center_axis',(-0.00850569287907832,-0.641910090082221,
0.76673273664249));
#1147=DIRECTION('ref_axis',(0.18130527018165,0.753061943081589,0.632476172584027));
#1148=DIRECTION('',(0.265175078415252,0.7378607079068,0.620680073399123));
#1149=DIRECTION('',(-0.983390081398529,0.144392334051417,0.10997636870791));
#1150=DIRECTION('center_axis',(-0.983390081398529,0.144392334051417,0.10997636870791));
#1151=DIRECTION('ref_axis',(0.0085056928790785,0.641910090082221,-0.76673273664249));
#1152=DIRECTION('center_axis',(-0.955881146447312,0.285554710153205,0.0689183674784329));
#1153=DIRECTION('ref_axis',(0.256127581250693,0.925063366711025,-0.280457536343622));
#1154=DIRECTION('center_axis',(0.143839827548711,0.250432176603931,0.957389068734428));
#1155=DIRECTION('ref_axis',(-0.785103244799712,-0.56006741854821,0.26445676713918));
#1156=DIRECTION('center_axis',(0.108776936947671,0.562017806332729,-0.819941195058054));
#1157=DIRECTION('ref_axis',(-0.272871420003737,-0.776269600637733,-0.568283991742578));
#1158=DIRECTION('',(0.143839827548711,0.250432176603931,0.957389068734428));
#1159=DIRECTION('center_axis',(0.359379018182746,0.236157026020908,0.902815917200714));
#1160=DIRECTION('ref_axis',(-0.933191685180491,0.0909458169164154,0.347681085328783));
#1161=DIRECTION('',(-0.143839827548711,-0.250432176603931,-0.957389068734428));
#1162=DIRECTION('center_axis',(0.955881146447312,-0.285554710153205,-0.0689183674784329));
#1163=DIRECTION('ref_axis',(-0.0719126364009279,1.38777878078145E-17,-0.997410934733457));
#1164=DIRECTION('',(-0.247248435385357,-0.908779201618576,0.336137730558466));
#1165=DIRECTION('',(0.272871420003736,0.776269600637734,0.568283991742578));
#1166=DIRECTION('',(0.290960342646492,0.952643259885082,0.0883906013247974));
#1167=DIRECTION('',(-0.0275568684236861,0.146410300447238,-0.98884004921202));
#1168=DIRECTION('',(-0.290960342646492,-0.952643259885082,-0.0883906013247997));
#1169=DIRECTION('',(-0.265108325381443,-0.737537771159558,-0.621092273278648));
#1170=DIRECTION('center_axis',(-0.143839827548713,-0.250432176603931,-0.957389068734427));
#1171=DIRECTION('ref_axis',(0.71278712053219,-0.697325045866132,0.075314681246271));
#1172=DIRECTION('center_axis',(0.111758504667943,-0.658927675892801,0.743857751574115));
#1173=DIRECTION('ref_axis',(-0.0978997008270269,-0.752206300121524,-0.651614403336411));
#1174=DIRECTION('center_axis',(-0.116306897700949,0.622248348866584,-0.774131576594051));
#1175=DIRECTION('ref_axis',(-0.092450096456505,-0.782819897762448,-0.615342170936117));
#1176=DIRECTION('',(0.143839827548713,0.250432176603931,0.957389068734427));
#1177=DIRECTION('center_axis',(-0.0213098651067664,-0.989660604006257,-0.141837154959841));
#1178=DIRECTION('ref_axis',(0.811121766123192,-0.100053869864013,0.576255762354208));
#1179=DIRECTION('center_axis',(-0.116306897700949,0.622248348866584,-0.774131576594051));
#1180=DIRECTION('ref_axis',(0.092450096456505,0.782819897762448,0.615342170936117));
#1181=DIRECTION('center_axis',(0.111758504667943,-0.658927675892801,0.743857751574115));
#1182=DIRECTION('ref_axis',(0.097899700827027,0.752206300121524,0.651614403336411));
#1183=DIRECTION('',(0.0213098651067664,0.989660604006257,0.141837154959841));
#1184=DIRECTION('center_axis',(0.290960342646492,0.952643259885082,0.0883906013247974));
#1185=DIRECTION('ref_axis',(-0.596459808808828,0.108382476930931,0.795291729599933));
#1186=DIRECTION('center_axis',(0.00600056695456593,-0.989173665067578,-0.146626919537304));
#1187=DIRECTION('ref_axis',(-0.98482609129289,-0.0312776903880061,0.170702302247976));
#1188=DIRECTION('center_axis',(0.108776936947671,0.562017806332729,-0.819941195058054));
#1189=DIRECTION('ref_axis',(0.272871420003737,0.776269600637733,0.568283991742578));
#1190=DIRECTION('',(-0.290960342646492,-0.952643259885082,-0.0883906013247974));
#1191=DIRECTION('',(0.0978997008270256,0.752206300121524,0.651614403336411));
#1192=DIRECTION('',(-0.729941012078115,-0.172971668907785,-0.661261612859565));
#1193=DIRECTION('',(0.265108325381443,0.737537771159558,0.621092273278648));
#1194=DIRECTION('',(0.265108325381443,0.737537771159558,0.621092273278648));
#1195=DIRECTION('',(-0.272871420003736,-0.776269600637734,-0.568283991742578));
#1196=DIRECTION('',(0.624000244133692,-0.197750157031494,-0.755988472607296));
#1197=DIRECTION('',(-0.0924500964565037,-0.782819897762448,-0.615342170936117));
#1198=DIRECTION('center_axis',(0.0404142657190416,-0.104543421145678,0.993698827724753));
#1199=DIRECTION('ref_axis',(-0.290960342646492,-0.952643259885082,-0.0883906013247992));
#1200=DIRECTION('',(0.999153288041667,0.011899099743999,-0.0393842407671826));
#1201=DIRECTION('',(0.955881146447312,-0.285554710153205,-0.0689183674784329));
#1202=DIRECTION('center_axis',(-0.126525924932481,-0.611961227221391,0.780701381257693));
#1203=DIRECTION('ref_axis',(-0.265108325381443,-0.737537771159558,-0.621092273278648));
#1204=DIRECTION('',(0.98888992843365,-0.0159091851668074,0.14779582967668));
#1205=DIRECTION('',(-0.978510056648328,-0.0521815261649458,-0.199487236095901));
#1206=DIRECTION('',(-0.859521992265443,0.460519784011603,0.221683272589408));
#1207=DIRECTION('center_axis',(0.108776936947671,0.562017806332729,-0.819941195058054));
#1208=DIRECTION('ref_axis',(0.272871420003736,0.776269600637734,0.568283991742578));
#1209=DIRECTION('',(-0.844480508626342,0.487390588379704,0.222042979868946));
#1210=DIRECTION('',(0.986326844492111,0.0417051553282681,0.159436620176422));
#1211=DIRECTION('center_axis',(-0.173440373341942,0.143377705452303,-0.974351718053722));
#1212=DIRECTION('ref_axis',(-0.984523776248948,-4.85722573273506E-17,0.17525105991266));
#1213=DIRECTION('',(0.982899594412054,-0.0369437815366563,-0.180398293535144));
#1214=DIRECTION('',(-0.98482609129289,-0.0312776903880108,0.170702302247979));
#1215=DIRECTION('center_axis',(-0.173440373341942,0.143377705452303,-0.974351718053722));
#1216=DIRECTION('ref_axis',(0.00600056695457011,-0.989173665067578,-0.146626919537305));
#1217=DIRECTION('',(-0.00600056695456636,0.989173665067578,0.146626919537304));
#1218=DIRECTION('center_axis',(-0.173440373341942,0.143377705452303,-0.974351718053722));
#1219=DIRECTION('ref_axis',(-0.98482609129289,-0.0312776903880067,0.170702302247979));
#1220=DIRECTION('',(0.98482609129289,0.0312776903880017,-0.17070230224798));
#1221=DIRECTION('center_axis',(-0.173440373341942,0.143377705452303,-0.974351718053722));
#1222=DIRECTION('ref_axis',(-0.00600056695456294,0.989173665067578,0.146626919537304));
#1223=DIRECTION('',(0.00600056695456472,-0.989173665067578,-0.146626919537304));
#1224=DIRECTION('center_axis',(-0.173440373341942,0.143377705452303,-0.974351718053722));
#1225=DIRECTION('ref_axis',(0.98482609129289,0.0312776903880126,-0.170702302247978));
#1226=DIRECTION('',(-0.98482609129289,-0.0312776903880108,0.170702302247979));
#1227=DIRECTION('',(-0.982601062379713,0.0415458582229856,0.181022357389285));
#1228=DIRECTION('center_axis',(0.173440373341942,-0.143377705452303,0.974351718053722));
#1229=DIRECTION('ref_axis',(0.0213098651067664,0.989660604006257,0.141837154959841));
#1230=DIRECTION('center_axis',(0.173440373341942,-0.143377705452303,0.974351718053722));
#1231=DIRECTION('ref_axis',(0.0213098651067664,0.989660604006257,0.141837154959841));
#1232=DIRECTION('center_axis',(0.359379018182746,0.236157026020908,0.902815917200714));
#1233=DIRECTION('ref_axis',(0.933191685180491,-0.0909458169164206,-0.347681085328781));
#1234=DIRECTION('',(0.933191685180491,-0.090945816916421,-0.347681085328782));
#1235=DIRECTION('',(0.,0.967449594266474,-0.253063791470915));
#1236=DIRECTION('',(-0.933191685180491,0.0909458169164208,0.347681085328782));
#1237=DIRECTION('',(0.,0.967449594266474,-0.253063791470915));
#1238=DIRECTION('',(-0.933191685180491,0.090945816916421,0.347681085328782));
#1239=DIRECTION('',(1.85037170770859E-16,0.967449594266474,-0.253063791470915));
#1240=DIRECTION('',(-0.933191685180491,0.0909458169164208,0.347681085328782));
#1241=DIRECTION('',(1.85037170770859E-16,0.967449594266474,-0.253063791470915));
#1242=DIRECTION('',(0.933191685180491,-0.090945816916421,-0.347681085328782));
#1243=DIRECTION('center_axis',(0.111758504667943,-0.658927675892801,0.743857751574115));
#1244=DIRECTION('ref_axis',(0.0978997008270256,0.752206300121524,0.651614403336411));
#1245=DIRECTION('',(-0.980176432713652,0.0501386756922441,0.191677525945447));
#1246=DIRECTION('center_axis',(-0.116306897700949,0.622248348866584,-0.774131576594051));
#1247=DIRECTION('ref_axis',(-0.0924500964565037,-0.782819897762448,-0.615342170936117));
#1248=DIRECTION('',(0.98120916542042,-0.0488279183159382,-0.186666569283025));
#1249=DIRECTION('center_axis',(-0.173440373341942,0.143377705452303,-0.974351718053722));
#1250=DIRECTION('ref_axis',(-0.984523776248948,-1.38777878078145E-17,0.17525105991266));
#1251=DIRECTION('',(0.00600056695456073,-0.989173665067578,-0.146626919537303));
#1252=DIRECTION('',(0.98482609129289,0.0312776903880107,-0.170702302247979));
#1253=DIRECTION('',(-0.00600056695455802,0.989173665067578,0.146626919537303));
#1254=DIRECTION('',(-0.98482609129289,-0.0312776903880017,0.17070230224798));
#1255=DIRECTION('center_axis',(-0.173440373341942,0.143377705452303,-0.974351718053722));
#1256=DIRECTION('ref_axis',(0.0213098651067664,0.989660604006257,0.141837154959841));
#1257=DIRECTION('center_axis',(0.173440373341942,-0.143377705452303,0.974351718053722));
#1258=DIRECTION('ref_axis',(0.0213098651067664,0.989660604006257,0.141837154959841));
#1259=DIRECTION('',(-0.173440373341942,0.143377705452303,-0.974351718053722));
#1260=DIRECTION('center_axis',(-0.173440373341942,0.143377705452303,-0.974351718053722));
#1261=DIRECTION('ref_axis',(-0.00600056695456294,0.989173665067578,0.146626919537304));
#1262=DIRECTION('center_axis',(-0.173440373341942,0.143377705452303,-0.974351718053722));
#1263=DIRECTION('ref_axis',(-0.00600056695456307,0.989173665067578,0.146626919537304));
#1264=DIRECTION('',(-0.173440373341942,0.143377705452303,-0.974351718053722));
#1265=DIRECTION('',(-0.173440373341942,0.143377705452303,-0.974351718053722));
#1266=DIRECTION('center_axis',(-0.98482609129289,-0.0312776903879986,0.17070230224798));
#1267=DIRECTION('ref_axis',(-0.00600056695455796,0.989173665067578,0.146626919537303));
#1268=DIRECTION('',(-0.00600056695455794,0.989173665067578,0.146626919537303));
#1269=DIRECTION('',(-0.173440373341942,0.143377705452303,-0.974351718053722));
#1270=DIRECTION('',(-0.173440373341942,0.143377705452303,-0.974351718053722));
#1271=DIRECTION('center_axis',(-0.173440373341942,0.143377705452303,-0.974351718053722));
#1272=DIRECTION('ref_axis',(0.98482609129289,0.0312776903880126,-0.170702302247978));
#1273=DIRECTION('center_axis',(-0.173440373341942,0.143377705452303,-0.974351718053722));
#1274=DIRECTION('ref_axis',(0.98482609129289,0.0312776903880126,-0.170702302247978));
#1275=DIRECTION('',(-0.173440373341942,0.143377705452303,-0.974351718053722));
#1276=DIRECTION('',(-0.173440373341942,0.143377705452303,-0.974351718053722));
#1277=DIRECTION('center_axis',(0.98482609129289,0.0312776903880055,-0.170702302247979));
#1278=DIRECTION('ref_axis',(0.00600056695456485,-0.989173665067578,-0.146626919537304));
#1279=DIRECTION('',(0.00600056695456477,-0.989173665067578,-0.146626919537304));
#1280=DIRECTION('center_axis',(-0.173440373341942,0.143377705452303,-0.974351718053722));
#1281=DIRECTION('ref_axis',(0.0213098651067664,0.989660604006257,0.141837154959841));
#1282=DIRECTION('',(0.98482609129289,0.0312776903880047,-0.170702302247979));
#1283=DIRECTION('',(-0.98482609129289,-0.0312776903880108,0.170702302247979));
#1284=DIRECTION('center_axis',(-0.173440373341942,0.143377705452303,-0.974351718053722));
#1285=DIRECTION('ref_axis',(0.0213098651067664,0.989660604006257,0.141837154959841));
#1286=DIRECTION('center_axis',(0.173440373341942,-0.143377705452303,0.974351718053722));
#1287=DIRECTION('ref_axis',(0.0213098651067664,0.989660604006257,0.141837154959841));
#1288=DIRECTION('',(-0.173440373341942,0.143377705452303,-0.974351718053722));
#1289=DIRECTION('center_axis',(0.98482609129289,0.0312776903880014,-0.17070230224798));
#1290=DIRECTION('ref_axis',(0.00600056695456076,-0.989173665067578,-0.146626919537303));
#1291=DIRECTION('',(0.00600056695456072,-0.989173665067578,-0.146626919537303));
#1292=DIRECTION('',(-0.173440373341942,0.143377705452303,-0.974351718053722));
#1293=DIRECTION('',(-0.173440373341942,0.143377705452303,-0.974351718053722));
#1294=DIRECTION('center_axis',(-0.00600056695456106,0.989173665067578,0.146626919537303));
#1295=DIRECTION('ref_axis',(0.98482609129289,0.0312776903880017,-0.17070230224798));
#1296=DIRECTION('',(0.98482609129289,0.0312776903880017,-0.17070230224798));
#1297=DIRECTION('',(-0.173440373341942,0.143377705452303,-0.974351718053722));
#1298=DIRECTION('center_axis',(-0.173440373341942,0.143377705452303,-0.974351718053722));
#1299=DIRECTION('ref_axis',(-0.98482609129289,-0.0312776903880067,0.170702302247979));
#1300=DIRECTION('center_axis',(-0.173440373341942,0.143377705452303,-0.974351718053722));
#1301=DIRECTION('ref_axis',(-0.98482609129289,-0.0312776903880067,0.170702302247979));
#1302=DIRECTION('',(-0.173440373341942,0.143377705452303,-0.974351718053722));
#1303=DIRECTION('center_axis',(-0.98482609129289,-0.0312776903880071,0.170702302247979));
#1304=DIRECTION('ref_axis',(-0.00600056695456646,0.989173665067578,0.146626919537304));
#1305=DIRECTION('',(-0.0060005669545664,0.989173665067578,0.146626919537304));
#1306=DIRECTION('',(-0.173440373341942,0.143377705452303,-0.974351718053722));
#1307=DIRECTION('center_axis',(-0.173440373341942,0.143377705452303,-0.974351718053722));
#1308=DIRECTION('ref_axis',(0.00600056695457027,-0.989173665067578,-0.146626919537305));
#1309=DIRECTION('center_axis',(-0.173440373341942,0.143377705452303,-0.974351718053722));
#1310=DIRECTION('ref_axis',(0.00600056695457022,-0.989173665067578,-0.146626919537305));
#1311=DIRECTION('',(-0.173440373341942,0.143377705452303,-0.974351718053722));
#1312=DIRECTION('center_axis',(0.00600056695456593,-0.989173665067578,-0.146626919537304));
#1313=DIRECTION('ref_axis',(-0.98482609129289,-0.0312776903880066,0.170702302247979));
#1314=DIRECTION('',(-0.98482609129289,-0.0312776903880066,0.170702302247979));
#1315=DIRECTION('center_axis',(-0.173440373341942,0.143377705452303,-0.974351718053722));
#1316=DIRECTION('ref_axis',(0.0213098651067664,0.989660604006257,0.141837154959841));
#1317=DIRECTION('center_axis',(2.38603846143718E-16,0.967449594266474,-0.253063791470915));
#1318=DIRECTION('ref_axis',(0.,0.253063791470915,0.967449594266474));
#1319=DIRECTION('',(0.00634147032550016,-0.25305870303499,-0.967430141442967));
#1320=DIRECTION('',(-0.948927347910596,0.0798402780163295,0.305225192920962));
#1321=DIRECTION('',(0.292426151314744,0.242001894418497,0.925160542352032));
#1322=DIRECTION('center_axis',(-2.38603846143718E-16,-0.967449594266474,
0.253063791470915));
#1323=DIRECTION('ref_axis',(-2.46519032881566E-31,0.253063791470915,0.967449594266474));
#1324=DIRECTION('center_axis',(-2.38603846143718E-16,-0.967449594266474,
0.253063791470915));
#1325=DIRECTION('ref_axis',(-2.46519032881566E-31,0.253063791470915,0.967449594266474));
#1326=DIRECTION('center_axis',(2.38603846143719E-16,0.967449594266474,-0.253063791470915));
#1327=DIRECTION('ref_axis',(0.,0.253063791470915,0.967449594266474));
#1328=DIRECTION('',(-0.292426151314744,-0.242001894418497,-0.925160542352031));
#1329=DIRECTION('',(0.948927347910596,-0.0798402780163295,-0.305225192920962));
#1330=DIRECTION('',(0.111307267600667,0.251491263050715,0.961437900640717));
#1331=DIRECTION('center_axis',(1.85037170770859E-16,0.967449594266474,-0.253063791470915));
#1332=DIRECTION('ref_axis',(1.23259516440783E-32,0.253063791470915,0.967449594266474));
#1333=DIRECTION('center_axis',(0.,-0.967449594266474,0.253063791470915));
#1334=DIRECTION('ref_axis',(0.,0.253063791470915,0.967449594266474));
#1335=DIRECTION('',(1.85037170770859E-16,0.967449594266474,-0.253063791470915));
#1336=DIRECTION('center_axis',(0.999979892674903,0.00160479652407119,0.00613505289345806));
#1337=DIRECTION('ref_axis',(0.00634147032550016,-0.25305870303499,-0.967430141442967));
#1338=DIRECTION('',(-0.00634147032550016,0.25305870303499,0.967430141442967));
#1339=DIRECTION('',(1.85037170770859E-16,0.967449594266474,-0.253063791470915));
#1340=DIRECTION('center_axis',(-0.993786039436696,0.0281678391572927,0.107684170879175));
#1341=DIRECTION('ref_axis',(0.111307267600667,0.251491263050715,0.961437900640717));
#1342=DIRECTION('',(0.111307267600667,0.251491263050715,0.961437900640717));
#1343=DIRECTION('',(1.85037170770859E-16,0.967449594266474,-0.253063791470915));
#1344=DIRECTION('center_axis',(2.38603846143718E-16,0.967449594266474,-0.253063791470915));
#1345=DIRECTION('ref_axis',(0.,0.253063791470915,0.967449594266474));
#1346=DIRECTION('',(-0.948927347910596,0.0798402780163293,0.305225192920962));
#1347=DIRECTION('center_axis',(0.,0.967449594266474,-0.253063791470915));
#1348=DIRECTION('ref_axis',(0.,0.253063791470915,0.967449594266474));
#1349=DIRECTION('center_axis',(0.,-0.967449594266474,0.253063791470915));
#1350=DIRECTION('ref_axis',(0.,0.253063791470915,0.967449594266474));
#1351=DIRECTION('',(0.,0.967449594266474,-0.253063791470915));
#1352=DIRECTION('center_axis',(0.956288108274513,-0.0740024705769567,-0.282907561442356));
#1353=DIRECTION('ref_axis',(-0.292426151314744,-0.242001894418497,-0.925160542352031));
#1354=DIRECTION('',(0.292426151314744,0.242001894418497,0.925160542352031));
#1355=DIRECTION('',(0.,0.967449594266474,-0.253063791470915));
#1356=DIRECTION('center_axis',(-0.956288108274513,0.0740024705769566,0.282907561442355));
#1357=DIRECTION('ref_axis',(0.292426151314743,0.242001894418497,0.925160542352032));
#1358=DIRECTION('',(-0.292426151314744,-0.242001894418497,-0.925160542352031));
#1359=DIRECTION('',(0.,0.967449594266474,-0.253063791470915));
#1360=DIRECTION('center_axis',(-0.315494672518195,-0.240139152492696,-0.918039377724467));
#1361=DIRECTION('ref_axis',(-0.948927347910596,0.0798402780163293,0.305225192920962));
#1362=DIRECTION('',(-0.948927347910596,0.0798402780163293,0.305225192920962));
#1363=DIRECTION('center_axis',(-4.42501842696385E-17,0.967449594266474,
-0.253063791470915));
#1364=DIRECTION('ref_axis',(0.,0.253063791470915,0.967449594266474));
#1365=CARTESIAN_POINT('',(0.,0.,0.));
#1366=CARTESIAN_POINT('Origin',(-13.8137829483879,12.8681772617452,-52.9020700976788));
#1367=CARTESIAN_POINT('',(-13.3729120910231,10.5508557115601,-50.269315645263));
#1368=CARTESIAN_POINT('',(-14.1654591162711,15.1721171019122,-55.5444600288547));
#1369=CARTESIAN_POINT('Origin',(-13.7691856036471,12.8614864067362,-52.9068878370589));
#1370=CARTESIAN_POINT('',(-9.06657077122527,9.90478349453611,-50.7345189052612));
#1371=CARTESIAN_POINT('',(-13.8603757254282,10.6239889556787,-50.2166561705453));
#1372=CARTESIAN_POINT('',(-8.15597249384101,14.270525226814,-56.1936498073836));
#1373=CARTESIAN_POINT('Origin',(-8.61127163253314,12.087654360675,-53.4640843563224));
#1374=CARTESIAN_POINT('',(-13.7671901713476,15.1123655678117,-55.5874840248122));
#1375=CARTESIAN_POINT('Origin',(-10.1410847677146,30.1736044294434,-42.9379605731316));
#1376=CARTESIAN_POINT('',(-12.2374124291621,30.4881124907561,-42.7114995497923));
#1377=CARTESIAN_POINT('',(-11.8623490353054,33.4675368217338,-40.2151006074392));
#1378=CARTESIAN_POINT('',(-2.83386072236108,29.0773154712114,-43.727341673001));
#1379=CARTESIAN_POINT('',(-1.70998535327927,32.2040793509206,-41.094819610857));
#1380=CARTESIAN_POINT('',(-10.1410847677146,30.1736044294434,-42.9379605731316));
#1381=CARTESIAN_POINT('Origin',(-10.1876775447549,27.9294161233769,-40.2525466459982));
#1382=CARTESIAN_POINT('',(-11.4448654039141,25.866851100404,-37.4363551662007));
#1383=CARTESIAN_POINT('Origin',(-11.8411389165381,28.17748179558,-40.0739273579965));
#1384=CARTESIAN_POINT('',(-3.74445899974533,24.7115737389335,-38.2682107708785));
#1385=CARTESIAN_POINT('Origin',(-3.28915986105321,26.8944446050724,-40.9977762219397));
#1386=CARTESIAN_POINT('',(-10.2342703217953,25.6852278173105,-37.5671327188647));
#1387=CARTESIAN_POINT('Origin',(-13.8603757254282,10.6239889556787,-50.2166561705453));
#1388=CARTESIAN_POINT('',(-12.0192499702283,21.3040615020456,-41.2594236056611));
#1389=CARTESIAN_POINT('',(-5.24306044280767,20.5422743742933,-41.7784766506668));
#1390=CARTESIAN_POINT('Origin',(-11.6650155957671,37.7008723532974,-38.9016613387097));
#1391=CARTESIAN_POINT('',(-13.2466936944147,7.20628921459938,-49.4292137399322));
#1392=CARTESIAN_POINT('',(-15.7891609423471,2.77972935496452,-66.3517197820192));
#1393=CARTESIAN_POINT('',(-12.9033406748894,7.80408361889346,-47.1438771039499));
#1394=CARTESIAN_POINT('',(-8.18442269465601,46.1019355421498,-15.7350484956153));
#1395=CARTESIAN_POINT('',(-13.753260026917,3.31411810969521,-52.8008881752508));
#1396=CARTESIAN_POINT('',(-7.62954726195888,71.8711439871582,-12.0418316527794));
#1397=CARTESIAN_POINT('',(-8.11656065413229,49.2535457319465,-15.2833629166869));
#1398=CARTESIAN_POINT('',(-7.09335036587163,76.4113836998668,-8.47293800383908));
#1399=CARTESIAN_POINT('',(-11.315559028037,38.1088089330486,-36.5756998602803));
#1400=CARTESIAN_POINT('',(-9.38655729449932,53.4192355429479,-23.7363826507732));
#1401=CARTESIAN_POINT('',(-10.4695747269154,44.8233599519817,-30.9448802464258));
#1402=CARTESIAN_POINT('',(-8.59449897412327,48.8008237411804,-18.4644910568308));
#1403=CARTESIAN_POINT('Origin',(-8.99052813431129,51.1100296420641,-21.100436853802));
#1404=CARTESIAN_POINT('',(-10.5235007076609,33.4903971312811,-31.3038082663379));
#1405=CARTESIAN_POINT('',(-10.6277350786215,32.6630921791524,-31.9975858455014));
#1406=CARTESIAN_POINT('Origin',(-10.9195298678489,35.7996030321649,-33.9397540633091));
#1407=CARTESIAN_POINT('Origin',(-2.13044187075386,52.3538114940384,-24.5478624900798));
#1408=CARTESIAN_POINT('',(-0.197535520736696,36.4763363317646,-37.8190720232405));
#1409=CARTESIAN_POINT('',(-5.75654727438685,37.2925726324066,-37.1973859417604));
#1410=CARTESIAN_POINT('',(5.12567355299164,51.2883874451288,-25.3593423293864));
#1411=CARTESIAN_POINT('',(2.28615658952597,43.3873131462266,-32.005636573305));
#1412=CARTESIAN_POINT('',(-2.13044187075386,52.3538114940383,-24.5478624900798));
#1413=CARTESIAN_POINT('Origin',(-2.16021179583063,50.1071261787506,-21.8642979118311));
#1414=CARTESIAN_POINT('',(4.21453553230848,46.9200579857453,-19.8969756103341));
#1415=CARTESIAN_POINT('Origin',(4.67010454265006,49.1042227154371,-22.6281589698602));
#1416=CARTESIAN_POINT('',(-2.1899817209074,47.8604408634629,-19.1807333335824));
#1417=CARTESIAN_POINT('Origin',(-5.8160871245404,32.7992020018311,-31.830256785263));
#1418=CARTESIAN_POINT('',(-1.10867354141986,32.108006872381,-32.3567053041881));
#1419=CARTESIAN_POINT('',(-1.24717329823099,31.7226255265309,-32.6808837290123));
#1420=CARTESIAN_POINT('',(-5.8160871245404,32.7992020018311,-31.830256785263));
#1421=CARTESIAN_POINT('Origin',(-5.78631719946362,35.0458873171188,-34.5138213635117));
#1422=CARTESIAN_POINT('Origin',(-0.653104531078277,34.2921716020728,-35.0878886637143));
#1423=CARTESIAN_POINT('Origin',(-7.48666098111551,7.51653906756617,-47.9459962863527));
#1424=CARTESIAN_POINT('',(-10.6084008363449,0.146538071283936,-68.2179776858978));
#1425=CARTESIAN_POINT('',(-12.1763705441747,3.25110638952587,-66.298006176633));
#1426=CARTESIAN_POINT('Origin',(-10.2646082512801,2.67999696921947,-66.4358429115899));
#1427=CARTESIAN_POINT('',(-10.1968193849215,6.69760180014329,-53.122235090368));
#1428=CARTESIAN_POINT('',(-9.39842327401013,8.08764848787258,-47.8081595513958));
#1429=CARTESIAN_POINT('',(-8.34814825253393,4.081748394355,-53.1738751365771));
#1430=CARTESIAN_POINT('Origin',(-8.34814825253393,6.01664758288794,-53.680002719519));
#1431=CARTESIAN_POINT('',(-7.48666098111551,5.58163987903322,-47.4398687034108));
#1432=CARTESIAN_POINT('Origin',(0.0364403086333467,37.9943338159953,-40.8635180146415));
#1433=CARTESIAN_POINT('',(-10.9840724920861,3.80399703744461,-52.051953402215));
#1434=CARTESIAN_POINT('',(-8.49628060048737,12.9480529968548,-55.4341415209807));
#1435=CARTESIAN_POINT('',(12.0509492094124,72.1734282266102,-15.8420149313654));
#1436=CARTESIAN_POINT('',(13.9892373175823,77.6875056467713,-11.8053221064339));
#1437=CARTESIAN_POINT('',(5.06040656138847,49.2854522364585,-17.9656660881699));
#1438=CARTESIAN_POINT('',(4.96281516789513,48.965924900229,-17.9953132967089));
#1439=CARTESIAN_POINT('',(5.15731153027541,48.7705938210744,-14.4883655208573));
#1440=CARTESIAN_POINT('',(4.96110142619785,49.8130627927696,-21.5290932983715));
#1441=CARTESIAN_POINT('',(5.0336072102438,48.3655692544105,-14.5259455537052));
#1442=CARTESIAN_POINT('',(5.0336072102438,48.3655692544105,-14.5259455537052));
#1443=CARTESIAN_POINT('',(-11.3660074051129,2.74144487475235,-52.9467454576322));
#1444=CARTESIAN_POINT('Origin',(-14.8811431778834,7.80408361889346,-46.84672855667));
#1445=CARTESIAN_POINT('',(-15.6462562208735,4.53708519213551,-51.4331464542679));
#1446=CARTESIAN_POINT('Origin',(-15.2244961974087,7.20628921459938,-49.1320651926523));
#1447=CARTESIAN_POINT('',(-18.1482301257761,0.181026223705487,-68.0861312890929));
#1448=CARTESIAN_POINT('Origin',(-17.7669634453412,2.77972935496452,-66.0545712347393));
#1449=CARTESIAN_POINT('',(-14.8811431778834,5.86918443036051,-46.3406009737282));
#1450=CARTESIAN_POINT('Origin',(-10.0943631571263,49.2535457319465,-14.9862143694071));
#1451=CARTESIAN_POINT('',(-9.18736756638632,74.9793245207748,-9.30942088985444));
#1452=CARTESIAN_POINT('Origin',(-9.60734976495279,71.8711439871582,-11.7446831054995));
#1453=CARTESIAN_POINT('',(-9.74966862441395,48.8652594183973,-13.0520622393871));
#1454=CARTESIAN_POINT('Origin',(-10.1622251976499,46.1019355421498,-15.4378999483355));
#1455=CARTESIAN_POINT('',(-9.74748241044244,48.9667903210419,-13.0375109332996));
#1456=CARTESIAN_POINT('Origin',(6.87457746078975,48.3948154799226,-18.1331500316657));
#1457=CARTESIAN_POINT('',(7.5010961835931,49.0236323794403,-16.099495606576));
#1458=CARTESIAN_POINT('Origin',(7.15421543690917,49.3103877903448,-18.0481990426834));
#1459=CARTESIAN_POINT('',(15.3222064540406,74.630998373686,-13.7235270001865));
#1460=CARTESIAN_POINT('Origin',(13.962711502307,71.6023188063038,-15.9798516663222));
#1461=CARTESIAN_POINT('',(7.22145820747363,48.108060069018,-16.1844465955583));
#1462=CARTESIAN_POINT('Ctrl Pts',(-12.625301616761,4.38255519312579,-52.023906530907));
#1463=CARTESIAN_POINT('Ctrl Pts',(-12.5300531472712,4.40512590288992,-51.9376198919663));
#1464=CARTESIAN_POINT('Ctrl Pts',(-12.4348046777815,4.42769661265405,-51.8513332530257));
#1465=CARTESIAN_POINT('Ctrl Pts',(-12.3395562082918,4.45026732241818,-51.765046614085));
#1466=CARTESIAN_POINT('Ctrl Pts',(-10.700220818175,19.1737945197696,-39.2106868239198));
#1467=CARTESIAN_POINT('Ctrl Pts',(-9.47562798167338,19.1930225647883,-39.246309130464));
#1468=CARTESIAN_POINT('Ctrl Pts',(-8.25103514517181,19.2122506098069,-39.2819314370082));
#1469=CARTESIAN_POINT('Ctrl Pts',(-7.02644230867024,19.2314786548256,-39.3175537435525));
#1470=CARTESIAN_POINT('Ctrl Pts',(-8.77514001958895,33.9650338464134,-26.3974671169325));
#1471=CARTESIAN_POINT('Ctrl Pts',(-6.42120281607553,33.9809192266866,-26.5549983689617));
#1472=CARTESIAN_POINT('Ctrl Pts',(-4.06726561256211,33.9968046069598,-26.7125296209908));
#1473=CARTESIAN_POINT('Ctrl Pts',(-1.7133284090487,34.012689987233,-26.87006087302));
#1474=CARTESIAN_POINT('Ctrl Pts',(-6.85005922100295,48.7562731730573,-13.5842474099453));
#1475=CARTESIAN_POINT('Ctrl Pts',(-3.36677765047768,48.768815888585,-13.8636876074594));
#1476=CARTESIAN_POINT('Ctrl Pts',(0.116503920047578,48.7813586041127,-14.1431278049734));
#1477=CARTESIAN_POINT('Ctrl Pts',(3.59978549057284,48.7939013196403,-14.4225680024875));
#1478=CARTESIAN_POINT('',(-5.6832646340338,48.6049022510822,-13.814218271689));
#1479=CARTESIAN_POINT('',(3.58617488105492,48.756036274876,-14.4544547581902));
#1480=CARTESIAN_POINT('Ctrl Pts',(-5.6832646340338,48.6049022510822,-13.814218271689));
#1481=CARTESIAN_POINT('Ctrl Pts',(-4.33909076947951,48.6268083728766,-13.9069921876449));
#1482=CARTESIAN_POINT('Ctrl Pts',(-2.99491960938381,48.6487188150754,-13.9997953605646));
#1483=CARTESIAN_POINT('Ctrl Pts',(0.0948961729325712,48.6990938757733,-14.2131875332862));
#1484=CARTESIAN_POINT('Ctrl Pts',(1.84053634635547,48.7275614156356,-14.3337964232336));
#1485=CARTESIAN_POINT('Ctrl Pts',(3.58617488105493,48.756036274876,-14.4544547581902));
#1486=CARTESIAN_POINT('',(-6.85005922100295,48.7562731730572,-13.5842474099453));
#1487=CARTESIAN_POINT('Ctrl Pts',(-6.85005922100296,48.7562731730572,-13.5842474099453));
#1488=CARTESIAN_POINT('Ctrl Pts',(-6.46114608426184,48.7058593569202,-13.6608947391705));
#1489=CARTESIAN_POINT('Ctrl Pts',(-6.07221007527887,48.6554019847457,-13.7375525491438));
#1490=CARTESIAN_POINT('Ctrl Pts',(-5.6832646340338,48.6049022510822,-13.814218271689));
#1491=CARTESIAN_POINT('',(-12.625301616761,4.3825551931258,-52.023906530907));
#1492=CARTESIAN_POINT('',(-12.76435877542,3.31411810969521,-52.9494624488907));
#1493=CARTESIAN_POINT('',(-12.3395562082918,4.45026732241818,-51.765046614085));
#1494=CARTESIAN_POINT('',(-12.625301616761,4.38255519312579,-52.023906530907));
#1495=CARTESIAN_POINT('',(-11.4053320498005,7.04930151957389,-49.5763586296005));
#1496=CARTESIAN_POINT('',(-12.7998291247838,3.16977693998217,-52.8433679064145));
#1497=CARTESIAN_POINT('',(-12.7998291247838,3.16977693998217,-52.8433679064145));
#1498=CARTESIAN_POINT('Ctrl Pts',(-6.28805103165823,74.8567370350625,-9.84355537640088));
#1499=CARTESIAN_POINT('Ctrl Pts',(-0.00689548846838139,75.9431039273753,
-10.463018436006));
#1500=CARTESIAN_POINT('Ctrl Pts',(6.27426005472147,77.0294708196882,-11.0824814956111));
#1501=CARTESIAN_POINT('Ctrl Pts',(12.5554155979113,78.1158377120011,-11.7019445552162));
#1502=CARTESIAN_POINT('Ctrl Pts',(-9.23367775900397,49.9146839498933,-29.4494661828343));
#1503=CARTESIAN_POINT('Ctrl Pts',(-5.02303622886416,50.6315748717079,-29.8905542621021));
#1504=CARTESIAN_POINT('Ctrl Pts',(-0.812394698724335,51.3484657935225,-30.3316423413698));
#1505=CARTESIAN_POINT('Ctrl Pts',(3.39824683141547,52.0653567153371,-30.7727304206376));
#1506=CARTESIAN_POINT('Ctrl Pts',(-12.1793044863497,24.9726308647241,-49.0553769892677));
#1507=CARTESIAN_POINT('Ctrl Pts',(-10.0391769692599,25.3200458160405,-49.3180900881981));
#1508=CARTESIAN_POINT('Ctrl Pts',(-7.89904945217015,25.6674607673568,-49.5808031871285));
#1509=CARTESIAN_POINT('Ctrl Pts',(-5.75892193508037,26.0148757186731,-49.8435162860589));
#1510=CARTESIAN_POINT('Ctrl Pts',(-15.1249312136954,0.0305777795549655,
-68.6612877957011));
#1511=CARTESIAN_POINT('Ctrl Pts',(-15.0553177096557,0.00851676037301926,
-68.7456259142942));
#1512=CARTESIAN_POINT('Ctrl Pts',(-14.985704205616,-0.013544258808927,-68.8299640328872));
#1513=CARTESIAN_POINT('Ctrl Pts',(-14.9160907015762,-0.0356052779908733,
-68.9143021514803));
#1514=CARTESIAN_POINT('',(12.0036889008545,76.5462755248741,-12.8509745626465));
#1515=CARTESIAN_POINT('',(-6.28805103165823,74.8567370350624,-9.84355537640092));
#1516=CARTESIAN_POINT('Ctrl Pts',(12.0036889008544,76.5462755248741,-12.8509745626465));
#1517=CARTESIAN_POINT('Ctrl Pts',(9.13925014977104,76.2809843519882,-12.3801256091759));
#1518=CARTESIAN_POINT('Ctrl Pts',(6.27471552064375,76.0160248682187,-11.9092107801562));
#1519=CARTESIAN_POINT('Ctrl Pts',(3.41022583056627,75.7514027748367,-11.4382543029297));
#1520=CARTESIAN_POINT('Ctrl Pts',(2.66606917067464,75.6826574433989,-11.3159060186049));
#1521=CARTESIAN_POINT('Ctrl Pts',(1.92191240031977,75.6139345916268,-11.1935544066604));
#1522=CARTESIAN_POINT('Ctrl Pts',(1.17774805242341,75.5452334033261,-11.0711982580443));
#1523=CARTESIAN_POINT('Ctrl Pts',(-1.31083115287851,75.3154879861102,-10.6620239030139));
#1524=CARTESIAN_POINT('Ctrl Pts',(-3.79946258846596,75.0859878385099,-10.2528041590754));
#1525=CARTESIAN_POINT('Ctrl Pts',(-6.28805103165823,74.8567370350625,-9.84355537640088));
#1526=CARTESIAN_POINT('',(-14.9160907015762,-0.0356052779909,-68.9143021514803));
#1527=CARTESIAN_POINT('',(12.5554155979113,78.1158377120011,-11.7019445552162));
#1528=CARTESIAN_POINT('',(-15.1249312136954,0.0305777795549655,-68.6612877957011));
#1529=CARTESIAN_POINT('',(-15.1249312136954,0.0305777795549655,-68.6612877957011));
#1530=CARTESIAN_POINT('',(-6.10444911437462,76.4113836998668,-8.62151227747903));
#1531=CARTESIAN_POINT('Origin',(12.5554155979113,78.1158377120011,-11.7019445552162));
#1532=CARTESIAN_POINT('',(3.73452622177865,48.7536496099081,-14.4322827157257));
#1533=CARTESIAN_POINT('',(-3.02532106679617,48.6731453488466,-14.1658256501793));
#1534=CARTESIAN_POINT('',(3.59978549057283,48.7939013196403,-14.4225680024875));
#1535=CARTESIAN_POINT('Origin',(3.59978549057283,48.7939013196403,-14.4225680024875));
#1536=CARTESIAN_POINT('',(-6.35705386121725,48.9160021746878,-15.9405329347137));
#1537=CARTESIAN_POINT('',(-12.203794907239,4.45750713751761,-51.7373691808979));
#1538=CARTESIAN_POINT('',(-2.25304109890066,4.98815627769028,-49.7087253659375));
#1539=CARTESIAN_POINT('',(-20.9188155109592,9.12689249612101,-49.4896381100212));
#1540=CARTESIAN_POINT('Origin',(-15.3501784199865,-1.27050594955075,-69.8183363716315));
#1541=CARTESIAN_POINT('',(23.0511476787059,70.1702521840916,-15.7557315605358));
#1542=CARTESIAN_POINT('',(-14.6739025673265,-0.0253647640943622,-68.8751532042655));
#1543=CARTESIAN_POINT('Origin',(2.97321812954475,63.7202923591891,-13.1308650881963));
#1544=CARTESIAN_POINT('',(-0.958687564065234,48.534836976845,-14.6655311947134));
#1545=CARTESIAN_POINT('',(-25.9891430592769,47.9599955167292,-10.2945509649405));
#1546=CARTESIAN_POINT('',(17.5894114804334,49.3440333163986,-17.8481278394135));
#1547=CARTESIAN_POINT('',(-28.9616230340193,50.8336834407679,-9.34256329958463));
#1548=CARTESIAN_POINT('Origin',(-26.0071447601406,50.9275165119319,-9.85467020632858));
#1549=CARTESIAN_POINT('',(-29.1056366409289,74.5738514023902,-5.82351723068926));
#1550=CARTESIAN_POINT('',(-28.9976264357467,56.7687254311734,-8.4628017823608));
#1551=CARTESIAN_POINT('',(-26.1691600679139,77.635205468757,-5.89574337882129));
#1552=CARTESIAN_POINT('Origin',(-26.1511583670502,74.6676844735542,-6.3356241374332));
#1553=CARTESIAN_POINT('',(31.9355793183665,79.4805892016491,-15.9671792114521));
#1554=CARTESIAN_POINT('',(-11.6429752213438,78.09655140198,-8.41360233697899));
#1555=CARTESIAN_POINT('',(34.9080592931088,76.6069012776104,-16.9191668768079));
#1556=CARTESIAN_POINT('Origin',(31.9535810192302,76.5130682064464,-16.407059970064));
#1557=CARTESIAN_POINT('',(35.0520729000184,52.8667333159886,-20.4382129457032));
#1558=CARTESIAN_POINT('',(34.9440626948362,70.6718592872049,-17.7989283940317));
#1559=CARTESIAN_POINT('',(32.1155963270034,49.8053792496218,-20.3659867975712));
#1560=CARTESIAN_POINT('Origin',(32.0975946261397,52.7729002448245,-19.9261060389593));
#1561=CARTESIAN_POINT('',(17.5894114804334,49.3440333163986,-17.8481278394135));
#1562=CARTESIAN_POINT('',(-1.34926039683881,74.6479175015172,-10.7534175347034));
#1563=CARTESIAN_POINT('',(30.7101526265747,62.9693832315206,-18.1787013172724));
#1564=CARTESIAN_POINT('Origin',(30.7453139040009,64.6023232281309,-17.9446700115887));
#1565=CARTESIAN_POINT('',(-24.8340389223375,61.2053214936372,-8.55109147048757));
#1566=CARTESIAN_POINT('Origin',(-24.7988776449114,62.8382614902475,-8.31706016480383));
#1567=CARTESIAN_POINT('Origin',(-20.6008621888853,-2.46373883642719,-46.5843467626808));
#1568=CARTESIAN_POINT('',(-20.6008621888853,5.27585791770461,-48.6088570944481));
#1569=CARTESIAN_POINT('',(-15.9508309772922,4.82268104746342,-50.3413284871253));
#1570=CARTESIAN_POINT('',(-20.6008621888853,-2.46373883642719,-46.5843467626808));
#1571=CARTESIAN_POINT('',(-20.6008621888853,-2.46373883642719,-46.5843467626808));
#1572=CARTESIAN_POINT('',(-15.9322927847757,-2.91872237842653,-48.3237249666771));
#1573=CARTESIAN_POINT('',(-3.80341185563646,-4.10076354092276,-52.8426062985989));
#1574=CARTESIAN_POINT('',(-15.9322927847757,2.88597518717231,-49.8421077155026));
#1575=CARTESIAN_POINT('',(-15.9322927847757,-2.91872237842653,-48.3237249666771));
#1576=CARTESIAN_POINT('',(-7.68945042202282,2.08265466439156,-52.9131599166607));
#1577=CARTESIAN_POINT('',(-15.9508309772922,2.88778185893048,-49.8352009041835));
#1578=CARTESIAN_POINT('',(-7.68945042202282,-3.72204290120728,-51.3947771678352));
#1579=CARTESIAN_POINT('',(-7.68945042202282,-3.72204290120728,-51.3947771678352));
#1580=CARTESIAN_POINT('',(-3.80341185563646,-4.10076354092276,-52.8426062985989));
#1581=CARTESIAN_POINT('',(-3.80341185563646,-4.10076354092276,-52.8426062985989));
#1582=CARTESIAN_POINT('',(-3.80341185563646,3.63883321320903,-54.8671166303662));
#1583=CARTESIAN_POINT('',(-3.80341185563646,-4.10076354092276,-52.8426062985989));
#1584=CARTESIAN_POINT('',(-15.9508309772922,4.82268104746342,-50.3413284871253));
#1585=CARTESIAN_POINT('Origin',(-12.76435877542,3.31411810969521,-52.9494624488907));
#1586=CARTESIAN_POINT('',(-12.7961412944807,4.39129410472444,-51.9904981304745));
#1587=CARTESIAN_POINT('Origin',(-6.10444911437462,76.4113836998668,-8.62151227747903));
#1588=CARTESIAN_POINT('',(-18.7789923224088,0.212414847150288,-67.966134228906));
#1589=CARTESIAN_POINT('Origin',(3.32009887622864,63.4335369482845,-11.1821616520888));
#1590=CARTESIAN_POINT('',(-19.6427902794007,77.544708206083,-5.01814581153947));
#1591=CARTESIAN_POINT('',(-19.4627732707639,47.8694982540552,-9.41695339765863));
#1592=CARTESIAN_POINT('',(-19.6427902794007,77.544708206083,-5.01814581153947));
#1593=CARTESIAN_POINT('',(23.2288861248775,49.2253686118098,-16.8168025792084));
#1594=CARTESIAN_POINT('',(17.9362922271172,49.057277905494,-15.8994244033061));
#1595=CARTESIAN_POINT('',(23.0488691162407,78.9005785638372,-12.4179949930893));
#1596=CARTESIAN_POINT('',(23.2288861248775,49.2253686118098,-16.8168025792084));
#1597=CARTESIAN_POINT('',(-11.2960944746599,77.8097959910754,-6.46489890087155));
#1598=CARTESIAN_POINT('Origin',(32.1328368907364,63.4553015845125,-10.1498562671589));
#1599=CARTESIAN_POINT('',(32.0976756133103,61.8223615879022,-10.3838875728426));
#1600=CARTESIAN_POINT('Origin',(32.1328368907364,63.4553015845125,-10.1498562671589));
#1601=CARTESIAN_POINT('',(32.0976756133102,61.8223615879022,-10.3838875728426));
#1602=CARTESIAN_POINT('Origin',(33.3411040059657,75.366046562828,-8.61224622563419));
#1603=CARTESIAN_POINT('',(33.323102305102,78.3335675580307,-8.17236546702228));
#1604=CARTESIAN_POINT('',(36.2955822798444,75.459879633992,-9.12435313237813));
#1605=CARTESIAN_POINT('Origin',(33.3411040059657,75.366046562828,-8.61224622563419));
#1606=CARTESIAN_POINT('',(36.2955822798444,75.459879633992,-9.12435313237813));
#1607=CARTESIAN_POINT('',(33.323102305102,78.3335675580307,-8.17236546702228));
#1608=CARTESIAN_POINT('Origin',(24.2695283649291,48.365102379096,-10.970692270886));
#1609=CARTESIAN_POINT('',(24.2695283649291,48.365102379096,-10.970692270886));
#1610=CARTESIAN_POINT('',(24.0895113562924,78.0403123311234,-6.57188468476695));
#1611=CARTESIAN_POINT('',(24.2695283649291,48.365102379096,-10.970692270886));
#1612=CARTESIAN_POINT('',(24.0895113562924,78.0403123311234,-6.57188468476695));
#1613=CARTESIAN_POINT('',(24.2695283649291,48.365102379096,-10.970692270886));
#1614=CARTESIAN_POINT('Origin',(33.4851176128752,51.6258786012061,-12.1312922945295));
#1615=CARTESIAN_POINT('',(36.4395958867539,51.7197116723701,-12.6433992012734));
#1616=CARTESIAN_POINT('',(33.5031193137389,48.6583576060034,-12.5711730531414));
#1617=CARTESIAN_POINT('Origin',(33.4851176128752,51.6258786012061,-12.1312922945295));
#1618=CARTESIAN_POINT('',(33.5031193137389,48.6583576060034,-12.5711730531414));
#1619=CARTESIAN_POINT('',(36.4395958867539,51.7197116723701,-12.6433992012734));
#1620=CARTESIAN_POINT('Origin',(36.2955822798444,75.459879633992,-9.12435313237813));
#1621=CARTESIAN_POINT('',(36.2955822798444,75.459879633992,-9.12435313237813));
#1622=CARTESIAN_POINT('Origin',(30.232294962533,63.3555016691906,-9.8262343010107));
#1623=CARTESIAN_POINT('',(24.0895113562924,78.0403123311234,-6.57188468476695));
#1624=CARTESIAN_POINT('',(33.5031193137389,48.6583576060034,-12.5711730531414));
#1625=CARTESIAN_POINT('Origin',(-23.4113546581758,61.6912398466291,-0.522246420374044));
#1626=CARTESIAN_POINT('',(-23.446515935602,60.0582998500188,-0.756277726057781));
#1627=CARTESIAN_POINT('Origin',(-23.4113546581758,61.6912398466291,-0.522246420374044));
#1628=CARTESIAN_POINT('',(-23.446515935602,60.0582998500188,-0.756277726057782));
#1629=CARTESIAN_POINT('Origin',(-18.6021480393491,76.6844419733692,0.827964496782865));
#1630=CARTESIAN_POINT('',(-18.6021480393491,76.6844419733692,0.827964496782865));
#1631=CARTESIAN_POINT('',(-18.4221310307123,47.0092320213414,-3.57084308933629));
#1632=CARTESIAN_POINT('',(-18.6021480393491,76.6844419733692,0.827964496782865));
#1633=CARTESIAN_POINT('',(-18.4221310307123,47.0092320213414,-3.57084308933629));
#1634=CARTESIAN_POINT('',(-18.6021480393491,76.6844419733692,0.827964496782865));
#1635=CARTESIAN_POINT('Origin',(-24.7816370811783,76.4881838251385,1.89907036560849));
#1636=CARTESIAN_POINT('',(-24.7816370811783,76.4881838251385,1.89907036560849));
#1637=CARTESIAN_POINT('',(-24.7816370811783,76.4881838251385,1.89907036560849));
#1638=CARTESIAN_POINT('',(-24.7816370811783,76.4881838251385,1.89907036560849));
#1639=CARTESIAN_POINT('Origin',(-24.7636353803146,73.5206628299358,1.45918960699658));
#1640=CARTESIAN_POINT('',(-27.7181136541933,73.4268297587718,1.97129651374052));
#1641=CARTESIAN_POINT('Origin',(-24.7636353803146,73.5206628299358,1.45918960699658));
#1642=CARTESIAN_POINT('',(-27.7181136541933,73.4268297587718,1.97129651374052));
#1643=CARTESIAN_POINT('Origin',(-27.5741000472837,49.6866617971495,-1.54774955515485));
#1644=CARTESIAN_POINT('',(-27.5741000472837,49.6866617971495,-1.54774955515485));
#1645=CARTESIAN_POINT('',(-27.5741000472837,49.6866617971495,-1.54774955515485));
#1646=CARTESIAN_POINT('',(-27.5741000472837,49.6866617971495,-1.54774955515485));
#1647=CARTESIAN_POINT('Origin',(-24.6196217734051,49.7804948683135,-2.05985646189878));
#1648=CARTESIAN_POINT('',(-24.6016200725414,46.8129738731107,-2.4997372205107));
#1649=CARTESIAN_POINT('Origin',(-24.6196217734051,49.7804948683135,-2.05985646189878));
#1650=CARTESIAN_POINT('',(-24.6016200725414,46.8129738731107,-2.4997372205107));
#1651=CARTESIAN_POINT('Origin',(-18.4221310307123,47.0092320213414,-3.57084308933629));
#1652=CARTESIAN_POINT('',(-18.4221310307123,47.0092320213414,-3.57084308933629));
#1653=CARTESIAN_POINT('Origin',(-23.0378636834627,61.7425412226127,-0.581180929807377));
#1654=CARTESIAN_POINT('Origin',(-15.0622570402532,1.8977556373236,-61.5231648330203));
#1655=CARTESIAN_POINT('',(-3.67512886532602,-1.48034664305741,-74.4374725715924));
#1656=CARTESIAN_POINT('',(-3.78182403574159,2.77736332948471,-58.160470786793));
#1657=CARTESIAN_POINT('',(-26.4493852151804,0.435820029334502,-67.1120679414893));
#1658=CARTESIAN_POINT('',(-10.8001679035906,-0.880864397188106,-72.1456834058442));
#1659=CARTESIAN_POINT('',(-25.1547681644605,1.5072008802335,-63.0162351734648));
#1660=CARTESIAN_POINT('',(-21.8270837534038,2.4756125016377,-59.3140483660799));
#1661=CARTESIAN_POINT('Origin',(-21.8270837534038,2.70336991396152,-58.44334373124));
#1662=CARTESIAN_POINT('',(-5.54336595629861,1.01347779706988,-64.903712610321));
#1663=CARTESIAN_POINT('Origin',(-5.54336595629861,1.2412352093937,-64.0330079754812));
#1664=CARTESIAN_POINT('Origin',(-15.0622570402532,-0.0371435512093476,-61.0170372500784));
#1665=CARTESIAN_POINT('',(-21.7126113155714,-1.89761899038572,-68.129537218217));
#1666=CARTESIAN_POINT('',(-21.7126113155714,-1.89761899038571,-68.129537218217));
#1667=CARTESIAN_POINT('',(-9.89128183638369,-2.89223489456334,-71.931901623471));
#1668=CARTESIAN_POINT('',(-10.8001679035906,-2.81576358572105,-71.6395558229024));
#1669=CARTESIAN_POINT('',(-9.89128183638369,-2.89223489456334,-71.931901623471));
#1670=CARTESIAN_POINT('Origin',(-5.54336595629861,-6.49836154473809,-62.0084976437139));
#1671=CARTESIAN_POINT('',(-5.54336595629861,-6.72611895706192,-62.8792022785537));
#1672=CARTESIAN_POINT('Origin',(-5.54336595629861,-6.49836154473809,-62.0084976437139));
#1673=CARTESIAN_POINT('',(-5.54336595629861,-6.72611895706191,-62.8792022785537));
#1674=CARTESIAN_POINT('Origin',(-3.80341185563646,-4.10076354092276,-52.8426062985989));
#1675=CARTESIAN_POINT('',(-3.67512886532602,-9.2199433971892,-72.4129622398251));
#1676=CARTESIAN_POINT('',(-3.67512886532602,-9.2199433971892,-72.4129622398251));
#1677=CARTESIAN_POINT('',(-3.67512886532602,-9.2199433971892,-72.4129622398251));
#1678=CARTESIAN_POINT('Origin',(-9.89128183638369,-8.69693246016219,-70.4135188746455));
#1679=CARTESIAN_POINT('',(-9.89128183638369,-8.69693246016219,-70.4135188746455));
#1680=CARTESIAN_POINT('',(-9.89128183638369,-8.69693246016219,-70.4135188746455));
#1681=CARTESIAN_POINT('',(-9.89128183638369,-8.69693246016219,-70.4135188746455));
#1682=CARTESIAN_POINT('Origin',(-6.78320535085485,-6.47099314919824,-61.9038697038302));
#1683=CARTESIAN_POINT('',(-3.67512886532602,-9.2199433971892,-72.4129622398251));
#1684=CARTESIAN_POINT('Origin',(-21.8270837534038,-5.03622684017027,-56.4188333994727));
#1685=CARTESIAN_POINT('',(-21.8270837534038,-5.2639842524941,-57.2895380343126));
#1686=CARTESIAN_POINT('Origin',(-21.8270837534038,-5.03622684017027,-56.4188333994727));
#1687=CARTESIAN_POINT('',(-21.8270837534038,-5.26398425249409,-57.2895380343125));
#1688=CARTESIAN_POINT('Origin',(-15.9322927847757,-2.91872237842653,-48.3237249666771));
#1689=CARTESIAN_POINT('',(-21.7126113155714,-7.70231655598456,-66.6111544693916));
#1690=CARTESIAN_POINT('',(-21.7126113155714,-7.70231655598456,-66.6111544693915));
#1691=CARTESIAN_POINT('',(-21.7126113155714,-7.70231655598456,-66.6111544693916));
#1692=CARTESIAN_POINT('Origin',(-26.4493852151804,-7.30377672479729,-65.087557609722));
#1693=CARTESIAN_POINT('',(-26.4493852151804,-7.30377672479729,-65.087557609722));
#1694=CARTESIAN_POINT('',(-20.6008621888853,-2.46373883642719,-46.5843467626808));
#1695=CARTESIAN_POINT('',(-26.4493852151804,-7.30377672479729,-65.087557609722));
#1696=CARTESIAN_POINT('Origin',(-21.7126113155714,-7.70231655598456,-66.6111544693916));
#1697=CARTESIAN_POINT('',(-3.67512886532602,-9.2199433971892,-72.4129622398251));
#1698=CARTESIAN_POINT('Origin',(-21.190838999978,-5.08302769620587,-56.5977506160362));
#1699=UNCERTAINTY_MEASURE_WITH_UNIT(LENGTH_MEASURE(0.01),#1703,
'DISTANCE_ACCURACY_VALUE',
'Maximum model space distance between geometric entities at asserted c
onnectivities');
#1700=UNCERTAINTY_MEASURE_WITH_UNIT(LENGTH_MEASURE(0.01),#1703,
'DISTANCE_ACCURACY_VALUE',
'Maximum model space distance between geometric entities at asserted c
onnectivities');
#1701=(
GEOMETRIC_REPRESENTATION_CONTEXT(3)
GLOBAL_UNCERTAINTY_ASSIGNED_CONTEXT((#1699))
GLOBAL_UNIT_ASSIGNED_CONTEXT((#1703,#1705,#1706))
REPRESENTATION_CONTEXT('','3D')
);
#1702=(
GEOMETRIC_REPRESENTATION_CONTEXT(3)
GLOBAL_UNCERTAINTY_ASSIGNED_CONTEXT((#1700))
GLOBAL_UNIT_ASSIGNED_CONTEXT((#1703,#1705,#1706))
REPRESENTATION_CONTEXT('','3D')
);
#1703=(
LENGTH_UNIT()
NAMED_UNIT(*)
SI_UNIT(.MILLI.,.METRE.)
);
#1704=(
LENGTH_UNIT()
NAMED_UNIT(*)
SI_UNIT($,.METRE.)
);
#1705=(
NAMED_UNIT(*)
PLANE_ANGLE_UNIT()
SI_UNIT($,.RADIAN.)
);
#1706=(
NAMED_UNIT(*)
SI_UNIT($,.STERADIAN.)
SOLID_ANGLE_UNIT()
);
#1707=SHAPE_DEFINITION_REPRESENTATION(#1708,#1709);
#1708=PRODUCT_DEFINITION_SHAPE('',$,#1711);
#1709=SHAPE_REPRESENTATION('',(#1018),#1701);
#1710=PRODUCT_DEFINITION_CONTEXT('part definition',#1715,'design');
#1711=PRODUCT_DEFINITION('2026-08-19-19-32-39-206','dorsal jig',#1712,#1710);
#1712=PRODUCT_DEFINITION_FORMATION('',$,#1717);
#1713=PRODUCT_RELATED_PRODUCT_CATEGORY('dorsal jig','dorsal jig',(#1717));
#1714=APPLICATION_PROTOCOL_DEFINITION('international standard',
'automotive_design',2009,#1715);
#1715=APPLICATION_CONTEXT(
'Core Data for Automotive Mechanical Design Process');
#1716=PRODUCT_CONTEXT('part definition',#1715,'mechanical');
#1717=PRODUCT('2026-08-19-19-32-39-206','dorsal jig',$,(#1716));
#1718=PRESENTATION_STYLE_ASSIGNMENT((#1720));
#1719=PRESENTATION_STYLE_ASSIGNMENT((#1721));
#1720=SURFACE_STYLE_USAGE(.BOTH.,#1722);
#1721=SURFACE_STYLE_USAGE(.BOTH.,#1723);
#1722=SURFACE_SIDE_STYLE('',(#1724));
#1723=SURFACE_SIDE_STYLE('',(#1725));
#1724=SURFACE_STYLE_FILL_AREA(#1726);
#1725=SURFACE_STYLE_FILL_AREA(#1727);
#1726=FILL_AREA_STYLE('\X2\30D730EC30FC30C8\X0\',(#1728));
#1727=FILL_AREA_STYLE('Opaque(160,160,160)',(#1729));
#1728=FILL_AREA_STYLE_COLOUR('\X2\30D730EC30FC30C8\X0\',#1730);
#1729=FILL_AREA_STYLE_COLOUR('Opaque(160,160,160)',#1731);
#1730=COLOUR_RGB('\X2\30D730EC30FC30C8\X0\',0.6,0.6,0.6);
#1731=COLOUR_RGB('Opaque(160,160,160)',0.627450980392157,0.627450980392157,
0.627450980392157);
ENDSEC;
END-ISO-10303-21;
