ISO-10303-21;
HEADER;
/* Generated by software containing ST-Developer
 * from STEP Tools, Inc. (www.steptools.com) 
 */

FILE_DESCRIPTION(
/* description */ (''),
/* implementation_level */ '2;1');

FILE_NAME(
/* name */ 'jig_ligament_wrist_dorsal_3.step',
/* time_stamp */ '2026-08-19T19:37:30+09:00',
/* author */ (''),
/* organization */ (''),
/* preprocessor_version */ 'ST-DEVELOPER v20.1',
/* originating_system */ 'Autodesk Translation Framework v15.8.0.0',
/* authorisation */ '');

FILE_SCHEMA (('AUTOMOTIVE_DESIGN { 1 0 10303 214 3 1 1 }'));
ENDSEC;

DATA;
#10=MECHANICAL_DESIGN_GEOMETRIC_PRESENTATION_REPRESENTATION('',(#13),#1209);
#11=SHAPE_REPRESENTATION_RELATIONSHIP('SRR','None',#1216,#12);
#12=ADVANCED_BREP_SHAPE_REPRESENTATION('',(#14),#1208);
#13=STYLED_ITEM('',(#1226),#14);
#14=MANIFOLD_SOLID_BREP('\X2\30DC30C730A3\X0\1',#717);
#15=FACE_BOUND('',#95,.T.);
#16=FACE_BOUND('',#99,.T.);
#17=FACE_BOUND('',#112,.T.);
#18=FACE_BOUND('',#124,.T.);
#19=ELLIPSE('',#736,1.00057994403798,1.);
#20=ELLIPSE('',#737,1.00057994403798,1.);
#21=ELLIPSE('',#740,1.00057994403798,1.);
#22=ELLIPSE('',#741,1.00057994403798,1.);
#23=ELLIPSE('',#755,3.00173983211395,3.);
#24=ELLIPSE('',#756,3.00173983211395,3.);
#25=ELLIPSE('',#768,3.00173983211395,3.);
#26=ELLIPSE('',#769,3.00173983211395,3.);
#27=PLANE('',#734);
#28=PLANE('',#738);
#29=PLANE('',#742);
#30=PLANE('',#746);
#31=PLANE('',#750);
#32=PLANE('',#753);
#33=PLANE('',#761);
#34=PLANE('',#766);
#35=PLANE('',#772);
#36=PLANE('',#774);
#37=PLANE('',#776);
#38=PLANE('',#778);
#39=PLANE('',#781);
#40=PLANE('',#783);
#41=PLANE('',#784);
#42=PLANE('',#785);
#43=PLANE('',#786);
#44=PLANE('',#787);
#45=PLANE('',#788);
#46=PLANE('',#792);
#47=PLANE('',#793);
#48=PLANE('',#794);
#49=FACE_OUTER_BOUND('',#85,.T.);
#50=FACE_OUTER_BOUND('',#86,.T.);
#51=FACE_OUTER_BOUND('',#87,.T.);
#52=FACE_OUTER_BOUND('',#88,.T.);
#53=FACE_OUTER_BOUND('',#89,.T.);
#54=FACE_OUTER_BOUND('',#90,.T.);
#55=FACE_OUTER_BOUND('',#91,.T.);
#56=FACE_OUTER_BOUND('',#92,.T.);
#57=FACE_OUTER_BOUND('',#93,.T.);
#58=FACE_OUTER_BOUND('',#94,.T.);
#59=FACE_OUTER_BOUND('',#96,.T.);
#60=FACE_OUTER_BOUND('',#97,.T.);
#61=FACE_OUTER_BOUND('',#98,.T.);
#62=FACE_OUTER_BOUND('',#100,.T.);
#63=FACE_OUTER_BOUND('',#101,.T.);
#64=FACE_OUTER_BOUND('',#102,.T.);
#65=FACE_OUTER_BOUND('',#103,.T.);
#66=FACE_OUTER_BOUND('',#104,.T.);
#67=FACE_OUTER_BOUND('',#105,.T.);
#68=FACE_OUTER_BOUND('',#106,.T.);
#69=FACE_OUTER_BOUND('',#107,.T.);
#70=FACE_OUTER_BOUND('',#108,.T.);
#71=FACE_OUTER_BOUND('',#109,.T.);
#72=FACE_OUTER_BOUND('',#110,.T.);
#73=FACE_OUTER_BOUND('',#111,.T.);
#74=FACE_OUTER_BOUND('',#113,.T.);
#75=FACE_OUTER_BOUND('',#114,.T.);
#76=FACE_OUTER_BOUND('',#115,.T.);
#77=FACE_OUTER_BOUND('',#116,.T.);
#78=FACE_OUTER_BOUND('',#117,.T.);
#79=FACE_OUTER_BOUND('',#118,.T.);
#80=FACE_OUTER_BOUND('',#119,.T.);
#81=FACE_OUTER_BOUND('',#120,.T.);
#82=FACE_OUTER_BOUND('',#121,.T.);
#83=FACE_OUTER_BOUND('',#122,.T.);
#84=FACE_OUTER_BOUND('',#123,.T.);
#85=EDGE_LOOP('',(#463,#464,#465,#466));
#86=EDGE_LOOP('',(#467,#468,#469,#470));
#87=EDGE_LOOP('',(#471,#472,#473,#474));
#88=EDGE_LOOP('',(#475,#476,#477,#478));
#89=EDGE_LOOP('',(#479,#480,#481,#482));
#90=EDGE_LOOP('',(#483,#484,#485,#486));
#91=EDGE_LOOP('',(#487,#488,#489,#490));
#92=EDGE_LOOP('',(#491,#492,#493,#494));
#93=EDGE_LOOP('',(#495,#496,#497,#498));
#94=EDGE_LOOP('',(#499,#500,#501,#502,#503,#504));
#95=EDGE_LOOP('',(#505));
#96=EDGE_LOOP('',(#506,#507,#508,#509,#510,#511,#512,#513,#514,#515,#516,
#517,#518,#519,#520,#521,#522,#523,#524,#525,#526,#527,#528,#529,#530,#531,
#532,#533));
#97=EDGE_LOOP('',(#534,#535,#536,#537));
#98=EDGE_LOOP('',(#538,#539,#540,#541,#542,#543));
#99=EDGE_LOOP('',(#544));
#100=EDGE_LOOP('',(#545,#546,#547,#548));
#101=EDGE_LOOP('',(#549,#550,#551,#552,#553,#554,#555,#556,#557,#558,#559,
#560,#561,#562,#563,#564,#565,#566,#567,#568,#569,#570,#571,#572,#573,#574,
#575,#576));
#102=EDGE_LOOP('',(#577,#578,#579,#580));
#103=EDGE_LOOP('',(#581,#582,#583,#584));
#104=EDGE_LOOP('',(#585,#586,#587,#588));
#105=EDGE_LOOP('',(#589,#590,#591,#592));
#106=EDGE_LOOP('',(#593,#594,#595,#596));
#107=EDGE_LOOP('',(#597,#598,#599,#600));
#108=EDGE_LOOP('',(#601,#602,#603,#604));
#109=EDGE_LOOP('',(#605,#606,#607,#608));
#110=EDGE_LOOP('',(#609,#610,#611,#612));
#111=EDGE_LOOP('',(#613,#614,#615,#616,#617,#618));
#112=EDGE_LOOP('',(#619));
#113=EDGE_LOOP('',(#620,#621,#622,#623));
#114=EDGE_LOOP('',(#624,#625,#626,#627));
#115=EDGE_LOOP('',(#628,#629,#630,#631));
#116=EDGE_LOOP('',(#632,#633,#634,#635));
#117=EDGE_LOOP('',(#636,#637,#638,#639));
#118=EDGE_LOOP('',(#640,#641,#642,#643));
#119=EDGE_LOOP('',(#644,#645,#646,#647));
#120=EDGE_LOOP('',(#648,#649,#650,#651));
#121=EDGE_LOOP('',(#652,#653,#654,#655));
#122=EDGE_LOOP('',(#656,#657,#658,#659));
#123=EDGE_LOOP('',(#660,#661,#662,#663,#664,#665));
#124=EDGE_LOOP('',(#666));
#125=LINE('',#1005,#199);
#126=LINE('',#1008,#200);
#127=LINE('',#1011,#201);
#128=LINE('',#1013,#202);
#129=LINE('',#1014,#203);
#130=LINE('',#1020,#204);
#131=LINE('',#1023,#205);
#132=LINE('',#1026,#206);
#133=LINE('',#1028,#207);
#134=LINE('',#1029,#208);
#135=LINE('',#1035,#209);
#136=LINE('',#1038,#210);
#137=LINE('',#1041,#211);
#138=LINE('',#1043,#212);
#139=LINE('',#1044,#213);
#140=LINE('',#1050,#214);
#141=LINE('',#1053,#215);
#142=LINE('',#1056,#216);
#143=LINE('',#1058,#217);
#144=LINE('',#1059,#218);
#145=LINE('',#1065,#219);
#146=LINE('',#1068,#220);
#147=LINE('',#1070,#221);
#148=LINE('',#1072,#222);
#149=LINE('',#1075,#223);
#150=LINE('',#1080,#224);
#151=LINE('',#1082,#225);
#152=LINE('',#1086,#226);
#153=LINE('',#1090,#227);
#154=LINE('',#1092,#228);
#155=LINE('',#1094,#229);
#156=LINE('',#1098,#230);
#157=LINE('',#1102,#231);
#158=LINE('',#1104,#232);
#159=LINE('',#1106,#233);
#160=LINE('',#1107,#234);
#161=LINE('',#1108,#235);
#162=LINE('',#1109,#236);
#163=LINE('',#1110,#237);
#164=LINE('',#1115,#238);
#165=LINE('',#1119,#239);
#166=LINE('',#1122,#240);
#167=LINE('',#1129,#241);
#168=LINE('',#1130,#242);
#169=LINE('',#1133,#243);
#170=LINE('',#1135,#244);
#171=LINE('',#1139,#245);
#172=LINE('',#1143,#246);
#173=LINE('',#1145,#247);
#174=LINE('',#1147,#248);
#175=LINE('',#1151,#249);
#176=LINE('',#1155,#250);
#177=LINE('',#1157,#251);
#178=LINE('',#1158,#252);
#179=LINE('',#1159,#253);
#180=LINE('',#1160,#254);
#181=LINE('',#1161,#255);
#182=LINE('',#1163,#256);
#183=LINE('',#1164,#257);
#184=LINE('',#1166,#258);
#185=LINE('',#1168,#259);
#186=LINE('',#1169,#260);
#187=LINE('',#1171,#261);
#188=LINE('',#1173,#262);
#189=LINE('',#1174,#263);
#190=LINE('',#1177,#264);
#191=LINE('',#1178,#265);
#192=LINE('',#1183,#266);
#193=LINE('',#1185,#267);
#194=LINE('',#1186,#268);
#195=LINE('',#1194,#269);
#196=LINE('',#1198,#270);
#197=LINE('',#1201,#271);
#198=LINE('',#1203,#272);
#199=VECTOR('',#801,10.);
#200=VECTOR('',#804,10.);
#201=VECTOR('',#807,10.);
#202=VECTOR('',#808,10.);
#203=VECTOR('',#809,10.);
#204=VECTOR('',#814,10.);
#205=VECTOR('',#817,10.);
#206=VECTOR('',#820,10.);
#207=VECTOR('',#821,10.);
#208=VECTOR('',#822,10.);
#209=VECTOR('',#827,10.);
#210=VECTOR('',#830,10.);
#211=VECTOR('',#833,10.);
#212=VECTOR('',#834,10.);
#213=VECTOR('',#835,10.);
#214=VECTOR('',#840,10.);
#215=VECTOR('',#843,10.);
#216=VECTOR('',#846,10.);
#217=VECTOR('',#847,10.);
#218=VECTOR('',#848,10.);
#219=VECTOR('',#853,10.);
#220=VECTOR('',#856,10.);
#221=VECTOR('',#859,10.);
#222=VECTOR('',#860,10.);
#223=VECTOR('',#863,10.);
#224=VECTOR('',#868,10.);
#225=VECTOR('',#869,10.);
#226=VECTOR('',#872,10.);
#227=VECTOR('',#875,10.);
#228=VECTOR('',#876,10.);
#229=VECTOR('',#877,10.);
#230=VECTOR('',#880,10.);
#231=VECTOR('',#883,10.);
#232=VECTOR('',#884,10.);
#233=VECTOR('',#885,10.);
#234=VECTOR('',#886,10.);
#235=VECTOR('',#887,10.);
#236=VECTOR('',#888,10.);
#237=VECTOR('',#889,10.);
#238=VECTOR('',#894,10.);
#239=VECTOR('',#899,10.);
#240=VECTOR('',#902,10.);
#241=VECTOR('',#909,10.);
#242=VECTOR('',#910,10.);
#243=VECTOR('',#913,10.);
#244=VECTOR('',#914,10.);
#245=VECTOR('',#917,10.);
#246=VECTOR('',#920,10.);
#247=VECTOR('',#921,10.);
#248=VECTOR('',#922,10.);
#249=VECTOR('',#925,10.);
#250=VECTOR('',#928,10.);
#251=VECTOR('',#929,10.);
#252=VECTOR('',#930,10.);
#253=VECTOR('',#931,10.);
#254=VECTOR('',#932,10.);
#255=VECTOR('',#933,10.);
#256=VECTOR('',#936,10.);
#257=VECTOR('',#937,10.);
#258=VECTOR('',#940,10.);
#259=VECTOR('',#943,10.);
#260=VECTOR('',#944,10.);
#261=VECTOR('',#947,10.);
#262=VECTOR('',#950,10.);
#263=VECTOR('',#951,10.);
#264=VECTOR('',#956,10.);
#265=VECTOR('',#957,10.);
#266=VECTOR('',#964,10.);
#267=VECTOR('',#967,10.);
#268=VECTOR('',#968,10.);
#269=VECTOR('',#981,10.);
#270=VECTOR('',#986,1.65);
#271=VECTOR('',#991,1.65);
#272=VECTOR('',#994,10.);
#273=CIRCLE('',#732,1.);
#274=CIRCLE('',#733,1.);
#275=CIRCLE('',#744,1.);
#276=CIRCLE('',#745,1.);
#277=CIRCLE('',#748,3.);
#278=CIRCLE('',#749,3.);
#279=CIRCLE('',#751,3.);
#280=CIRCLE('',#752,1.65);
#281=CIRCLE('',#754,3.);
#282=CIRCLE('',#757,3.);
#283=CIRCLE('',#759,3.);
#284=CIRCLE('',#760,3.);
#285=CIRCLE('',#762,3.);
#286=CIRCLE('',#763,1.65);
#287=CIRCLE('',#765,3.);
#288=CIRCLE('',#767,3.);
#289=CIRCLE('',#770,3.);
#290=CIRCLE('',#780,3.);
#291=CIRCLE('',#782,1.65);
#292=CIRCLE('',#790,1.65);
#293=VERTEX_POINT('',#1001);
#294=VERTEX_POINT('',#1002);
#295=VERTEX_POINT('',#1004);
#296=VERTEX_POINT('',#1006);
#297=VERTEX_POINT('',#1010);
#298=VERTEX_POINT('',#1012);
#299=VERTEX_POINT('',#1016);
#300=VERTEX_POINT('',#1017);
#301=VERTEX_POINT('',#1019);
#302=VERTEX_POINT('',#1021);
#303=VERTEX_POINT('',#1025);
#304=VERTEX_POINT('',#1027);
#305=VERTEX_POINT('',#1031);
#306=VERTEX_POINT('',#1032);
#307=VERTEX_POINT('',#1034);
#308=VERTEX_POINT('',#1036);
#309=VERTEX_POINT('',#1040);
#310=VERTEX_POINT('',#1042);
#311=VERTEX_POINT('',#1046);
#312=VERTEX_POINT('',#1047);
#313=VERTEX_POINT('',#1049);
#314=VERTEX_POINT('',#1051);
#315=VERTEX_POINT('',#1055);
#316=VERTEX_POINT('',#1057);
#317=VERTEX_POINT('',#1061);
#318=VERTEX_POINT('',#1062);
#319=VERTEX_POINT('',#1064);
#320=VERTEX_POINT('',#1066);
#321=VERTEX_POINT('',#1071);
#322=VERTEX_POINT('',#1073);
#323=VERTEX_POINT('',#1076);
#324=VERTEX_POINT('',#1079);
#325=VERTEX_POINT('',#1081);
#326=VERTEX_POINT('',#1083);
#327=VERTEX_POINT('',#1085);
#328=VERTEX_POINT('',#1087);
#329=VERTEX_POINT('',#1089);
#330=VERTEX_POINT('',#1091);
#331=VERTEX_POINT('',#1093);
#332=VERTEX_POINT('',#1095);
#333=VERTEX_POINT('',#1097);
#334=VERTEX_POINT('',#1099);
#335=VERTEX_POINT('',#1101);
#336=VERTEX_POINT('',#1103);
#337=VERTEX_POINT('',#1105);
#338=VERTEX_POINT('',#1112);
#339=VERTEX_POINT('',#1114);
#340=VERTEX_POINT('',#1118);
#341=VERTEX_POINT('',#1120);
#342=VERTEX_POINT('',#1123);
#343=VERTEX_POINT('',#1126);
#344=VERTEX_POINT('',#1127);
#345=VERTEX_POINT('',#1132);
#346=VERTEX_POINT('',#1134);
#347=VERTEX_POINT('',#1136);
#348=VERTEX_POINT('',#1138);
#349=VERTEX_POINT('',#1140);
#350=VERTEX_POINT('',#1142);
#351=VERTEX_POINT('',#1144);
#352=VERTEX_POINT('',#1146);
#353=VERTEX_POINT('',#1148);
#354=VERTEX_POINT('',#1150);
#355=VERTEX_POINT('',#1152);
#356=VERTEX_POINT('',#1154);
#357=VERTEX_POINT('',#1156);
#358=VERTEX_POINT('',#1181);
#359=VERTEX_POINT('',#1187);
#360=VERTEX_POINT('',#1197);
#361=EDGE_CURVE('',#293,#294,#273,.T.);
#362=EDGE_CURVE('',#294,#295,#125,.T.);
#363=EDGE_CURVE('',#295,#296,#274,.T.);
#364=EDGE_CURVE('',#296,#293,#126,.T.);
#365=EDGE_CURVE('',#297,#294,#127,.T.);
#366=EDGE_CURVE('',#298,#297,#128,.T.);
#367=EDGE_CURVE('',#295,#298,#129,.T.);
#368=EDGE_CURVE('',#299,#300,#19,.T.);
#369=EDGE_CURVE('',#300,#301,#130,.T.);
#370=EDGE_CURVE('',#301,#302,#20,.T.);
#371=EDGE_CURVE('',#302,#299,#131,.T.);
#372=EDGE_CURVE('',#303,#300,#132,.T.);
#373=EDGE_CURVE('',#304,#303,#133,.T.);
#374=EDGE_CURVE('',#301,#304,#134,.T.);
#375=EDGE_CURVE('',#305,#306,#21,.T.);
#376=EDGE_CURVE('',#306,#307,#135,.T.);
#377=EDGE_CURVE('',#307,#308,#22,.T.);
#378=EDGE_CURVE('',#308,#305,#136,.T.);
#379=EDGE_CURVE('',#309,#306,#137,.T.);
#380=EDGE_CURVE('',#310,#309,#138,.T.);
#381=EDGE_CURVE('',#307,#310,#139,.T.);
#382=EDGE_CURVE('',#311,#312,#275,.T.);
#383=EDGE_CURVE('',#312,#313,#140,.T.);
#384=EDGE_CURVE('',#313,#314,#276,.T.);
#385=EDGE_CURVE('',#314,#311,#141,.T.);
#386=EDGE_CURVE('',#315,#312,#142,.T.);
#387=EDGE_CURVE('',#316,#315,#143,.T.);
#388=EDGE_CURVE('',#313,#316,#144,.T.);
#389=EDGE_CURVE('',#317,#318,#277,.T.);
#390=EDGE_CURVE('',#318,#319,#145,.T.);
#391=EDGE_CURVE('',#319,#320,#278,.T.);
#392=EDGE_CURVE('',#320,#317,#146,.T.);
#393=EDGE_CURVE('',#298,#319,#147,.T.);
#394=EDGE_CURVE('',#321,#297,#148,.T.);
#395=EDGE_CURVE('',#322,#321,#279,.T.);
#396=EDGE_CURVE('',#320,#322,#149,.T.);
#397=EDGE_CURVE('',#323,#323,#280,.T.);
#398=EDGE_CURVE('',#324,#318,#150,.T.);
#399=EDGE_CURVE('',#324,#325,#151,.T.);
#400=EDGE_CURVE('',#326,#325,#281,.T.);
#401=EDGE_CURVE('',#327,#326,#152,.T.);
#402=EDGE_CURVE('',#328,#327,#23,.T.);
#403=EDGE_CURVE('',#329,#328,#153,.T.);
#404=EDGE_CURVE('',#330,#329,#154,.T.);
#405=EDGE_CURVE('',#330,#331,#155,.T.);
#406=EDGE_CURVE('',#332,#331,#24,.T.);
#407=EDGE_CURVE('',#333,#332,#156,.T.);
#408=EDGE_CURVE('',#334,#333,#282,.T.);
#409=EDGE_CURVE('',#335,#334,#157,.T.);
#410=EDGE_CURVE('',#336,#335,#158,.T.);
#411=EDGE_CURVE('',#337,#336,#159,.T.);
#412=EDGE_CURVE('',#337,#315,#160,.T.);
#413=EDGE_CURVE('',#311,#302,#161,.T.);
#414=EDGE_CURVE('',#304,#309,#162,.T.);
#415=EDGE_CURVE('',#305,#296,#163,.T.);
#416=EDGE_CURVE('',#336,#338,#283,.T.);
#417=EDGE_CURVE('',#338,#339,#164,.T.);
#418=EDGE_CURVE('',#339,#337,#284,.T.);
#419=EDGE_CURVE('',#340,#339,#165,.T.);
#420=EDGE_CURVE('',#341,#340,#285,.T.);
#421=EDGE_CURVE('',#316,#341,#166,.T.);
#422=EDGE_CURVE('',#342,#342,#286,.T.);
#423=EDGE_CURVE('',#343,#344,#287,.T.);
#424=EDGE_CURVE('',#344,#341,#167,.T.);
#425=EDGE_CURVE('',#340,#343,#168,.T.);
#426=EDGE_CURVE('',#345,#344,#169,.T.);
#427=EDGE_CURVE('',#345,#346,#170,.T.);
#428=EDGE_CURVE('',#347,#346,#288,.T.);
#429=EDGE_CURVE('',#348,#347,#171,.T.);
#430=EDGE_CURVE('',#349,#348,#25,.T.);
#431=EDGE_CURVE('',#350,#349,#172,.T.);
#432=EDGE_CURVE('',#351,#350,#173,.T.);
#433=EDGE_CURVE('',#351,#352,#174,.T.);
#434=EDGE_CURVE('',#353,#352,#26,.T.);
#435=EDGE_CURVE('',#354,#353,#175,.T.);
#436=EDGE_CURVE('',#355,#354,#289,.T.);
#437=EDGE_CURVE('',#356,#355,#176,.T.);
#438=EDGE_CURVE('',#357,#356,#177,.T.);
#439=EDGE_CURVE('',#321,#357,#178,.T.);
#440=EDGE_CURVE('',#293,#308,#179,.T.);
#441=EDGE_CURVE('',#310,#303,#180,.T.);
#442=EDGE_CURVE('',#299,#314,#181,.T.);
#443=EDGE_CURVE('',#333,#347,#182,.T.);
#444=EDGE_CURVE('',#346,#334,#183,.T.);
#445=EDGE_CURVE('',#335,#345,#184,.T.);
#446=EDGE_CURVE('',#327,#353,#185,.T.);
#447=EDGE_CURVE('',#352,#328,#186,.T.);
#448=EDGE_CURVE('',#329,#351,#187,.T.);
#449=EDGE_CURVE('',#348,#332,#188,.T.);
#450=EDGE_CURVE('',#331,#349,#189,.T.);
#451=EDGE_CURVE('',#354,#326,#190,.T.);
#452=EDGE_CURVE('',#325,#355,#191,.T.);
#453=EDGE_CURVE('',#357,#358,#290,.T.);
#454=EDGE_CURVE('',#358,#322,#192,.T.);
#455=EDGE_CURVE('',#317,#358,#193,.T.);
#456=EDGE_CURVE('',#356,#324,#194,.T.);
#457=EDGE_CURVE('',#359,#359,#291,.T.);
#458=EDGE_CURVE('',#350,#330,#195,.T.);
#459=EDGE_CURVE('',#342,#360,#196,.T.);
#460=EDGE_CURVE('',#360,#360,#292,.T.);
#461=EDGE_CURVE('',#323,#359,#197,.T.);
#462=EDGE_CURVE('',#343,#338,#198,.T.);
#463=ORIENTED_EDGE('',*,*,#361,.T.);
#464=ORIENTED_EDGE('',*,*,#362,.T.);
#465=ORIENTED_EDGE('',*,*,#363,.T.);
#466=ORIENTED_EDGE('',*,*,#364,.T.);
#467=ORIENTED_EDGE('',*,*,#362,.F.);
#468=ORIENTED_EDGE('',*,*,#365,.F.);
#469=ORIENTED_EDGE('',*,*,#366,.F.);
#470=ORIENTED_EDGE('',*,*,#367,.F.);
#471=ORIENTED_EDGE('',*,*,#368,.T.);
#472=ORIENTED_EDGE('',*,*,#369,.T.);
#473=ORIENTED_EDGE('',*,*,#370,.T.);
#474=ORIENTED_EDGE('',*,*,#371,.T.);
#475=ORIENTED_EDGE('',*,*,#369,.F.);
#476=ORIENTED_EDGE('',*,*,#372,.F.);
#477=ORIENTED_EDGE('',*,*,#373,.F.);
#478=ORIENTED_EDGE('',*,*,#374,.F.);
#479=ORIENTED_EDGE('',*,*,#375,.T.);
#480=ORIENTED_EDGE('',*,*,#376,.T.);
#481=ORIENTED_EDGE('',*,*,#377,.T.);
#482=ORIENTED_EDGE('',*,*,#378,.T.);
#483=ORIENTED_EDGE('',*,*,#376,.F.);
#484=ORIENTED_EDGE('',*,*,#379,.F.);
#485=ORIENTED_EDGE('',*,*,#380,.F.);
#486=ORIENTED_EDGE('',*,*,#381,.F.);
#487=ORIENTED_EDGE('',*,*,#382,.T.);
#488=ORIENTED_EDGE('',*,*,#383,.T.);
#489=ORIENTED_EDGE('',*,*,#384,.T.);
#490=ORIENTED_EDGE('',*,*,#385,.T.);
#491=ORIENTED_EDGE('',*,*,#383,.F.);
#492=ORIENTED_EDGE('',*,*,#386,.F.);
#493=ORIENTED_EDGE('',*,*,#387,.F.);
#494=ORIENTED_EDGE('',*,*,#388,.F.);
#495=ORIENTED_EDGE('',*,*,#389,.T.);
#496=ORIENTED_EDGE('',*,*,#390,.T.);
#497=ORIENTED_EDGE('',*,*,#391,.T.);
#498=ORIENTED_EDGE('',*,*,#392,.T.);
#499=ORIENTED_EDGE('',*,*,#391,.F.);
#500=ORIENTED_EDGE('',*,*,#393,.F.);
#501=ORIENTED_EDGE('',*,*,#366,.T.);
#502=ORIENTED_EDGE('',*,*,#394,.F.);
#503=ORIENTED_EDGE('',*,*,#395,.F.);
#504=ORIENTED_EDGE('',*,*,#396,.F.);
#505=ORIENTED_EDGE('',*,*,#397,.F.);
#506=ORIENTED_EDGE('',*,*,#390,.F.);
#507=ORIENTED_EDGE('',*,*,#398,.F.);
#508=ORIENTED_EDGE('',*,*,#399,.T.);
#509=ORIENTED_EDGE('',*,*,#400,.F.);
#510=ORIENTED_EDGE('',*,*,#401,.F.);
#511=ORIENTED_EDGE('',*,*,#402,.F.);
#512=ORIENTED_EDGE('',*,*,#403,.F.);
#513=ORIENTED_EDGE('',*,*,#404,.F.);
#514=ORIENTED_EDGE('',*,*,#405,.T.);
#515=ORIENTED_EDGE('',*,*,#406,.F.);
#516=ORIENTED_EDGE('',*,*,#407,.F.);
#517=ORIENTED_EDGE('',*,*,#408,.F.);
#518=ORIENTED_EDGE('',*,*,#409,.F.);
#519=ORIENTED_EDGE('',*,*,#410,.F.);
#520=ORIENTED_EDGE('',*,*,#411,.F.);
#521=ORIENTED_EDGE('',*,*,#412,.T.);
#522=ORIENTED_EDGE('',*,*,#386,.T.);
#523=ORIENTED_EDGE('',*,*,#382,.F.);
#524=ORIENTED_EDGE('',*,*,#413,.T.);
#525=ORIENTED_EDGE('',*,*,#370,.F.);
#526=ORIENTED_EDGE('',*,*,#374,.T.);
#527=ORIENTED_EDGE('',*,*,#414,.T.);
#528=ORIENTED_EDGE('',*,*,#379,.T.);
#529=ORIENTED_EDGE('',*,*,#375,.F.);
#530=ORIENTED_EDGE('',*,*,#415,.T.);
#531=ORIENTED_EDGE('',*,*,#363,.F.);
#532=ORIENTED_EDGE('',*,*,#367,.T.);
#533=ORIENTED_EDGE('',*,*,#393,.T.);
#534=ORIENTED_EDGE('',*,*,#416,.T.);
#535=ORIENTED_EDGE('',*,*,#417,.T.);
#536=ORIENTED_EDGE('',*,*,#418,.T.);
#537=ORIENTED_EDGE('',*,*,#411,.T.);
#538=ORIENTED_EDGE('',*,*,#418,.F.);
#539=ORIENTED_EDGE('',*,*,#419,.F.);
#540=ORIENTED_EDGE('',*,*,#420,.F.);
#541=ORIENTED_EDGE('',*,*,#421,.F.);
#542=ORIENTED_EDGE('',*,*,#387,.T.);
#543=ORIENTED_EDGE('',*,*,#412,.F.);
#544=ORIENTED_EDGE('',*,*,#422,.F.);
#545=ORIENTED_EDGE('',*,*,#423,.T.);
#546=ORIENTED_EDGE('',*,*,#424,.T.);
#547=ORIENTED_EDGE('',*,*,#420,.T.);
#548=ORIENTED_EDGE('',*,*,#425,.T.);
#549=ORIENTED_EDGE('',*,*,#424,.F.);
#550=ORIENTED_EDGE('',*,*,#426,.F.);
#551=ORIENTED_EDGE('',*,*,#427,.T.);
#552=ORIENTED_EDGE('',*,*,#428,.F.);
#553=ORIENTED_EDGE('',*,*,#429,.F.);
#554=ORIENTED_EDGE('',*,*,#430,.F.);
#555=ORIENTED_EDGE('',*,*,#431,.F.);
#556=ORIENTED_EDGE('',*,*,#432,.F.);
#557=ORIENTED_EDGE('',*,*,#433,.T.);
#558=ORIENTED_EDGE('',*,*,#434,.F.);
#559=ORIENTED_EDGE('',*,*,#435,.F.);
#560=ORIENTED_EDGE('',*,*,#436,.F.);
#561=ORIENTED_EDGE('',*,*,#437,.F.);
#562=ORIENTED_EDGE('',*,*,#438,.F.);
#563=ORIENTED_EDGE('',*,*,#439,.F.);
#564=ORIENTED_EDGE('',*,*,#394,.T.);
#565=ORIENTED_EDGE('',*,*,#365,.T.);
#566=ORIENTED_EDGE('',*,*,#361,.F.);
#567=ORIENTED_EDGE('',*,*,#440,.T.);
#568=ORIENTED_EDGE('',*,*,#377,.F.);
#569=ORIENTED_EDGE('',*,*,#381,.T.);
#570=ORIENTED_EDGE('',*,*,#441,.T.);
#571=ORIENTED_EDGE('',*,*,#372,.T.);
#572=ORIENTED_EDGE('',*,*,#368,.F.);
#573=ORIENTED_EDGE('',*,*,#442,.T.);
#574=ORIENTED_EDGE('',*,*,#384,.F.);
#575=ORIENTED_EDGE('',*,*,#388,.T.);
#576=ORIENTED_EDGE('',*,*,#421,.T.);
#577=ORIENTED_EDGE('',*,*,#408,.T.);
#578=ORIENTED_EDGE('',*,*,#443,.T.);
#579=ORIENTED_EDGE('',*,*,#428,.T.);
#580=ORIENTED_EDGE('',*,*,#444,.T.);
#581=ORIENTED_EDGE('',*,*,#444,.F.);
#582=ORIENTED_EDGE('',*,*,#427,.F.);
#583=ORIENTED_EDGE('',*,*,#445,.F.);
#584=ORIENTED_EDGE('',*,*,#409,.T.);
#585=ORIENTED_EDGE('',*,*,#402,.T.);
#586=ORIENTED_EDGE('',*,*,#446,.T.);
#587=ORIENTED_EDGE('',*,*,#434,.T.);
#588=ORIENTED_EDGE('',*,*,#447,.T.);
#589=ORIENTED_EDGE('',*,*,#447,.F.);
#590=ORIENTED_EDGE('',*,*,#433,.F.);
#591=ORIENTED_EDGE('',*,*,#448,.F.);
#592=ORIENTED_EDGE('',*,*,#403,.T.);
#593=ORIENTED_EDGE('',*,*,#430,.T.);
#594=ORIENTED_EDGE('',*,*,#449,.T.);
#595=ORIENTED_EDGE('',*,*,#406,.T.);
#596=ORIENTED_EDGE('',*,*,#450,.T.);
#597=ORIENTED_EDGE('',*,*,#443,.F.);
#598=ORIENTED_EDGE('',*,*,#407,.T.);
#599=ORIENTED_EDGE('',*,*,#449,.F.);
#600=ORIENTED_EDGE('',*,*,#429,.T.);
#601=ORIENTED_EDGE('',*,*,#436,.T.);
#602=ORIENTED_EDGE('',*,*,#451,.T.);
#603=ORIENTED_EDGE('',*,*,#400,.T.);
#604=ORIENTED_EDGE('',*,*,#452,.T.);
#605=ORIENTED_EDGE('',*,*,#446,.F.);
#606=ORIENTED_EDGE('',*,*,#401,.T.);
#607=ORIENTED_EDGE('',*,*,#451,.F.);
#608=ORIENTED_EDGE('',*,*,#435,.T.);
#609=ORIENTED_EDGE('',*,*,#453,.T.);
#610=ORIENTED_EDGE('',*,*,#454,.T.);
#611=ORIENTED_EDGE('',*,*,#395,.T.);
#612=ORIENTED_EDGE('',*,*,#439,.T.);
#613=ORIENTED_EDGE('',*,*,#389,.F.);
#614=ORIENTED_EDGE('',*,*,#455,.T.);
#615=ORIENTED_EDGE('',*,*,#453,.F.);
#616=ORIENTED_EDGE('',*,*,#438,.T.);
#617=ORIENTED_EDGE('',*,*,#456,.T.);
#618=ORIENTED_EDGE('',*,*,#398,.T.);
#619=ORIENTED_EDGE('',*,*,#457,.T.);
#620=ORIENTED_EDGE('',*,*,#364,.F.);
#621=ORIENTED_EDGE('',*,*,#415,.F.);
#622=ORIENTED_EDGE('',*,*,#378,.F.);
#623=ORIENTED_EDGE('',*,*,#440,.F.);
#624=ORIENTED_EDGE('',*,*,#371,.F.);
#625=ORIENTED_EDGE('',*,*,#413,.F.);
#626=ORIENTED_EDGE('',*,*,#385,.F.);
#627=ORIENTED_EDGE('',*,*,#442,.F.);
#628=ORIENTED_EDGE('',*,*,#380,.T.);
#629=ORIENTED_EDGE('',*,*,#414,.F.);
#630=ORIENTED_EDGE('',*,*,#373,.T.);
#631=ORIENTED_EDGE('',*,*,#441,.F.);
#632=ORIENTED_EDGE('',*,*,#452,.F.);
#633=ORIENTED_EDGE('',*,*,#399,.F.);
#634=ORIENTED_EDGE('',*,*,#456,.F.);
#635=ORIENTED_EDGE('',*,*,#437,.T.);
#636=ORIENTED_EDGE('',*,*,#448,.T.);
#637=ORIENTED_EDGE('',*,*,#432,.T.);
#638=ORIENTED_EDGE('',*,*,#458,.T.);
#639=ORIENTED_EDGE('',*,*,#404,.T.);
#640=ORIENTED_EDGE('',*,*,#450,.F.);
#641=ORIENTED_EDGE('',*,*,#405,.F.);
#642=ORIENTED_EDGE('',*,*,#458,.F.);
#643=ORIENTED_EDGE('',*,*,#431,.T.);
#644=ORIENTED_EDGE('',*,*,#422,.T.);
#645=ORIENTED_EDGE('',*,*,#459,.T.);
#646=ORIENTED_EDGE('',*,*,#460,.F.);
#647=ORIENTED_EDGE('',*,*,#459,.F.);
#648=ORIENTED_EDGE('',*,*,#397,.T.);
#649=ORIENTED_EDGE('',*,*,#461,.T.);
#650=ORIENTED_EDGE('',*,*,#457,.F.);
#651=ORIENTED_EDGE('',*,*,#461,.F.);
#652=ORIENTED_EDGE('',*,*,#417,.F.);
#653=ORIENTED_EDGE('',*,*,#462,.F.);
#654=ORIENTED_EDGE('',*,*,#425,.F.);
#655=ORIENTED_EDGE('',*,*,#419,.T.);
#656=ORIENTED_EDGE('',*,*,#392,.F.);
#657=ORIENTED_EDGE('',*,*,#396,.T.);
#658=ORIENTED_EDGE('',*,*,#454,.F.);
#659=ORIENTED_EDGE('',*,*,#455,.F.);
#660=ORIENTED_EDGE('',*,*,#416,.F.);
#661=ORIENTED_EDGE('',*,*,#410,.T.);
#662=ORIENTED_EDGE('',*,*,#445,.T.);
#663=ORIENTED_EDGE('',*,*,#426,.T.);
#664=ORIENTED_EDGE('',*,*,#423,.F.);
#665=ORIENTED_EDGE('',*,*,#462,.T.);
#666=ORIENTED_EDGE('',*,*,#460,.T.);
#667=CYLINDRICAL_SURFACE('',#731,1.);
#668=CYLINDRICAL_SURFACE('',#735,1.);
#669=CYLINDRICAL_SURFACE('',#739,1.);
#670=CYLINDRICAL_SURFACE('',#743,1.);
#671=CYLINDRICAL_SURFACE('',#747,3.);
#672=CYLINDRICAL_SURFACE('',#758,3.);
#673=CYLINDRICAL_SURFACE('',#764,3.);
#674=CYLINDRICAL_SURFACE('',#771,3.);
#675=CYLINDRICAL_SURFACE('',#773,3.);
#676=CYLINDRICAL_SURFACE('',#775,3.);
#677=CYLINDRICAL_SURFACE('',#777,3.);
#678=CYLINDRICAL_SURFACE('',#779,3.);
#679=CYLINDRICAL_SURFACE('',#789,1.65);
#680=CYLINDRICAL_SURFACE('',#791,1.65);
#681=ADVANCED_FACE('',(#49),#667,.F.);
#682=ADVANCED_FACE('',(#50),#27,.F.);
#683=ADVANCED_FACE('',(#51),#668,.F.);
#684=ADVANCED_FACE('',(#52),#28,.F.);
#685=ADVANCED_FACE('',(#53),#669,.F.);
#686=ADVANCED_FACE('',(#54),#29,.F.);
#687=ADVANCED_FACE('',(#55),#670,.F.);
#688=ADVANCED_FACE('',(#56),#30,.F.);
#689=ADVANCED_FACE('',(#57),#671,.T.);
#690=ADVANCED_FACE('',(#58,#15),#31,.F.);
#691=ADVANCED_FACE('',(#59),#32,.T.);
#692=ADVANCED_FACE('',(#60),#672,.T.);
#693=ADVANCED_FACE('',(#61,#16),#33,.F.);
#694=ADVANCED_FACE('',(#62),#673,.T.);
#695=ADVANCED_FACE('',(#63),#34,.T.);
#696=ADVANCED_FACE('',(#64),#674,.T.);
#697=ADVANCED_FACE('',(#65),#35,.T.);
#698=ADVANCED_FACE('',(#66),#675,.T.);
#699=ADVANCED_FACE('',(#67),#36,.T.);
#700=ADVANCED_FACE('',(#68),#676,.T.);
#701=ADVANCED_FACE('',(#69),#37,.T.);
#702=ADVANCED_FACE('',(#70),#677,.T.);
#703=ADVANCED_FACE('',(#71),#38,.T.);
#704=ADVANCED_FACE('',(#72),#678,.T.);
#705=ADVANCED_FACE('',(#73,#17),#39,.T.);
#706=ADVANCED_FACE('',(#74),#40,.F.);
#707=ADVANCED_FACE('',(#75),#41,.F.);
#708=ADVANCED_FACE('',(#76),#42,.F.);
#709=ADVANCED_FACE('',(#77),#43,.T.);
#710=ADVANCED_FACE('',(#78),#44,.T.);
#711=ADVANCED_FACE('',(#79),#45,.T.);
#712=ADVANCED_FACE('',(#80),#679,.F.);
#713=ADVANCED_FACE('',(#81),#680,.F.);
#714=ADVANCED_FACE('',(#82),#46,.T.);
#715=ADVANCED_FACE('',(#83),#47,.T.);
#716=ADVANCED_FACE('',(#84,#18),#48,.T.);
#717=CLOSED_SHELL('',(#681,#682,#683,#684,#685,#686,#687,#688,#689,#690,
#691,#692,#693,#694,#695,#696,#697,#698,#699,#700,#701,#702,#703,#704,#705,
#706,#707,#708,#709,#710,#711,#712,#713,#714,#715,#716));
#718=DERIVED_UNIT_ELEMENT(#720,1.);
#719=DERIVED_UNIT_ELEMENT(#1211,-3.);
#720=(
MASS_UNIT()
NAMED_UNIT(*)
SI_UNIT(.KILO.,.GRAM.)
);
#721=DERIVED_UNIT((#718,#719));
#722=MEASURE_REPRESENTATION_ITEM('density measure',
POSITIVE_RATIO_MEASURE(7850.),#721);
#723=PROPERTY_DEFINITION_REPRESENTATION(#728,#725);
#724=PROPERTY_DEFINITION_REPRESENTATION(#729,#726);
#725=REPRESENTATION('material name',(#727),#1208);
#726=REPRESENTATION('density',(#722),#1208);
#727=DESCRIPTIVE_REPRESENTATION_ITEM('\X2\92FC\X0\','\X2\92FC\X0\');
#728=PROPERTY_DEFINITION('material property','material name',#1218);
#729=PROPERTY_DEFINITION('material property','density of part',#1218);
#730=AXIS2_PLACEMENT_3D('',#999,#795,#796);
#731=AXIS2_PLACEMENT_3D('',#1000,#797,#798);
#732=AXIS2_PLACEMENT_3D('',#1003,#799,#800);
#733=AXIS2_PLACEMENT_3D('',#1007,#802,#803);
#734=AXIS2_PLACEMENT_3D('',#1009,#805,#806);
#735=AXIS2_PLACEMENT_3D('',#1015,#810,#811);
#736=AXIS2_PLACEMENT_3D('',#1018,#812,#813);
#737=AXIS2_PLACEMENT_3D('',#1022,#815,#816);
#738=AXIS2_PLACEMENT_3D('',#1024,#818,#819);
#739=AXIS2_PLACEMENT_3D('',#1030,#823,#824);
#740=AXIS2_PLACEMENT_3D('',#1033,#825,#826);
#741=AXIS2_PLACEMENT_3D('',#1037,#828,#829);
#742=AXIS2_PLACEMENT_3D('',#1039,#831,#832);
#743=AXIS2_PLACEMENT_3D('',#1045,#836,#837);
#744=AXIS2_PLACEMENT_3D('',#1048,#838,#839);
#745=AXIS2_PLACEMENT_3D('',#1052,#841,#842);
#746=AXIS2_PLACEMENT_3D('',#1054,#844,#845);
#747=AXIS2_PLACEMENT_3D('',#1060,#849,#850);
#748=AXIS2_PLACEMENT_3D('',#1063,#851,#852);
#749=AXIS2_PLACEMENT_3D('',#1067,#854,#855);
#750=AXIS2_PLACEMENT_3D('',#1069,#857,#858);
#751=AXIS2_PLACEMENT_3D('',#1074,#861,#862);
#752=AXIS2_PLACEMENT_3D('',#1077,#864,#865);
#753=AXIS2_PLACEMENT_3D('',#1078,#866,#867);
#754=AXIS2_PLACEMENT_3D('',#1084,#870,#871);
#755=AXIS2_PLACEMENT_3D('',#1088,#873,#874);
#756=AXIS2_PLACEMENT_3D('',#1096,#878,#879);
#757=AXIS2_PLACEMENT_3D('',#1100,#881,#882);
#758=AXIS2_PLACEMENT_3D('',#1111,#890,#891);
#759=AXIS2_PLACEMENT_3D('',#1113,#892,#893);
#760=AXIS2_PLACEMENT_3D('',#1116,#895,#896);
#761=AXIS2_PLACEMENT_3D('',#1117,#897,#898);
#762=AXIS2_PLACEMENT_3D('',#1121,#900,#901);
#763=AXIS2_PLACEMENT_3D('',#1124,#903,#904);
#764=AXIS2_PLACEMENT_3D('',#1125,#905,#906);
#765=AXIS2_PLACEMENT_3D('',#1128,#907,#908);
#766=AXIS2_PLACEMENT_3D('',#1131,#911,#912);
#767=AXIS2_PLACEMENT_3D('',#1137,#915,#916);
#768=AXIS2_PLACEMENT_3D('',#1141,#918,#919);
#769=AXIS2_PLACEMENT_3D('',#1149,#923,#924);
#770=AXIS2_PLACEMENT_3D('',#1153,#926,#927);
#771=AXIS2_PLACEMENT_3D('',#1162,#934,#935);
#772=AXIS2_PLACEMENT_3D('',#1165,#938,#939);
#773=AXIS2_PLACEMENT_3D('',#1167,#941,#942);
#774=AXIS2_PLACEMENT_3D('',#1170,#945,#946);
#775=AXIS2_PLACEMENT_3D('',#1172,#948,#949);
#776=AXIS2_PLACEMENT_3D('',#1175,#952,#953);
#777=AXIS2_PLACEMENT_3D('',#1176,#954,#955);
#778=AXIS2_PLACEMENT_3D('',#1179,#958,#959);
#779=AXIS2_PLACEMENT_3D('',#1180,#960,#961);
#780=AXIS2_PLACEMENT_3D('',#1182,#962,#963);
#781=AXIS2_PLACEMENT_3D('',#1184,#965,#966);
#782=AXIS2_PLACEMENT_3D('',#1188,#969,#970);
#783=AXIS2_PLACEMENT_3D('',#1189,#971,#972);
#784=AXIS2_PLACEMENT_3D('',#1190,#973,#974);
#785=AXIS2_PLACEMENT_3D('',#1191,#975,#976);
#786=AXIS2_PLACEMENT_3D('',#1192,#977,#978);
#787=AXIS2_PLACEMENT_3D('',#1193,#979,#980);
#788=AXIS2_PLACEMENT_3D('',#1195,#982,#983);
#789=AXIS2_PLACEMENT_3D('',#1196,#984,#985);
#790=AXIS2_PLACEMENT_3D('',#1199,#987,#988);
#791=AXIS2_PLACEMENT_3D('',#1200,#989,#990);
#792=AXIS2_PLACEMENT_3D('',#1202,#992,#993);
#793=AXIS2_PLACEMENT_3D('',#1204,#995,#996);
#794=AXIS2_PLACEMENT_3D('',#1205,#997,#998);
#795=DIRECTION('axis',(0.,0.,1.));
#796=DIRECTION('refdir',(1.,0.,0.));
#797=DIRECTION('center_axis',(-0.0302364779579224,-0.965885709537025,0.257197495152768));
#798=DIRECTION('ref_axis',(0.801136975474389,0.130453323804696,0.584090298529307));
#799=DIRECTION('center_axis',(0.0302364779579189,0.965885709537025,-0.257197495152767));
#800=DIRECTION('ref_axis',(0.801136975474389,0.130453323804698,0.584090298529306));
#801=DIRECTION('',(-0.0302364779579224,-0.965885709537025,0.257197495152768));
#802=DIRECTION('center_axis',(-0.0302364779579113,-0.965885709537026,0.257197495152766));
#803=DIRECTION('ref_axis',(0.801136975474389,0.130453323804704,0.584090298529305));
#804=DIRECTION('',(0.0302364779579224,0.965885709537025,-0.257197495152768));
#805=DIRECTION('center_axis',(0.989138948485731,-0.0659433168226785,-0.131360646903729));
#806=DIRECTION('ref_axis',(0.0302364779579224,0.965885709537025,-0.257197495152768));
#807=DIRECTION('',(0.143839827548709,0.25043217660393,0.957389068734428));
#808=DIRECTION('',(0.0302364779579225,0.965885709537025,-0.257197495152768));
#809=DIRECTION('',(-0.143839827548709,-0.25043217660393,-0.957389068734428));
#810=DIRECTION('center_axis',(-0.0638915416147172,-0.963081010768265,0.261520243208191));
#811=DIRECTION('ref_axis',(0.800003742997688,0.107229976029488,0.5903352805232));
#812=DIRECTION('center_axis',(0.0302364779579189,0.965885709537025,-0.257197495152767));
#813=DIRECTION('ref_axis',(0.98913894848572,-0.0659433168226947,-0.131360646903805));
#814=DIRECTION('',(-0.0638915416147172,-0.963081010768265,0.261520243208191));
#815=DIRECTION('center_axis',(-0.0302364779579113,-0.965885709537026,0.257197495152766));
#816=DIRECTION('ref_axis',(0.989138948485698,-0.0659433168227249,-0.131360646903951));
#817=DIRECTION('',(0.0638915416147172,0.963081010768265,-0.261520243208191));
#818=DIRECTION('center_axis',(0.987536315747858,-0.0987860902100838,-0.12252890867119));
#819=DIRECTION('ref_axis',(0.0638915416147171,0.963081010768265,-0.261520243208191));
#820=DIRECTION('',(0.143839827548709,0.25043217660393,0.957389068734428));
#821=DIRECTION('',(0.0638915416147173,0.963081010768265,-0.261520243208191));
#822=DIRECTION('',(-0.143839827548709,-0.25043217660393,-0.957389068734428));
#823=DIRECTION('center_axis',(0.0638915416147181,0.963081010768265,-0.261520243208192));
#824=DIRECTION('ref_axis',(-0.596583508068893,0.246934604578403,0.763617324948774));
#825=DIRECTION('center_axis',(-0.0302364779579113,-0.965885709537026,0.257197495152766));
#826=DIRECTION('ref_axis',(-0.989138948485742,0.0659433168226493,0.131360646903662));
#827=DIRECTION('',(0.0638915416147181,0.963081010768265,-0.261520243208192));
#828=DIRECTION('center_axis',(0.0302364779579189,0.965885709537025,-0.257197495152767));
#829=DIRECTION('ref_axis',(-0.989138948485742,0.0659433168226567,0.13136064690366));
#830=DIRECTION('',(-0.0638915416147181,-0.963081010768265,0.261520243208192));
#831=DIRECTION('center_axis',(-0.987536315747858,0.0987860902100847,0.122528908671189));
#832=DIRECTION('ref_axis',(-0.0638915416147183,-0.963081010768265,0.261520243208191));
#833=DIRECTION('',(0.143839827548709,0.25043217660393,0.957389068734428));
#834=DIRECTION('',(-0.0638915416147182,-0.963081010768265,0.261520243208191));
#835=DIRECTION('',(-0.143839827548709,-0.25043217660393,-0.957389068734428));
#836=DIRECTION('center_axis',(0.0302364779579199,0.965885709537025,-0.257197495152768));
#837=DIRECTION('ref_axis',(-0.597716740545593,0.223711256803194,0.769862306942669));
#838=DIRECTION('center_axis',(-0.0302364779579113,-0.965885709537026,0.257197495152766));
#839=DIRECTION('ref_axis',(-0.597716740545593,0.223711256803187,0.769862306942671));
#840=DIRECTION('',(0.0302364779579199,0.965885709537025,-0.257197495152768));
#841=DIRECTION('center_axis',(0.0302364779579189,0.965885709537025,-0.257197495152767));
#842=DIRECTION('ref_axis',(-0.597716740545593,0.223711256803192,0.769862306942669));
#843=DIRECTION('',(-0.0302364779579199,-0.965885709537025,0.257197495152768));
#844=DIRECTION('center_axis',(-0.989138948485731,0.0659433168226761,0.13136064690373));
#845=DIRECTION('ref_axis',(-0.0302364779579199,-0.965885709537025,0.257197495152767));
#846=DIRECTION('',(0.143839827548709,0.25043217660393,0.957389068734428));
#847=DIRECTION('',(-0.03023647795792,-0.965885709537025,0.257197495152767));
#848=DIRECTION('',(-0.143839827548709,-0.25043217660393,-0.957389068734428));
#849=DIRECTION('center_axis',(0.143839827548711,0.250432176603929,0.957389068734428));
#850=DIRECTION('ref_axis',(0.678046439406752,-0.729613301564055,0.0889800887200343));
#851=DIRECTION('center_axis',(-0.14383982754871,-0.250432176603929,-0.957389068734428));
#852=DIRECTION('ref_axis',(0.678046439406752,-0.729613301564055,0.0889800887200349));
#853=DIRECTION('',(-0.143839827548711,-0.250432176603929,-0.957389068734428));
#854=DIRECTION('center_axis',(0.14383982754871,0.250432176603929,0.957389068734428));
#855=DIRECTION('ref_axis',(0.678046439406752,-0.729613301564055,0.0889800887200349));
#856=DIRECTION('',(0.143839827548711,0.250432176603929,0.957389068734428));
#857=DIRECTION('center_axis',(0.14383982754871,0.250432176603929,0.957389068734428));
#858=DIRECTION('ref_axis',(-0.867143625565761,0.498058161905483,0.));
#859=DIRECTION('',(0.989138948485731,-0.0659433168226678,-0.131360646903733));
#860=DIRECTION('',(-0.989138948485731,0.0659433168226753,0.131360646903731));
#861=DIRECTION('center_axis',(0.14383982754871,0.250432176603929,0.957389068734428));
#862=DIRECTION('ref_axis',(0.720807276613232,0.636355368565565,-0.274752097133396));
#863=DIRECTION('',(0.0302364779579162,0.965885709537025,-0.257197495152767));
#864=DIRECTION('center_axis',(-0.14383982754871,-0.250432176603929,-0.957389068734428));
#865=DIRECTION('ref_axis',(-0.867143625565761,0.498058161905483,0.));
#866=DIRECTION('center_axis',(-0.0302364779579113,-0.965885709537026,0.257197495152766));
#867=DIRECTION('ref_axis',(0.989138948485731,-0.0659433168226679,-0.131360646903733));
#868=DIRECTION('',(0.989138948485731,-0.0659433168226678,-0.131360646903733));
#869=DIRECTION('',(0.14383982754871,0.25043217660393,0.957389068734428));
#870=DIRECTION('center_axis',(0.0302364779579113,0.965885709537026,-0.257197495152766));
#871=DIRECTION('ref_axis',(0.801136975474388,0.130453323804704,0.584090298529307));
#872=DIRECTION('',(0.989138948485731,-0.0659433168226679,-0.131360646903733));
#873=DIRECTION('center_axis',(0.0302364779579113,0.965885709537026,-0.257197495152766));
#874=DIRECTION('ref_axis',(-0.989138948485731,0.0659433168226676,0.131360646903732));
#875=DIRECTION('',(0.14383982754871,0.25043217660393,0.957389068734428));
#876=DIRECTION('',(0.989138948485731,-0.0659433168226678,-0.131360646903733));
#877=DIRECTION('',(0.14383982754871,0.25043217660393,0.957389068734428));
#878=DIRECTION('center_axis',(0.0302364779579113,0.965885709537026,-0.257197495152766));
#879=DIRECTION('ref_axis',(0.989138948485722,-0.0659433168226843,-0.131360646903796));
#880=DIRECTION('',(0.989138948485731,-0.0659433168226677,-0.131360646903733));
#881=DIRECTION('center_axis',(0.0302364779579113,0.965885709537026,-0.257197495152766));
#882=DIRECTION('ref_axis',(-0.597716740545595,0.223711256803187,0.769862306942669));
#883=DIRECTION('',(0.14383982754871,0.25043217660393,0.957389068734428));
#884=DIRECTION('',(0.989138948485731,-0.0659433168226678,-0.131360646903733));
#885=DIRECTION('',(0.143839827548711,0.25043217660393,0.957389068734428));
#886=DIRECTION('',(0.989138948485731,-0.0659433168226678,-0.131360646903733));
#887=DIRECTION('',(0.989138948485731,-0.0659433168226679,-0.131360646903733));
#888=DIRECTION('',(0.989138948485731,-0.0659433168226679,-0.131360646903733));
#889=DIRECTION('',(0.989138948485731,-0.0659433168226679,-0.131360646903733));
#890=DIRECTION('center_axis',(0.143839827548711,0.25043217660393,0.957389068734428));
#891=DIRECTION('ref_axis',(-0.720807276613229,-0.636355368565568,0.274752097133397));
#892=DIRECTION('center_axis',(-0.14383982754871,-0.250432176603929,-0.957389068734428));
#893=DIRECTION('ref_axis',(-0.720807276613229,-0.636355368565568,0.274752097133396));
#894=DIRECTION('',(-0.143839827548711,-0.25043217660393,-0.957389068734428));
#895=DIRECTION('center_axis',(0.14383982754871,0.250432176603929,0.957389068734428));
#896=DIRECTION('ref_axis',(-0.720807276613229,-0.636355368565568,0.274752097133396));
#897=DIRECTION('center_axis',(0.14383982754871,0.250432176603929,0.957389068734428));
#898=DIRECTION('ref_axis',(-0.867143625565761,0.498058161905483,0.));
#899=DIRECTION('',(-0.0302364779579142,-0.965885709537025,0.257197495152767));
#900=DIRECTION('center_axis',(0.14383982754871,0.250432176603929,0.957389068734428));
#901=DIRECTION('ref_axis',(-0.678046439406752,0.729613301564055,-0.088980088720035));
#902=DIRECTION('',(-0.989138948485731,0.0659433168226753,0.131360646903731));
#903=DIRECTION('center_axis',(-0.14383982754871,-0.250432176603929,-0.957389068734428));
#904=DIRECTION('ref_axis',(-0.867143625565761,0.498058161905483,0.));
#905=DIRECTION('center_axis',(0.143839827548711,0.25043217660393,0.957389068734428));
#906=DIRECTION('ref_axis',(-0.678046439406752,0.729613301564055,-0.0889800887200351));
#907=DIRECTION('center_axis',(-0.14383982754871,-0.250432176603929,-0.957389068734428));
#908=DIRECTION('ref_axis',(-0.678046439406752,0.729613301564055,-0.088980088720035));
#909=DIRECTION('',(-0.143839827548711,-0.250432176603929,-0.957389068734428));
#910=DIRECTION('',(0.143839827548711,0.25043217660393,0.957389068734428));
#911=DIRECTION('center_axis',(0.0302364779579189,0.965885709537025,-0.257197495152767));
#912=DIRECTION('ref_axis',(-0.989138948485731,0.0659433168226753,0.131360646903731));
#913=DIRECTION('',(-0.989138948485731,0.0659433168226753,0.131360646903731));
#914=DIRECTION('',(0.14383982754871,0.25043217660393,0.957389068734428));
#915=DIRECTION('center_axis',(-0.0302364779579189,-0.965885709537025,0.257197495152767));
#916=DIRECTION('ref_axis',(-0.597716740545595,0.223711256803192,0.769862306942668));
#917=DIRECTION('',(-0.989138948485731,0.0659433168226752,0.131360646903731));
#918=DIRECTION('center_axis',(-0.0302364779579189,-0.965885709537025,0.257197495152767));
#919=DIRECTION('ref_axis',(0.989138948485731,-0.0659433168226753,-0.131360646903731));
#920=DIRECTION('',(0.14383982754871,0.25043217660393,0.957389068734428));
#921=DIRECTION('',(-0.989138948485731,0.0659433168226753,0.131360646903731));
#922=DIRECTION('',(0.14383982754871,0.25043217660393,0.957389068734428));
#923=DIRECTION('center_axis',(-0.0302364779579189,-0.965885709537025,0.257197495152767));
#924=DIRECTION('ref_axis',(-0.989138948485741,0.0659433168226583,0.131360646903666));
#925=DIRECTION('',(-0.989138948485731,0.0659433168226754,0.131360646903731));
#926=DIRECTION('center_axis',(-0.0302364779579189,-0.965885709537025,0.257197495152767));
#927=DIRECTION('ref_axis',(0.801136975474388,0.130453323804699,0.584090298529308));
#928=DIRECTION('',(0.14383982754871,0.25043217660393,0.957389068734428));
#929=DIRECTION('',(-0.989138948485731,0.0659433168226753,0.131360646903731));
#930=DIRECTION('',(0.143839827548711,0.25043217660393,0.957389068734428));
#931=DIRECTION('',(-0.989138948485731,0.0659433168226753,0.131360646903731));
#932=DIRECTION('',(-0.989138948485731,0.0659433168226753,0.131360646903731));
#933=DIRECTION('',(-0.989138948485731,0.0659433168226753,0.131360646903731));
#934=DIRECTION('center_axis',(-0.0302364779579201,-0.965885709537025,0.257197495152768));
#935=DIRECTION('ref_axis',(-0.597716740545595,0.223711256803194,0.769862306942667));
#936=DIRECTION('',(0.0302364779579201,0.965885709537025,-0.257197495152768));
#937=DIRECTION('',(-0.0302364779579201,-0.965885709537025,0.257197495152768));
#938=DIRECTION('center_axis',(-0.989138948485731,0.0659433168226766,0.131360646903731));
#939=DIRECTION('ref_axis',(-0.0302364779579201,-0.965885709537025,0.257197495152767));
#940=DIRECTION('',(0.0302364779579201,0.965885709537025,-0.257197495152767));
#941=DIRECTION('center_axis',(-0.0638915416147182,-0.963081010768265,0.261520243208192));
#942=DIRECTION('ref_axis',(-0.596583508068894,0.246934604578403,0.763617324948773));
#943=DIRECTION('',(0.0638915416147182,0.963081010768265,-0.261520243208192));
#944=DIRECTION('',(-0.0638915416147182,-0.963081010768265,0.261520243208192));
#945=DIRECTION('center_axis',(-0.987536315747857,0.0987860902100851,0.12252890867119));
#946=DIRECTION('ref_axis',(-0.0638915416147185,-0.963081010768265,0.261520243208191));
#947=DIRECTION('',(0.0638915416147183,0.963081010768265,-0.261520243208191));
#948=DIRECTION('center_axis',(0.0638915416147185,0.963081010768265,-0.261520243208192));
#949=DIRECTION('ref_axis',(0.800003742997686,0.107229976029489,0.590335280523202));
#950=DIRECTION('',(-0.0638915416147185,-0.963081010768265,0.261520243208192));
#951=DIRECTION('',(0.0638915416147185,0.963081010768265,-0.261520243208192));
#952=DIRECTION('center_axis',(0.14383982754871,0.25043217660393,0.957389068734428));
#953=DIRECTION('ref_axis',(0.988901251497016,6.93889390390723E-18,-0.148574273639938));
#954=DIRECTION('center_axis',(0.0302364779579226,0.965885709537025,-0.257197495152768));
#955=DIRECTION('ref_axis',(0.801136975474388,0.130453323804697,0.584090298529309));
#956=DIRECTION('',(-0.0302364779579226,-0.965885709537025,0.257197495152768));
#957=DIRECTION('',(0.0302364779579226,0.965885709537025,-0.257197495152768));
#958=DIRECTION('center_axis',(0.14383982754871,0.25043217660393,0.957389068734428));
#959=DIRECTION('ref_axis',(0.988901251497016,6.93889390390723E-18,-0.148574273639938));
#960=DIRECTION('center_axis',(0.143839827548711,0.25043217660393,0.957389068734428));
#961=DIRECTION('ref_axis',(0.720807276613232,0.636355368565565,-0.274752097133397));
#962=DIRECTION('center_axis',(-0.14383982754871,-0.250432176603929,-0.957389068734428));
#963=DIRECTION('ref_axis',(0.720807276613232,0.636355368565565,-0.274752097133396));
#964=DIRECTION('',(-0.143839827548711,-0.25043217660393,-0.957389068734428));
#965=DIRECTION('center_axis',(0.14383982754871,0.250432176603929,0.957389068734428));
#966=DIRECTION('ref_axis',(-0.867143625565761,0.498058161905483,0.));
#967=DIRECTION('',(0.0302364779579162,0.965885709537025,-0.257197495152767));
#968=DIRECTION('',(-0.0302364779579226,-0.965885709537025,0.257197495152768));
#969=DIRECTION('center_axis',(-0.14383982754871,-0.250432176603929,-0.957389068734428));
#970=DIRECTION('ref_axis',(-0.867143625565761,0.498058161905483,0.));
#971=DIRECTION('center_axis',(0.14383982754871,0.25043217660393,0.957389068734428));
#972=DIRECTION('ref_axis',(0.988901251497016,6.93889390390723E-18,-0.148574273639938));
#973=DIRECTION('center_axis',(0.14383982754871,0.25043217660393,0.957389068734428));
#974=DIRECTION('ref_axis',(0.988901251497016,6.93889390390723E-18,-0.148574273639938));
#975=DIRECTION('center_axis',(0.14383982754871,0.250432176603929,0.957389068734428));
#976=DIRECTION('ref_axis',(-0.867143625565761,0.498058161905483,0.));
#977=DIRECTION('center_axis',(0.989138948485731,-0.0659433168226789,-0.13136064690373));
#978=DIRECTION('ref_axis',(0.0302364779579225,0.965885709537025,-0.257197495152768));
#979=DIRECTION('center_axis',(0.14383982754871,0.250432176603929,0.957389068734428));
#980=DIRECTION('ref_axis',(-0.867143625565761,0.498058161905483,0.));
#981=DIRECTION('',(-0.0638915416147185,-0.963081010768265,0.261520243208191));
#982=DIRECTION('center_axis',(0.987536315747857,-0.0987860902100854,-0.12252890867119));
#983=DIRECTION('ref_axis',(0.0638915416147188,0.963081010768265,-0.261520243208191));
#984=DIRECTION('center_axis',(0.143839827548711,0.25043217660393,0.957389068734428));
#985=DIRECTION('ref_axis',(-0.86714362556576,0.498058161905483,3.60822483003176E-16));
#986=DIRECTION('',(0.143839827548711,0.25043217660393,0.957389068734428));
#987=DIRECTION('center_axis',(-0.14383982754871,-0.250432176603929,-0.957389068734428));
#988=DIRECTION('ref_axis',(-0.867143625565761,0.498058161905483,0.));
#989=DIRECTION('center_axis',(0.143839827548711,0.25043217660393,0.957389068734428));
#990=DIRECTION('ref_axis',(-0.86714362556576,0.498058161905483,3.60822483003176E-16));
#991=DIRECTION('',(0.143839827548711,0.25043217660393,0.957389068734428));
#992=DIRECTION('center_axis',(-0.989138948485731,0.0659433168226708,0.131360646903733));
#993=DIRECTION('ref_axis',(-0.030236477957914,-0.965885709537025,0.257197495152767));
#994=DIRECTION('',(-0.0302364779579142,-0.965885709537025,0.257197495152767));
#995=DIRECTION('center_axis',(0.989138948485731,-0.0659433168226727,-0.131360646903732));
#996=DIRECTION('ref_axis',(0.0302364779579161,0.965885709537025,-0.257197495152767));
#997=DIRECTION('center_axis',(0.14383982754871,0.250432176603929,0.957389068734428));
#998=DIRECTION('ref_axis',(-0.867143625565761,0.498058161905483,0.));
#999=CARTESIAN_POINT('',(0.,0.,0.));
#1000=CARTESIAN_POINT('Origin',(19.810058202106,-75.287350990308,20.9474389160815));
#1001=CARTESIAN_POINT('',(20.6342187837079,-53.304490349121,16.1178843438786));
#1002=CARTESIAN_POINT('',(21.479517904645,-53.6208658425476,15.0291346282405));
#1003=CARTESIAN_POINT('Origin',(20.4903789561592,-53.5549225257248,15.1604952751442));
#1004=CARTESIAN_POINT('',(20.5724235659073,-82.5974371286584,22.7450594828235));
#1005=CARTESIAN_POINT('',(20.7991971505917,-75.3532943071307,20.8160782691778));
#1006=CARTESIAN_POINT('',(19.7271244449703,-82.2810616352318,23.8338091984617));
#1007=CARTESIAN_POINT('Origin',(19.5832846174215,-82.5314938118363,22.8764201297274));
#1008=CARTESIAN_POINT('',(19.9538980296547,-75.0369188137041,21.9048279848159));
#1009=CARTESIAN_POINT('Origin',(19.9970642557124,-83.5991658350741,18.9155032078858));
#1010=CARTESIAN_POINT('',(20.9041585944501,-54.6225945489633,11.1995783533028));
#1011=CARTESIAN_POINT('',(20.9041585944501,-54.6225945489633,11.1995783533028));
#1012=CARTESIAN_POINT('',(19.9970642557124,-83.5991658350741,18.9155032078858));
#1013=CARTESIAN_POINT('',(20.2238378403969,-76.3550230135465,16.9865219942401));
#1014=CARTESIAN_POINT('',(19.9970642557124,-83.5991658350741,18.9155032078858));
#1015=CARTESIAN_POINT('Origin',(-3.673285998739,-73.885504267533,24.1089254557889));
#1016=CARTESIAN_POINT('',(-2.08023885467989,-51.7901766333417,19.1344330845929));
#1017=CARTESIAN_POINT('',(-1.23436608850696,-52.1065903702017,18.0456071871307));
#1018=CARTESIAN_POINT('Origin',(-2.22407868222861,-52.0406088099456,18.1770440158584));
#1019=CARTESIAN_POINT('',(-3.15222394250761,-81.0157766859586,25.8957644965523));
#1020=CARTESIAN_POINT('',(-2.68574968299114,-73.9842903577431,23.9863965471177));
#1021=CARTESIAN_POINT('',(-3.99809670868054,-80.6993629490986,26.9845903940145));
#1022=CARTESIAN_POINT('Origin',(-4.14193653622925,-80.9497951257025,26.0272013252801));
#1023=CARTESIAN_POINT('',(-3.52944617119029,-73.6350720909291,25.0663145245234));
#1024=CARTESIAN_POINT('Origin',(-3.75747760421114,-82.4681234482176,22.1885714934895));
#1025=CARTESIAN_POINT('',(-1.8097253987018,-53.1083190766174,14.216050912193));
#1026=CARTESIAN_POINT('',(-1.80972539870181,-53.1083190766174,14.216050912193));
#1027=CARTESIAN_POINT('',(-3.72758325270245,-82.0175053923743,22.0662082216146));
#1028=CARTESIAN_POINT('',(-3.2594227253359,-74.9606007927502,20.1499380568457));
#1029=CARTESIAN_POINT('',(-3.72758325270244,-82.0175053923743,22.0662082216146));
#1030=CARTESIAN_POINT('Origin',(8.1069709548606,-60.1391028035113,18.743278891031));
#1031=CARTESIAN_POINT('',(6.82235696219485,-81.420734406239,25.547601388401));
#1032=CARTESIAN_POINT('',(5.6888045409245,-81.6051850225869,24.7216491483943));
#1033=CARTESIAN_POINT('Origin',(6.67851713464614,-81.671166582843,24.5902123196666));
#1034=CARTESIAN_POINT('',(7.60666239492516,-52.69599870683,16.8714918389727));
#1035=CARTESIAN_POINT('',(7.11943463911274,-60.0403167133012,18.8658077997022));
#1036=CARTESIAN_POINT('',(8.74021481619551,-52.5115480904822,17.6974440789794));
#1037=CARTESIAN_POINT('Origin',(8.5963749886468,-52.7619802670861,16.740055010245));
#1038=CARTESIAN_POINT('',(8.25081078240931,-59.8886706269074,19.7006679597654));
#1039=CARTESIAN_POINT('Origin',(7.03130308473012,-53.6977274132488,13.0419355640358));
#1040=CARTESIAN_POINT('',(5.11344523072945,-82.6069137290057,20.8920928734575));
#1041=CARTESIAN_POINT('',(5.11344523072967,-82.6069137290026,20.8920928734566));
#1042=CARTESIAN_POINT('',(7.03130308473012,-53.6977274132488,13.0419355640358));
#1043=CARTESIAN_POINT('',(6.54576159676798,-61.0166271483083,15.0293493094302));
#1044=CARTESIAN_POINT('',(7.03130308473032,-53.6977274132458,13.041935564035));
#1045=CARTESIAN_POINT('Origin',(-20.6367360706073,-58.0723461355586,22.5211656550496));
#1046=CARTESIAN_POINT('',(-21.1732169971118,-79.5543424235381,29.2654983647214));
#1047=CARTESIAN_POINT('',(-22.3061957731462,-79.7388312833194,28.4394699428907));
#1048=CARTESIAN_POINT('Origin',(-21.3170568246605,-79.8047746001421,28.308109295987));
#1049=CARTESIAN_POINT('',(-21.3991014344086,-50.7622599972082,20.7235450883076));
#1050=CARTESIAN_POINT('',(-21.625875019093,-58.0064028187359,22.6525263019533));
#1051=CARTESIAN_POINT('',(-20.2661226583742,-50.577771137427,21.5495735101383));
#1052=CARTESIAN_POINT('Origin',(-20.4099624859229,-50.8282033140309,20.5921844414038));
#1053=CARTESIAN_POINT('',(-20.4928962430586,-57.8219139589547,23.478554723784));
#1054=CARTESIAN_POINT('Origin',(-21.9744607446034,-51.763988703624,16.8939888133699));
#1055=CARTESIAN_POINT('',(-22.8815550833411,-80.7405599897351,24.609913667953));
#1056=CARTESIAN_POINT('',(-22.881555083341,-80.7405599897351,24.609913667953));
#1057=CARTESIAN_POINT('',(-21.9744607446034,-51.763988703624,16.8939888133699));
#1058=CARTESIAN_POINT('',(-22.2012343292878,-59.0081315251517,18.8229700270156));
#1059=CARTESIAN_POINT('',(-21.9744607446034,-51.763988703624,16.8939888133698));
#1060=CARTESIAN_POINT('Origin',(29.3618013809757,-81.3197839722502,16.9122917685798));
#1061=CARTESIAN_POINT('',(32.6168978815303,-81.0167495695104,18.4329879653374));
#1062=CARTESIAN_POINT('',(29.5587716021993,-83.7165767476534,19.5986623915069));
#1063=CARTESIAN_POINT('Origin',(29.6494810360731,-80.8189196190423,18.8270699060486));
#1064=CARTESIAN_POINT('',(29.2710919471019,-84.2174411008613,17.6838842540381));
#1065=CARTESIAN_POINT('',(29.2710919471019,-84.2174411008613,17.6838842540381));
#1066=CARTESIAN_POINT('',(32.3292182264329,-81.5176139227182,16.5182098278686));
#1067=CARTESIAN_POINT('Origin',(29.3618013809757,-81.3197839722502,16.9122917685798));
#1068=CARTESIAN_POINT('',(32.3292182264329,-81.5176139227182,16.5182098278686));
#1069=CARTESIAN_POINT('Origin',(0.545040136141528,-67.7838276115372,17.7010609104067));
#1070=CARTESIAN_POINT('',(-32.0555228590133,-80.1289554578559,25.8282443620695));
#1071=CARTESIAN_POINT('',(30.1781862858394,-55.2408698147505,9.96795939945507));
#1072=CARTESIAN_POINT('',(33.1456031312966,-55.4386997652186,9.57387745874388));
#1073=CARTESIAN_POINT('',(33.0548936974228,-58.3363568938296,10.3454699442022));
#1074=CARTESIAN_POINT('Origin',(30.0874768519656,-58.1385269433616,10.7395518849134));
#1075=CARTESIAN_POINT('',(32.2385087925591,-84.4152710513293,17.2898023133269));
#1076=CARTESIAN_POINT('',(29.8695454656194,-70.4652251130803,13.9966906677219));
#1077=CARTESIAN_POINT('Origin',(28.4387584834359,-69.6434291459363,13.9966906677219));
#1078=CARTESIAN_POINT('Origin',(-32.0555228590133,-80.1289554578559,25.8282443620695));
#1079=CARTESIAN_POINT('',(22.2630218077813,-83.2301881155116,20.5675600515472));
#1080=CARTESIAN_POINT('',(-31.7678432039159,-79.628091104648,27.7430224995384));
#1081=CARTESIAN_POINT('',(22.5507014628787,-82.7293237623037,22.4823381890161));
#1082=CARTESIAN_POINT('',(21.9753421526839,-83.7310524687195,18.6527819140784));
#1083=CARTESIAN_POINT('',(20.0148041000677,-81.7801972820239,25.7485873359306));
#1084=CARTESIAN_POINT('Origin',(19.5832846174215,-82.5314938118363,22.8764201297274));
#1085=CARTESIAN_POINT('',(7.11003661729229,-80.9198700530312,27.4623795258699));
#1086=CARTESIAN_POINT('',(-31.0486440661723,-78.3759302216284,32.5299678432105));
#1087=CARTESIAN_POINT('',(3.70937935348123,-81.4732219020747,24.9845228058498));
#1088=CARTESIAN_POINT('Origin',(6.67851713464616,-81.671166582843,24.5902123196666));
#1089=CARTESIAN_POINT('',(3.42169969838381,-81.9740862552826,23.0697446683809));
#1090=CARTESIAN_POINT('',(3.13402004328639,-82.4749506084904,21.1549665309121));
#1091=CARTESIAN_POINT('',(-1.46047841016177,-81.6486041596787,23.718112701628));
#1092=CARTESIAN_POINT('',(-31.7678432039159,-79.628091104648,27.7430224995384));
#1093=CARTESIAN_POINT('',(-1.17279875506436,-81.1477398064709,25.6328908390969));
#1094=CARTESIAN_POINT('',(-1.7481580652592,-82.1494685128866,21.8033345641592));
#1095=CARTESIAN_POINT('',(-3.71041705358316,-80.1984985958907,28.8993685314833));
#1096=CARTESIAN_POINT('Origin',(-4.14193653622928,-80.9497951257025,26.0272013252801));
#1097=CARTESIAN_POINT('',(-20.8855373420144,-79.0534780703303,31.1802765021902));
#1098=CARTESIAN_POINT('',(-31.0486440661723,-78.3759302216284,32.5299678432105));
#1099=CARTESIAN_POINT('',(-24.2844736701177,-79.6069446496741,28.7021912366982));
#1100=CARTESIAN_POINT('Origin',(-21.3170568246605,-79.8047746001421,28.308109295987));
#1101=CARTESIAN_POINT('',(-24.5721533252151,-80.107809002882,26.7874130992293));
#1102=CARTESIAN_POINT('',(-24.8598329803125,-80.6086733560898,24.8726349617605));
#1103=CARTESIAN_POINT('',(-28.8004263584587,-79.825921055116,27.3489405588272));
#1104=CARTESIAN_POINT('',(-31.7678432039159,-79.628091104648,27.7430224995384));
#1105=CARTESIAN_POINT('',(-29.0881060135561,-80.3267854083239,25.4341624213583));
#1106=CARTESIAN_POINT('',(-29.0881060135561,-80.3267854083239,25.4341624213583));
#1107=CARTESIAN_POINT('',(-32.0555228590133,-80.1289554578559,25.8282443620695));
#1108=CARTESIAN_POINT('',(-16.0296849986702,-79.8972483021106,28.5824217436666));
#1109=CARTESIAN_POINT('',(-32.0555228590133,-80.1289554578559,25.8282443620695));
#1110=CARTESIAN_POINT('',(-16.0296849986702,-79.8972483021106,28.5824217436666));
#1111=CARTESIAN_POINT('Origin',(-28.9973965796824,-77.4291282797128,24.6625699359));
#1112=CARTESIAN_POINT('',(-31.6771337700422,-76.7304339760369,26.9714300140801));
#1113=CARTESIAN_POINT('Origin',(-28.7097169245849,-76.928263926505,26.5773480733689));
#1114=CARTESIAN_POINT('',(-31.9648134251396,-77.2312983292448,25.0566518766112));
#1115=CARTESIAN_POINT('',(-31.9648134251396,-77.2312983292448,25.0566518766112));
#1116=CARTESIAN_POINT('Origin',(-28.9973965796824,-77.4291282797128,24.6625699359));
#1117=CARTESIAN_POINT('Origin',(0.545040136141528,-67.7838276115372,17.7010609104067));
#1118=CARTESIAN_POINT('',(-31.2391379541496,-54.0500413003558,18.8839119929447));
#1119=CARTESIAN_POINT('',(-31.1484285202759,-51.1523841717447,18.1123195074864));
#1120=CARTESIAN_POINT('',(-28.1810116748186,-51.3502141222127,17.7182375667752));
#1121=CARTESIAN_POINT('Origin',(-28.2717211086924,-54.2478712508238,18.4898300522335));
#1122=CARTESIAN_POINT('',(33.1456031312966,-55.4386997652186,9.57387745874388));
#1123=CARTESIAN_POINT('',(-25.9178912289692,-66.7460220442821,21.4054311530915));
#1124=CARTESIAN_POINT('Origin',(-27.3486782111527,-65.924226077138,21.4054311530915));
#1125=CARTESIAN_POINT('Origin',(-28.2717211086924,-54.2478712508238,18.4898300522335));
#1126=CARTESIAN_POINT('',(-30.9514582990522,-53.5491769471479,20.7986901304135));
#1127=CARTESIAN_POINT('',(-27.8933320197212,-50.8493497690048,19.633015704244));
#1128=CARTESIAN_POINT('Origin',(-27.984041453595,-53.7470068976159,20.4046081897024));
#1129=CARTESIAN_POINT('',(-28.1810116748186,-51.3502141222127,17.7182375667752));
#1130=CARTESIAN_POINT('',(-31.2391379541496,-54.0500413003558,18.8839119929447));
#1131=CARTESIAN_POINT('Origin',(33.1456031312966,-55.4386997652186,9.57387745874388));
#1132=CARTESIAN_POINT('',(-23.6650589864775,-51.1312377167708,19.0714882446462));
#1133=CARTESIAN_POINT('',(33.433282786394,-54.9378354120107,11.4886555962127));
#1134=CARTESIAN_POINT('',(-23.3773793313801,-50.6303733635629,20.986266382115));
#1135=CARTESIAN_POINT('',(-23.9527386415749,-51.6321020699786,17.1567101071773));
#1136=CARTESIAN_POINT('',(-19.9784430032768,-50.0769067842191,23.4643516476071));
#1137=CARTESIAN_POINT('Origin',(-20.4099624859229,-50.8282033140309,20.5921844414038));
#1138=CARTESIAN_POINT('',(-1.79255919958247,-51.2893122801338,21.0492112220617));
#1139=CARTESIAN_POINT('',(34.1524819241376,-53.6856745289911,16.2756009398849));
#1140=CARTESIAN_POINT('',(0.745059098936326,-52.238553490714,17.7827335296752));
#1141=CARTESIAN_POINT('Origin',(-2.2240786822286,-52.0406088099456,18.1770440158584));
#1142=CARTESIAN_POINT('',(0.457379443838907,-52.7394178439218,15.8679553922064));
#1143=CARTESIAN_POINT('',(0.169699788741486,-53.2402821971297,13.9531772547375));
#1144=CARTESIAN_POINT('',(5.33955755238448,-53.0648999395257,15.2195873589593));
#1145=CARTESIAN_POINT('',(33.433282786394,-54.9378354120107,11.4886555962127));
#1146=CARTESIAN_POINT('',(5.6272372074819,-52.5640355863178,17.1343654964282));
#1147=CARTESIAN_POINT('',(5.05187789728706,-53.5657642927336,13.3048092214905));
#1148=CARTESIAN_POINT('',(9.02789447129296,-52.0106837372743,19.6122222164483));
#1149=CARTESIAN_POINT('Origin',(8.59637498864683,-52.7619802670861,16.740055010245));
#1150=CARTESIAN_POINT('',(20.9218984388054,-52.8036259959131,18.0326624813475));
#1151=CARTESIAN_POINT('',(34.1524819241376,-53.6856745289911,16.2756009398849));
#1152=CARTESIAN_POINT('',(23.4577958016164,-53.7527524761929,14.766413334433));
#1153=CARTESIAN_POINT('Origin',(20.4903789561592,-53.5549225257248,15.1604952751442));
#1154=CARTESIAN_POINT('',(23.170116146519,-54.2536168294008,12.8516351969642));
#1155=CARTESIAN_POINT('',(22.8824364914216,-54.7544811826087,10.9368570594953));
#1156=CARTESIAN_POINT('',(30.4658659409368,-54.7400054615427,11.8827375369239));
#1157=CARTESIAN_POINT('',(33.433282786394,-54.9378354120107,11.4886555962127));
#1158=CARTESIAN_POINT('',(30.1781862858394,-55.2408698147505,9.96795939945507));
#1159=CARTESIAN_POINT('',(17.0244251658535,-53.0638348127364,16.5972758647122));
#1160=CARTESIAN_POINT('',(33.1456031312966,-55.4386997652186,9.57387745874388));
#1161=CARTESIAN_POINT('',(17.0244251658535,-53.0638348127364,16.5972758647122));
#1162=CARTESIAN_POINT('Origin',(-20.6336071301895,-57.9723940564922,22.4945502655502));
#1163=CARTESIAN_POINT('',(-20.2020876475434,-57.2210975266804,25.3667174717535));
#1164=CARTESIAN_POINT('',(-23.6010239756467,-57.7745641060241,22.8886322062614));
#1165=CARTESIAN_POINT('Origin',(-23.9527386415749,-51.6321020699786,17.1567101071773));
#1166=CARTESIAN_POINT('',(-23.8918325711619,-58.3753805382985,21.000469458292));
#1167=CARTESIAN_POINT('Origin',(8.11401646540489,-60.032900992679,18.7144402750813));
#1168=CARTESIAN_POINT('',(8.54553594805102,-59.2816044628672,21.5866074812846));
#1169=CARTESIAN_POINT('',(5.15140751816132,-59.7365427220488,19.0820270010949));
#1170=CARTESIAN_POINT('Origin',(5.05187789728706,-53.5657642927336,13.3048092214905));
#1171=CARTESIAN_POINT('',(4.85619234239602,-60.3509951446328,17.1980931842975));
#1172=CARTESIAN_POINT('Origin',(-3.66248117325809,-73.722635725276,24.0646992481223));
#1173=CARTESIAN_POINT('',(-3.23096169061196,-72.9713391954642,26.9368664543256));
#1174=CARTESIAN_POINT('',(-0.699872226014521,-74.0189939959062,23.6971125221087));
#1175=CARTESIAN_POINT('Origin',(-11.7327549637558,-64.944826420939,26.11462958939));
#1176=CARTESIAN_POINT('Origin',(19.8069292616882,-75.3873030693746,20.9740543055809));
#1177=CARTESIAN_POINT('',(20.2384487443343,-74.6360065395628,23.8462215117842));
#1178=CARTESIAN_POINT('',(22.7743461071454,-75.5851330198426,20.5799723648697));
#1179=CARTESIAN_POINT('Origin',(14.4096742210061,-67.0883167787652,22.7476352763447));
#1180=CARTESIAN_POINT('Origin',(30.0874768519656,-58.1385269433616,10.7395518849134));
#1181=CARTESIAN_POINT('',(33.3425733525203,-57.8354925406218,12.260248081671));
#1182=CARTESIAN_POINT('Origin',(30.3751565070631,-57.6376625901538,12.6543300223822));
#1183=CARTESIAN_POINT('',(33.0548936974228,-58.3363568938296,10.3454699442022));
#1184=CARTESIAN_POINT('Origin',(0.832719791238937,-67.2829632583293,19.6158390478755));
#1185=CARTESIAN_POINT('',(32.5261884476565,-83.9144066981214,19.2045804507957));
#1186=CARTESIAN_POINT('',(22.4897953924657,-75.986045293984,18.6385788379015));
#1187=CARTESIAN_POINT('',(30.1572251207168,-69.9643607598724,15.9114688051907));
#1188=CARTESIAN_POINT('Origin',(28.7264381385333,-69.1425647927284,15.9114688051907));
#1189=CARTESIAN_POINT('Origin',(-0.269499106701934,-66.4294163863294,22.6916913543));
#1190=CARTESIAN_POINT('Origin',(-0.269499106701934,-66.4294163863294,22.6916913543));
#1191=CARTESIAN_POINT('Origin',(0.545040136141528,-67.7838276115372,17.7010609104067));
#1192=CARTESIAN_POINT('Origin',(21.9753421526839,-83.7310524687195,18.6527819140784));
#1193=CARTESIAN_POINT('Origin',(0.832719791238937,-67.2829632583293,19.6158390478755));
#1194=CARTESIAN_POINT('',(-0.979546985014661,-74.3991950620869,21.7495688209782));
#1195=CARTESIAN_POINT('Origin',(-1.7481580652592,-82.1494685128866,21.8033345641592));
#1196=CARTESIAN_POINT('Origin',(-27.3486782111527,-65.924226077138,21.4054311530915));
#1197=CARTESIAN_POINT('',(-25.6302115738718,-66.2451576910742,23.3202092905603));
#1198=CARTESIAN_POINT('',(-25.9178912289692,-66.7460220442821,21.4054311530915));
#1199=CARTESIAN_POINT('Origin',(-27.0609985560553,-65.4233617239301,23.3202092905603));
#1200=CARTESIAN_POINT('Origin',(28.4387584834359,-69.6434291459363,13.9966906677219));
#1201=CARTESIAN_POINT('',(29.8695454656194,-70.4652251130804,13.9966906677219));
#1202=CARTESIAN_POINT('Origin',(-31.1484285202759,-51.1523841717447,18.1123195074864));
#1203=CARTESIAN_POINT('',(-30.8607488651785,-50.6515198185368,20.0270976449552));
#1204=CARTESIAN_POINT('Origin',(32.2385087925591,-84.4152710513293,17.2898023133269));
#1205=CARTESIAN_POINT('Origin',(0.832719791238937,-67.2829632583293,19.6158390478755));
#1206=UNCERTAINTY_MEASURE_WITH_UNIT(LENGTH_MEASURE(0.01),#1210,
'DISTANCE_ACCURACY_VALUE',
'Maximum model space distance between geometric entities at asserted c
onnectivities');
#1207=UNCERTAINTY_MEASURE_WITH_UNIT(LENGTH_MEASURE(0.01),#1210,
'DISTANCE_ACCURACY_VALUE',
'Maximum model space distance between geometric entities at asserted c
onnectivities');
#1208=(
GEOMETRIC_REPRESENTATION_CONTEXT(3)
GLOBAL_UNCERTAINTY_ASSIGNED_CONTEXT((#1206))
GLOBAL_UNIT_ASSIGNED_CONTEXT((#1210,#1212,#1213))
REPRESENTATION_CONTEXT('','3D')
);
#1209=(
GEOMETRIC_REPRESENTATION_CONTEXT(3)
GLOBAL_UNCERTAINTY_ASSIGNED_CONTEXT((#1207))
GLOBAL_UNIT_ASSIGNED_CONTEXT((#1210,#1212,#1213))
REPRESENTATION_CONTEXT('','3D')
);
#1210=(
LENGTH_UNIT()
NAMED_UNIT(*)
SI_UNIT(.MILLI.,.METRE.)
);
#1211=(
LENGTH_UNIT()
NAMED_UNIT(*)
SI_UNIT($,.METRE.)
);
#1212=(
NAMED_UNIT(*)
PLANE_ANGLE_UNIT()
SI_UNIT($,.RADIAN.)
);
#1213=(
NAMED_UNIT(*)
SI_UNIT($,.STERADIAN.)
SOLID_ANGLE_UNIT()
);
#1214=SHAPE_DEFINITION_REPRESENTATION(#1215,#1216);
#1215=PRODUCT_DEFINITION_SHAPE('',$,#1218);
#1216=SHAPE_REPRESENTATION('',(#730),#1208);
#1217=PRODUCT_DEFINITION_CONTEXT('part definition',#1222,'design');
#1218=PRODUCT_DEFINITION('2026-08-19-19-37-30-597','back',#1219,#1217);
#1219=PRODUCT_DEFINITION_FORMATION('',$,#1224);
#1220=PRODUCT_RELATED_PRODUCT_CATEGORY('back','back',(#1224));
#1221=APPLICATION_PROTOCOL_DEFINITION('international standard',
'automotive_design',2009,#1222);
#1222=APPLICATION_CONTEXT(
'Core Data for Automotive Mechanical Design Process');
#1223=PRODUCT_CONTEXT('part definition',#1222,'mechanical');
#1224=PRODUCT('2026-08-19-19-37-30-597','back',$,(#1223));
#1225=PRESENTATION_STYLE_ASSIGNMENT((#1227));
#1226=PRESENTATION_STYLE_ASSIGNMENT((#1228));
#1227=SURFACE_STYLE_USAGE(.BOTH.,#1229);
#1228=SURFACE_STYLE_USAGE(.BOTH.,#1230);
#1229=SURFACE_SIDE_STYLE('',(#1231));
#1230=SURFACE_SIDE_STYLE('',(#1232));
#1231=SURFACE_STYLE_FILL_AREA(#1233);
#1232=SURFACE_STYLE_FILL_AREA(#1234);
#1233=FILL_AREA_STYLE('\X2\30D730EC30FC30C8\X0\',(#1235));
#1234=FILL_AREA_STYLE('Opaque(160,160,160)',(#1236));
#1235=FILL_AREA_STYLE_COLOUR('\X2\30D730EC30FC30C8\X0\',#1237);
#1236=FILL_AREA_STYLE_COLOUR('Opaque(160,160,160)',#1238);
#1237=COLOUR_RGB('\X2\30D730EC30FC30C8\X0\',0.6,0.6,0.6);
#1238=COLOUR_RGB('Opaque(160,160,160)',0.627450980392157,0.627450980392157,
0.627450980392157);
ENDSEC;
END-ISO-10303-21;
