ISO-10303-21;
HEADER;
/* Generated by software containing ST-Developer
 * from STEP Tools, Inc. (www.steptools.com) 
 */

FILE_DESCRIPTION(
/* description */ (''),
/* implementation_level */ '2;1');

FILE_NAME(
/* name */ 'tower_base_atopper.step',
/* time_stamp */ '2026-08-20T11:05:40+09:00',
/* author */ (''),
/* organization */ (''),
/* preprocessor_version */ 'ST-DEVELOPER v20.1',
/* originating_system */ 'Autodesk Translation Framework v15.8.0.0',
/* authorisation */ '');

FILE_SCHEMA (('AUTOMOTIVE_DESIGN { 1 0 10303 214 3 1 1 }'));
ENDSEC;

DATA;
#10=MECHANICAL_DESIGN_GEOMETRIC_PRESENTATION_REPRESENTATION('',(#13),#1094);
#11=SHAPE_REPRESENTATION_RELATIONSHIP('SRR','None',#1101,#12);
#12=ADVANCED_BREP_SHAPE_REPRESENTATION('',(#14),#1093);
#13=STYLED_ITEM('',(#1111),#14);
#14=MANIFOLD_SOLID_BREP('\X2\30DC30C730A3\X0\1',#478);
#15=B_SPLINE_SURFACE_WITH_KNOTS('',3,3,((#920,#921,#922,#923),(#924,#925,
#926,#927),(#928,#929,#930,#931),(#932,#933,#934,#935)),.UNSPECIFIED.,.F.,
 .F.,.F.,(4,4),(4,4),(0.,1.),(0.608639557083104,0.730781684529867),
 .UNSPECIFIED.);
#16=B_SPLINE_SURFACE_WITH_KNOTS('',3,1,((#1021,#1022),(#1023,#1024),(#1025,
#1026),(#1027,#1028),(#1029,#1030),(#1031,#1032),(#1033,#1034),(#1035,#1036),
(#1037,#1038),(#1039,#1040),(#1041,#1042),(#1043,#1044),(#1045,#1046),(#1047,
#1048),(#1049,#1050),(#1051,#1052),(#1053,#1054),(#1055,#1056),(#1057,#1058),
(#1059,#1060),(#1061,#1062),(#1063,#1064),(#1065,#1066),(#1067,#1068),(#1069,
#1070),(#1071,#1072),(#1073,#1074),(#1075,#1076),(#1077,#1078),(#1079,#1080),
(#1081,#1082),(#1083,#1084),(#1085,#1086),(#1087,#1088)),.UNSPECIFIED.,
 .T.,.F.,.F.,(4,2,2,2,2,2,2,2,2,2,2,2,2,2,2,2,4),(2,2),(-0.693124340629168,
-0.649804069210823,-0.606483797792479,-0.563163526632177,-0.519843255471876,
-0.476522984311575,-0.433202713151274,-0.389882441732929,-0.346562170314584,
-0.303241898896239,-0.259921627477894,-0.216601356317593,-0.173281085157292,
-0.129960813996991,-0.0866405428366896,-0.0433202714183448,0.),(-1.02385333205714E-6,
0.200001874519713),.UNSPECIFIED.);
#17=TOROIDAL_SURFACE('',#510,55.1,1.);
#18=TOROIDAL_SURFACE('',#516,55.1,1.);
#19=B_SPLINE_CURVE_WITH_KNOTS('',3,(#706,#707,#708,#709,#710,#711,#712,
#713,#714,#715),.UNSPECIFIED.,.F.,.F.,(4,2,2,2,4),(0.,0.0376695159171958,
0.0753390318343916,0.113029718571876,0.15072040530936),.UNSPECIFIED.);
#20=B_SPLINE_CURVE_WITH_KNOTS('',3,(#719,#720,#721,#722,#723,#724,#725,
#726,#727,#728),.UNSPECIFIED.,.F.,.F.,(4,2,2,2,4),(-0.15072040530936,-0.113029718571876,
-0.075339031834392,-0.037669515917196,0.),.UNSPECIFIED.);
#21=B_SPLINE_CURVE_WITH_KNOTS('',3,(#734,#735,#736,#737,#738,#739,#740,
#741,#742,#743),.UNSPECIFIED.,.F.,.F.,(4,2,2,2,4),(0.301410117139045,0.339085511568227,
0.37676090599741,0.414445714414618,0.452130522831827),.UNSPECIFIED.);
#22=B_SPLINE_CURVE_WITH_KNOTS('',3,(#752,#753,#754,#755,#756,#757,#758,
#759,#760,#761,#762,#763,#764,#765,#766,#767,#768,#769,#770,#771,#772,#773,
#774,#775,#776,#777,#778,#779,#780,#781,#782,#783,#784,#785,#786,#787,#788,
#789,#790),.UNSPECIFIED.,.T.,.F.,(4,2,2,2,2,2,2,2,2,3,2,2,2,2,2,2,2,2,4),
(0.375517954073022,0.427957662853246,0.500801177153954,0.584330199091578,
0.67651944344806,0.780648802990076,0.882348349795722,0.978151692420739,
1.01946979869969,1.04700967619814,1.08347155795983,1.11131319525715,1.14154477513237,
1.17789981733071,1.2242098473309,1.27821838461173,1.3433669913968,1.40967525760661,
1.42252763027116),.UNSPECIFIED.);
#23=B_SPLINE_CURVE_WITH_KNOTS('',3,(#797,#798,#799,#800,#801,#802,#803,
#804,#805,#806),.UNSPECIFIED.,.F.,.F.,(4,2,2,2,4),(0.150689711829692,0.188380398567174,
0.226071085304656,0.263740601221851,0.301410117139045),.UNSPECIFIED.);
#24=B_SPLINE_CURVE_WITH_KNOTS('',3,(#811,#812,#813,#814,#815,#816,#817,
#818,#819,#820),.UNSPECIFIED.,.F.,.F.,(4,2,2,2,4),(0.444519051353926,0.481593151330284,
0.518647328058896,0.555678314367916,0.592690496535041),.UNSPECIFIED.);
#25=B_SPLINE_CURVE_WITH_KNOTS('',3,(#824,#825,#826,#827,#828,#829,#830,
#831,#832,#833),.UNSPECIFIED.,.F.,.F.,(4,2,2,2,4),(0.444302019986967,0.48132896225838,
0.51835475912067,0.55537922211423,0.592402603070515),.UNSPECIFIED.);
#26=B_SPLINE_CURVE_WITH_KNOTS('',3,(#850,#851,#852,#853,#854,#855,#856,
#857,#858,#859),.UNSPECIFIED.,.F.,.F.,(4,2,2,2,4),(-1.77635683940033E-15,
0.037012182167123,0.0740431684761425,0.111097345204755,0.148171445181113),
 .UNSPECIFIED.);
#27=B_SPLINE_CURVE_WITH_KNOTS('',3,(#861,#862,#863,#864,#865,#866,#867,
#868,#869,#870),.UNSPECIFIED.,.F.,.F.,(4,2,2,2,4),(-0.592402603070517,-0.55537922211423,
-0.518354759120668,-0.481328962258376,-0.444302019986962),.UNSPECIFIED.);
#28=B_SPLINE_CURVE_WITH_KNOTS('',3,(#881,#882,#883,#884,#885,#886,#887,
#888,#889,#890,#891,#892,#893,#894,#895,#896,#897,#898,#899,#900,#901,#902,
#903,#904,#905,#906,#907,#908,#909,#910,#911,#912,#913,#914,#915,#916,#917,
#918,#919),.UNSPECIFIED.,.T.,.F.,(4,2,2,2,2,2,2,2,2,3,2,2,2,2,2,2,2,2,4),
(-0.375517954065011,-0.362665581400491,-0.296357315192148,-0.231208708408809,
-0.177200171129563,-0.13089014113081,-0.0945350989336603,-0.0643035190589166,
-0.0364618817617055,0.,0.0275398774984541,0.0688579837773488,0.164661326401679,
0.266360873206335,0.370490232747078,0.462679477102232,0.546208499038795,
0.619052013338474,0.671491722117743),.UNSPECIFIED.);
#29=B_SPLINE_CURVE_WITH_KNOTS('',3,(#937,#938,#939,#940,#941,#942,#943,
#944,#945,#946,#947,#948,#949,#950,#951,#952,#953,#954,#955,#956,#957,#958,
#959,#960,#961,#962,#963,#964),.UNSPECIFIED.,.F.,.F.,(4,3,3,3,3,3,3,3,3,
4),(0.,0.013019640652742,0.0264755145838352,0.0390640728661431,0.0524973338710376,
0.065913544873995,0.0715208347471276,0.0849629653775462,0.0980317369994705,
0.103977448138329),.UNSPECIFIED.);
#30=B_SPLINE_CURVE_WITH_KNOTS('',3,(#967,#968,#969,#970,#971,#972,#973,
#974,#975,#976,#977,#978,#979,#980,#981,#982,#983,#984,#985,#986,#987,#988,
#989,#990,#991,#992,#993,#994),.UNSPECIFIED.,.F.,.F.,(4,3,3,3,3,3,3,3,3,
4),(0.,0.0130209527566235,0.0264777063227759,0.0390705016466557,0.0525041755007196,
0.0659198440511197,0.0715241962089363,0.0849655052941559,0.0980330244087808,
0.103977648076821),.UNSPECIFIED.);
#31=B_SPLINE_CURVE_WITH_KNOTS('',1,(#1089,#1090),.UNSPECIFIED.,.F.,.F.,
(2,2),(6.38843811644998E-7,0.200000638843812),.UNSPECIFIED.);
#32=FACE_BOUND('',#74,.T.);
#33=FACE_BOUND('',#79,.T.);
#34=FACE_BOUND('',#84,.T.);
#35=FACE_BOUND('',#87,.T.);
#36=PLANE('',#495);
#37=PLANE('',#500);
#38=PLANE('',#507);
#39=PLANE('',#513);
#40=PLANE('',#528);
#41=PLANE('',#532);
#42=PLANE('',#533);
#43=PLANE('',#534);
#44=PLANE('',#535);
#45=PLANE('',#536);
#46=PLANE('',#537);
#47=FACE_OUTER_BOUND('',#72,.T.);
#48=FACE_OUTER_BOUND('',#73,.T.);
#49=FACE_OUTER_BOUND('',#75,.T.);
#50=FACE_OUTER_BOUND('',#76,.T.);
#51=FACE_OUTER_BOUND('',#77,.T.);
#52=FACE_OUTER_BOUND('',#78,.T.);
#53=FACE_OUTER_BOUND('',#80,.T.);
#54=FACE_OUTER_BOUND('',#81,.T.);
#55=FACE_OUTER_BOUND('',#82,.T.);
#56=FACE_OUTER_BOUND('',#83,.T.);
#57=FACE_OUTER_BOUND('',#85,.T.);
#58=FACE_OUTER_BOUND('',#86,.T.);
#59=FACE_OUTER_BOUND('',#88,.T.);
#60=FACE_OUTER_BOUND('',#89,.T.);
#61=FACE_OUTER_BOUND('',#90,.T.);
#62=FACE_OUTER_BOUND('',#91,.T.);
#63=FACE_OUTER_BOUND('',#92,.T.);
#64=FACE_OUTER_BOUND('',#93,.T.);
#65=FACE_OUTER_BOUND('',#94,.T.);
#66=FACE_OUTER_BOUND('',#95,.T.);
#67=FACE_OUTER_BOUND('',#96,.T.);
#68=FACE_OUTER_BOUND('',#97,.T.);
#69=FACE_OUTER_BOUND('',#98,.T.);
#70=FACE_OUTER_BOUND('',#99,.T.);
#71=FACE_OUTER_BOUND('',#100,.T.);
#72=EDGE_LOOP('',(#305,#306,#307,#308));
#73=EDGE_LOOP('',(#309,#310,#311,#312,#313,#314,#315,#316,#317,#318));
#74=EDGE_LOOP('',(#319));
#75=EDGE_LOOP('',(#320,#321,#322,#323));
#76=EDGE_LOOP('',(#324,#325,#326,#327));
#77=EDGE_LOOP('',(#328,#329,#330,#331));
#78=EDGE_LOOP('',(#332,#333,#334,#335,#336,#337,#338,#339,#340,#341));
#79=EDGE_LOOP('',(#342));
#80=EDGE_LOOP('',(#343,#344,#345,#346));
#81=EDGE_LOOP('',(#347,#348,#349,#350));
#82=EDGE_LOOP('',(#351,#352,#353,#354));
#83=EDGE_LOOP('',(#355,#356,#357,#358,#359,#360,#361,#362,#363,#364));
#84=EDGE_LOOP('',(#365));
#85=EDGE_LOOP('',(#366,#367,#368,#369));
#86=EDGE_LOOP('',(#370,#371,#372,#373,#374,#375,#376,#377,#378,#379));
#87=EDGE_LOOP('',(#380));
#88=EDGE_LOOP('',(#381,#382,#383,#384));
#89=EDGE_LOOP('',(#385,#386,#387,#388));
#90=EDGE_LOOP('',(#389,#390,#391,#392));
#91=EDGE_LOOP('',(#393,#394,#395,#396));
#92=EDGE_LOOP('',(#397,#398,#399,#400));
#93=EDGE_LOOP('',(#401,#402,#403,#404));
#94=EDGE_LOOP('',(#405,#406,#407,#408));
#95=EDGE_LOOP('',(#409,#410,#411,#412,#413,#414));
#96=EDGE_LOOP('',(#415,#416,#417,#418));
#97=EDGE_LOOP('',(#419,#420,#421,#422,#423,#424));
#98=EDGE_LOOP('',(#425,#426,#427,#428,#429,#430,#431));
#99=EDGE_LOOP('',(#432,#433,#434,#435,#436,#437,#438));
#100=EDGE_LOOP('',(#439,#440,#441,#442));
#101=LINE('',#671,#134);
#102=LINE('',#674,#135);
#103=LINE('',#677,#136);
#104=LINE('',#681,#137);
#105=LINE('',#685,#138);
#106=LINE('',#687,#139);
#107=LINE('',#689,#140);
#108=LINE('',#692,#141);
#109=LINE('',#697,#142);
#110=LINE('',#698,#143);
#111=LINE('',#702,#144);
#112=LINE('',#717,#145);
#113=LINE('',#729,#146);
#114=LINE('',#744,#147);
#115=LINE('',#746,#148);
#116=LINE('',#749,#149);
#117=LINE('',#750,#150);
#118=LINE('',#794,#151);
#119=LINE('',#807,#152);
#120=LINE('',#836,#153);
#121=LINE('',#838,#154);
#122=LINE('',#840,#155);
#123=LINE('',#842,#156);
#124=LINE('',#845,#157);
#125=LINE('',#873,#158);
#126=LINE('',#875,#159);
#127=LINE('',#878,#160);
#128=LINE('',#879,#161);
#129=LINE('',#999,#162);
#130=LINE('',#1005,#163);
#131=LINE('',#1008,#164);
#132=LINE('',#1012,#165);
#133=LINE('',#1015,#166);
#134=VECTOR('',#544,10.);
#135=VECTOR('',#547,10.);
#136=VECTOR('',#550,10.);
#137=VECTOR('',#553,10.);
#138=VECTOR('',#556,10.);
#139=VECTOR('',#557,10.);
#140=VECTOR('',#558,10.);
#141=VECTOR('',#561,10.);
#142=VECTOR('',#566,10.);
#143=VECTOR('',#567,10.);
#144=VECTOR('',#572,10.);
#145=VECTOR('',#575,10.);
#146=VECTOR('',#576,10.);
#147=VECTOR('',#581,10.);
#148=VECTOR('',#582,10.);
#149=VECTOR('',#585,10.);
#150=VECTOR('',#586,10.);
#151=VECTOR('',#591,10.);
#152=VECTOR('',#594,10.);
#153=VECTOR('',#603,10.);
#154=VECTOR('',#604,10.);
#155=VECTOR('',#605,10.);
#156=VECTOR('',#606,10.);
#157=VECTOR('',#609,10.);
#158=VECTOR('',#618,10.);
#159=VECTOR('',#619,10.);
#160=VECTOR('',#622,10.);
#161=VECTOR('',#623,10.);
#162=VECTOR('',#630,10.);
#163=VECTOR('',#641,1.1);
#164=VECTOR('',#644,10.);
#165=VECTOR('',#649,10.);
#166=VECTOR('',#654,10.);
#167=CIRCLE('',#493,1.);
#168=CIRCLE('',#494,1.);
#169=CIRCLE('',#496,1.);
#170=CIRCLE('',#497,56.1);
#171=CIRCLE('',#498,56.1);
#172=CIRCLE('',#499,1.1);
#173=CIRCLE('',#502,1.);
#174=CIRCLE('',#505,56.1);
#175=CIRCLE('',#506,56.0967128761327);
#176=CIRCLE('',#508,56.1);
#177=CIRCLE('',#511,56.1);
#178=CIRCLE('',#512,55.1);
#179=CIRCLE('',#514,55.1);
#180=CIRCLE('',#515,1.1);
#181=CIRCLE('',#517,56.1);
#182=CIRCLE('',#519,48.0757847492754);
#183=CIRCLE('',#520,58.9913193024679);
#184=CIRCLE('',#522,5.);
#185=CIRCLE('',#523,5.);
#186=CIRCLE('',#525,1.);
#187=CIRCLE('',#526,1.);
#188=CIRCLE('',#529,5.);
#189=CIRCLE('',#531,5.);
#190=VERTEX_POINT('',#667);
#191=VERTEX_POINT('',#668);
#192=VERTEX_POINT('',#670);
#193=VERTEX_POINT('',#672);
#194=VERTEX_POINT('',#676);
#195=VERTEX_POINT('',#678);
#196=VERTEX_POINT('',#680);
#197=VERTEX_POINT('',#682);
#198=VERTEX_POINT('',#684);
#199=VERTEX_POINT('',#686);
#200=VERTEX_POINT('',#688);
#201=VERTEX_POINT('',#690);
#202=VERTEX_POINT('',#693);
#203=VERTEX_POINT('',#696);
#204=VERTEX_POINT('',#700);
#205=VERTEX_POINT('',#704);
#206=VERTEX_POINT('',#705);
#207=VERTEX_POINT('',#716);
#208=VERTEX_POINT('',#718);
#209=VERTEX_POINT('',#731);
#210=VERTEX_POINT('',#733);
#211=VERTEX_POINT('',#745);
#212=VERTEX_POINT('',#747);
#213=VERTEX_POINT('',#751);
#214=VERTEX_POINT('',#792);
#215=VERTEX_POINT('',#796);
#216=VERTEX_POINT('',#809);
#217=VERTEX_POINT('',#810);
#218=VERTEX_POINT('',#821);
#219=VERTEX_POINT('',#823);
#220=VERTEX_POINT('',#837);
#221=VERTEX_POINT('',#839);
#222=VERTEX_POINT('',#841);
#223=VERTEX_POINT('',#843);
#224=VERTEX_POINT('',#846);
#225=VERTEX_POINT('',#849);
#226=VERTEX_POINT('',#860);
#227=VERTEX_POINT('',#874);
#228=VERTEX_POINT('',#876);
#229=VERTEX_POINT('',#880);
#230=VERTEX_POINT('',#936);
#231=VERTEX_POINT('',#965);
#232=VERTEX_POINT('',#996);
#233=VERTEX_POINT('',#998);
#234=VERTEX_POINT('',#1007);
#235=VERTEX_POINT('',#1011);
#236=EDGE_CURVE('',#190,#191,#167,.T.);
#237=EDGE_CURVE('',#191,#192,#101,.T.);
#238=EDGE_CURVE('',#192,#193,#168,.T.);
#239=EDGE_CURVE('',#193,#190,#102,.T.);
#240=EDGE_CURVE('',#194,#192,#103,.T.);
#241=EDGE_CURVE('',#195,#194,#169,.T.);
#242=EDGE_CURVE('',#195,#196,#104,.T.);
#243=EDGE_CURVE('',#197,#196,#170,.T.);
#244=EDGE_CURVE('',#197,#198,#105,.T.);
#245=EDGE_CURVE('',#198,#199,#106,.T.);
#246=EDGE_CURVE('',#199,#200,#107,.T.);
#247=EDGE_CURVE('',#201,#200,#171,.T.);
#248=EDGE_CURVE('',#193,#201,#108,.T.);
#249=EDGE_CURVE('',#202,#202,#172,.T.);
#250=EDGE_CURVE('',#191,#203,#109,.T.);
#251=EDGE_CURVE('',#194,#203,#110,.T.);
#252=EDGE_CURVE('',#203,#204,#173,.T.);
#253=EDGE_CURVE('',#204,#195,#111,.T.);
#254=EDGE_CURVE('',#205,#206,#19,.T.);
#255=EDGE_CURVE('',#206,#207,#112,.T.);
#256=EDGE_CURVE('',#207,#208,#20,.T.);
#257=EDGE_CURVE('',#208,#205,#113,.T.);
#258=EDGE_CURVE('',#207,#209,#174,.T.);
#259=EDGE_CURVE('',#210,#209,#21,.T.);
#260=EDGE_CURVE('',#210,#201,#114,.T.);
#261=EDGE_CURVE('',#200,#211,#115,.T.);
#262=EDGE_CURVE('',#211,#212,#175,.T.);
#263=EDGE_CURVE('',#212,#197,#116,.T.);
#264=EDGE_CURVE('',#196,#208,#117,.T.);
#265=EDGE_CURVE('',#213,#213,#22,.T.);
#266=EDGE_CURVE('',#214,#206,#176,.T.);
#267=EDGE_CURVE('',#209,#214,#118,.T.);
#268=EDGE_CURVE('',#214,#215,#23,.T.);
#269=EDGE_CURVE('',#215,#210,#119,.T.);
#270=EDGE_CURVE('',#216,#217,#24,.T.);
#271=EDGE_CURVE('',#217,#218,#177,.T.);
#272=EDGE_CURVE('',#218,#219,#25,.F.);
#273=EDGE_CURVE('',#219,#216,#178,.T.);
#274=EDGE_CURVE('',#190,#216,#120,.T.);
#275=EDGE_CURVE('',#219,#220,#121,.T.);
#276=EDGE_CURVE('',#221,#220,#122,.T.);
#277=EDGE_CURVE('',#221,#222,#123,.T.);
#278=EDGE_CURVE('',#223,#222,#179,.T.);
#279=EDGE_CURVE('',#204,#223,#124,.T.);
#280=EDGE_CURVE('',#224,#224,#180,.T.);
#281=EDGE_CURVE('',#225,#223,#26,.T.);
#282=EDGE_CURVE('',#222,#226,#27,.F.);
#283=EDGE_CURVE('',#226,#225,#181,.T.);
#284=EDGE_CURVE('',#205,#225,#125,.T.);
#285=EDGE_CURVE('',#226,#227,#126,.T.);
#286=EDGE_CURVE('',#228,#227,#182,.T.);
#287=EDGE_CURVE('',#228,#218,#127,.T.);
#288=EDGE_CURVE('',#217,#215,#128,.T.);
#289=EDGE_CURVE('',#229,#229,#28,.T.);
#290=EDGE_CURVE('',#227,#230,#29,.T.);
#291=EDGE_CURVE('',#230,#231,#183,.T.);
#292=EDGE_CURVE('',#231,#228,#30,.T.);
#293=EDGE_CURVE('',#232,#230,#184,.T.);
#294=EDGE_CURVE('',#233,#232,#129,.T.);
#295=EDGE_CURVE('',#231,#233,#185,.T.);
#296=EDGE_CURVE('',#220,#233,#186,.T.);
#297=EDGE_CURVE('',#232,#221,#187,.T.);
#298=EDGE_CURVE('',#224,#202,#130,.T.);
#299=EDGE_CURVE('',#199,#234,#131,.T.);
#300=EDGE_CURVE('',#234,#211,#188,.T.);
#301=EDGE_CURVE('',#235,#234,#132,.T.);
#302=EDGE_CURVE('',#212,#235,#189,.T.);
#303=EDGE_CURVE('',#235,#198,#133,.T.);
#304=EDGE_CURVE('',#213,#229,#31,.T.);
#305=ORIENTED_EDGE('',*,*,#236,.T.);
#306=ORIENTED_EDGE('',*,*,#237,.T.);
#307=ORIENTED_EDGE('',*,*,#238,.T.);
#308=ORIENTED_EDGE('',*,*,#239,.T.);
#309=ORIENTED_EDGE('',*,*,#238,.F.);
#310=ORIENTED_EDGE('',*,*,#240,.F.);
#311=ORIENTED_EDGE('',*,*,#241,.F.);
#312=ORIENTED_EDGE('',*,*,#242,.T.);
#313=ORIENTED_EDGE('',*,*,#243,.F.);
#314=ORIENTED_EDGE('',*,*,#244,.T.);
#315=ORIENTED_EDGE('',*,*,#245,.T.);
#316=ORIENTED_EDGE('',*,*,#246,.T.);
#317=ORIENTED_EDGE('',*,*,#247,.F.);
#318=ORIENTED_EDGE('',*,*,#248,.F.);
#319=ORIENTED_EDGE('',*,*,#249,.T.);
#320=ORIENTED_EDGE('',*,*,#237,.F.);
#321=ORIENTED_EDGE('',*,*,#250,.T.);
#322=ORIENTED_EDGE('',*,*,#251,.F.);
#323=ORIENTED_EDGE('',*,*,#240,.T.);
#324=ORIENTED_EDGE('',*,*,#241,.T.);
#325=ORIENTED_EDGE('',*,*,#251,.T.);
#326=ORIENTED_EDGE('',*,*,#252,.T.);
#327=ORIENTED_EDGE('',*,*,#253,.T.);
#328=ORIENTED_EDGE('',*,*,#254,.T.);
#329=ORIENTED_EDGE('',*,*,#255,.T.);
#330=ORIENTED_EDGE('',*,*,#256,.T.);
#331=ORIENTED_EDGE('',*,*,#257,.T.);
#332=ORIENTED_EDGE('',*,*,#256,.F.);
#333=ORIENTED_EDGE('',*,*,#258,.T.);
#334=ORIENTED_EDGE('',*,*,#259,.F.);
#335=ORIENTED_EDGE('',*,*,#260,.T.);
#336=ORIENTED_EDGE('',*,*,#247,.T.);
#337=ORIENTED_EDGE('',*,*,#261,.T.);
#338=ORIENTED_EDGE('',*,*,#262,.T.);
#339=ORIENTED_EDGE('',*,*,#263,.T.);
#340=ORIENTED_EDGE('',*,*,#243,.T.);
#341=ORIENTED_EDGE('',*,*,#264,.T.);
#342=ORIENTED_EDGE('',*,*,#265,.T.);
#343=ORIENTED_EDGE('',*,*,#255,.F.);
#344=ORIENTED_EDGE('',*,*,#266,.F.);
#345=ORIENTED_EDGE('',*,*,#267,.F.);
#346=ORIENTED_EDGE('',*,*,#258,.F.);
#347=ORIENTED_EDGE('',*,*,#268,.T.);
#348=ORIENTED_EDGE('',*,*,#269,.T.);
#349=ORIENTED_EDGE('',*,*,#259,.T.);
#350=ORIENTED_EDGE('',*,*,#267,.T.);
#351=ORIENTED_EDGE('',*,*,#270,.T.);
#352=ORIENTED_EDGE('',*,*,#271,.T.);
#353=ORIENTED_EDGE('',*,*,#272,.T.);
#354=ORIENTED_EDGE('',*,*,#273,.T.);
#355=ORIENTED_EDGE('',*,*,#236,.F.);
#356=ORIENTED_EDGE('',*,*,#274,.T.);
#357=ORIENTED_EDGE('',*,*,#273,.F.);
#358=ORIENTED_EDGE('',*,*,#275,.T.);
#359=ORIENTED_EDGE('',*,*,#276,.F.);
#360=ORIENTED_EDGE('',*,*,#277,.T.);
#361=ORIENTED_EDGE('',*,*,#278,.F.);
#362=ORIENTED_EDGE('',*,*,#279,.F.);
#363=ORIENTED_EDGE('',*,*,#252,.F.);
#364=ORIENTED_EDGE('',*,*,#250,.F.);
#365=ORIENTED_EDGE('',*,*,#280,.T.);
#366=ORIENTED_EDGE('',*,*,#281,.T.);
#367=ORIENTED_EDGE('',*,*,#278,.T.);
#368=ORIENTED_EDGE('',*,*,#282,.T.);
#369=ORIENTED_EDGE('',*,*,#283,.T.);
#370=ORIENTED_EDGE('',*,*,#254,.F.);
#371=ORIENTED_EDGE('',*,*,#284,.T.);
#372=ORIENTED_EDGE('',*,*,#283,.F.);
#373=ORIENTED_EDGE('',*,*,#285,.T.);
#374=ORIENTED_EDGE('',*,*,#286,.F.);
#375=ORIENTED_EDGE('',*,*,#287,.T.);
#376=ORIENTED_EDGE('',*,*,#271,.F.);
#377=ORIENTED_EDGE('',*,*,#288,.T.);
#378=ORIENTED_EDGE('',*,*,#268,.F.);
#379=ORIENTED_EDGE('',*,*,#266,.T.);
#380=ORIENTED_EDGE('',*,*,#289,.T.);
#381=ORIENTED_EDGE('',*,*,#290,.T.);
#382=ORIENTED_EDGE('',*,*,#291,.T.);
#383=ORIENTED_EDGE('',*,*,#292,.T.);
#384=ORIENTED_EDGE('',*,*,#286,.T.);
#385=ORIENTED_EDGE('',*,*,#291,.F.);
#386=ORIENTED_EDGE('',*,*,#293,.F.);
#387=ORIENTED_EDGE('',*,*,#294,.F.);
#388=ORIENTED_EDGE('',*,*,#295,.F.);
#389=ORIENTED_EDGE('',*,*,#296,.T.);
#390=ORIENTED_EDGE('',*,*,#294,.T.);
#391=ORIENTED_EDGE('',*,*,#297,.T.);
#392=ORIENTED_EDGE('',*,*,#276,.T.);
#393=ORIENTED_EDGE('',*,*,#280,.F.);
#394=ORIENTED_EDGE('',*,*,#298,.T.);
#395=ORIENTED_EDGE('',*,*,#249,.F.);
#396=ORIENTED_EDGE('',*,*,#298,.F.);
#397=ORIENTED_EDGE('',*,*,#261,.F.);
#398=ORIENTED_EDGE('',*,*,#246,.F.);
#399=ORIENTED_EDGE('',*,*,#299,.T.);
#400=ORIENTED_EDGE('',*,*,#300,.T.);
#401=ORIENTED_EDGE('',*,*,#262,.F.);
#402=ORIENTED_EDGE('',*,*,#300,.F.);
#403=ORIENTED_EDGE('',*,*,#301,.F.);
#404=ORIENTED_EDGE('',*,*,#302,.F.);
#405=ORIENTED_EDGE('',*,*,#263,.F.);
#406=ORIENTED_EDGE('',*,*,#302,.T.);
#407=ORIENTED_EDGE('',*,*,#303,.T.);
#408=ORIENTED_EDGE('',*,*,#244,.F.);
#409=ORIENTED_EDGE('',*,*,#282,.F.);
#410=ORIENTED_EDGE('',*,*,#277,.F.);
#411=ORIENTED_EDGE('',*,*,#297,.F.);
#412=ORIENTED_EDGE('',*,*,#293,.T.);
#413=ORIENTED_EDGE('',*,*,#290,.F.);
#414=ORIENTED_EDGE('',*,*,#285,.F.);
#415=ORIENTED_EDGE('',*,*,#301,.T.);
#416=ORIENTED_EDGE('',*,*,#299,.F.);
#417=ORIENTED_EDGE('',*,*,#245,.F.);
#418=ORIENTED_EDGE('',*,*,#303,.F.);
#419=ORIENTED_EDGE('',*,*,#287,.F.);
#420=ORIENTED_EDGE('',*,*,#292,.F.);
#421=ORIENTED_EDGE('',*,*,#295,.T.);
#422=ORIENTED_EDGE('',*,*,#296,.F.);
#423=ORIENTED_EDGE('',*,*,#275,.F.);
#424=ORIENTED_EDGE('',*,*,#272,.F.);
#425=ORIENTED_EDGE('',*,*,#239,.F.);
#426=ORIENTED_EDGE('',*,*,#248,.T.);
#427=ORIENTED_EDGE('',*,*,#260,.F.);
#428=ORIENTED_EDGE('',*,*,#269,.F.);
#429=ORIENTED_EDGE('',*,*,#288,.F.);
#430=ORIENTED_EDGE('',*,*,#270,.F.);
#431=ORIENTED_EDGE('',*,*,#274,.F.);
#432=ORIENTED_EDGE('',*,*,#253,.F.);
#433=ORIENTED_EDGE('',*,*,#279,.T.);
#434=ORIENTED_EDGE('',*,*,#281,.F.);
#435=ORIENTED_EDGE('',*,*,#284,.F.);
#436=ORIENTED_EDGE('',*,*,#257,.F.);
#437=ORIENTED_EDGE('',*,*,#264,.F.);
#438=ORIENTED_EDGE('',*,*,#242,.F.);
#439=ORIENTED_EDGE('',*,*,#265,.F.);
#440=ORIENTED_EDGE('',*,*,#304,.T.);
#441=ORIENTED_EDGE('',*,*,#289,.F.);
#442=ORIENTED_EDGE('',*,*,#304,.F.);
#443=CYLINDRICAL_SURFACE('',#492,1.);
#444=CYLINDRICAL_SURFACE('',#501,1.);
#445=CYLINDRICAL_SURFACE('',#503,1.);
#446=CYLINDRICAL_SURFACE('',#504,56.1);
#447=CYLINDRICAL_SURFACE('',#509,1.);
#448=CYLINDRICAL_SURFACE('',#518,56.1);
#449=CYLINDRICAL_SURFACE('',#521,5.);
#450=CYLINDRICAL_SURFACE('',#524,1.);
#451=CYLINDRICAL_SURFACE('',#527,1.1);
#452=CYLINDRICAL_SURFACE('',#530,5.);
#453=ADVANCED_FACE('',(#47),#443,.T.);
#454=ADVANCED_FACE('',(#48,#32),#36,.T.);
#455=ADVANCED_FACE('',(#49),#37,.T.);
#456=ADVANCED_FACE('',(#50),#444,.T.);
#457=ADVANCED_FACE('',(#51),#445,.T.);
#458=ADVANCED_FACE('',(#52,#33),#446,.F.);
#459=ADVANCED_FACE('',(#53),#38,.T.);
#460=ADVANCED_FACE('',(#54),#447,.T.);
#461=ADVANCED_FACE('',(#55),#17,.T.);
#462=ADVANCED_FACE('',(#56,#34),#39,.T.);
#463=ADVANCED_FACE('',(#57),#18,.T.);
#464=ADVANCED_FACE('',(#58,#35),#448,.T.);
#465=ADVANCED_FACE('',(#59),#15,.T.);
#466=ADVANCED_FACE('',(#60),#449,.T.);
#467=ADVANCED_FACE('',(#61),#450,.F.);
#468=ADVANCED_FACE('',(#62),#451,.F.);
#469=ADVANCED_FACE('',(#63),#40,.T.);
#470=ADVANCED_FACE('',(#64),#452,.T.);
#471=ADVANCED_FACE('',(#65),#41,.F.);
#472=ADVANCED_FACE('',(#66),#42,.F.);
#473=ADVANCED_FACE('',(#67),#43,.T.);
#474=ADVANCED_FACE('',(#68),#44,.T.);
#475=ADVANCED_FACE('',(#69),#45,.T.);
#476=ADVANCED_FACE('',(#70),#46,.T.);
#477=ADVANCED_FACE('',(#71),#16,.T.);
#478=CLOSED_SHELL('',(#453,#454,#455,#456,#457,#458,#459,#460,#461,#462,
#463,#464,#465,#466,#467,#468,#469,#470,#471,#472,#473,#474,#475,#476,#477));
#479=DERIVED_UNIT_ELEMENT(#481,1.);
#480=DERIVED_UNIT_ELEMENT(#1096,-3.);
#481=(
MASS_UNIT()
NAMED_UNIT(*)
SI_UNIT(.KILO.,.GRAM.)
);
#482=DERIVED_UNIT((#479,#480));
#483=MEASURE_REPRESENTATION_ITEM('density measure',
POSITIVE_RATIO_MEASURE(7850.),#482);
#484=PROPERTY_DEFINITION_REPRESENTATION(#489,#486);
#485=PROPERTY_DEFINITION_REPRESENTATION(#490,#487);
#486=REPRESENTATION('material name',(#488),#1093);
#487=REPRESENTATION('density',(#483),#1093);
#488=DESCRIPTIVE_REPRESENTATION_ITEM('\X2\92FC\X0\','\X2\92FC\X0\');
#489=PROPERTY_DEFINITION('material property','material name',#1103);
#490=PROPERTY_DEFINITION('material property','density of part',#1103);
#491=AXIS2_PLACEMENT_3D('',#665,#538,#539);
#492=AXIS2_PLACEMENT_3D('',#666,#540,#541);
#493=AXIS2_PLACEMENT_3D('',#669,#542,#543);
#494=AXIS2_PLACEMENT_3D('',#673,#545,#546);
#495=AXIS2_PLACEMENT_3D('',#675,#548,#549);
#496=AXIS2_PLACEMENT_3D('',#679,#551,#552);
#497=AXIS2_PLACEMENT_3D('',#683,#554,#555);
#498=AXIS2_PLACEMENT_3D('',#691,#559,#560);
#499=AXIS2_PLACEMENT_3D('',#694,#562,#563);
#500=AXIS2_PLACEMENT_3D('',#695,#564,#565);
#501=AXIS2_PLACEMENT_3D('',#699,#568,#569);
#502=AXIS2_PLACEMENT_3D('',#701,#570,#571);
#503=AXIS2_PLACEMENT_3D('',#703,#573,#574);
#504=AXIS2_PLACEMENT_3D('',#730,#577,#578);
#505=AXIS2_PLACEMENT_3D('',#732,#579,#580);
#506=AXIS2_PLACEMENT_3D('',#748,#583,#584);
#507=AXIS2_PLACEMENT_3D('',#791,#587,#588);
#508=AXIS2_PLACEMENT_3D('',#793,#589,#590);
#509=AXIS2_PLACEMENT_3D('',#795,#592,#593);
#510=AXIS2_PLACEMENT_3D('',#808,#595,#596);
#511=AXIS2_PLACEMENT_3D('',#822,#597,#598);
#512=AXIS2_PLACEMENT_3D('',#834,#599,#600);
#513=AXIS2_PLACEMENT_3D('',#835,#601,#602);
#514=AXIS2_PLACEMENT_3D('',#844,#607,#608);
#515=AXIS2_PLACEMENT_3D('',#847,#610,#611);
#516=AXIS2_PLACEMENT_3D('',#848,#612,#613);
#517=AXIS2_PLACEMENT_3D('',#871,#614,#615);
#518=AXIS2_PLACEMENT_3D('',#872,#616,#617);
#519=AXIS2_PLACEMENT_3D('',#877,#620,#621);
#520=AXIS2_PLACEMENT_3D('',#966,#624,#625);
#521=AXIS2_PLACEMENT_3D('',#995,#626,#627);
#522=AXIS2_PLACEMENT_3D('',#997,#628,#629);
#523=AXIS2_PLACEMENT_3D('',#1000,#631,#632);
#524=AXIS2_PLACEMENT_3D('',#1001,#633,#634);
#525=AXIS2_PLACEMENT_3D('',#1002,#635,#636);
#526=AXIS2_PLACEMENT_3D('',#1003,#637,#638);
#527=AXIS2_PLACEMENT_3D('',#1004,#639,#640);
#528=AXIS2_PLACEMENT_3D('',#1006,#642,#643);
#529=AXIS2_PLACEMENT_3D('',#1009,#645,#646);
#530=AXIS2_PLACEMENT_3D('',#1010,#647,#648);
#531=AXIS2_PLACEMENT_3D('',#1013,#650,#651);
#532=AXIS2_PLACEMENT_3D('',#1014,#652,#653);
#533=AXIS2_PLACEMENT_3D('',#1016,#655,#656);
#534=AXIS2_PLACEMENT_3D('',#1017,#657,#658);
#535=AXIS2_PLACEMENT_3D('',#1018,#659,#660);
#536=AXIS2_PLACEMENT_3D('',#1019,#661,#662);
#537=AXIS2_PLACEMENT_3D('',#1020,#663,#664);
#538=DIRECTION('axis',(0.,0.,1.));
#539=DIRECTION('refdir',(1.,0.,0.));
#540=DIRECTION('center_axis',(0.,0.,1.));
#541=DIRECTION('ref_axis',(-1.,-6.28036983473511E-15,0.));
#542=DIRECTION('center_axis',(0.,0.,-1.));
#543=DIRECTION('ref_axis',(-1.,-6.28036983473511E-15,0.));
#544=DIRECTION('',(0.,0.,-1.));
#545=DIRECTION('center_axis',(0.,0.,1.));
#546=DIRECTION('ref_axis',(-1.,-6.28036983473511E-15,0.));
#547=DIRECTION('',(0.,0.,1.));
#548=DIRECTION('center_axis',(0.,0.,-1.));
#549=DIRECTION('ref_axis',(0.707106781186548,0.707106781186547,0.));
#550=DIRECTION('',(-0.707106781186548,-0.707106781186547,0.));
#551=DIRECTION('center_axis',(0.,0.,1.));
#552=DIRECTION('ref_axis',(0.,1.,0.));
#553=DIRECTION('',(0.707106781186547,-0.707106781186548,0.));
#554=DIRECTION('center_axis',(0.,0.,1.));
#555=DIRECTION('ref_axis',(1.,0.,0.));
#556=DIRECTION('',(-0.707106781186547,0.707106781186548,0.));
#557=DIRECTION('',(-0.707106781186551,-0.707106781186544,0.));
#558=DIRECTION('',(0.707106781186547,-0.707106781186548,0.));
#559=DIRECTION('center_axis',(0.,0.,1.));
#560=DIRECTION('ref_axis',(1.,0.,0.));
#561=DIRECTION('',(0.707106781186547,-0.707106781186548,0.));
#562=DIRECTION('center_axis',(0.,0.,1.));
#563=DIRECTION('ref_axis',(-1.,0.,0.));
#564=DIRECTION('center_axis',(-0.707106781186547,0.707106781186548,0.));
#565=DIRECTION('ref_axis',(0.,0.,1.));
#566=DIRECTION('',(0.707106781186548,0.707106781186547,0.));
#567=DIRECTION('',(0.,0.,1.));
#568=DIRECTION('center_axis',(0.,0.,-1.));
#569=DIRECTION('ref_axis',(0.,1.,0.));
#570=DIRECTION('center_axis',(0.,0.,-1.));
#571=DIRECTION('ref_axis',(0.,1.,0.));
#572=DIRECTION('',(0.,0.,-1.));
#573=DIRECTION('center_axis',(0.707106781186546,-0.707106781186549,0.));
#574=DIRECTION('ref_axis',(0.499999999999997,0.499999999999995,-0.707106781186553));
#575=DIRECTION('',(-0.707106781186546,0.707106781186549,0.));
#576=DIRECTION('',(0.707106781186546,-0.707106781186549,0.));
#577=DIRECTION('center_axis',(0.,0.,1.));
#578=DIRECTION('ref_axis',(1.,0.,0.));
#579=DIRECTION('center_axis',(0.,0.,-1.));
#580=DIRECTION('ref_axis',(1.,0.,0.));
#581=DIRECTION('',(0.,0.,1.));
#582=DIRECTION('',(0.,0.,-1.));
#583=DIRECTION('center_axis',(-0.00765477902514523,0.00765477902514523,
0.999941402641251));
#584=DIRECTION('ref_axis',(0.714587983670887,-0.699461818626337,0.0108248730761067));
#585=DIRECTION('',(0.,0.,1.));
#586=DIRECTION('',(0.,0.,-1.));
#587=DIRECTION('center_axis',(0.,0.,-1.));
#588=DIRECTION('ref_axis',(0.737915312940766,0.674893318182608,0.));
#589=DIRECTION('center_axis',(0.,0.,1.));
#590=DIRECTION('ref_axis',(1.,0.,0.));
#591=DIRECTION('',(0.707106781186546,-0.707106781186549,0.));
#592=DIRECTION('center_axis',(0.707106781186546,-0.707106781186549,0.));
#593=DIRECTION('ref_axis',(-0.500000000000001,-0.499999999999999,-0.707106781186547));
#594=DIRECTION('',(-0.707106781186546,0.707106781186549,0.));
#595=DIRECTION('center_axis',(0.,0.,-1.));
#596=DIRECTION('ref_axis',(-1.,0.,0.));
#597=DIRECTION('center_axis',(0.,0.,1.));
#598=DIRECTION('ref_axis',(0.687297136167714,-0.726376380821719,0.));
#599=DIRECTION('center_axis',(0.,0.,-1.));
#600=DIRECTION('ref_axis',(0.687297136167714,-0.726376380821719,0.));
#601=DIRECTION('center_axis',(0.,0.,1.));
#602=DIRECTION('ref_axis',(-0.707106781186548,-0.707106781186547,0.));
#603=DIRECTION('',(0.707106781186547,-0.707106781186548,0.));
#604=DIRECTION('',(-0.707106781186547,0.707106781186548,0.));
#605=DIRECTION('',(-0.707106781186551,-0.707106781186544,0.));
#606=DIRECTION('',(0.707106781186547,-0.707106781186548,0.));
#607=DIRECTION('center_axis',(0.,0.,-1.));
#608=DIRECTION('ref_axis',(0.72637638082172,-0.687297136167713,0.));
#609=DIRECTION('',(0.707106781186547,-0.707106781186548,0.));
#610=DIRECTION('center_axis',(0.,0.,-1.));
#611=DIRECTION('ref_axis',(-1.,0.,0.));
#612=DIRECTION('center_axis',(0.,0.,-1.));
#613=DIRECTION('ref_axis',(-1.,0.,0.));
#614=DIRECTION('center_axis',(0.,0.,1.));
#615=DIRECTION('ref_axis',(0.72637638082172,-0.687297136167713,0.));
#616=DIRECTION('center_axis',(0.,0.,1.));
#617=DIRECTION('ref_axis',(1.,0.,0.));
#618=DIRECTION('',(0.,0.,1.));
#619=DIRECTION('',(0.,0.,-1.));
#620=DIRECTION('center_axis',(-0.364456478798634,0.364456478798676,0.856938125026172));
#621=DIRECTION('ref_axis',(0.614724468544119,-0.597074665387598,0.515379153367147));
#622=DIRECTION('',(0.,0.,1.));
#623=DIRECTION('',(0.,0.,-1.));
#624=DIRECTION('center_axis',(0.359736560894981,-0.359736560894873,-0.860917657799502));
#625=DIRECTION('ref_axis',(0.601537250638875,-0.615921199793839,0.50871800807357));
#626=DIRECTION('center_axis',(-0.707106781186551,-0.707106781186544,0.));
#627=DIRECTION('ref_axis',(0.49745637249929,-0.497456372499295,0.710685806049122));
#628=DIRECTION('center_axis',(0.707106781186549,0.707106781186546,-8.17822029584475E-15));
#629=DIRECTION('ref_axis',(-5.78287502922928E-15,-5.78287502922927E-15,
-1.));
#630=DIRECTION('',(0.707106781186551,0.707106781186544,0.));
#631=DIRECTION('center_axis',(-0.707106781186549,-0.707106781186546,8.17822029584475E-15));
#632=DIRECTION('ref_axis',(-5.78287502922928E-15,-5.78287502922927E-15,
-1.));
#633=DIRECTION('center_axis',(0.707106781186551,0.707106781186544,0.));
#634=DIRECTION('ref_axis',(0.353553390593274,-0.353553390593278,-0.866025403784437));
#635=DIRECTION('center_axis',(-0.707106781186548,-0.707106781186547,-4.87273293748049E-31));
#636=DIRECTION('ref_axis',(0.353553390593276,-0.353553390593276,-0.866025403784437));
#637=DIRECTION('center_axis',(0.707106781186548,0.707106781186547,4.87273293748049E-31));
#638=DIRECTION('ref_axis',(0.353553390593276,-0.353553390593276,-0.866025403784437));
#639=DIRECTION('center_axis',(0.,0.,-1.));
#640=DIRECTION('ref_axis',(-1.,0.,0.));
#641=DIRECTION('',(0.,0.,-1.));
#642=DIRECTION('center_axis',(-0.707106781186548,-0.707106781186547,-4.87273293748049E-31));
#643=DIRECTION('ref_axis',(0.707106781186547,-0.707106781186548,0.));
#644=DIRECTION('',(1.21682165547992E-15,-3.92523114670963E-17,-1.));
#645=DIRECTION('center_axis',(-0.707106781186549,-0.707106781186546,8.17822029584475E-15));
#646=DIRECTION('ref_axis',(-5.78287502922928E-15,-5.78287502922927E-15,
-1.));
#647=DIRECTION('center_axis',(-0.707106781186551,-0.707106781186544,0.));
#648=DIRECTION('ref_axis',(2.12992444409672E-29,-2.12992444409674E-29,-1.));
#649=DIRECTION('',(-0.707106781186551,-0.707106781186544,0.));
#650=DIRECTION('center_axis',(0.707106781186549,0.707106781186546,-8.17822029584475E-15));
#651=DIRECTION('ref_axis',(-5.78287502922928E-15,-5.78287502922927E-15,
-1.));
#652=DIRECTION('center_axis',(-0.707106781186548,-0.707106781186547,-4.87273293748049E-31));
#653=DIRECTION('ref_axis',(0.707106781186547,-0.707106781186548,0.));
#654=DIRECTION('',(-1.21682165547992E-15,3.92523114670963E-17,1.));
#655=DIRECTION('center_axis',(-0.707106781186548,-0.707106781186547,-4.87273293748049E-31));
#656=DIRECTION('ref_axis',(0.707106781186547,-0.707106781186548,0.));
#657=DIRECTION('center_axis',(-0.707106781186544,0.707106781186551,-8.88178419700121E-16));
#658=DIRECTION('ref_axis',(1.21682165547992E-15,-3.92523114670981E-17,-1.));
#659=DIRECTION('center_axis',(-0.707106781186548,-0.707106781186547,-4.87273293748049E-31));
#660=DIRECTION('ref_axis',(0.707106781186547,-0.707106781186548,0.));
#661=DIRECTION('center_axis',(-0.707106781186549,-0.707106781186546,0.));
#662=DIRECTION('ref_axis',(0.,0.,-1.));
#663=DIRECTION('center_axis',(0.707106781186549,0.707106781186546,0.));
#664=DIRECTION('ref_axis',(0.,0.,1.));
#665=CARTESIAN_POINT('',(0.,0.,0.));
#666=CARTESIAN_POINT('Origin',(32.5269119345812,-34.6482322781408,88.5));
#667=CARTESIAN_POINT('',(31.8198051533947,-35.3553390593273,90.));
#668=CARTESIAN_POINT('',(31.8198051533947,-33.9411254969542,90.));
#669=CARTESIAN_POINT('Origin',(32.5269119345812,-34.6482322781408,90.));
#670=CARTESIAN_POINT('',(31.8198051533947,-33.9411254969542,88.));
#671=CARTESIAN_POINT('',(31.8198051533947,-33.9411254969542,88.5));
#672=CARTESIAN_POINT('',(31.8198051533947,-35.3553390593274,88.));
#673=CARTESIAN_POINT('Origin',(32.5269119345812,-34.6482322781408,88.));
#674=CARTESIAN_POINT('',(31.8198051533947,-35.3553390593273,88.5));
#675=CARTESIAN_POINT('Origin',(31.1126983722081,-34.6482322781408,88.));
#676=CARTESIAN_POINT('',(33.9411254969543,-31.8198051533946,88.));
#677=CARTESIAN_POINT('',(34.6482322781409,-31.1126983722081,88.));
#678=CARTESIAN_POINT('',(35.3553390593274,-31.8198051533946,88.));
#679=CARTESIAN_POINT('Origin',(34.6482322781409,-32.5269119345812,88.));
#680=CARTESIAN_POINT('',(41.397049055977,-37.8615151500442,88.));
#681=CARTESIAN_POINT('',(34.6482322781409,-31.1126983722081,88.));
#682=CARTESIAN_POINT('',(40.0906856365822,-39.2421574991583,88.));
#683=CARTESIAN_POINT('Origin',(0.,0.,88.));
#684=CARTESIAN_POINT('',(40.0535461717226,-39.2050180342987,88.));
#685=CARTESIAN_POINT('',(35.8758170648287,-35.0272889274047,88.));
#686=CARTESIAN_POINT('',(39.2050180342987,-40.0535461717225,88.));
#687=CARTESIAN_POINT('',(38.7453986265275,-40.5131655794938,88.));
#688=CARTESIAN_POINT('',(39.2421574991583,-40.0906856365821,88.));
#689=CARTESIAN_POINT('',(35.0272889274048,-35.8758170648286,88.));
#690=CARTESIAN_POINT('',(37.8615151500443,-41.397049055977,88.));
#691=CARTESIAN_POINT('Origin',(0.,0.,88.));
#692=CARTESIAN_POINT('',(31.1126983722081,-34.6482322781408,88.));
#693=CARTESIAN_POINT('',(36.1017856687342,-35.0017856687341,88.));
#694=CARTESIAN_POINT('Origin',(35.0017856687342,-35.0017856687341,88.));
#695=CARTESIAN_POINT('Origin',(32.8804653251745,-32.8804653251744,89.));
#696=CARTESIAN_POINT('',(33.9411254969543,-31.8198051533946,90.));
#697=CARTESIAN_POINT('',(31.1126983722081,-34.6482322781408,90.));
#698=CARTESIAN_POINT('',(33.9411254969543,-31.8198051533946,83.5));
#699=CARTESIAN_POINT('Origin',(34.6482322781409,-32.5269119345812,83.5));
#700=CARTESIAN_POINT('',(35.3553390593274,-31.8198051533946,90.));
#701=CARTESIAN_POINT('Origin',(34.6482322781409,-32.5269119345812,90.));
#702=CARTESIAN_POINT('',(35.3553390593274,-31.8198051533946,83.5));
#703=CARTESIAN_POINT('Origin',(40.6899422747905,-38.5686219312308,79.));
#704=CARTESIAN_POINT('',(42.8112626183501,-39.2757287124174,79.));
#705=CARTESIAN_POINT('',(42.1293816746129,-40.0080613310532,78.));
#706=CARTESIAN_POINT('Ctrl Pts',(42.8112626183501,-39.2757287124173,79.));
#707=CARTESIAN_POINT('Ctrl Pts',(42.8112626183501,-39.2757287124173,78.8744349469427));
#708=CARTESIAN_POINT('Ctrl Pts',(42.7943217018995,-39.2942776854377,78.7405101495728));
#709=CARTESIAN_POINT('Ctrl Pts',(42.7252929397837,-39.3695468935235,78.4941630114925));
#710=CARTESIAN_POINT('Ctrl Pts',(42.6731885502675,-39.4262494260331,78.381739898259));
#711=CARTESIAN_POINT('Ctrl Pts',(42.5525944859529,-39.5567293604512,78.2041622033032));
#712=CARTESIAN_POINT('Ctrl Pts',(42.4760483178058,-39.6392174495454,78.1271849954133));
#713=CARTESIAN_POINT('Ctrl Pts',(42.307666102417,-39.8193009208459,78.0251037329504));
#714=CARTESIAN_POINT('Ctrl Pts',(42.2158123713594,-39.9168799497827,78.));
#715=CARTESIAN_POINT('Ctrl Pts',(42.1293816746129,-40.0080613310532,78.));
#716=CARTESIAN_POINT('',(40.7151681122398,-38.5938477686801,78.));
#717=CARTESIAN_POINT('',(40.6899422747905,-38.5686219312308,78.));
#718=CARTESIAN_POINT('',(41.397049055977,-37.8615151500442,79.));
#719=CARTESIAN_POINT('Ctrl Pts',(40.7151681122398,-38.5938477686801,78.));
#720=CARTESIAN_POINT('Ctrl Pts',(40.8015988089863,-38.5026663874096,78.));
#721=CARTESIAN_POINT('Ctrl Pts',(40.8934525400439,-38.4050873584728,78.0251037329504));
#722=CARTESIAN_POINT('Ctrl Pts',(41.0618347554327,-38.2250038871723,78.1271849954133));
#723=CARTESIAN_POINT('Ctrl Pts',(41.1383809235798,-38.1425157980782,78.2041622033032));
#724=CARTESIAN_POINT('Ctrl Pts',(41.2589749878944,-38.01203586366,78.381739898259));
#725=CARTESIAN_POINT('Ctrl Pts',(41.3110793774106,-37.9553333311504,78.4941630114925));
#726=CARTESIAN_POINT('Ctrl Pts',(41.3801081395264,-37.8800641230646,78.7405101495728));
#727=CARTESIAN_POINT('Ctrl Pts',(41.397049055977,-37.8615151500443,78.8744349469427));
#728=CARTESIAN_POINT('Ctrl Pts',(41.397049055977,-37.8615151500443,79.));
#729=CARTESIAN_POINT('',(41.397049055977,-37.8615151500443,79.));
#730=CARTESIAN_POINT('Origin',(0.,0.,0.));
#731=CARTESIAN_POINT('',(38.5938477686801,-40.7151681122397,78.));
#732=CARTESIAN_POINT('Origin',(0.,0.,78.));
#733=CARTESIAN_POINT('',(37.8615151500443,-41.397049055977,79.));
#734=CARTESIAN_POINT('Ctrl Pts',(37.8615151500444,-41.397049055977,79.));
#735=CARTESIAN_POINT('Ctrl Pts',(37.8615151500444,-41.397049055977,78.8744153519027));
#736=CARTESIAN_POINT('Ctrl Pts',(37.8800698688781,-41.3801028977849,78.7404709980353));
#737=CARTESIAN_POINT('Ctrl Pts',(37.9553606368549,-41.3110543078689,78.4940939982904));
#738=CARTESIAN_POINT('Ctrl Pts',(38.0120789736965,-41.2589353226301,78.3816605794965));
#739=CARTESIAN_POINT('Ctrl Pts',(38.1425739907705,-41.1383269611502,78.2041036777423));
#740=CARTESIAN_POINT('Ctrl Pts',(38.2250543974872,-41.0617876898022,78.1271479665583));
#741=CARTESIAN_POINT('Ctrl Pts',(38.40511587822,-40.8934257106651,78.0250959668857));
#742=CARTESIAN_POINT('Ctrl Pts',(38.5026806082533,-40.8015853290695,78.));
#743=CARTESIAN_POINT('Ctrl Pts',(38.5938477686802,-40.7151681122397,78.));
#744=CARTESIAN_POINT('',(37.8615151500443,-41.397049055977,0.));
#745=CARTESIAN_POINT('',(39.2421574991583,-40.0906856365822,83.0002758755807));
#746=CARTESIAN_POINT('',(39.2421574991583,-40.0906856365821,0.));
#747=CARTESIAN_POINT('',(40.0906856365821,-39.2421574991583,83.0002758755807));
#748=CARTESIAN_POINT('Origin',(0.00464869186175498,-0.00464869185905492,
82.3930360787099));
#749=CARTESIAN_POINT('',(40.0906856365822,-39.2421574991583,0.));
#750=CARTESIAN_POINT('',(41.397049055977,-37.8615151500442,0.));
#751=CARTESIAN_POINT('',(40.47335571104,-38.8473631035569,80.9999991772222));
#752=CARTESIAN_POINT('Ctrl Pts',(40.47335571104,-38.8473631035569,80.9999991772222));
#753=CARTESIAN_POINT('Ctrl Pts',(40.4730698906358,-38.8476643753399,81.1260215450077));
#754=CARTESIAN_POINT('Ctrl Pts',(40.4580897753355,-38.8632740833573,81.2486650795971));
#755=CARTESIAN_POINT('Ctrl Pts',(40.4031457942144,-38.9204051097078,81.4965476830744));
#756=CARTESIAN_POINT('Ctrl Pts',(40.3484380089074,-38.9771901658366,81.6326981044694));
#757=CARTESIAN_POINT('Ctrl Pts',(40.2164745130585,-39.1133664862653,81.8599338204534));
#758=CARTESIAN_POINT('Ctrl Pts',(40.1275887420903,-39.2046090401695,81.9562221495918));
#759=CARTESIAN_POINT('Ctrl Pts',(39.9486587467219,-39.3869601428222,82.0899655052092));
#760=CARTESIAN_POINT('Ctrl Pts',(39.8420315305329,-39.4948331552659,82.1316613519232));
#761=CARTESIAN_POINT('Ctrl Pts',(39.6331157855605,-39.7045436302539,82.159829208908));
#762=CARTESIAN_POINT('Ctrl Pts',(39.5212138577515,-39.8158396155363,82.138931611033));
#763=CARTESIAN_POINT('Ctrl Pts',(39.3355726913335,-39.999241820507,82.0586566084435));
#764=CARTESIAN_POINT('Ctrl Pts',(39.2410829896265,-40.0919459676404,81.9936168928181));
#765=CARTESIAN_POINT('Ctrl Pts',(39.0611888531732,-40.2672120697375,81.7876689299525));
#766=CARTESIAN_POINT('Ctrl Pts',(38.99123958534,-40.3348176492734,81.6619360228832));
#767=CARTESIAN_POINT('Ctrl Pts',(38.9238470161281,-40.3998134823484,81.4865777075261));
#768=CARTESIAN_POINT('Ctrl Pts',(38.8949481491612,-40.4276400742852,81.4083403693358));
#769=CARTESIAN_POINT('Ctrl Pts',(38.8555773128795,-40.4654740316157,81.1848924689829));
#770=CARTESIAN_POINT('Ctrl Pts',(38.8471820916261,-40.4735276883551,81.0917995916615));
#771=CARTESIAN_POINT('Ctrl Pts',(38.8471820916261,-40.4735276883551,81.));
#772=CARTESIAN_POINT('Ctrl Pts',(38.8471820916261,-40.4735276883551,80.8784603941277));
#773=CARTESIAN_POINT('Ctrl Pts',(38.8606296079919,-40.4606675561594,80.7314281671937));
#774=CARTESIAN_POINT('Ctrl Pts',(38.94250378449,-40.3818501335808,80.4484381420421));
#775=CARTESIAN_POINT('Ctrl Pts',(38.9978709822474,-40.328475082053,80.3233155120685));
#776=CARTESIAN_POINT('Ctrl Pts',(39.1463831828984,-40.1843537932675,80.1003470037375));
#777=CARTESIAN_POINT('Ctrl Pts',(39.2444102156281,-40.0886434705674,80.0093029637925));
#778=CARTESIAN_POINT('Ctrl Pts',(39.4239779121037,-39.9121393102808,79.8924060021044));
#779=CARTESIAN_POINT('Ctrl Pts',(39.5334093729423,-39.80370896171,79.8594050937853));
#780=CARTESIAN_POINT('Ctrl Pts',(39.735131295132,-39.6024598026863,79.8424914370019));
#781=CARTESIAN_POINT('Ctrl Pts',(39.8475626183207,-39.4891985232008,79.871121866827));
#782=CARTESIAN_POINT('Ctrl Pts',(40.0341919595722,-39.3000501175503,79.9625107405575));
#783=CARTESIAN_POINT('Ctrl Pts',(40.1280242099502,-39.2041019658372,80.0449606322351));
#784=CARTESIAN_POINT('Ctrl Pts',(40.2814444063497,-39.0465068474904,80.23468971044));
#785=CARTESIAN_POINT('Ctrl Pts',(40.3470790316649,-38.9785431877344,80.3651630519));
#786=CARTESIAN_POINT('Ctrl Pts',(40.4312840597365,-38.8911945633283,80.6057641300317));
#787=CARTESIAN_POINT('Ctrl Pts',(40.4615661706369,-38.8596428388643,80.7466913114787));
#788=CARTESIAN_POINT('Ctrl Pts',(40.4726131508521,-38.8481349803212,80.9380229350423));
#789=CARTESIAN_POINT('Ctrl Pts',(40.4734257623511,-38.8472892652897,80.9691125366873));
#790=CARTESIAN_POINT('Ctrl Pts',(40.47335571104,-38.8473631035569,80.9999991772222));
#791=CARTESIAN_POINT('Origin',(37.8615151500443,-41.397049055977,78.));
#792=CARTESIAN_POINT('',(40.0080613310532,-42.1293816746128,78.));
#793=CARTESIAN_POINT('Origin',(1.41421356237309,-1.4142135623731,78.));
#794=CARTESIAN_POINT('',(38.5686219312309,-40.6899422747904,78.));
#795=CARTESIAN_POINT('Origin',(38.5686219312309,-40.6899422747904,79.));
#796=CARTESIAN_POINT('',(39.2757287124174,-42.8112626183501,79.));
#797=CARTESIAN_POINT('Ctrl Pts',(40.0080613310533,-42.1293816746128,78.));
#798=CARTESIAN_POINT('Ctrl Pts',(39.9168799497828,-42.2158123713593,78.));
#799=CARTESIAN_POINT('Ctrl Pts',(39.819300920846,-42.3076661024169,78.0251037329504));
#800=CARTESIAN_POINT('Ctrl Pts',(39.6392174495455,-42.4760483178057,78.1271849954133));
#801=CARTESIAN_POINT('Ctrl Pts',(39.5567293604513,-42.5525944859528,78.2041622033032));
#802=CARTESIAN_POINT('Ctrl Pts',(39.4262494260332,-42.6731885502674,78.381739898259));
#803=CARTESIAN_POINT('Ctrl Pts',(39.3695468935236,-42.7252929397836,78.4941630114925));
#804=CARTESIAN_POINT('Ctrl Pts',(39.2942776854378,-42.7943217018994,78.7405101495728));
#805=CARTESIAN_POINT('Ctrl Pts',(39.2757287124174,-42.81126261835,78.8744349469427));
#806=CARTESIAN_POINT('Ctrl Pts',(39.2757287124174,-42.81126261835,79.));
#807=CARTESIAN_POINT('',(37.8615151500443,-41.397049055977,79.));
#808=CARTESIAN_POINT('Origin',(1.41421356237309,-1.4142135623731,89.));
#809=CARTESIAN_POINT('',(38.5679059859512,-42.1034398918839,90.));
#810=CARTESIAN_POINT('',(39.2757287124174,-42.8112626183501,89.));
#811=CARTESIAN_POINT('Ctrl Pts',(38.5679059859512,-42.1034398918839,90.));
#812=CARTESIAN_POINT('Ctrl Pts',(38.6552904776168,-42.1908243835495,90.));
#813=CARTESIAN_POINT('Ctrl Pts',(38.7581399863277,-42.2936738922605,89.9710901514925));
#814=CARTESIAN_POINT('Ctrl Pts',(38.9195760208294,-42.4551099267621,89.8765788573503));
#815=CARTESIAN_POINT('Ctrl Pts',(39.0067386369749,-42.5422725429076,89.7942772844497));
#816=CARTESIAN_POINT('Ctrl Pts',(39.1302513771107,-42.6657852830434,89.6197098849649));
#817=CARTESIAN_POINT('Ctrl Pts',(39.1884716260315,-42.7240055319642,89.4965778079764));
#818=CARTESIAN_POINT('Ctrl Pts',(39.2552910727797,-42.7908249787124,89.2685739124319));
#819=CARTESIAN_POINT('Ctrl Pts',(39.2757287124174,-42.8112626183501,89.1233739405571));
#820=CARTESIAN_POINT('Ctrl Pts',(39.2757287124174,-42.8112626183501,89.));
#821=CARTESIAN_POINT('',(40.6563710615314,-41.5048991989552,89.));
#822=CARTESIAN_POINT('Origin',(1.41421356237309,-1.4142135623731,89.));
#823=CARTESIAN_POINT('',(39.9492231008526,-40.7977512382764,90.));
#824=CARTESIAN_POINT('Ctrl Pts',(39.9492231008526,-40.7977512382764,90.));
#825=CARTESIAN_POINT('Ctrl Pts',(40.0364964407417,-40.8850245781654,90.));
#826=CARTESIAN_POINT('Ctrl Pts',(40.1392123018746,-40.9877404392984,89.971106834598));
#827=CARTESIAN_POINT('Ctrl Pts',(40.3004707137921,-41.1489988512159,89.8766470489946));
#828=CARTESIAN_POINT('Ctrl Pts',(40.3875473502961,-41.2360754877199,89.7943678117419));
#829=CARTESIAN_POINT('Ctrl Pts',(40.5109666055142,-41.359494742938,89.6198327237646));
#830=CARTESIAN_POINT('Ctrl Pts',(40.5691482069014,-41.4176763443252,89.4966954983638));
#831=CARTESIAN_POINT('Ctrl Pts',(40.6359407792691,-41.4844689166929,89.2686589856102));
#832=CARTESIAN_POINT('Ctrl Pts',(40.6563710615314,-41.5048991989552,89.1234112698543));
#833=CARTESIAN_POINT('Ctrl Pts',(40.6563710615314,-41.5048991989552,89.));
#834=CARTESIAN_POINT('Origin',(1.41421356237309,-1.4142135623731,90.));
#835=CARTESIAN_POINT('Origin',(34.6482322781409,-31.1126983722081,90.));
#836=CARTESIAN_POINT('',(31.1126983722081,-34.6482322781408,90.));
#837=CARTESIAN_POINT('',(35.530783420124,-36.3793115575478,90.));
#838=CARTESIAN_POINT('',(35.0272889274048,-35.8758170648286,90.));
#839=CARTESIAN_POINT('',(36.3793115575478,-35.5307834201239,90.));
#840=CARTESIAN_POINT('',(35.9550474888359,-35.9550474888358,90.));
#841=CARTESIAN_POINT('',(40.7977512382764,-39.9492231008525,90.));
#842=CARTESIAN_POINT('',(35.8758170648287,-35.0272889274047,90.));
#843=CARTESIAN_POINT('',(42.1034398918839,-38.5679059859512,90.));
#844=CARTESIAN_POINT('Origin',(1.41421356237309,-1.4142135623731,90.));
#845=CARTESIAN_POINT('',(34.6482322781409,-31.1126983722081,90.));
#846=CARTESIAN_POINT('',(36.1017856687342,-35.0017856687341,90.));
#847=CARTESIAN_POINT('Origin',(35.0017856687342,-35.0017856687341,90.));
#848=CARTESIAN_POINT('Origin',(1.41421356237309,-1.4142135623731,89.));
#849=CARTESIAN_POINT('',(42.8112626183501,-39.2757287124174,89.));
#850=CARTESIAN_POINT('Ctrl Pts',(42.8112626183501,-39.2757287124173,89.));
#851=CARTESIAN_POINT('Ctrl Pts',(42.8112626183501,-39.2757287124173,89.1233739405571));
#852=CARTESIAN_POINT('Ctrl Pts',(42.7908249787125,-39.2552910727797,89.2685739124319));
#853=CARTESIAN_POINT('Ctrl Pts',(42.7240055319642,-39.1884716260314,89.4965778079764));
#854=CARTESIAN_POINT('Ctrl Pts',(42.6657852830434,-39.1302513771106,89.6197098849649));
#855=CARTESIAN_POINT('Ctrl Pts',(42.5422725429076,-39.0067386369748,89.7942772844497));
#856=CARTESIAN_POINT('Ctrl Pts',(42.4551099267621,-38.9195760208293,89.8765788573503));
#857=CARTESIAN_POINT('Ctrl Pts',(42.2936738922605,-38.7581399863277,89.9710901514925));
#858=CARTESIAN_POINT('Ctrl Pts',(42.1908243835495,-38.6552904776167,90.));
#859=CARTESIAN_POINT('Ctrl Pts',(42.1034398918839,-38.5679059859511,90.));
#860=CARTESIAN_POINT('',(41.5048991989553,-40.6563710615314,89.));
#861=CARTESIAN_POINT('Ctrl Pts',(41.5048991989553,-40.6563710615314,89.));
#862=CARTESIAN_POINT('Ctrl Pts',(41.5048991989553,-40.6563710615314,89.1234112698543));
#863=CARTESIAN_POINT('Ctrl Pts',(41.484468916693,-40.6359407792691,89.2686589856102));
#864=CARTESIAN_POINT('Ctrl Pts',(41.4176763443253,-40.5691482069014,89.4966954983638));
#865=CARTESIAN_POINT('Ctrl Pts',(41.3594947429381,-40.5109666055142,89.6198327237646));
#866=CARTESIAN_POINT('Ctrl Pts',(41.23607548772,-40.3875473502961,89.7943678117419));
#867=CARTESIAN_POINT('Ctrl Pts',(41.1489988512159,-40.300470713792,89.8766470489946));
#868=CARTESIAN_POINT('Ctrl Pts',(40.9877404392985,-40.1392123018746,89.971106834598));
#869=CARTESIAN_POINT('Ctrl Pts',(40.8850245781655,-40.0364964407416,90.));
#870=CARTESIAN_POINT('Ctrl Pts',(40.7977512382764,-39.9492231008525,90.));
#871=CARTESIAN_POINT('Origin',(1.41421356237309,-1.4142135623731,89.));
#872=CARTESIAN_POINT('Origin',(1.41421356237309,-1.4142135623731,0.));
#873=CARTESIAN_POINT('',(42.8112626183501,-39.2757287124174,0.));
#874=CARTESIAN_POINT('',(41.5048991989553,-40.6563710615314,82.834494053179));
#875=CARTESIAN_POINT('',(41.5048991989553,-40.6563710615314,0.));
#876=CARTESIAN_POINT('',(40.6563710615314,-41.5048991989552,82.834494053179));
#877=CARTESIAN_POINT('Origin',(11.9515379691155,-11.9515379691116,58.0572368116363));
#878=CARTESIAN_POINT('',(40.6563710615314,-41.5048991989552,0.));
#879=CARTESIAN_POINT('',(39.2757287124174,-42.8112626183501,0.));
#880=CARTESIAN_POINT('',(41.8875692734131,-40.26157666593,80.9999991772222));
#881=CARTESIAN_POINT('Ctrl Pts',(41.8875692734131,-40.26157666593,80.9999991772222));
#882=CARTESIAN_POINT('Ctrl Pts',(41.8876393247242,-40.2615028276628,80.9691125366869));
#883=CARTESIAN_POINT('Ctrl Pts',(41.8868267132252,-40.2623485426943,80.9380229350415));
#884=CARTESIAN_POINT('Ctrl Pts',(41.8757797330099,-40.2738564012376,80.7466913114784));
#885=CARTESIAN_POINT('Ctrl Pts',(41.8454976221096,-40.3054081257013,80.6057641300316));
#886=CARTESIAN_POINT('Ctrl Pts',(41.7612925940382,-40.3927567501072,80.3651630519007));
#887=CARTESIAN_POINT('Ctrl Pts',(41.695657968723,-40.4607204098633,80.2346897104404));
#888=CARTESIAN_POINT('Ctrl Pts',(41.5422377723236,-40.61831552821,80.0449606322354));
#889=CARTESIAN_POINT('Ctrl Pts',(41.4484055219456,-40.714263679923,79.9625107405577));
#890=CARTESIAN_POINT('Ctrl Pts',(41.2617761806942,-40.9034120855735,79.8711218668271));
#891=CARTESIAN_POINT('Ctrl Pts',(41.1493448575055,-41.016673365059,79.8424914370019));
#892=CARTESIAN_POINT('Ctrl Pts',(40.9476229353158,-41.2179225240827,79.8594050937852));
#893=CARTESIAN_POINT('Ctrl Pts',(40.8381914744771,-41.3263528726536,79.8924060021042));
#894=CARTESIAN_POINT('Ctrl Pts',(40.6586237779998,-41.5028570329419,80.0093029637934));
#895=CARTESIAN_POINT('Ctrl Pts',(40.5605967452709,-41.5985673556412,80.1003470037383));
#896=CARTESIAN_POINT('Ctrl Pts',(40.4120845446201,-41.7426886444265,80.3233155120691));
#897=CARTESIAN_POINT('Ctrl Pts',(40.356717346863,-41.796063695954,80.4484381420426));
#898=CARTESIAN_POINT('Ctrl Pts',(40.274843170365,-41.8748811185325,80.7314281671936));
#899=CARTESIAN_POINT('Ctrl Pts',(40.2613956539992,-41.8877412507282,80.8784603941277));
#900=CARTESIAN_POINT('Ctrl Pts',(40.2613956539992,-41.8877412507282,81.));
#901=CARTESIAN_POINT('Ctrl Pts',(40.2613956539992,-41.8877412507282,81.0917995916615));
#902=CARTESIAN_POINT('Ctrl Pts',(40.2697908752526,-41.8796875939887,81.1848924689829));
#903=CARTESIAN_POINT('Ctrl Pts',(40.3091617115343,-41.8418536366583,81.4083403693356));
#904=CARTESIAN_POINT('Ctrl Pts',(40.3380605785012,-41.8140270447215,81.486577707526));
#905=CARTESIAN_POINT('Ctrl Pts',(40.405453147713,-41.7490312116466,81.6619360228829));
#906=CARTESIAN_POINT('Ctrl Pts',(40.475402415546,-41.6814256321109,81.7876689299522));
#907=CARTESIAN_POINT('Ctrl Pts',(40.6552965519989,-41.5061595300141,81.9936168928175));
#908=CARTESIAN_POINT('Ctrl Pts',(40.749786253706,-41.4134553828807,82.0586566084432));
#909=CARTESIAN_POINT('Ctrl Pts',(40.9354274201241,-41.2300531779099,82.1389316110329));
#910=CARTESIAN_POINT('Ctrl Pts',(41.0473293479331,-41.1187571926276,82.159829208908));
#911=CARTESIAN_POINT('Ctrl Pts',(41.2562450929054,-40.9090467176397,82.1316613519234));
#912=CARTESIAN_POINT('Ctrl Pts',(41.3628723090943,-40.801173705196,82.0899655052095));
#913=CARTESIAN_POINT('Ctrl Pts',(41.541802304463,-40.618822602543,81.9562221495922));
#914=CARTESIAN_POINT('Ctrl Pts',(41.6306880754314,-40.5275800486385,81.8599338204537));
#915=CARTESIAN_POINT('Ctrl Pts',(41.7626515712808,-40.3914037282094,81.6326981044688));
#916=CARTESIAN_POINT('Ctrl Pts',(41.8173593565877,-40.3346186720806,81.4965476830737));
#917=CARTESIAN_POINT('Ctrl Pts',(41.8723033377087,-40.2774876457304,81.2486650795964));
#918=CARTESIAN_POINT('Ctrl Pts',(41.8872834530089,-40.261877937713,81.1260215450074));
#919=CARTESIAN_POINT('Ctrl Pts',(41.8875692734131,-40.26157666593,80.9999991772222));
#920=CARTESIAN_POINT('Ctrl Pts',(41.5048991989553,-40.6563710615314,82.834494053179));
#921=CARTESIAN_POINT('Ctrl Pts',(41.2250958792069,-40.9422245325681,82.8370671874233));
#922=CARTESIAN_POINT('Ctrl Pts',(40.9422245325682,-41.2250958792068,82.8370671874233));
#923=CARTESIAN_POINT('Ctrl Pts',(40.6563710615314,-41.5048991989552,82.834494053179));
#924=CARTESIAN_POINT('Ctrl Pts',(41.5064275001561,-40.6548097140697,83.1801886480669));
#925=CARTESIAN_POINT('Ctrl Pts',(41.2256364019261,-40.941708861807,83.1824689900943));
#926=CARTESIAN_POINT('Ctrl Pts',(40.9417088618071,-41.225636401926,83.1824689900943));
#927=CARTESIAN_POINT('Ctrl Pts',(40.6548097140698,-41.506427500156,83.1801886480669));
#928=CARTESIAN_POINT('Ctrl Pts',(41.6463216463174,-40.7887416647708,83.5195516071608));
#929=CARTESIAN_POINT('Ctrl Pts',(41.363320775868,-41.0774129277619,83.5215696026487));
#930=CARTESIAN_POINT('Ctrl Pts',(41.077412927762,-41.3633207758679,83.5215696026487));
#931=CARTESIAN_POINT('Ctrl Pts',(40.7887416647709,-41.6463216463174,83.5195516071608));
#932=CARTESIAN_POINT('Ctrl Pts',(41.8597916155443,-40.9961381993784,83.6954117109825));
#933=CARTESIAN_POINT('Ctrl Pts',(41.5744875479119,-41.2865739312795,83.6975559895194));
#934=CARTESIAN_POINT('Ctrl Pts',(41.2865739312796,-41.5744875479118,83.6975559895194));
#935=CARTESIAN_POINT('Ctrl Pts',(40.9961381993785,-41.8597916155443,83.6954117109825));
#936=CARTESIAN_POINT('',(41.8522957928915,-41.0037676554723,83.6954675509774));
#937=CARTESIAN_POINT('Ctrl Pts',(41.5048991989553,-40.6563710615314,82.834494053179));
#938=CARTESIAN_POINT('Ctrl Pts',(41.5048991989553,-40.6563710615314,82.8778928553548));
#939=CARTESIAN_POINT('Ctrl Pts',(41.5070541021752,-40.6585259647513,82.9210552713148));
#940=CARTESIAN_POINT('Ctrl Pts',(41.5112174320168,-40.6626892945929,82.9637660683214));
#941=CARTESIAN_POINT('Ctrl Pts',(41.5155202574924,-40.6669921200685,83.0079079241026));
#942=CARTESIAN_POINT('Ctrl Pts',(41.5219685408184,-40.6734404033946,83.0515683746099));
#943=CARTESIAN_POINT('Ctrl Pts',(41.530440368438,-40.6819122310141,83.0945063733577));
#944=CARTESIAN_POINT('Ctrl Pts',(41.5383661335197,-40.6898379960958,83.1346767482088));
#945=CARTESIAN_POINT('Ctrl Pts',(41.5480636182278,-40.6995354808039,83.1742154473549));
#946=CARTESIAN_POINT('Ctrl Pts',(41.5594603148668,-40.7109321774429,83.212910589444));
#947=CARTESIAN_POINT('Ctrl Pts',(41.5716217393216,-40.7230936018977,83.2542022077253));
#948=CARTESIAN_POINT('Ctrl Pts',(41.5856451104007,-40.7371169729768,83.2942873180601));
#949=CARTESIAN_POINT('Ctrl Pts',(41.6014073183192,-40.7528791808953,83.3329279161606));
#950=CARTESIAN_POINT('Ctrl Pts',(41.6171495202485,-40.7686213828246,83.3715194701554));
#951=CARTESIAN_POINT('Ctrl Pts',(41.6346265664219,-40.786098428998,83.4086711763185));
#952=CARTESIAN_POINT('Ctrl Pts',(41.6537478578475,-40.8052197204236,83.4441223214986));
#953=CARTESIAN_POINT('Ctrl Pts',(41.6617395794855,-40.8132114420617,83.4589390866281));
#954=CARTESIAN_POINT('Ctrl Pts',(41.6700188692447,-40.8214907318209,83.4734584253802));
#955=CARTESIAN_POINT('Ctrl Pts',(41.6785805119866,-40.8300523745627,83.4876594339021));
#956=CARTESIAN_POINT('Ctrl Pts',(41.6991049940004,-40.8505768565765,83.5217029408286));
#957=CARTESIAN_POINT('Ctrl Pts',(41.7211390862145,-40.8726109487906,83.5537349651783));
#958=CARTESIAN_POINT('Ctrl Pts',(41.7445805955378,-40.8960524581139,83.5835067066797));
#959=CARTESIAN_POINT('Ctrl Pts',(41.7673710102602,-40.9188428728364,83.6124515295777));
#960=CARTESIAN_POINT('Ctrl Pts',(41.7914922342437,-40.9429640968198,83.639260635695));
#961=CARTESIAN_POINT('Ctrl Pts',(41.8168742493755,-40.9683461119516,83.6636705797201));
#962=CARTESIAN_POINT('Ctrl Pts',(41.8284219398901,-40.9798938024662,83.6747760210185));
#963=CARTESIAN_POINT('Ctrl Pts',(41.8402308833918,-40.9917027459679,83.6853843212337));
#964=CARTESIAN_POINT('Ctrl Pts',(41.8522957928597,-41.0037676554359,83.6954675500161));
#965=CARTESIAN_POINT('',(41.0037676554722,-41.8522957928915,83.6954675509774));
#966=CARTESIAN_POINT('Origin',(5.51829163066676,-5.51829163066484,53.6855211008326));
#967=CARTESIAN_POINT('Ctrl Pts',(41.0037676554359,-41.8522957928597,83.695467550016));
#968=CARTESIAN_POINT('Ctrl Pts',(40.977345869495,-41.8258740069188,83.6733855846942));
#969=CARTESIAN_POINT('Ctrl Pts',(40.952164333164,-41.8006924705879,83.6488001509613));
#970=CARTESIAN_POINT('Ctrl Pts',(40.9282796060319,-41.7768077434557,83.6219990530068));
#971=CARTESIAN_POINT('Ctrl Pts',(40.9035954763051,-41.7521236137289,83.5943009438732));
#972=CARTESIAN_POINT('Ctrl Pts',(40.8802959116483,-41.7288240490721,83.5642356443623));
#973=CARTESIAN_POINT('Ctrl Pts',(40.8584656988705,-41.7069938362943,83.5320741683328));
#974=CARTESIAN_POINT('Ctrl Pts',(40.8380370419856,-41.6865651794094,83.5019775419093));
#975=CARTESIAN_POINT('Ctrl Pts',(40.8188950478105,-41.6674231852343,83.4700441655338));
#976=CARTESIAN_POINT('Ctrl Pts',(40.8011319615644,-41.6496600989882,83.4364702489889));
#977=CARTESIAN_POINT('Ctrl Pts',(40.7821827528197,-41.6307108902435,83.400654448504));
#978=CARTESIAN_POINT('Ctrl Pts',(40.7649153262715,-41.6134434636953,83.3631855959977));
#979=CARTESIAN_POINT('Ctrl Pts',(40.7494120337007,-41.5979401711245,83.324334585887));
#980=CARTESIAN_POINT('Ctrl Pts',(40.7339295203667,-41.5824576577905,83.2855356482207));
#981=CARTESIAN_POINT('Ctrl Pts',(40.7202060200491,-41.568734157473,83.2453572368206));
#982=CARTESIAN_POINT('Ctrl Pts',(40.7083542435822,-41.556882381006,83.2040422023971));
#983=CARTESIAN_POINT('Ctrl Pts',(40.7034032022855,-41.5519313397093,83.1867829803575));
#984=CARTESIAN_POINT('Ctrl Pts',(40.6987792028978,-41.5473073403217,83.1693251673525));
#985=CARTESIAN_POINT('Ctrl Pts',(40.6944923098778,-41.5430204473016,83.1516857186478));
#986=CARTESIAN_POINT('Ctrl Pts',(40.6842107550297,-41.5327388924535,83.1093797972038));
#987=CARTESIAN_POINT('Ctrl Pts',(40.6759216460794,-41.5244497835032,83.0662593722694));
#988=CARTESIAN_POINT('Ctrl Pts',(40.6697245167046,-41.5182526541284,83.022575364153));
#989=CARTESIAN_POINT('Ctrl Pts',(40.66369972358,-41.5122278610039,82.9801061665885));
#990=CARTESIAN_POINT('Ctrl Pts',(40.659651968821,-41.5081801062448,82.9371033185114));
#991=CARTESIAN_POINT('Ctrl Pts',(40.6577060577341,-41.5062341951579,82.8937860302498));
#992=CARTESIAN_POINT('Ctrl Pts',(40.6568208316249,-41.5053489690487,82.8740803022706));
#993=CARTESIAN_POINT('Ctrl Pts',(40.6563710615314,-41.5048991989552,82.8543094309151));
#994=CARTESIAN_POINT('Ctrl Pts',(40.6563710615314,-41.5048991989552,82.834494053179));
#995=CARTESIAN_POINT('Origin',(39.6292821030107,-39.6292821030106,88.));
#996=CARTESIAN_POINT('',(36.9916839932436,-36.1431558558197,90.5));
#997=CARTESIAN_POINT('Origin',(40.0535461717226,-39.2050180342987,88.));
#998=CARTESIAN_POINT('',(36.1431558558198,-36.9916839932436,90.5));
#999=CARTESIAN_POINT('',(36.5674199245317,-36.5674199245316,90.5));
#1000=CARTESIAN_POINT('Origin',(39.2050180342987,-40.0535461717226,88.));
#1001=CARTESIAN_POINT('Origin',(35.9550474888359,-35.9550474888358,91.));
#1002=CARTESIAN_POINT('Origin',(35.530783420124,-36.3793115575478,91.));
#1003=CARTESIAN_POINT('Origin',(36.3793115575478,-35.5307834201239,91.));
#1004=CARTESIAN_POINT('Origin',(35.0017856687342,-35.0017856687341,90.));
#1005=CARTESIAN_POINT('',(36.1017856687342,-35.0017856687341,90.));
#1006=CARTESIAN_POINT('Origin',(37.598376598347,-38.4469047357708,85.5));
#1007=CARTESIAN_POINT('',(39.2050180342987,-40.0535461717226,83.));
#1008=CARTESIAN_POINT('',(39.2050180342987,-40.0535461717226,88.));
#1009=CARTESIAN_POINT('Origin',(39.2050180342987,-40.0535461717226,88.));
#1010=CARTESIAN_POINT('Origin',(39.6292821030107,-39.6292821030106,88.));
#1011=CARTESIAN_POINT('',(40.0535461717226,-39.2050180342987,83.));
#1012=CARTESIAN_POINT('',(39.6292821030106,-39.6292821030106,83.));
#1013=CARTESIAN_POINT('Origin',(40.0535461717226,-39.2050180342987,88.));
#1014=CARTESIAN_POINT('Origin',(38.4469047357709,-37.598376598347,85.5));
#1015=CARTESIAN_POINT('',(40.0535461717226,-39.2050180342987,88.));
#1016=CARTESIAN_POINT('Origin',(38.4469047357709,-37.598376598347,85.5));
#1017=CARTESIAN_POINT('Origin',(39.6292821030107,-39.6292821030106,88.));
#1018=CARTESIAN_POINT('Origin',(37.598376598347,-38.4469047357708,85.5));
#1019=CARTESIAN_POINT('Origin',(37.8615151500443,-41.397049055977,88.));
#1020=CARTESIAN_POINT('Origin',(41.397049055977,-37.8615151500442,78.));
#1021=CARTESIAN_POINT('Ctrl Pts',(40.4735204486188,-38.8471748518897,81.));
#1022=CARTESIAN_POINT('Ctrl Pts',(41.8877545055842,-40.2614089088551,81.));
#1023=CARTESIAN_POINT('Ctrl Pts',(40.4735204486188,-38.8471748518897,80.8555990952722));
#1024=CARTESIAN_POINT('Ctrl Pts',(41.8877545055842,-40.2614089088551,80.8555990952722));
#1025=CARTESIAN_POINT('Ctrl Pts',(40.4535486531458,-38.8680163834646,80.7015759535332));
#1026=CARTESIAN_POINT('Ctrl Pts',(41.8677827101112,-40.28225044043,80.7015759535332));
#1027=CARTESIAN_POINT('Ctrl Pts',(40.3721324714678,-38.9525764985812,80.4182409250706));
#1028=CARTESIAN_POINT('Ctrl Pts',(41.7863665284332,-40.3668105555465,80.4182409250706));
#1029=CARTESIAN_POINT('Ctrl Pts',(40.3106656911442,-39.0162723723129,80.288928696539));
#1030=CARTESIAN_POINT('Ctrl Pts',(41.7248997481095,-40.4305064292783,80.288928696539));
#1031=CARTESIAN_POINT('Ctrl Pts',(40.168365582293,-39.162758900264,80.0847257073401));
#1032=CARTESIAN_POINT('Ctrl Pts',(41.5825996392584,-40.5769929572294,80.0847257073401));
#1033=CARTESIAN_POINT('Ctrl Pts',(40.0780424728975,-39.2553108987215,79.9962223455928));
#1034=CARTESIAN_POINT('Ctrl Pts',(41.4922765298629,-40.6695449556869,79.9962223455928));
#1035=CARTESIAN_POINT('Ctrl Pts',(39.8792660855471,-39.4572307523888,79.878859379931));
#1036=CARTESIAN_POINT('Ctrl Pts',(41.2935001425125,-40.8714648093542,79.878859379931));
#1037=CARTESIAN_POINT('Ctrl Pts',(39.7707900431633,-39.5665763264947,79.85));
#1038=CARTESIAN_POINT('Ctrl Pts',(41.1850241001287,-40.9808103834601,79.85));
#1039=CARTESIAN_POINT('Ctrl Pts',(39.5665763264947,-39.7707900431633,79.85));
#1040=CARTESIAN_POINT('Ctrl Pts',(40.9808103834601,-41.1850241001287,79.85));
#1041=CARTESIAN_POINT('Ctrl Pts',(39.4572307523888,-39.879266085547,79.878859379931));
#1042=CARTESIAN_POINT('Ctrl Pts',(40.8714648093542,-41.2935001425124,79.878859379931));
#1043=CARTESIAN_POINT('Ctrl Pts',(39.2553108987215,-40.0780424728974,79.9962223455928));
#1044=CARTESIAN_POINT('Ctrl Pts',(40.6695449556869,-41.4922765298628,79.9962223455928));
#1045=CARTESIAN_POINT('Ctrl Pts',(39.1627589002641,-40.1683655822929,80.0847257073401));
#1046=CARTESIAN_POINT('Ctrl Pts',(40.5769929572295,-41.5825996392584,80.0847257073401));
#1047=CARTESIAN_POINT('Ctrl Pts',(39.016272372313,-40.3106656911441,80.288928696539));
#1048=CARTESIAN_POINT('Ctrl Pts',(40.4305064292784,-41.7248997481095,80.288928696539));
#1049=CARTESIAN_POINT('Ctrl Pts',(38.9525764985812,-40.3721324714677,80.4182409250706));
#1050=CARTESIAN_POINT('Ctrl Pts',(40.3668105555466,-41.7863665284331,80.4182409250706));
#1051=CARTESIAN_POINT('Ctrl Pts',(38.8680163834647,-40.4535486531457,80.7015759535332));
#1052=CARTESIAN_POINT('Ctrl Pts',(40.2822504404301,-41.8677827101111,80.7015759535332));
#1053=CARTESIAN_POINT('Ctrl Pts',(38.8471748518898,-40.4735204486188,80.8555990952722));
#1054=CARTESIAN_POINT('Ctrl Pts',(40.2614089088552,-41.8877545055842,80.8555990952722));
#1055=CARTESIAN_POINT('Ctrl Pts',(38.8471748518898,-40.4735204486188,81.1444009047278));
#1056=CARTESIAN_POINT('Ctrl Pts',(40.2614089088552,-41.8877545055842,81.1444009047278));
#1057=CARTESIAN_POINT('Ctrl Pts',(38.8680163834647,-40.4535486531457,81.2984240464668));
#1058=CARTESIAN_POINT('Ctrl Pts',(40.2822504404301,-41.8677827101111,81.2984240464668));
#1059=CARTESIAN_POINT('Ctrl Pts',(38.9525764985812,-40.3721324714677,81.5817590749294));
#1060=CARTESIAN_POINT('Ctrl Pts',(40.3668105555466,-41.7863665284331,81.5817590749294));
#1061=CARTESIAN_POINT('Ctrl Pts',(39.016272372313,-40.3106656911441,81.7110713034609));
#1062=CARTESIAN_POINT('Ctrl Pts',(40.4305064292784,-41.7248997481095,81.7110713034609));
#1063=CARTESIAN_POINT('Ctrl Pts',(39.1627589002641,-40.1683655822929,81.9152742926599));
#1064=CARTESIAN_POINT('Ctrl Pts',(40.5769929572295,-41.5825996392584,81.9152742926599));
#1065=CARTESIAN_POINT('Ctrl Pts',(39.2553108987215,-40.0780424728974,82.0037776544072));
#1066=CARTESIAN_POINT('Ctrl Pts',(40.6695449556869,-41.4922765298628,82.0037776544072));
#1067=CARTESIAN_POINT('Ctrl Pts',(39.4572307523888,-39.8792660855471,82.121140620069));
#1068=CARTESIAN_POINT('Ctrl Pts',(40.8714648093542,-41.2935001425125,82.121140620069));
#1069=CARTESIAN_POINT('Ctrl Pts',(39.5665763264947,-39.7707900431633,82.15));
#1070=CARTESIAN_POINT('Ctrl Pts',(40.9808103834601,-41.1850241001287,82.15));
#1071=CARTESIAN_POINT('Ctrl Pts',(39.7707900431633,-39.5665763264947,82.15));
#1072=CARTESIAN_POINT('Ctrl Pts',(41.1850241001287,-40.9808103834601,82.15));
#1073=CARTESIAN_POINT('Ctrl Pts',(39.8792660855471,-39.4572307523888,82.121140620069));
#1074=CARTESIAN_POINT('Ctrl Pts',(41.2935001425125,-40.8714648093542,82.121140620069));
#1075=CARTESIAN_POINT('Ctrl Pts',(40.0780424728975,-39.2553108987215,82.0037776544072));
#1076=CARTESIAN_POINT('Ctrl Pts',(41.4922765298629,-40.6695449556869,82.0037776544072));
#1077=CARTESIAN_POINT('Ctrl Pts',(40.168365582293,-39.162758900264,81.9152742926599));
#1078=CARTESIAN_POINT('Ctrl Pts',(41.5825996392584,-40.5769929572294,81.9152742926599));
#1079=CARTESIAN_POINT('Ctrl Pts',(40.3106656911442,-39.0162723723129,81.7110713034609));
#1080=CARTESIAN_POINT('Ctrl Pts',(41.7248997481095,-40.4305064292783,81.7110713034609));
#1081=CARTESIAN_POINT('Ctrl Pts',(40.3721324714678,-38.9525764985812,81.5817590749294));
#1082=CARTESIAN_POINT('Ctrl Pts',(41.7863665284332,-40.3668105555465,81.5817590749294));
#1083=CARTESIAN_POINT('Ctrl Pts',(40.4535486531458,-38.8680163834646,81.2984240464668));
#1084=CARTESIAN_POINT('Ctrl Pts',(41.8677827101112,-40.28225044043,81.2984240464668));
#1085=CARTESIAN_POINT('Ctrl Pts',(40.4735204486188,-38.8471748518897,81.1444009047278));
#1086=CARTESIAN_POINT('Ctrl Pts',(41.8877545055842,-40.2614089088551,81.1444009047278));
#1087=CARTESIAN_POINT('Ctrl Pts',(40.4735204486188,-38.8471748518897,81.));
#1088=CARTESIAN_POINT('Ctrl Pts',(41.8877545055842,-40.2614089088551,81.));
#1089=CARTESIAN_POINT('Ctrl Pts',(40.473532205663,-38.8471866089339,81.));
#1090=CARTESIAN_POINT('Ctrl Pts',(41.8877457680361,-40.261400171307,81.));
#1091=UNCERTAINTY_MEASURE_WITH_UNIT(LENGTH_MEASURE(0.01),#1095,
'DISTANCE_ACCURACY_VALUE',
'Maximum model space distance between geometric entities at asserted c
onnectivities');
#1092=UNCERTAINTY_MEASURE_WITH_UNIT(LENGTH_MEASURE(0.01),#1095,
'DISTANCE_ACCURACY_VALUE',
'Maximum model space distance between geometric entities at asserted c
onnectivities');
#1093=(
GEOMETRIC_REPRESENTATION_CONTEXT(3)
GLOBAL_UNCERTAINTY_ASSIGNED_CONTEXT((#1091))
GLOBAL_UNIT_ASSIGNED_CONTEXT((#1095,#1097,#1098))
REPRESENTATION_CONTEXT('','3D')
);
#1094=(
GEOMETRIC_REPRESENTATION_CONTEXT(3)
GLOBAL_UNCERTAINTY_ASSIGNED_CONTEXT((#1092))
GLOBAL_UNIT_ASSIGNED_CONTEXT((#1095,#1097,#1098))
REPRESENTATION_CONTEXT('','3D')
);
#1095=(
LENGTH_UNIT()
NAMED_UNIT(*)
SI_UNIT(.MILLI.,.METRE.)
);
#1096=(
LENGTH_UNIT()
NAMED_UNIT(*)
SI_UNIT($,.METRE.)
);
#1097=(
NAMED_UNIT(*)
PLANE_ANGLE_UNIT()
SI_UNIT($,.RADIAN.)
);
#1098=(
NAMED_UNIT(*)
SI_UNIT($,.STERADIAN.)
SOLID_ANGLE_UNIT()
);
#1099=SHAPE_DEFINITION_REPRESENTATION(#1100,#1101);
#1100=PRODUCT_DEFINITION_SHAPE('',$,#1103);
#1101=SHAPE_REPRESENTATION('',(#491),#1093);
#1102=PRODUCT_DEFINITION_CONTEXT('part definition',#1107,'design');
#1103=PRODUCT_DEFINITION('2026-08-20-11-05-39-947','\X2\30B930C830C330D130FC\X0\',
#1104,#1102);
#1104=PRODUCT_DEFINITION_FORMATION('',$,#1109);
#1105=PRODUCT_RELATED_PRODUCT_CATEGORY('\X2\30B930C830C330D130FC\X0\',
'\X2\30B930C830C330D130FC\X0\',(#1109));
#1106=APPLICATION_PROTOCOL_DEFINITION('international standard',
'automotive_design',2009,#1107);
#1107=APPLICATION_CONTEXT(
'Core Data for Automotive Mechanical Design Process');
#1108=PRODUCT_CONTEXT('part definition',#1107,'mechanical');
#1109=PRODUCT('2026-08-20-11-05-39-947','\X2\30B930C830C330D130FC\X0\',
$,(#1108));
#1110=PRESENTATION_STYLE_ASSIGNMENT((#1112));
#1111=PRESENTATION_STYLE_ASSIGNMENT((#1113));
#1112=SURFACE_STYLE_USAGE(.BOTH.,#1114);
#1113=SURFACE_STYLE_USAGE(.BOTH.,#1115);
#1114=SURFACE_SIDE_STYLE('',(#1116));
#1115=SURFACE_SIDE_STYLE('',(#1117));
#1116=SURFACE_STYLE_FILL_AREA(#1118);
#1117=SURFACE_STYLE_FILL_AREA(#1119);
#1118=FILL_AREA_STYLE('\X2\92FC\X0\ - \X2\30B530C630F3\X0\',(#1120));
#1119=FILL_AREA_STYLE('Opaque(160,160,160)',(#1121));
#1120=FILL_AREA_STYLE_COLOUR('\X2\92FC\X0\ - \X2\30B530C630F3\X0\',#1122);
#1121=FILL_AREA_STYLE_COLOUR('Opaque(160,160,160)',#1123);
#1122=COLOUR_RGB('\X2\92FC\X0\ - \X2\30B530C630F3\X0\',0.627450980392157,
0.627450980392157,0.627450980392157);
#1123=COLOUR_RGB('Opaque(160,160,160)',0.627450980392157,0.627450980392157,
0.627450980392157);
ENDSEC;
END-ISO-10303-21;
