ISO-10303-21;
HEADER;
/* Generated by software containing ST-Developer
 * from STEP Tools, Inc. (www.steptools.com) 
 */

FILE_DESCRIPTION(
/* description */ (''),
/* implementation_level */ '2;1');

FILE_NAME(
/* name */ '',
/* time_stamp */ '2026-09-24T12:33:24+09:00',
/* author */ (''),
/* organization */ (''),
/* preprocessor_version */ 'ST-DEVELOPER v20.2',
/* originating_system */ 'Autodesk Translation Framework v15.15.0.0',
/* authorisation */ '');

FILE_SCHEMA (('AUTOMOTIVE_DESIGN { 1 0 10303 214 3 1 1 }'));
ENDSEC;

DATA;
#10=MECHANICAL_DESIGN_GEOMETRIC_PRESENTATION_REPRESENTATION('',(#13),#872);
#11=SHAPE_REPRESENTATION_RELATIONSHIP('SRR','None',#879,#12);
#12=ADVANCED_BREP_SHAPE_REPRESENTATION('',(#14),#871);
#13=STYLED_ITEM('',(#888),#14);
#14=MANIFOLD_SOLID_BREP('\X2\30DC30C730A3\X0\1',#422);
#15=FACE_BOUND('',#92,.T.);
#16=FACE_BOUND('',#94,.T.);
#17=FACE_BOUND('',#95,.T.);
#18=FACE_BOUND('',#96,.T.);
#19=FACE_BOUND('',#98,.T.);
#20=FACE_BOUND('',#101,.T.);
#21=FACE_BOUND('',#104,.T.);
#22=FACE_BOUND('',#112,.T.);
#23=FACE_BOUND('',#113,.T.);
#24=FACE_BOUND('',#114,.T.);
#25=FACE_BOUND('',#115,.T.);
#26=FACE_BOUND('',#116,.T.);
#27=FACE_BOUND('',#118,.T.);
#28=FACE_BOUND('',#119,.T.);
#29=FACE_BOUND('',#120,.T.);
#30=FACE_BOUND('',#121,.T.);
#31=FACE_BOUND('',#122,.T.);
#32=TOROIDAL_SURFACE('',#449,12.6925824035673,1.);
#33=CONICAL_SURFACE('',#443,12.5,1.19028994968253);
#34=CONICAL_SURFACE('',#453,12.5,1.19028994968253);
#35=B_SPLINE_CURVE_WITH_KNOTS('',3,(#632,#633,#634,#635,#636,#637,#638,
#639,#640,#641,#642,#643,#644,#645,#646,#647,#648,#649),.UNSPECIFIED.,.F.,
 .F.,(4,2,2,2,2,2,2,2,4),(0.20603535249242,0.215999482323121,0.252662260067791,
0.270993648940126,0.289325037812461,0.307656426684799,0.325987815557137,
0.362650593301814,0.372614723132414),.UNSPECIFIED.);
#36=B_SPLINE_CURVE_WITH_KNOTS('',3,(#653,#654,#655,#656,#657,#658,#659,
#660,#661,#662,#663,#664,#665,#666,#667,#668,#669,#670,#671),
 .UNSPECIFIED.,.F.,.F.,(4,2,2,2,3,2,2,2,4),(-0.0832896852154347,-0.0733255554893512,
-0.0366627777446756,-0.0183313888723379,0.,0.0183313888723346,0.0366627777446693,
0.0733255554893385,0.0832896853200275),.UNSPECIFIED.);
#37=B_SPLINE_CURVE_WITH_KNOTS('',3,(#678,#679,#680,#681,#682,#683,#684,
#685,#686,#687,#688,#689,#690,#691,#692,#693,#694,#695,#696,#697,#698,#699),
 .UNSPECIFIED.,.F.,.F.,(4,2,2,2,2,2,2,2,2,2,4),(0.,0.0183313888723353,0.0366627777446705,
0.0733255554893411,0.108994037197785,0.144662518906229,0.180331000614674,
0.215999482323119,0.25266226006779,0.270993648940126,0.289325037812462),
 .UNSPECIFIED.);
#38=B_SPLINE_CURVE_WITH_KNOTS('',3,(#700,#701,#702,#703,#704,#705,#706,
#707,#708,#709,#710,#711,#712,#713,#714,#715,#716,#717,#718,#719,#720,#721),
 .UNSPECIFIED.,.F.,.F.,(4,2,2,2,2,2,2,2,2,2,4),(0.289325037812462,0.307656426684799,
0.325987815557137,0.362650593301812,0.398319075010261,0.433987556718711,
0.469656038427159,0.505324520135607,0.541987297880281,0.560318686752618,
0.578650075624956),.UNSPECIFIED.);
#39=B_SPLINE_CURVE_WITH_KNOTS('',3,(#725,#726,#727,#728,#729,#730,#731,
#732),.UNSPECIFIED.,.F.,.F.,(4,2,2,4),(-0.683413507090383,-0.643770046179862,
-0.600333931968788,-0.588113931759332),.UNSPECIFIED.);
#40=B_SPLINE_CURVE_WITH_KNOTS('',3,(#734,#735,#736,#737,#738,#739,#740,
#741,#742,#743,#744,#745,#746,#747,#748,#749,#750,#751),.UNSPECIFIED.,.F.,
 .F.,(4,2,2,2,2,2,2,2,4),(0.154961496056995,0.19343544050439,0.274024135437752,
0.29150383701742,0.308983538597087,0.326463240176754,0.343942941756421,
0.424531636689786,0.463005581137179),.UNSPECIFIED.);
#41=B_SPLINE_CURVE_WITH_KNOTS('',3,(#752,#753,#754,#755,#756,#757,#758,
#759,#760,#761,#762,#763,#764,#765,#766,#767,#768,#769,#770,#771,#772,#773,
#774,#775,#776,#777),.UNSPECIFIED.,.F.,.F.,(4,2,2,2,2,2,2,2,2,2,2,2,4),
(-0.588113931759332,-0.560157699317199,-0.523904345726794,-0.48017261429614,
-0.430039048904372,-0.385958687195814,-0.336885116935548,-0.284064761271826,
-0.240635067145691,-0.197329405315704,-0.154409235250319,-0.0994254112686736,
-0.0517789280900829),.UNSPECIFIED.);
#42=CYLINDRICAL_SURFACE('',#438,0.9);
#43=CYLINDRICAL_SURFACE('',#439,0.9);
#44=CYLINDRICAL_SURFACE('',#442,0.9);
#45=CYLINDRICAL_SURFACE('',#456,15.);
#46=CYLINDRICAL_SURFACE('',#458,1.15);
#47=CYLINDRICAL_SURFACE('',#463,1.15);
#48=CYLINDRICAL_SURFACE('',#468,1.15);
#49=CYLINDRICAL_SURFACE('',#473,1.15);
#50=CYLINDRICAL_SURFACE('',#478,2.25);
#51=CYLINDRICAL_SURFACE('',#480,2.25);
#52=CYLINDRICAL_SURFACE('',#482,2.25);
#53=CYLINDRICAL_SURFACE('',#484,2.25);
#54=CYLINDRICAL_SURFACE('',#486,3.);
#55=CYLINDRICAL_SURFACE('',#489,15.);
#56=FACE_OUTER_BOUND('',#81,.T.);
#57=FACE_OUTER_BOUND('',#82,.T.);
#58=FACE_OUTER_BOUND('',#83,.T.);
#59=FACE_OUTER_BOUND('',#84,.T.);
#60=FACE_OUTER_BOUND('',#85,.T.);
#61=FACE_OUTER_BOUND('',#86,.T.);
#62=FACE_OUTER_BOUND('',#87,.T.);
#63=FACE_OUTER_BOUND('',#88,.T.);
#64=FACE_OUTER_BOUND('',#89,.T.);
#65=FACE_OUTER_BOUND('',#90,.T.);
#66=FACE_OUTER_BOUND('',#91,.T.);
#67=FACE_OUTER_BOUND('',#93,.T.);
#68=FACE_OUTER_BOUND('',#97,.T.);
#69=FACE_OUTER_BOUND('',#99,.T.);
#70=FACE_OUTER_BOUND('',#100,.T.);
#71=FACE_OUTER_BOUND('',#102,.T.);
#72=FACE_OUTER_BOUND('',#103,.T.);
#73=FACE_OUTER_BOUND('',#105,.T.);
#74=FACE_OUTER_BOUND('',#106,.T.);
#75=FACE_OUTER_BOUND('',#107,.T.);
#76=FACE_OUTER_BOUND('',#108,.T.);
#77=FACE_OUTER_BOUND('',#109,.T.);
#78=FACE_OUTER_BOUND('',#110,.T.);
#79=FACE_OUTER_BOUND('',#111,.T.);
#80=FACE_OUTER_BOUND('',#117,.T.);
#81=EDGE_LOOP('',(#279,#280));
#82=EDGE_LOOP('',(#281,#282));
#83=EDGE_LOOP('',(#283,#284));
#84=EDGE_LOOP('',(#285,#286));
#85=EDGE_LOOP('',(#287,#288,#289,#290,#291,#292,#293));
#86=EDGE_LOOP('',(#294,#295,#296,#297,#298,#299,#300,#301));
#87=EDGE_LOOP('',(#302,#303,#304,#305,#306,#307,#308,#309,#310));
#88=EDGE_LOOP('',(#311,#312,#313,#314,#315,#316));
#89=EDGE_LOOP('',(#317,#318,#319,#320,#321));
#90=EDGE_LOOP('',(#322,#323,#324,#325));
#91=EDGE_LOOP('',(#326));
#92=EDGE_LOOP('',(#327));
#93=EDGE_LOOP('',(#328,#329,#330,#331));
#94=EDGE_LOOP('',(#332,#333));
#95=EDGE_LOOP('',(#334,#335));
#96=EDGE_LOOP('',(#336,#337));
#97=EDGE_LOOP('',(#338));
#98=EDGE_LOOP('',(#339));
#99=EDGE_LOOP('',(#340,#341,#342,#343));
#100=EDGE_LOOP('',(#344));
#101=EDGE_LOOP('',(#345));
#102=EDGE_LOOP('',(#346,#347,#348,#349));
#103=EDGE_LOOP('',(#350));
#104=EDGE_LOOP('',(#351));
#105=EDGE_LOOP('',(#352,#353,#354,#355));
#106=EDGE_LOOP('',(#356,#357,#358,#359));
#107=EDGE_LOOP('',(#360,#361,#362,#363));
#108=EDGE_LOOP('',(#364,#365,#366,#367));
#109=EDGE_LOOP('',(#368,#369,#370,#371));
#110=EDGE_LOOP('',(#372,#373,#374,#375,#376));
#111=EDGE_LOOP('',(#377));
#112=EDGE_LOOP('',(#378));
#113=EDGE_LOOP('',(#379));
#114=EDGE_LOOP('',(#380));
#115=EDGE_LOOP('',(#381));
#116=EDGE_LOOP('',(#382));
#117=EDGE_LOOP('',(#383));
#118=EDGE_LOOP('',(#384));
#119=EDGE_LOOP('',(#385));
#120=EDGE_LOOP('',(#386));
#121=EDGE_LOOP('',(#387));
#122=EDGE_LOOP('',(#388));
#123=CIRCLE('',#437,0.9);
#124=CIRCLE('',#440,0.9);
#125=CIRCLE('',#444,15.);
#126=CIRCLE('',#445,15.);
#127=CIRCLE('',#446,12.3211917272132);
#128=CIRCLE('',#447,12.3211917272132);
#129=CIRCLE('',#448,12.3211917272132);
#130=CIRCLE('',#450,1.);
#131=CIRCLE('',#451,12.3211917272132);
#132=CIRCLE('',#452,12.3211917272132);
#133=CIRCLE('',#454,15.);
#134=CIRCLE('',#455,15.);
#135=CIRCLE('',#457,15.);
#136=CIRCLE('',#459,1.15);
#137=CIRCLE('',#460,1.15);
#138=CIRCLE('',#462,2.25);
#139=CIRCLE('',#464,1.15);
#140=CIRCLE('',#465,1.15);
#141=CIRCLE('',#467,2.25);
#142=CIRCLE('',#469,1.15);
#143=CIRCLE('',#470,1.15);
#144=CIRCLE('',#472,2.25);
#145=CIRCLE('',#474,1.15);
#146=CIRCLE('',#475,1.15);
#147=CIRCLE('',#477,2.25);
#148=CIRCLE('',#479,2.25);
#149=CIRCLE('',#481,2.25);
#150=CIRCLE('',#483,2.25);
#151=CIRCLE('',#485,2.25);
#152=CIRCLE('',#487,3.);
#153=CIRCLE('',#488,3.);
#154=CIRCLE('',#490,15.);
#155=LINE('',#629,#171);
#156=LINE('',#674,#172);
#157=LINE('',#723,#173);
#158=LINE('',#784,#174);
#159=LINE('',#797,#175);
#160=LINE('',#803,#176);
#161=LINE('',#809,#177);
#162=LINE('',#818,#178);
#163=LINE('',#827,#179);
#164=LINE('',#836,#180);
#165=LINE('',#844,#181);
#166=LINE('',#848,#182);
#167=LINE('',#852,#183);
#168=LINE('',#856,#184);
#169=LINE('',#861,#185);
#170=LINE('',#866,#186);
#171=VECTOR('',#497,10.);
#172=VECTOR('',#508,10.);
#173=VECTOR('',#511,0.9);
#174=VECTOR('',#518,12.5);
#175=VECTOR('',#535,12.5);
#176=VECTOR('',#542,15.);
#177=VECTOR('',#549,1.15);
#178=VECTOR('',#560,1.15);
#179=VECTOR('',#571,1.15);
#180=VECTOR('',#582,1.15);
#181=VECTOR('',#593,2.25);
#182=VECTOR('',#598,2.25);
#183=VECTOR('',#603,2.25);
#184=VECTOR('',#608,2.25);
#185=VECTOR('',#613,3.);
#186=VECTOR('',#620,15.);
#187=VERTEX_POINT('',#627);
#188=VERTEX_POINT('',#628);
#189=VERTEX_POINT('',#651);
#190=VERTEX_POINT('',#652);
#191=VERTEX_POINT('',#676);
#192=VERTEX_POINT('',#677);
#193=VERTEX_POINT('',#722);
#194=VERTEX_POINT('',#724);
#195=VERTEX_POINT('',#733);
#196=VERTEX_POINT('',#779);
#197=VERTEX_POINT('',#780);
#198=VERTEX_POINT('',#783);
#199=VERTEX_POINT('',#785);
#200=VERTEX_POINT('',#790);
#201=VERTEX_POINT('',#792);
#202=VERTEX_POINT('',#796);
#203=VERTEX_POINT('',#798);
#204=VERTEX_POINT('',#802);
#205=VERTEX_POINT('',#806);
#206=VERTEX_POINT('',#808);
#207=VERTEX_POINT('',#812);
#208=VERTEX_POINT('',#815);
#209=VERTEX_POINT('',#817);
#210=VERTEX_POINT('',#821);
#211=VERTEX_POINT('',#824);
#212=VERTEX_POINT('',#826);
#213=VERTEX_POINT('',#830);
#214=VERTEX_POINT('',#833);
#215=VERTEX_POINT('',#835);
#216=VERTEX_POINT('',#839);
#217=VERTEX_POINT('',#842);
#218=VERTEX_POINT('',#846);
#219=VERTEX_POINT('',#850);
#220=VERTEX_POINT('',#854);
#221=VERTEX_POINT('',#858);
#222=VERTEX_POINT('',#860);
#223=VERTEX_POINT('',#864);
#224=EDGE_CURVE('',#187,#188,#155,.T.);
#225=EDGE_CURVE('',#187,#188,#123,.T.);
#226=EDGE_CURVE('',#188,#187,#35,.T.);
#227=EDGE_CURVE('',#189,#190,#36,.T.);
#228=EDGE_CURVE('',#190,#189,#124,.T.);
#229=EDGE_CURVE('',#190,#189,#156,.T.);
#230=EDGE_CURVE('',#191,#192,#37,.T.);
#231=EDGE_CURVE('',#192,#191,#38,.T.);
#232=EDGE_CURVE('',#192,#193,#157,.T.);
#233=EDGE_CURVE('',#194,#193,#39,.T.);
#234=EDGE_CURVE('',#195,#194,#40,.T.);
#235=EDGE_CURVE('',#193,#195,#41,.T.);
#236=EDGE_CURVE('',#196,#197,#125,.T.);
#237=EDGE_CURVE('',#197,#196,#126,.T.);
#238=EDGE_CURVE('',#197,#198,#158,.T.);
#239=EDGE_CURVE('',#199,#198,#127,.T.);
#240=EDGE_CURVE('',#195,#199,#128,.T.);
#241=EDGE_CURVE('',#198,#194,#129,.T.);
#242=EDGE_CURVE('',#199,#200,#130,.T.);
#243=EDGE_CURVE('',#200,#201,#131,.T.);
#244=EDGE_CURVE('',#201,#200,#132,.T.);
#245=EDGE_CURVE('',#201,#202,#159,.T.);
#246=EDGE_CURVE('',#203,#202,#133,.T.);
#247=EDGE_CURVE('',#202,#203,#134,.T.);
#248=EDGE_CURVE('',#196,#204,#160,.T.);
#249=EDGE_CURVE('',#204,#204,#135,.T.);
#250=EDGE_CURVE('',#205,#205,#136,.F.);
#251=EDGE_CURVE('',#205,#206,#161,.T.);
#252=EDGE_CURVE('',#206,#206,#137,.T.);
#253=EDGE_CURVE('',#207,#207,#138,.T.);
#254=EDGE_CURVE('',#208,#208,#139,.F.);
#255=EDGE_CURVE('',#208,#209,#162,.T.);
#256=EDGE_CURVE('',#209,#209,#140,.T.);
#257=EDGE_CURVE('',#210,#210,#141,.T.);
#258=EDGE_CURVE('',#211,#211,#142,.F.);
#259=EDGE_CURVE('',#211,#212,#163,.T.);
#260=EDGE_CURVE('',#212,#212,#143,.T.);
#261=EDGE_CURVE('',#213,#213,#144,.T.);
#262=EDGE_CURVE('',#214,#214,#145,.F.);
#263=EDGE_CURVE('',#214,#215,#164,.T.);
#264=EDGE_CURVE('',#215,#215,#146,.T.);
#265=EDGE_CURVE('',#216,#216,#147,.T.);
#266=EDGE_CURVE('',#217,#217,#148,.T.);
#267=EDGE_CURVE('',#217,#210,#165,.T.);
#268=EDGE_CURVE('',#218,#218,#149,.T.);
#269=EDGE_CURVE('',#218,#216,#166,.T.);
#270=EDGE_CURVE('',#219,#219,#150,.T.);
#271=EDGE_CURVE('',#219,#207,#167,.T.);
#272=EDGE_CURVE('',#220,#220,#151,.T.);
#273=EDGE_CURVE('',#220,#213,#168,.T.);
#274=EDGE_CURVE('',#221,#221,#152,.T.);
#275=EDGE_CURVE('',#221,#222,#169,.T.);
#276=EDGE_CURVE('',#222,#222,#153,.T.);
#277=EDGE_CURVE('',#223,#223,#154,.T.);
#278=EDGE_CURVE('',#223,#203,#170,.T.);
#279=ORIENTED_EDGE('',*,*,#224,.F.);
#280=ORIENTED_EDGE('',*,*,#225,.T.);
#281=ORIENTED_EDGE('',*,*,#226,.F.);
#282=ORIENTED_EDGE('',*,*,#225,.F.);
#283=ORIENTED_EDGE('',*,*,#227,.F.);
#284=ORIENTED_EDGE('',*,*,#228,.F.);
#285=ORIENTED_EDGE('',*,*,#229,.F.);
#286=ORIENTED_EDGE('',*,*,#228,.T.);
#287=ORIENTED_EDGE('',*,*,#230,.F.);
#288=ORIENTED_EDGE('',*,*,#231,.F.);
#289=ORIENTED_EDGE('',*,*,#232,.T.);
#290=ORIENTED_EDGE('',*,*,#233,.F.);
#291=ORIENTED_EDGE('',*,*,#234,.F.);
#292=ORIENTED_EDGE('',*,*,#235,.F.);
#293=ORIENTED_EDGE('',*,*,#232,.F.);
#294=ORIENTED_EDGE('',*,*,#236,.F.);
#295=ORIENTED_EDGE('',*,*,#237,.F.);
#296=ORIENTED_EDGE('',*,*,#238,.T.);
#297=ORIENTED_EDGE('',*,*,#239,.F.);
#298=ORIENTED_EDGE('',*,*,#240,.F.);
#299=ORIENTED_EDGE('',*,*,#234,.T.);
#300=ORIENTED_EDGE('',*,*,#241,.F.);
#301=ORIENTED_EDGE('',*,*,#238,.F.);
#302=ORIENTED_EDGE('',*,*,#233,.T.);
#303=ORIENTED_EDGE('',*,*,#235,.T.);
#304=ORIENTED_EDGE('',*,*,#240,.T.);
#305=ORIENTED_EDGE('',*,*,#242,.T.);
#306=ORIENTED_EDGE('',*,*,#243,.T.);
#307=ORIENTED_EDGE('',*,*,#244,.T.);
#308=ORIENTED_EDGE('',*,*,#242,.F.);
#309=ORIENTED_EDGE('',*,*,#239,.T.);
#310=ORIENTED_EDGE('',*,*,#241,.T.);
#311=ORIENTED_EDGE('',*,*,#243,.F.);
#312=ORIENTED_EDGE('',*,*,#244,.F.);
#313=ORIENTED_EDGE('',*,*,#245,.T.);
#314=ORIENTED_EDGE('',*,*,#246,.F.);
#315=ORIENTED_EDGE('',*,*,#247,.F.);
#316=ORIENTED_EDGE('',*,*,#245,.F.);
#317=ORIENTED_EDGE('',*,*,#236,.T.);
#318=ORIENTED_EDGE('',*,*,#237,.T.);
#319=ORIENTED_EDGE('',*,*,#248,.T.);
#320=ORIENTED_EDGE('',*,*,#249,.T.);
#321=ORIENTED_EDGE('',*,*,#248,.F.);
#322=ORIENTED_EDGE('',*,*,#250,.T.);
#323=ORIENTED_EDGE('',*,*,#251,.T.);
#324=ORIENTED_EDGE('',*,*,#252,.T.);
#325=ORIENTED_EDGE('',*,*,#251,.F.);
#326=ORIENTED_EDGE('',*,*,#253,.F.);
#327=ORIENTED_EDGE('',*,*,#250,.F.);
#328=ORIENTED_EDGE('',*,*,#254,.T.);
#329=ORIENTED_EDGE('',*,*,#255,.T.);
#330=ORIENTED_EDGE('',*,*,#256,.T.);
#331=ORIENTED_EDGE('',*,*,#255,.F.);
#332=ORIENTED_EDGE('',*,*,#229,.T.);
#333=ORIENTED_EDGE('',*,*,#227,.T.);
#334=ORIENTED_EDGE('',*,*,#224,.T.);
#335=ORIENTED_EDGE('',*,*,#226,.T.);
#336=ORIENTED_EDGE('',*,*,#230,.T.);
#337=ORIENTED_EDGE('',*,*,#231,.T.);
#338=ORIENTED_EDGE('',*,*,#257,.F.);
#339=ORIENTED_EDGE('',*,*,#254,.F.);
#340=ORIENTED_EDGE('',*,*,#258,.T.);
#341=ORIENTED_EDGE('',*,*,#259,.T.);
#342=ORIENTED_EDGE('',*,*,#260,.T.);
#343=ORIENTED_EDGE('',*,*,#259,.F.);
#344=ORIENTED_EDGE('',*,*,#261,.F.);
#345=ORIENTED_EDGE('',*,*,#258,.F.);
#346=ORIENTED_EDGE('',*,*,#262,.T.);
#347=ORIENTED_EDGE('',*,*,#263,.T.);
#348=ORIENTED_EDGE('',*,*,#264,.T.);
#349=ORIENTED_EDGE('',*,*,#263,.F.);
#350=ORIENTED_EDGE('',*,*,#265,.F.);
#351=ORIENTED_EDGE('',*,*,#262,.F.);
#352=ORIENTED_EDGE('',*,*,#266,.T.);
#353=ORIENTED_EDGE('',*,*,#267,.T.);
#354=ORIENTED_EDGE('',*,*,#257,.T.);
#355=ORIENTED_EDGE('',*,*,#267,.F.);
#356=ORIENTED_EDGE('',*,*,#268,.T.);
#357=ORIENTED_EDGE('',*,*,#269,.T.);
#358=ORIENTED_EDGE('',*,*,#265,.T.);
#359=ORIENTED_EDGE('',*,*,#269,.F.);
#360=ORIENTED_EDGE('',*,*,#270,.T.);
#361=ORIENTED_EDGE('',*,*,#271,.T.);
#362=ORIENTED_EDGE('',*,*,#253,.T.);
#363=ORIENTED_EDGE('',*,*,#271,.F.);
#364=ORIENTED_EDGE('',*,*,#272,.T.);
#365=ORIENTED_EDGE('',*,*,#273,.T.);
#366=ORIENTED_EDGE('',*,*,#261,.T.);
#367=ORIENTED_EDGE('',*,*,#273,.F.);
#368=ORIENTED_EDGE('',*,*,#274,.T.);
#369=ORIENTED_EDGE('',*,*,#275,.T.);
#370=ORIENTED_EDGE('',*,*,#276,.T.);
#371=ORIENTED_EDGE('',*,*,#275,.F.);
#372=ORIENTED_EDGE('',*,*,#277,.F.);
#373=ORIENTED_EDGE('',*,*,#278,.T.);
#374=ORIENTED_EDGE('',*,*,#246,.T.);
#375=ORIENTED_EDGE('',*,*,#247,.T.);
#376=ORIENTED_EDGE('',*,*,#278,.F.);
#377=ORIENTED_EDGE('',*,*,#277,.T.);
#378=ORIENTED_EDGE('',*,*,#272,.F.);
#379=ORIENTED_EDGE('',*,*,#268,.F.);
#380=ORIENTED_EDGE('',*,*,#270,.F.);
#381=ORIENTED_EDGE('',*,*,#274,.F.);
#382=ORIENTED_EDGE('',*,*,#266,.F.);
#383=ORIENTED_EDGE('',*,*,#249,.F.);
#384=ORIENTED_EDGE('',*,*,#252,.F.);
#385=ORIENTED_EDGE('',*,*,#256,.F.);
#386=ORIENTED_EDGE('',*,*,#260,.F.);
#387=ORIENTED_EDGE('',*,*,#264,.F.);
#388=ORIENTED_EDGE('',*,*,#276,.F.);
#389=PLANE('',#436);
#390=PLANE('',#441);
#391=PLANE('',#461);
#392=PLANE('',#466);
#393=PLANE('',#471);
#394=PLANE('',#476);
#395=PLANE('',#491);
#396=PLANE('',#492);
#397=ADVANCED_FACE('',(#56),#389,.T.);
#398=ADVANCED_FACE('',(#57),#42,.F.);
#399=ADVANCED_FACE('',(#58),#43,.F.);
#400=ADVANCED_FACE('',(#59),#390,.T.);
#401=ADVANCED_FACE('',(#60),#44,.F.);
#402=ADVANCED_FACE('',(#61),#33,.T.);
#403=ADVANCED_FACE('',(#62),#32,.F.);
#404=ADVANCED_FACE('',(#63),#34,.T.);
#405=ADVANCED_FACE('',(#64),#45,.T.);
#406=ADVANCED_FACE('',(#65),#46,.F.);
#407=ADVANCED_FACE('',(#66,#15),#391,.T.);
#408=ADVANCED_FACE('',(#67,#16,#17,#18),#47,.F.);
#409=ADVANCED_FACE('',(#68,#19),#392,.T.);
#410=ADVANCED_FACE('',(#69),#48,.F.);
#411=ADVANCED_FACE('',(#70,#20),#393,.T.);
#412=ADVANCED_FACE('',(#71),#49,.F.);
#413=ADVANCED_FACE('',(#72,#21),#394,.T.);
#414=ADVANCED_FACE('',(#73),#50,.F.);
#415=ADVANCED_FACE('',(#74),#51,.F.);
#416=ADVANCED_FACE('',(#75),#52,.F.);
#417=ADVANCED_FACE('',(#76),#53,.F.);
#418=ADVANCED_FACE('',(#77),#54,.F.);
#419=ADVANCED_FACE('',(#78),#55,.T.);
#420=ADVANCED_FACE('',(#79,#22,#23,#24,#25,#26),#395,.T.);
#421=ADVANCED_FACE('',(#80,#27,#28,#29,#30,#31),#396,.F.);
#422=CLOSED_SHELL('',(#397,#398,#399,#400,#401,#402,#403,#404,#405,#406,
#407,#408,#409,#410,#411,#412,#413,#414,#415,#416,#417,#418,#419,#420,#421));
#423=DERIVED_UNIT_ELEMENT(#425,1.);
#424=DERIVED_UNIT_ELEMENT(#874,-3.);
#425=(
MASS_UNIT()
NAMED_UNIT(*)
SI_UNIT(.KILO.,.GRAM.)
);
#426=DERIVED_UNIT((#423,#424));
#427=MEASURE_REPRESENTATION_ITEM('density measure',
POSITIVE_RATIO_MEASURE(7850.),#426);
#428=PROPERTY_DEFINITION_REPRESENTATION(#433,#430);
#429=PROPERTY_DEFINITION_REPRESENTATION(#434,#431);
#430=REPRESENTATION('material name',(#432),#871);
#431=REPRESENTATION('density',(#427),#871);
#432=DESCRIPTIVE_REPRESENTATION_ITEM('\X2\92FC\X0\','\X2\92FC\X0\');
#433=PROPERTY_DEFINITION('material property','material name',#881);
#434=PROPERTY_DEFINITION('material property','density of part',#881);
#435=AXIS2_PLACEMENT_3D('',#625,#493,#494);
#436=AXIS2_PLACEMENT_3D('',#626,#495,#496);
#437=AXIS2_PLACEMENT_3D('',#630,#498,#499);
#438=AXIS2_PLACEMENT_3D('',#631,#500,#501);
#439=AXIS2_PLACEMENT_3D('',#650,#502,#503);
#440=AXIS2_PLACEMENT_3D('',#672,#504,#505);
#441=AXIS2_PLACEMENT_3D('',#673,#506,#507);
#442=AXIS2_PLACEMENT_3D('',#675,#509,#510);
#443=AXIS2_PLACEMENT_3D('',#778,#512,#513);
#444=AXIS2_PLACEMENT_3D('',#781,#514,#515);
#445=AXIS2_PLACEMENT_3D('',#782,#516,#517);
#446=AXIS2_PLACEMENT_3D('',#786,#519,#520);
#447=AXIS2_PLACEMENT_3D('',#787,#521,#522);
#448=AXIS2_PLACEMENT_3D('',#788,#523,#524);
#449=AXIS2_PLACEMENT_3D('',#789,#525,#526);
#450=AXIS2_PLACEMENT_3D('',#791,#527,#528);
#451=AXIS2_PLACEMENT_3D('',#793,#529,#530);
#452=AXIS2_PLACEMENT_3D('',#794,#531,#532);
#453=AXIS2_PLACEMENT_3D('',#795,#533,#534);
#454=AXIS2_PLACEMENT_3D('',#799,#536,#537);
#455=AXIS2_PLACEMENT_3D('',#800,#538,#539);
#456=AXIS2_PLACEMENT_3D('',#801,#540,#541);
#457=AXIS2_PLACEMENT_3D('',#804,#543,#544);
#458=AXIS2_PLACEMENT_3D('',#805,#545,#546);
#459=AXIS2_PLACEMENT_3D('',#807,#547,#548);
#460=AXIS2_PLACEMENT_3D('',#810,#550,#551);
#461=AXIS2_PLACEMENT_3D('',#811,#552,#553);
#462=AXIS2_PLACEMENT_3D('',#813,#554,#555);
#463=AXIS2_PLACEMENT_3D('',#814,#556,#557);
#464=AXIS2_PLACEMENT_3D('',#816,#558,#559);
#465=AXIS2_PLACEMENT_3D('',#819,#561,#562);
#466=AXIS2_PLACEMENT_3D('',#820,#563,#564);
#467=AXIS2_PLACEMENT_3D('',#822,#565,#566);
#468=AXIS2_PLACEMENT_3D('',#823,#567,#568);
#469=AXIS2_PLACEMENT_3D('',#825,#569,#570);
#470=AXIS2_PLACEMENT_3D('',#828,#572,#573);
#471=AXIS2_PLACEMENT_3D('',#829,#574,#575);
#472=AXIS2_PLACEMENT_3D('',#831,#576,#577);
#473=AXIS2_PLACEMENT_3D('',#832,#578,#579);
#474=AXIS2_PLACEMENT_3D('',#834,#580,#581);
#475=AXIS2_PLACEMENT_3D('',#837,#583,#584);
#476=AXIS2_PLACEMENT_3D('',#838,#585,#586);
#477=AXIS2_PLACEMENT_3D('',#840,#587,#588);
#478=AXIS2_PLACEMENT_3D('',#841,#589,#590);
#479=AXIS2_PLACEMENT_3D('',#843,#591,#592);
#480=AXIS2_PLACEMENT_3D('',#845,#594,#595);
#481=AXIS2_PLACEMENT_3D('',#847,#596,#597);
#482=AXIS2_PLACEMENT_3D('',#849,#599,#600);
#483=AXIS2_PLACEMENT_3D('',#851,#601,#602);
#484=AXIS2_PLACEMENT_3D('',#853,#604,#605);
#485=AXIS2_PLACEMENT_3D('',#855,#606,#607);
#486=AXIS2_PLACEMENT_3D('',#857,#609,#610);
#487=AXIS2_PLACEMENT_3D('',#859,#611,#612);
#488=AXIS2_PLACEMENT_3D('',#862,#614,#615);
#489=AXIS2_PLACEMENT_3D('',#863,#616,#617);
#490=AXIS2_PLACEMENT_3D('',#865,#618,#619);
#491=AXIS2_PLACEMENT_3D('',#867,#621,#622);
#492=AXIS2_PLACEMENT_3D('',#868,#623,#624);
#493=DIRECTION('axis',(0.,0.,1.));
#494=DIRECTION('refdir',(1.,0.,0.));
#495=DIRECTION('center_axis',(0.939692620785908,0.,0.342020143325669));
#496=DIRECTION('ref_axis',(0.,1.,0.));
#497=DIRECTION('',(0.34202014332595,0.,-0.939692620785806));
#498=DIRECTION('center_axis',(0.939692620785908,0.,0.342020143325669));
#499=DIRECTION('ref_axis',(0.,1.,0.));
#500=DIRECTION('center_axis',(0.939692620785909,0.,0.342020143325669));
#501=DIRECTION('ref_axis',(1.79337199206541E-13,-1.,-4.92724905288207E-13));
#502=DIRECTION('center_axis',(0.939692620785909,0.,0.342020143325669));
#503=DIRECTION('ref_axis',(0.,1.,0.));
#504=DIRECTION('center_axis',(0.939692620785908,0.,0.342020143325669));
#505=DIRECTION('ref_axis',(0.,1.,0.));
#506=DIRECTION('center_axis',(0.939692620785908,0.,0.342020143325669));
#507=DIRECTION('ref_axis',(0.,1.,0.));
#508=DIRECTION('',(-0.34202014332595,0.,0.939692620785806));
#509=DIRECTION('center_axis',(0.939692620785909,0.,0.342020143325669));
#510=DIRECTION('ref_axis',(0.,1.,0.));
#511=DIRECTION('',(0.939692620785908,0.,0.342020143325669));
#512=DIRECTION('center_axis',(0.34202014332595,-6.12323399573677E-17,-0.939692620785806));
#513=DIRECTION('ref_axis',(2.09426936884022E-17,1.,-5.75395780113863E-17));
#514=DIRECTION('center_axis',(0.34202014332595,0.,-0.939692620785806));
#515=DIRECTION('ref_axis',(0.939692620785806,0.,0.34202014332595));
#516=DIRECTION('center_axis',(0.34202014332595,0.,-0.939692620785806));
#517=DIRECTION('ref_axis',(0.939692620785806,0.,0.34202014332595));
#518=DIRECTION('',(-0.127023092356552,0.928476690885259,0.348993077998601));
#519=DIRECTION('center_axis',(-0.34202014332595,-4.00016446168414E-16,0.939692620785806));
#520=DIRECTION('ref_axis',(-0.939692620785806,1.44170862586036E-15,-0.34202014332595));
#521=DIRECTION('center_axis',(-0.34202014332595,-4.00016446168414E-16,0.939692620785806));
#522=DIRECTION('ref_axis',(-0.939692620785806,1.44170862586036E-15,-0.34202014332595));
#523=DIRECTION('center_axis',(-0.34202014332595,-4.00016446168414E-16,0.939692620785806));
#524=DIRECTION('ref_axis',(-0.939692620785806,1.44170862586036E-15,-0.34202014332595));
#525=DIRECTION('center_axis',(-0.34202014332595,6.12323399573677E-17,0.939692620785806));
#526=DIRECTION('ref_axis',(0.939692620785806,0.,0.34202014332595));
#527=DIRECTION('center_axis',(-2.09426936884022E-17,-1.,5.75395780113862E-17));
#528=DIRECTION('ref_axis',(-0.939692620785806,0.,-0.34202014332595));
#529=DIRECTION('center_axis',(0.34202014332595,2.45924761527471E-16,-0.939692620785806));
#530=DIRECTION('ref_axis',(-0.939692620785806,1.44170862586036E-15,-0.34202014332595));
#531=DIRECTION('center_axis',(0.34202014332595,2.45924761527471E-16,-0.939692620785806));
#532=DIRECTION('ref_axis',(-0.939692620785806,1.44170862586036E-15,-0.34202014332595));
#533=DIRECTION('center_axis',(-0.34202014332595,6.12323399573677E-17,0.939692620785806));
#534=DIRECTION('ref_axis',(2.09426936884022E-17,1.,-5.75395780113863E-17));
#535=DIRECTION('',(-0.127023092356552,-0.928476690885259,0.348993077998601));
#536=DIRECTION('center_axis',(-0.34202014332595,0.,0.939692620785806));
#537=DIRECTION('ref_axis',(0.939692620785806,0.,0.34202014332595));
#538=DIRECTION('center_axis',(-0.34202014332595,0.,0.939692620785806));
#539=DIRECTION('ref_axis',(0.939692620785806,0.,0.34202014332595));
#540=DIRECTION('center_axis',(-0.34202014332595,0.,0.939692620785806));
#541=DIRECTION('ref_axis',(0.939692620785806,0.,0.34202014332595));
#542=DIRECTION('',(0.34202014332595,0.,-0.939692620785806));
#543=DIRECTION('center_axis',(-0.34202014332595,6.12323399573677E-17,0.939692620785806));
#544=DIRECTION('ref_axis',(0.939692620785806,0.,0.34202014332595));
#545=DIRECTION('center_axis',(-0.34202014332595,0.,0.939692620785806));
#546=DIRECTION('ref_axis',(0.939692620785806,0.,0.34202014332595));
#547=DIRECTION('center_axis',(0.34202014332595,-6.12323399573676E-17,-0.939692620785806));
#548=DIRECTION('ref_axis',(0.939692620785806,0.,0.34202014332595));
#549=DIRECTION('',(0.34202014332595,0.,-0.939692620785806));
#550=DIRECTION('center_axis',(0.34202014332595,-6.12323399573677E-17,-0.939692620785806));
#551=DIRECTION('ref_axis',(0.939692620785806,0.,0.34202014332595));
#552=DIRECTION('center_axis',(-0.34202014332595,6.12323399573676E-17,0.939692620785806));
#553=DIRECTION('ref_axis',(0.939692620785806,0.,0.34202014332595));
#554=DIRECTION('center_axis',(0.34202014332595,-6.12323399573676E-17,-0.939692620785806));
#555=DIRECTION('ref_axis',(0.939692620785806,0.,0.342020143325949));
#556=DIRECTION('center_axis',(-0.34202014332595,0.,0.939692620785806));
#557=DIRECTION('ref_axis',(0.939692620785806,0.,0.34202014332595));
#558=DIRECTION('center_axis',(0.34202014332595,-6.12323399573676E-17,-0.939692620785806));
#559=DIRECTION('ref_axis',(0.939692620785806,0.,0.34202014332595));
#560=DIRECTION('',(0.34202014332595,0.,-0.939692620785806));
#561=DIRECTION('center_axis',(0.34202014332595,-6.12323399573677E-17,-0.939692620785806));
#562=DIRECTION('ref_axis',(0.939692620785806,0.,0.34202014332595));
#563=DIRECTION('center_axis',(-0.34202014332595,6.12323399573676E-17,0.939692620785806));
#564=DIRECTION('ref_axis',(0.939692620785806,0.,0.34202014332595));
#565=DIRECTION('center_axis',(0.34202014332595,-6.12323399573676E-17,-0.939692620785806));
#566=DIRECTION('ref_axis',(0.939692620785806,0.,0.342020143325949));
#567=DIRECTION('center_axis',(-0.342020143325949,0.,0.939692620785806));
#568=DIRECTION('ref_axis',(0.939692620785806,0.,0.342020143325949));
#569=DIRECTION('center_axis',(0.34202014332595,-6.12323399573676E-17,-0.939692620785806));
#570=DIRECTION('ref_axis',(0.939692620785806,0.,0.342020143325949));
#571=DIRECTION('',(0.342020143325949,0.,-0.939692620785806));
#572=DIRECTION('center_axis',(0.34202014332595,-6.12323399573677E-17,-0.939692620785806));
#573=DIRECTION('ref_axis',(0.939692620785806,0.,0.34202014332595));
#574=DIRECTION('center_axis',(-0.34202014332595,6.12323399573676E-17,0.939692620785806));
#575=DIRECTION('ref_axis',(0.939692620785806,0.,0.34202014332595));
#576=DIRECTION('center_axis',(0.34202014332595,-6.12323399573676E-17,-0.939692620785806));
#577=DIRECTION('ref_axis',(0.939692620785806,0.,0.342020143325949));
#578=DIRECTION('center_axis',(-0.34202014332595,0.,0.939692620785806));
#579=DIRECTION('ref_axis',(0.939692620785806,0.,0.34202014332595));
#580=DIRECTION('center_axis',(0.34202014332595,-6.12323399573676E-17,-0.939692620785806));
#581=DIRECTION('ref_axis',(0.939692620785806,0.,0.34202014332595));
#582=DIRECTION('',(0.34202014332595,0.,-0.939692620785806));
#583=DIRECTION('center_axis',(0.34202014332595,-6.12323399573677E-17,-0.939692620785806));
#584=DIRECTION('ref_axis',(0.939692620785806,0.,0.34202014332595));
#585=DIRECTION('center_axis',(-0.34202014332595,6.12323399573676E-17,0.939692620785806));
#586=DIRECTION('ref_axis',(0.939692620785806,0.,0.34202014332595));
#587=DIRECTION('center_axis',(0.34202014332595,-6.12323399573676E-17,-0.939692620785806));
#588=DIRECTION('ref_axis',(0.939692620785806,0.,0.342020143325949));
#589=DIRECTION('center_axis',(-0.342020143325949,0.,0.939692620785806));
#590=DIRECTION('ref_axis',(0.939692620785806,0.,0.342020143325949));
#591=DIRECTION('center_axis',(-0.34202014332595,6.12323399573676E-17,0.939692620785806));
#592=DIRECTION('ref_axis',(0.939692620785806,0.,0.342020143325949));
#593=DIRECTION('',(0.342020143325949,0.,-0.939692620785806));
#594=DIRECTION('center_axis',(-0.342020143325949,0.,0.939692620785806));
#595=DIRECTION('ref_axis',(0.939692620785806,0.,0.342020143325949));
#596=DIRECTION('center_axis',(-0.34202014332595,6.12323399573676E-17,0.939692620785806));
#597=DIRECTION('ref_axis',(0.939692620785806,0.,0.342020143325949));
#598=DIRECTION('',(0.342020143325949,0.,-0.939692620785806));
#599=DIRECTION('center_axis',(-0.342020143325949,0.,0.939692620785806));
#600=DIRECTION('ref_axis',(0.939692620785806,0.,0.342020143325949));
#601=DIRECTION('center_axis',(-0.34202014332595,6.12323399573676E-17,0.939692620785806));
#602=DIRECTION('ref_axis',(0.939692620785806,0.,0.342020143325949));
#603=DIRECTION('',(0.342020143325949,0.,-0.939692620785806));
#604=DIRECTION('center_axis',(-0.342020143325949,0.,0.939692620785806));
#605=DIRECTION('ref_axis',(0.939692620785806,0.,0.342020143325949));
#606=DIRECTION('center_axis',(-0.34202014332595,6.12323399573676E-17,0.939692620785806));
#607=DIRECTION('ref_axis',(0.939692620785806,0.,0.342020143325949));
#608=DIRECTION('',(0.342020143325949,0.,-0.939692620785806));
#609=DIRECTION('center_axis',(-0.342020143325949,0.,0.939692620785806));
#610=DIRECTION('ref_axis',(0.939692620785806,-3.39907768361724E-33,0.342020143325949));
#611=DIRECTION('center_axis',(-0.34202014332595,6.12323399573676E-17,0.939692620785806));
#612=DIRECTION('ref_axis',(0.939692620785806,-3.39907768361724E-33,0.342020143325949));
#613=DIRECTION('',(0.342020143325949,0.,-0.939692620785806));
#614=DIRECTION('center_axis',(0.34202014332595,-6.12323399573677E-17,-0.939692620785806));
#615=DIRECTION('ref_axis',(0.939692620785806,-3.39907768361724E-33,0.34202014332595));
#616=DIRECTION('center_axis',(-0.34202014332595,0.,0.939692620785806));
#617=DIRECTION('ref_axis',(0.939692620785806,0.,0.34202014332595));
#618=DIRECTION('center_axis',(-0.34202014332595,6.12323399573676E-17,0.939692620785806));
#619=DIRECTION('ref_axis',(0.939692620785806,0.,0.34202014332595));
#620=DIRECTION('',(0.34202014332595,0.,-0.939692620785806));
#621=DIRECTION('center_axis',(-0.34202014332595,6.12323399573676E-17,0.939692620785806));
#622=DIRECTION('ref_axis',(0.939692620785806,0.,0.34202014332595));
#623=DIRECTION('center_axis',(-0.34202014332595,6.12323399573677E-17,0.939692620785806));
#624=DIRECTION('ref_axis',(0.939692620785806,0.,0.34202014332595));
#625=CARTESIAN_POINT('',(0.,0.,0.));
#626=CARTESIAN_POINT('Origin',(-5.22012105253154,26.5,46.9611867194089));
#627=CARTESIAN_POINT('',(-5.45892362159172,25.9321091654199,47.6172913856095));
#628=CARTESIAN_POINT('',(-4.98131848347116,25.9321091654206,46.3050820532078));
#629=CARTESIAN_POINT('',(-4.19406062255505,25.9321091654218,44.1421088570526));
#630=CARTESIAN_POINT('Origin',(-5.22012105253154,26.5,46.9611867194089));
#631=CARTESIAN_POINT('Origin',(-5.22012105253154,26.5,46.9611867194089));
#632=CARTESIAN_POINT('Ctrl Pts',(-4.98131848347116,25.9321091654206,46.3050820532078));
#633=CARTESIAN_POINT('Ctrl Pts',(-4.97509136762409,25.9077331419393,46.328447184368));
#634=CARTESIAN_POINT('Ctrl Pts',(-4.96886506371819,25.8848606609013,46.3527768574121));
#635=CARTESIAN_POINT('Ctrl Pts',(-4.94078411511087,25.7853901415698,46.4688518025444));
#636=CARTESIAN_POINT('Ctrl Pts',(-4.91756253181655,25.7178845279178,46.5810072496154));
#637=CARTESIAN_POINT('Ctrl Pts',(-4.90572387471383,25.6485377577655,46.7590239502098));
#638=CARTESIAN_POINT('Ctrl Pts',(-4.90579089315274,25.6305374336067,46.820003385969));
#639=CARTESIAN_POINT('Ctrl Pts',(-4.91900822107461,25.6062730297093,46.9409662142324));
#640=CARTESIAN_POINT('Ctrl Pts',(-4.9322469575252,25.6,47.000938132619));
#641=CARTESIAN_POINT('Ctrl Pts',(-4.97404498585507,25.6,47.115777271633));
#642=CARTESIAN_POINT('Ctrl Pts',(-5.00245273143127,25.6062730297093,47.1702281222146));
#643=CARTESIAN_POINT('Ctrl Pts',(-5.07008107806425,25.6305374336067,47.271386959251));
#644=CARTESIAN_POINT('Ctrl Pts',(-5.10922656471327,25.6485377577655,47.318142995781));
#645=CARTESIAN_POINT('Ctrl Pts',(-5.2327224316603,25.7178845279178,47.4469019579528));
#646=CARTESIAN_POINT('Ctrl Pts',(-5.32260332823945,25.7853901415698,47.5178914689281));
#647=CARTESIAN_POINT('Ctrl Pts',(-5.41872611940353,25.8848606609011,47.5887599497988));
#648=CARTESIAN_POINT('Ctrl Pts',(-5.43913455729206,25.9077331419388,47.6033953696321));
#649=CARTESIAN_POINT('Ctrl Pts',(-5.45892362159172,25.9321091654199,47.6172913856095));
#650=CARTESIAN_POINT('Origin',(-5.22012105253154,26.5,46.9611867194089));
#651=CARTESIAN_POINT('',(-5.4589236215917,27.0678908345801,47.6172913856094));
#652=CARTESIAN_POINT('',(-4.98131848347118,27.0678908345794,46.3050820532078));
#653=CARTESIAN_POINT('Ctrl Pts',(-5.4589236215917,27.0678908345801,47.6172913856094));
#654=CARTESIAN_POINT('Ctrl Pts',(-5.43913455716727,27.0922668582149,47.6033953695445));
#655=CARTESIAN_POINT('Ctrl Pts',(-5.41872611918812,27.1151393393218,47.58875994964));
#656=CARTESIAN_POINT('Ctrl Pts',(-5.32260332823951,27.2146098584301,47.5178914689281));
#657=CARTESIAN_POINT('Ctrl Pts',(-5.23272243166037,27.2821154720821,47.4469019579528));
#658=CARTESIAN_POINT('Ctrl Pts',(-5.10922656471335,27.3514622422344,47.318142995781));
#659=CARTESIAN_POINT('Ctrl Pts',(-5.07008107806434,27.3694625663933,47.271386959251));
#660=CARTESIAN_POINT('Ctrl Pts',(-5.00245273143136,27.3937269702906,47.1702281222145));
#661=CARTESIAN_POINT('Ctrl Pts',(-4.97404498585516,27.4,47.1157772716329));
#662=CARTESIAN_POINT('Ctrl Pts',(-4.95314597169023,27.4,47.058357702126));
#663=CARTESIAN_POINT('Ctrl Pts',(-4.9322469575253,27.4,47.000938132619));
#664=CARTESIAN_POINT('Ctrl Pts',(-4.9190082210747,27.3937269702906,46.9409662142324));
#665=CARTESIAN_POINT('Ctrl Pts',(-4.90579089315283,27.3694625663933,46.820003385969));
#666=CARTESIAN_POINT('Ctrl Pts',(-4.90572387471392,27.3514622422344,46.7590239502098));
#667=CARTESIAN_POINT('Ctrl Pts',(-4.91756253181662,27.2821154720822,46.5810072496153));
#668=CARTESIAN_POINT('Ctrl Pts',(-4.94078411511093,27.2146098584302,46.4688518025444));
#669=CARTESIAN_POINT('Ctrl Pts',(-4.96886506371823,27.1151393390986,46.3527768574121));
#670=CARTESIAN_POINT('Ctrl Pts',(-4.97509136762412,27.0922668580607,46.3284471843681));
#671=CARTESIAN_POINT('Ctrl Pts',(-4.98131848347118,27.0678908345794,46.3050820532078));
#672=CARTESIAN_POINT('Origin',(-5.22012105253154,26.5,46.9611867194089));
#673=CARTESIAN_POINT('Origin',(-5.22012105253154,26.5,46.9611867194089));
#674=CARTESIAN_POINT('',(-4.19406062255505,27.0678908345782,44.1421088570526));
#675=CARTESIAN_POINT('Origin',(-5.22012105253154,26.5,46.9611867194089));
#676=CARTESIAN_POINT('',(-3.60771089180075,27.4,47.5480560233433));
#677=CARTESIAN_POINT('',(-3.60771089180086,25.6,47.5480560233433));
#678=CARTESIAN_POINT('Ctrl Pts',(-3.60771089180075,27.4,47.5480560233433));
#679=CARTESIAN_POINT('Ctrl Pts',(-3.62860990596568,27.4,47.6054755928503));
#680=CARTESIAN_POINT('Ctrl Pts',(-3.64184864241628,27.3937269702906,47.6654475112369));
#681=CARTESIAN_POINT('Ctrl Pts',(-3.65506597033815,27.3694625663933,47.7864103395003));
#682=CARTESIAN_POINT('Ctrl Pts',(-3.65513298877706,27.3514622422344,47.8473897752595));
#683=CARTESIAN_POINT('Ctrl Pts',(-3.64329433167436,27.2821154720822,48.0254064758539));
#684=CARTESIAN_POINT('Ctrl Pts',(-3.62007274838005,27.2146098584301,48.1375619229249));
#685=CARTESIAN_POINT('Ctrl Pts',(-3.57651141255434,27.0603035079591,48.3176263408535));
#686=CARTESIAN_POINT('Ctrl Pts',(-3.55232658676878,26.9627117239404,48.3995441996687));
#687=CARTESIAN_POINT('Ctrl Pts',(-3.51770027328505,26.7421286715817,48.512043257763));
#688=CARTESIAN_POINT('Ctrl Pts',(-3.50760004683505,26.6188949390281,48.5422533862664));
#689=CARTESIAN_POINT('Ctrl Pts',(-3.50760004683505,26.3811050609718,48.5422533862664));
#690=CARTESIAN_POINT('Ctrl Pts',(-3.51770027328506,26.2578713284182,48.512043257763));
#691=CARTESIAN_POINT('Ctrl Pts',(-3.55232658676881,26.0372882760595,48.3995441996687));
#692=CARTESIAN_POINT('Ctrl Pts',(-3.57651141255438,25.9396964920408,48.3176263408535));
#693=CARTESIAN_POINT('Ctrl Pts',(-3.6200727483801,25.7853901415698,48.1375619229249));
#694=CARTESIAN_POINT('Ctrl Pts',(-3.64329433167443,25.7178845279178,48.0254064758539));
#695=CARTESIAN_POINT('Ctrl Pts',(-3.65513298877715,25.6485377577655,47.8473897752595));
#696=CARTESIAN_POINT('Ctrl Pts',(-3.65506597033824,25.6305374336067,47.7864103395002));
#697=CARTESIAN_POINT('Ctrl Pts',(-3.64184864241637,25.6062730297093,47.6654475112369));
#698=CARTESIAN_POINT('Ctrl Pts',(-3.62860990596578,25.6,47.6054755928502));
#699=CARTESIAN_POINT('Ctrl Pts',(-3.60771089180085,25.6,47.5480560233433));
#700=CARTESIAN_POINT('Ctrl Pts',(-3.60771089180085,25.6,47.5480560233433));
#701=CARTESIAN_POINT('Ctrl Pts',(-3.58681187763591,25.6,47.4906364538363));
#702=CARTESIAN_POINT('Ctrl Pts',(-3.55840413205972,25.6062730297093,47.4361856032547));
#703=CARTESIAN_POINT('Ctrl Pts',(-3.49077578542674,25.6305374336067,47.3350267662183));
#704=CARTESIAN_POINT('Ctrl Pts',(-3.45163029877773,25.6485377577655,47.2882707296883));
#705=CARTESIAN_POINT('Ctrl Pts',(-3.3281344318307,25.7178845279178,47.1595117675165));
#706=CARTESIAN_POINT('Ctrl Pts',(-3.23825353525155,25.7853901415698,47.0885222565412));
#707=CARTESIAN_POINT('Ctrl Pts',(-3.08914043921739,25.9396964920408,46.9785855967137));
#708=CARTESIAN_POINT('Ctrl Pts',(-3.01795800315807,26.0372882760594,46.9313785825335));
#709=CARTESIAN_POINT('Ctrl Pts',(-2.91911970748363,26.2578713284182,46.8674566695007));
#710=CARTESIAN_POINT('Ctrl Pts',(-2.89196378884835,26.3811050609718,46.8508066688519));
#711=CARTESIAN_POINT('Ctrl Pts',(-2.89196378884834,26.6188949390281,46.8508066688519));
#712=CARTESIAN_POINT('Ctrl Pts',(-2.91911970748362,26.7421286715818,46.8674566695007));
#713=CARTESIAN_POINT('Ctrl Pts',(-3.01795800315804,26.9627117239405,46.9313785825336));
#714=CARTESIAN_POINT('Ctrl Pts',(-3.08914043921735,27.0603035079591,46.9785855967137));
#715=CARTESIAN_POINT('Ctrl Pts',(-3.23825353525149,27.2146098584302,47.0885222565412));
#716=CARTESIAN_POINT('Ctrl Pts',(-3.32813443183062,27.2821154720822,47.1595117675165));
#717=CARTESIAN_POINT('Ctrl Pts',(-3.45163029877764,27.3514622422344,47.2882707296883));
#718=CARTESIAN_POINT('Ctrl Pts',(-3.49077578542665,27.3694625663933,47.3350267662183));
#719=CARTESIAN_POINT('Ctrl Pts',(-3.55840413205962,27.3937269702906,47.4361856032547));
#720=CARTESIAN_POINT('Ctrl Pts',(-3.58681187763582,27.4,47.4906364538363));
#721=CARTESIAN_POINT('Ctrl Pts',(-3.60771089180075,27.4,47.5480560233433));
#722=CARTESIAN_POINT('',(1.16251772185674,25.6,49.2842772493603));
#723=CARTESIAN_POINT('',(-5.22012105253154,25.6,46.9611867194089));
#724=CARTESIAN_POINT('',(1.78218483347272,25.708540762028,49.0538422626813));
#725=CARTESIAN_POINT('Ctrl Pts',(1.78218483347272,25.708540762028,49.0538422626813));
#726=CARTESIAN_POINT('Ctrl Pts',(1.68898113722084,25.6900501785312,49.0562656889894));
#727=CARTESIAN_POINT('Ctrl Pts',(1.59646829009507,25.6681505601736,49.0712549919134));
#728=CARTESIAN_POINT('Ctrl Pts',(1.41028110984999,25.6278723540706,49.1281137090153));
#729=CARTESIAN_POINT('Ctrl Pts',(1.31683073775718,25.6098826153725,49.1725801489559));
#730=CARTESIAN_POINT('Ctrl Pts',(1.20776938447311,25.601042693236,49.2481284464823));
#731=CARTESIAN_POINT('Ctrl Pts',(1.18468116623347,25.6,49.2657273886225));
#732=CARTESIAN_POINT('Ctrl Pts',(1.16251772185652,25.6,49.2842772493609));
#733=CARTESIAN_POINT('',(1.78218483347272,27.2914592379719,49.0538422626813));
#734=CARTESIAN_POINT('Ctrl Pts',(1.78218483347272,27.2914592379719,49.0538422626813));
#735=CARTESIAN_POINT('Ctrl Pts',(1.91499595617025,27.2651109787043,49.050388987954));
#736=CARTESIAN_POINT('Ctrl Pts',(2.04395314732206,27.2337872680672,49.0471208874402));
#737=CARTESIAN_POINT('Ctrl Pts',(2.42415985223356,27.1203682402845,49.0376805441922));
#738=CARTESIAN_POINT('Ctrl Pts',(2.72431713454356,27.0030299665389,49.0306137622027));
#739=CARTESIAN_POINT('Ctrl Pts',(2.95906467415204,26.7755987065489,49.0252537134067));
#740=CARTESIAN_POINT('Ctrl Pts',(3.00011877489822,26.7265470124859,49.0243236167801));
#741=CARTESIAN_POINT('Ctrl Pts',(3.05839193995424,26.6180215418835,49.0230087426837));
#742=CARTESIAN_POINT('Ctrl Pts',(3.07508435315162,26.5582656719322,49.0226345789734));
#743=CARTESIAN_POINT('Ctrl Pts',(3.07508435315162,26.4417343280677,49.0226345789734));
#744=CARTESIAN_POINT('Ctrl Pts',(3.05839193995423,26.3819784581164,49.0230087426837));
#745=CARTESIAN_POINT('Ctrl Pts',(3.00011877489822,26.273452987514,49.0243236167801));
#746=CARTESIAN_POINT('Ctrl Pts',(2.95906467415204,26.224401293451,49.0252537134067));
#747=CARTESIAN_POINT('Ctrl Pts',(2.72431713454356,25.996970033461,49.0306137622027));
#748=CARTESIAN_POINT('Ctrl Pts',(2.42415985223355,25.8796317597154,49.0376805441922));
#749=CARTESIAN_POINT('Ctrl Pts',(2.04395314732205,25.7662127319327,49.0471208874402));
#750=CARTESIAN_POINT('Ctrl Pts',(1.91499595617024,25.7348890212957,49.050388987954));
#751=CARTESIAN_POINT('Ctrl Pts',(1.78218483347272,25.708540762028,49.0538422626813));
#752=CARTESIAN_POINT('Ctrl Pts',(1.16251772185652,25.6,49.2842772493609));
#753=CARTESIAN_POINT('Ctrl Pts',(1.1118134344506,25.6,49.3267145823954));
#754=CARTESIAN_POINT('Ctrl Pts',(1.06595412391854,25.6054371526036,49.3741346879129));
#755=CARTESIAN_POINT('Ctrl Pts',(0.97351536597988,25.6345966576479,49.492728741291));
#756=CARTESIAN_POINT('Ctrl Pts',(0.933445188588745,25.6624593257737,49.5633305140194));
#757=CARTESIAN_POINT('Ctrl Pts',(0.868123238211695,25.7507986679762,49.7192908629276));
#758=CARTESIAN_POINT('Ctrl Pts',(0.849261507929939,25.8145358365754,49.8005584579496));
#759=CARTESIAN_POINT('Ctrl Pts',(0.829133526918348,25.9776200059826,49.9529631288436));
#760=CARTESIAN_POINT('Ctrl Pts',(0.830811022960064,26.079643709417,50.019804670598));
#761=CARTESIAN_POINT('Ctrl Pts',(0.836290107274441,26.2893453114632,50.1033066926042));
#762=CARTESIAN_POINT('Ctrl Pts',(0.839468872501582,26.3931724529995,50.1243631259445));
#763=CARTESIAN_POINT('Ctrl Pts',(0.839494885097723,26.6173510840601,50.1245704467843));
#764=CARTESIAN_POINT('Ctrl Pts',(0.835810398102969,26.7257243455686,50.0988949930919));
#765=CARTESIAN_POINT('Ctrl Pts',(0.83081194056604,26.9243212134448,50.016283391607));
#766=CARTESIAN_POINT('Ctrl Pts',(0.82963127650254,27.0188802813204,49.9543695740707));
#767=CARTESIAN_POINT('Ctrl Pts',(0.84643078393688,27.1680178278322,49.8182216418033));
#768=CARTESIAN_POINT('Ctrl Pts',(0.861070212863142,27.2262228683758,49.7485711307887));
#769=CARTESIAN_POINT('Ctrl Pts',(0.914621825355449,27.3196654850306,49.6012944565194));
#770=CARTESIAN_POINT('Ctrl Pts',(0.952557666782076,27.3533090645572,49.5263759641323));
#771=CARTESIAN_POINT('Ctrl Pts',(1.05557344181609,27.3949036960005,49.3830094042957));
#772=CARTESIAN_POINT('Ctrl Pts',(1.11760640623808,27.4020024684761,49.318452167663));
#773=CARTESIAN_POINT('Ctrl Pts',(1.28027539066921,27.3963648855145,49.191895462368));
#774=CARTESIAN_POINT('Ctrl Pts',(1.3831315503339,27.3776744612381,49.1385452300737));
#775=CARTESIAN_POINT('Ctrl Pts',(1.58512373930083,27.3345450866817,49.0731432769692));
#776=CARTESIAN_POINT('Ctrl Pts',(1.68325467840255,27.3110858876247,49.0564145849185));
#777=CARTESIAN_POINT('Ctrl Pts',(1.78218483347272,27.2914592379719,49.0538422626813));
#778=CARTESIAN_POINT('Origin',(-9.74757408479796,26.5,44.7812396923877));
#779=CARTESIAN_POINT('',(-23.5009432532591,26.5,38.7112449217126));
#780=CARTESIAN_POINT('',(-9.40555394147201,11.4999999999999,43.8415470716019));
#781=CARTESIAN_POINT('Origin',(-9.40555394147201,26.5,43.8415470716019));
#782=CARTESIAN_POINT('Origin',(-9.40555394147201,26.5,43.8415470716019));
#783=CARTESIAN_POINT('',(-9.77203649723253,14.1788082727868,44.848449618177));
#784=CARTESIAN_POINT('',(-9.74757408479796,14.,44.7812396923877));
#785=CARTESIAN_POINT('',(-21.3501694425819,26.5,40.634353857689));
#786=CARTESIAN_POINT('Origin',(-9.77203649723253,26.5,44.848449618177));
#787=CARTESIAN_POINT('Origin',(-9.77203649723253,26.5,44.848449618177));
#788=CARTESIAN_POINT('Origin',(-9.77203649723253,26.5,44.848449618177));
#789=CARTESIAN_POINT('Origin',(-10.0895942281239,26.5,45.7209323131735));
#790=CARTESIAN_POINT('',(-21.9852849043646,26.5,42.379319247682));
#791=CARTESIAN_POINT('Origin',(-22.0167202514718,26.5,41.379813460329));
#792=CARTESIAN_POINT('',(-10.4071519590153,14.1788082727868,46.59341500817));
#793=CARTESIAN_POINT('Origin',(-10.4071519590153,26.5,46.59341500817));
#794=CARTESIAN_POINT('Origin',(-10.4071519590153,26.5,46.59341500817));
#795=CARTESIAN_POINT('Origin',(-10.4316143714499,26.5,46.6606249339593));
#796=CARTESIAN_POINT('',(-10.7736345147758,11.4999999999999,47.6003175547451));
#797=CARTESIAN_POINT('',(-10.4316143714499,14.,46.6606249339593));
#798=CARTESIAN_POINT('',(-24.8690238265629,26.5,42.4700154048559));
#799=CARTESIAN_POINT('Origin',(-10.7736345147758,26.5,47.6003175547451));
#800=CARTESIAN_POINT('Origin',(-10.7736345147758,26.5,47.6003175547451));
#801=CARTESIAN_POINT('Origin',(-8.89252372648309,26.5,42.4320081404232));
#802=CARTESIAN_POINT('',(-22.9879130382702,26.5,37.301705990534));
#803=CARTESIAN_POINT('',(-22.9879130382702,26.5,37.3017059905339));
#804=CARTESIAN_POINT('Origin',(-8.89252372648309,26.5,42.4320081404232));
#805=CARTESIAN_POINT('Origin',(-8.8925237264831,32.5,42.4320081404232));
#806=CARTESIAN_POINT('',(-11.6832709570165,32.5,46.7371480795274));
#807=CARTESIAN_POINT('Origin',(-10.6026244431128,32.5,47.1304712443522));
#808=CARTESIAN_POINT('',(-9.97317024038677,32.5,42.0386849755984));
#809=CARTESIAN_POINT('',(-9.97317024038677,32.5,42.0386849755984));
#810=CARTESIAN_POINT('Origin',(-8.8925237264831,32.5,42.4320081404232));
#811=CARTESIAN_POINT('Origin',(-10.6026244431128,26.5,47.1304712443522));
#812=CARTESIAN_POINT('',(-12.7169328398809,32.5,46.3609259218688));
#813=CARTESIAN_POINT('Origin',(-10.6026244431128,32.5,47.1304712443522));
#814=CARTESIAN_POINT('Origin',(-3.25436800176826,26.5,44.4841290003789));
#815=CARTESIAN_POINT('',(-6.04511523230168,26.5,48.7892689394831));
#816=CARTESIAN_POINT('Origin',(-4.964468718398,26.5,49.1825921043079));
#817=CARTESIAN_POINT('',(-4.33501451567193,26.5,44.0908058355541));
#818=CARTESIAN_POINT('',(-4.33501451567193,26.5,44.0908058355541));
#819=CARTESIAN_POINT('Origin',(-3.25436800176826,26.5,44.4841290003789));
#820=CARTESIAN_POINT('Origin',(-10.6026244431128,26.5,47.1304712443522));
#821=CARTESIAN_POINT('',(-7.07877711516607,26.5,48.4130467818245));
#822=CARTESIAN_POINT('Origin',(-4.964468718398,26.5,49.1825921043079));
#823=CARTESIAN_POINT('Origin',(-14.5306794511979,26.5,40.3798872804675));
#824=CARTESIAN_POINT('',(-17.3214266817313,26.5,44.6850272195717));
#825=CARTESIAN_POINT('Origin',(-16.2407801678277,26.5,45.0783503843965));
#826=CARTESIAN_POINT('',(-15.6113259651016,26.5,39.9865641156427));
#827=CARTESIAN_POINT('',(-15.6113259651016,26.5,39.9865641156427));
#828=CARTESIAN_POINT('Origin',(-14.5306794511979,26.5,40.3798872804675));
#829=CARTESIAN_POINT('Origin',(-10.6026244431128,26.5,47.1304712443522));
#830=CARTESIAN_POINT('',(-18.3550885645957,26.5,44.3088050619131));
#831=CARTESIAN_POINT('Origin',(-16.2407801678277,26.5,45.0783503843965));
#832=CARTESIAN_POINT('Origin',(-8.89252372648308,20.5,42.4320081404232));
#833=CARTESIAN_POINT('',(-11.6832709570165,20.5,46.7371480795274));
#834=CARTESIAN_POINT('Origin',(-10.6026244431128,20.5,47.1304712443522));
#835=CARTESIAN_POINT('',(-9.97317024038676,20.5,42.0386849755984));
#836=CARTESIAN_POINT('',(-9.97317024038676,20.5,42.0386849755984));
#837=CARTESIAN_POINT('Origin',(-8.89252372648308,20.5,42.4320081404232));
#838=CARTESIAN_POINT('Origin',(-10.6026244431128,26.5,47.1304712443522));
#839=CARTESIAN_POINT('',(-12.7169328398809,20.5,46.3609259218688));
#840=CARTESIAN_POINT('Origin',(-10.6026244431128,20.5,47.1304712443522));
#841=CARTESIAN_POINT('Origin',(-3.25436800176826,26.5,44.4841290003789));
#842=CARTESIAN_POINT('',(-7.42079725849202,26.5,49.3527394026103));
#843=CARTESIAN_POINT('Origin',(-5.30648886172395,26.5,50.1222847250937));
#844=CARTESIAN_POINT('',(-5.36867639853632,26.5,43.7145836778955));
#845=CARTESIAN_POINT('Origin',(-8.89252372648308,20.5,42.4320081404232));
#846=CARTESIAN_POINT('',(-13.0589529832068,20.5,47.3006185426547));
#847=CARTESIAN_POINT('Origin',(-10.9446445864388,20.5,48.070163865138));
#848=CARTESIAN_POINT('',(-11.0068321232511,20.5,41.6624628179398));
#849=CARTESIAN_POINT('Origin',(-8.8925237264831,32.5,42.4320081404232));
#850=CARTESIAN_POINT('',(-13.0589529832069,32.5,47.3006185426546));
#851=CARTESIAN_POINT('Origin',(-10.9446445864388,32.5,48.070163865138));
#852=CARTESIAN_POINT('',(-11.0068321232512,32.5,41.6624628179398));
#853=CARTESIAN_POINT('Origin',(-14.5306794511979,26.5,40.3798872804675));
#854=CARTESIAN_POINT('',(-18.6971087079217,26.5,45.2484976826989));
#855=CARTESIAN_POINT('Origin',(-16.5828003111536,26.5,46.0180430051823));
#856=CARTESIAN_POINT('',(-16.644987847966,26.5,39.6103419579841));
#857=CARTESIAN_POINT('Origin',(-8.89252372648309,26.5,42.4320081404232));
#858=CARTESIAN_POINT('',(-13.7637224487962,26.5,47.0441034351602));
#859=CARTESIAN_POINT('Origin',(-10.9446445864388,26.5,48.070163865138));
#860=CARTESIAN_POINT('',(-11.7116015888405,26.5,41.4059477104453));
#861=CARTESIAN_POINT('',(-11.7116015888405,26.5,41.4059477104453));
#862=CARTESIAN_POINT('Origin',(-8.89252372648309,26.5,42.4320081404232));
#863=CARTESIAN_POINT('Origin',(-8.89252372648309,26.5,42.4320081404232));
#864=CARTESIAN_POINT('',(-25.0400338982259,26.5,42.9398617152488));
#865=CARTESIAN_POINT('Origin',(-10.9446445864388,26.5,48.070163865138));
#866=CARTESIAN_POINT('',(-22.9879130382702,26.5,37.3017059905339));
#867=CARTESIAN_POINT('Origin',(-10.9446445864388,26.5,48.070163865138));
#868=CARTESIAN_POINT('Origin',(-8.89252372648309,26.5,42.4320081404232));
#869=UNCERTAINTY_MEASURE_WITH_UNIT(LENGTH_MEASURE(0.01),#873,
'DISTANCE_ACCURACY_VALUE',
'Maximum model space distance between geometric entities at asserted c
onnectivities');
#870=UNCERTAINTY_MEASURE_WITH_UNIT(LENGTH_MEASURE(0.01),#873,
'DISTANCE_ACCURACY_VALUE',
'Maximum model space distance between geometric entities at asserted c
onnectivities');
#871=(
GEOMETRIC_REPRESENTATION_CONTEXT(3)
GLOBAL_UNCERTAINTY_ASSIGNED_CONTEXT((#869))
GLOBAL_UNIT_ASSIGNED_CONTEXT((#873,#875,#876))
REPRESENTATION_CONTEXT('','3D')
);
#872=(
GEOMETRIC_REPRESENTATION_CONTEXT(3)
GLOBAL_UNCERTAINTY_ASSIGNED_CONTEXT((#870))
GLOBAL_UNIT_ASSIGNED_CONTEXT((#873,#875,#876))
REPRESENTATION_CONTEXT('','3D')
);
#873=(
LENGTH_UNIT()
NAMED_UNIT(*)
SI_UNIT(.MILLI.,.METRE.)
);
#874=(
LENGTH_UNIT()
NAMED_UNIT(*)
SI_UNIT($,.METRE.)
);
#875=(
NAMED_UNIT(*)
PLANE_ANGLE_UNIT()
SI_UNIT($,.RADIAN.)
);
#876=(
NAMED_UNIT(*)
SI_UNIT($,.STERADIAN.)
SOLID_ANGLE_UNIT()
);
#877=SHAPE_DEFINITION_REPRESENTATION(#878,#879);
#878=PRODUCT_DEFINITION_SHAPE('',$,#881);
#879=SHAPE_REPRESENTATION('',(#435),#871);
#880=PRODUCT_DEFINITION_CONTEXT('part definition',#885,'design');
#881=PRODUCT_DEFINITION('2026-09-24-12-33-23-953',
'Fusion \X2\30B330F330DD30FC30CD30F330C8\X0\',#882,#880);
#882=PRODUCT_DEFINITION_FORMATION('',$,#887);
#883=PRODUCT_RELATED_PRODUCT_CATEGORY('Fusion \X2\30B330F330DD30FC30CD30F330C8\X0\',
'Fusion \X2\30B330F330DD30FC30CD30F330C8\X0\',(#887));
#884=APPLICATION_PROTOCOL_DEFINITION('international standard',
'automotive_design',2009,#885);
#885=APPLICATION_CONTEXT(
'Core Data for Automotive Mechanical Design Process');
#886=PRODUCT_CONTEXT('part definition',#885,'mechanical');
#887=PRODUCT('2026-09-24-12-33-23-953','Fusion \X2\30B330F330DD30FC30CD30F330C8\X0\',
$,(#886));
#888=PRESENTATION_STYLE_ASSIGNMENT((#889));
#889=SURFACE_STYLE_USAGE(.BOTH.,#890);
#890=SURFACE_SIDE_STYLE('',(#891));
#891=SURFACE_STYLE_FILL_AREA(#892);
#892=FILL_AREA_STYLE('\X2\92FC\X0\ - \X2\30B530C630F3\X0\',(#893));
#893=FILL_AREA_STYLE_COLOUR('\X2\92FC\X0\ - \X2\30B530C630F3\X0\',#894);
#894=COLOUR_RGB('\X2\92FC\X0\ - \X2\30B530C630F3\X0\',0.627450980392157,
0.627450980392157,0.627450980392157);
ENDSEC;
END-ISO-10303-21;
