ISO-10303-21;
HEADER;
/* Generated by software containing ST-Developer
 * from STEP Tools, Inc. (www.steptools.com) 
 */

FILE_DESCRIPTION(
/* description */ (''),
/* implementation_level */ '2;1');

FILE_NAME(
/* name */ 'servo horn.step',
/* time_stamp */ '2026-09-21T17:13:43+09:00',
/* author */ (''),
/* organization */ (''),
/* preprocessor_version */ 'ST-DEVELOPER v20.2',
/* originating_system */ 'Autodesk Translation Framework v15.15.0.0',
/* authorisation */ '');

FILE_SCHEMA (('AUTOMOTIVE_DESIGN { 1 0 10303 214 3 1 1 }'));
ENDSEC;

DATA;
#10=MECHANICAL_DESIGN_GEOMETRIC_PRESENTATION_REPRESENTATION('',(#13),#921);
#11=SHAPE_REPRESENTATION_RELATIONSHIP('SRR','None',#928,#12);
#12=ADVANCED_BREP_SHAPE_REPRESENTATION('',(#14),#920);
#13=STYLED_ITEM('',(#937),#14);
#14=MANIFOLD_SOLID_BREP('\X2\30DC30C730A3\X0\1',#447);
#15=FACE_BOUND('',#96,.T.);
#16=FACE_BOUND('',#98,.T.);
#17=FACE_BOUND('',#99,.T.);
#18=FACE_BOUND('',#100,.T.);
#19=FACE_BOUND('',#102,.T.);
#20=FACE_BOUND('',#105,.T.);
#21=FACE_BOUND('',#108,.T.);
#22=FACE_BOUND('',#115,.T.);
#23=FACE_BOUND('',#116,.T.);
#24=FACE_BOUND('',#117,.T.);
#25=FACE_BOUND('',#118,.T.);
#26=FACE_BOUND('',#119,.T.);
#27=FACE_BOUND('',#123,.T.);
#28=FACE_BOUND('',#124,.T.);
#29=FACE_BOUND('',#125,.T.);
#30=FACE_BOUND('',#126,.T.);
#31=FACE_BOUND('',#127,.T.);
#32=FACE_BOUND('',#129,.T.);
#33=TOROIDAL_SURFACE('',#474,12.6925824035673,1.);
#34=CONICAL_SURFACE('',#468,12.5,1.19028994968253);
#35=CONICAL_SURFACE('',#478,12.5,1.19028994968253);
#36=B_SPLINE_CURVE_WITH_KNOTS('',3,(#670,#671,#672,#673,#674,#675,#676,
#677,#678,#679,#680,#681,#682,#683,#684,#685,#686,#687),.UNSPECIFIED.,.F.,
 .F.,(4,2,2,2,2,2,2,2,4),(0.206035352492461,0.215999482323118,0.25266226006779,
0.270993648940126,0.289325037812462,0.307656426684801,0.32598781555714,
0.362650593301817,0.372614723132374),.UNSPECIFIED.);
#37=B_SPLINE_CURVE_WITH_KNOTS('',3,(#691,#692,#693,#694,#695,#696,#697,
#698,#699,#700,#701,#702,#703,#704,#705,#706,#707,#708,#709),
 .UNSPECIFIED.,.F.,.F.,(4,2,2,2,3,2,2,2,4),(-0.0832896852153939,-0.0733255554893542,
-0.0366627777446771,-0.0183313888723385,0.,0.0183313888723353,0.0366627777446705,
0.073325555489341,0.0832896853199867),.UNSPECIFIED.);
#38=B_SPLINE_CURVE_WITH_KNOTS('',3,(#716,#717,#718,#719,#720,#721,#722,
#723,#724,#725,#726,#727,#728,#729,#730,#731,#732,#733,#734,#735,#736,#737),
 .UNSPECIFIED.,.F.,.F.,(4,2,2,2,2,2,2,2,2,2,4),(0.,0.018331388872336,0.0366627777446719,
0.0733255554893438,0.108994037197786,0.144662518906229,0.180331000614672,
0.215999482323115,0.252662260067788,0.270993648940125,0.289325037812461),
 .UNSPECIFIED.);
#39=B_SPLINE_CURVE_WITH_KNOTS('',3,(#738,#739,#740,#741,#742,#743,#744,
#745,#746,#747,#748,#749,#750,#751,#752,#753,#754,#755,#756,#757,#758,#759),
 .UNSPECIFIED.,.F.,.F.,(4,2,2,2,2,2,2,2,2,2,4),(0.289325037812461,0.3076564266848,
0.325987815557138,0.362650593301814,0.398319075010262,0.43398755671871,
0.469656038427157,0.505324520135604,0.541987297880279,0.560318686752617,
0.578650075624955),.UNSPECIFIED.);
#40=B_SPLINE_CURVE_WITH_KNOTS('',3,(#763,#764,#765,#766,#767,#768,#769,
#770,#771,#772,#773,#774,#775,#776,#777,#778,#779,#780,#781,#782,#783,#784,
#785,#786,#787,#788,#789,#790,#791,#792,#793,#794,#795,#796),
 .UNSPECIFIED.,.F.,.F.,(4,2,2,2,2,2,2,2,2,2,2,2,2,2,2,2,4),(-0.451464504885445,
-0.442289796771439,-0.405116022435909,-0.380810363398624,-0.361347057799895,
-0.341655437164634,-0.320464857642574,-0.292590885396577,-0.256288804174216,
-0.233515581890205,-0.215403274772568,-0.199263161894073,-0.177580102084208,
-0.156036638984752,-0.139108319999468,-0.122238314752737,-0.120139039655181),
 .UNSPECIFIED.);
#41=B_SPLINE_CURVE_WITH_KNOTS('',3,(#798,#799,#800,#801,#802,#803,#804,
#805,#806,#807),.UNSPECIFIED.,.F.,.F.,(4,2,2,2,4),(0.294400434205255,0.296736394719044,
0.314452483616517,0.33216857251399,0.334504533027778),.UNSPECIFIED.);
#42=B_SPLINE_CURVE_WITH_KNOTS('',3,(#808,#809,#810,#811,#812,#813,#814,
#815,#816,#817,#818,#819),.UNSPECIFIED.,.F.,.F.,(4,2,2,2,2,4),(-0.120139039655181,
-0.105490209327607,-0.0837186358599666,-0.0524999801917519,-0.0252827965691393,
-0.020309885621236),.UNSPECIFIED.);
#43=CYLINDRICAL_SURFACE('',#463,0.9);
#44=CYLINDRICAL_SURFACE('',#464,0.9);
#45=CYLINDRICAL_SURFACE('',#467,0.9);
#46=CYLINDRICAL_SURFACE('',#481,15.);
#47=CYLINDRICAL_SURFACE('',#483,1.15);
#48=CYLINDRICAL_SURFACE('',#488,1.15);
#49=CYLINDRICAL_SURFACE('',#493,1.15);
#50=CYLINDRICAL_SURFACE('',#498,1.15);
#51=CYLINDRICAL_SURFACE('',#503,2.25);
#52=CYLINDRICAL_SURFACE('',#505,2.25);
#53=CYLINDRICAL_SURFACE('',#507,2.25);
#54=CYLINDRICAL_SURFACE('',#509,3.);
#55=CYLINDRICAL_SURFACE('',#512,2.25);
#56=CYLINDRICAL_SURFACE('',#516,8.25000000000004);
#57=CYLINDRICAL_SURFACE('',#518,15.);
#58=FACE_OUTER_BOUND('',#85,.T.);
#59=FACE_OUTER_BOUND('',#86,.T.);
#60=FACE_OUTER_BOUND('',#87,.T.);
#61=FACE_OUTER_BOUND('',#88,.T.);
#62=FACE_OUTER_BOUND('',#89,.T.);
#63=FACE_OUTER_BOUND('',#90,.T.);
#64=FACE_OUTER_BOUND('',#91,.T.);
#65=FACE_OUTER_BOUND('',#92,.T.);
#66=FACE_OUTER_BOUND('',#93,.T.);
#67=FACE_OUTER_BOUND('',#94,.T.);
#68=FACE_OUTER_BOUND('',#95,.T.);
#69=FACE_OUTER_BOUND('',#97,.T.);
#70=FACE_OUTER_BOUND('',#101,.T.);
#71=FACE_OUTER_BOUND('',#103,.T.);
#72=FACE_OUTER_BOUND('',#104,.T.);
#73=FACE_OUTER_BOUND('',#106,.T.);
#74=FACE_OUTER_BOUND('',#107,.T.);
#75=FACE_OUTER_BOUND('',#109,.T.);
#76=FACE_OUTER_BOUND('',#110,.T.);
#77=FACE_OUTER_BOUND('',#111,.T.);
#78=FACE_OUTER_BOUND('',#112,.T.);
#79=FACE_OUTER_BOUND('',#113,.T.);
#80=FACE_OUTER_BOUND('',#114,.T.);
#81=FACE_OUTER_BOUND('',#120,.T.);
#82=FACE_OUTER_BOUND('',#121,.T.);
#83=FACE_OUTER_BOUND('',#122,.T.);
#84=FACE_OUTER_BOUND('',#128,.T.);
#85=EDGE_LOOP('',(#295,#296));
#86=EDGE_LOOP('',(#297,#298));
#87=EDGE_LOOP('',(#299,#300));
#88=EDGE_LOOP('',(#301,#302));
#89=EDGE_LOOP('',(#303,#304,#305,#306,#307,#308,#309));
#90=EDGE_LOOP('',(#310,#311,#312,#313,#314,#315,#316,#317));
#91=EDGE_LOOP('',(#318,#319,#320,#321,#322,#323,#324,#325,#326));
#92=EDGE_LOOP('',(#327,#328,#329,#330,#331,#332));
#93=EDGE_LOOP('',(#333,#334,#335,#336,#337));
#94=EDGE_LOOP('',(#338,#339,#340,#341));
#95=EDGE_LOOP('',(#342));
#96=EDGE_LOOP('',(#343));
#97=EDGE_LOOP('',(#344,#345,#346,#347));
#98=EDGE_LOOP('',(#348,#349));
#99=EDGE_LOOP('',(#350,#351));
#100=EDGE_LOOP('',(#352,#353));
#101=EDGE_LOOP('',(#354));
#102=EDGE_LOOP('',(#355));
#103=EDGE_LOOP('',(#356,#357,#358,#359));
#104=EDGE_LOOP('',(#360));
#105=EDGE_LOOP('',(#361));
#106=EDGE_LOOP('',(#362,#363,#364,#365));
#107=EDGE_LOOP('',(#366));
#108=EDGE_LOOP('',(#367));
#109=EDGE_LOOP('',(#368,#369,#370,#371));
#110=EDGE_LOOP('',(#372,#373,#374,#375));
#111=EDGE_LOOP('',(#376,#377,#378,#379));
#112=EDGE_LOOP('',(#380,#381,#382,#383));
#113=EDGE_LOOP('',(#384,#385,#386,#387));
#114=EDGE_LOOP('',(#388));
#115=EDGE_LOOP('',(#389));
#116=EDGE_LOOP('',(#390));
#117=EDGE_LOOP('',(#391));
#118=EDGE_LOOP('',(#392));
#119=EDGE_LOOP('',(#393));
#120=EDGE_LOOP('',(#394,#395,#396,#397));
#121=EDGE_LOOP('',(#398,#399,#400,#401,#402));
#122=EDGE_LOOP('',(#403));
#123=EDGE_LOOP('',(#404));
#124=EDGE_LOOP('',(#405));
#125=EDGE_LOOP('',(#406));
#126=EDGE_LOOP('',(#407));
#127=EDGE_LOOP('',(#408));
#128=EDGE_LOOP('',(#409));
#129=EDGE_LOOP('',(#410));
#130=CIRCLE('',#462,0.9);
#131=CIRCLE('',#465,0.9);
#132=CIRCLE('',#469,12.3211917272132);
#133=CIRCLE('',#470,12.3211917272132);
#134=CIRCLE('',#471,15.);
#135=CIRCLE('',#472,15.);
#136=CIRCLE('',#473,12.3211917272132);
#137=CIRCLE('',#475,12.3211917272132);
#138=CIRCLE('',#476,1.);
#139=CIRCLE('',#477,12.3211917272132);
#140=CIRCLE('',#479,15.);
#141=CIRCLE('',#480,15.);
#142=CIRCLE('',#482,15.);
#143=CIRCLE('',#484,1.15);
#144=CIRCLE('',#485,1.15);
#145=CIRCLE('',#487,2.25);
#146=CIRCLE('',#489,1.15);
#147=CIRCLE('',#490,1.15);
#148=CIRCLE('',#492,2.25);
#149=CIRCLE('',#494,1.15);
#150=CIRCLE('',#495,1.15);
#151=CIRCLE('',#497,2.25);
#152=CIRCLE('',#499,1.15);
#153=CIRCLE('',#500,1.15);
#154=CIRCLE('',#502,2.25);
#155=CIRCLE('',#504,2.25);
#156=CIRCLE('',#506,2.25);
#157=CIRCLE('',#508,2.25);
#158=CIRCLE('',#510,3.);
#159=CIRCLE('',#511,3.);
#160=CIRCLE('',#513,2.25);
#161=CIRCLE('',#515,8.25000000000004);
#162=CIRCLE('',#517,8.25000000000004);
#163=CIRCLE('',#519,15.);
#164=LINE('',#667,#181);
#165=LINE('',#712,#182);
#166=LINE('',#761,#183);
#167=LINE('',#826,#184);
#168=LINE('',#842,#185);
#169=LINE('',#845,#186);
#170=LINE('',#851,#187);
#171=LINE('',#860,#188);
#172=LINE('',#869,#189);
#173=LINE('',#878,#190);
#174=LINE('',#886,#191);
#175=LINE('',#890,#192);
#176=LINE('',#894,#193);
#177=LINE('',#899,#194);
#178=LINE('',#904,#195);
#179=LINE('',#910,#196);
#180=LINE('',#915,#197);
#181=VECTOR('',#526,10.);
#182=VECTOR('',#537,10.);
#183=VECTOR('',#540,0.9);
#184=VECTOR('',#547,12.5);
#185=VECTOR('',#568,12.5);
#186=VECTOR('',#571,15.);
#187=VECTOR('',#578,1.15);
#188=VECTOR('',#589,1.15);
#189=VECTOR('',#600,1.15);
#190=VECTOR('',#611,1.15);
#191=VECTOR('',#622,2.25);
#192=VECTOR('',#627,2.25);
#193=VECTOR('',#632,2.25);
#194=VECTOR('',#637,3.);
#195=VECTOR('',#644,2.25);
#196=VECTOR('',#651,8.25000000000004);
#197=VECTOR('',#658,15.);
#198=VERTEX_POINT('',#665);
#199=VERTEX_POINT('',#666);
#200=VERTEX_POINT('',#689);
#201=VERTEX_POINT('',#690);
#202=VERTEX_POINT('',#714);
#203=VERTEX_POINT('',#715);
#204=VERTEX_POINT('',#760);
#205=VERTEX_POINT('',#762);
#206=VERTEX_POINT('',#797);
#207=VERTEX_POINT('',#821);
#208=VERTEX_POINT('',#823);
#209=VERTEX_POINT('',#825);
#210=VERTEX_POINT('',#827);
#211=VERTEX_POINT('',#832);
#212=VERTEX_POINT('',#833);
#213=VERTEX_POINT('',#838);
#214=VERTEX_POINT('',#839);
#215=VERTEX_POINT('',#844);
#216=VERTEX_POINT('',#848);
#217=VERTEX_POINT('',#850);
#218=VERTEX_POINT('',#854);
#219=VERTEX_POINT('',#857);
#220=VERTEX_POINT('',#859);
#221=VERTEX_POINT('',#863);
#222=VERTEX_POINT('',#866);
#223=VERTEX_POINT('',#868);
#224=VERTEX_POINT('',#872);
#225=VERTEX_POINT('',#875);
#226=VERTEX_POINT('',#877);
#227=VERTEX_POINT('',#881);
#228=VERTEX_POINT('',#884);
#229=VERTEX_POINT('',#888);
#230=VERTEX_POINT('',#892);
#231=VERTEX_POINT('',#896);
#232=VERTEX_POINT('',#898);
#233=VERTEX_POINT('',#902);
#234=VERTEX_POINT('',#906);
#235=VERTEX_POINT('',#909);
#236=VERTEX_POINT('',#913);
#237=EDGE_CURVE('',#198,#199,#164,.T.);
#238=EDGE_CURVE('',#198,#199,#130,.T.);
#239=EDGE_CURVE('',#199,#198,#36,.T.);
#240=EDGE_CURVE('',#200,#201,#37,.T.);
#241=EDGE_CURVE('',#201,#200,#131,.T.);
#242=EDGE_CURVE('',#201,#200,#165,.T.);
#243=EDGE_CURVE('',#202,#203,#38,.T.);
#244=EDGE_CURVE('',#203,#202,#39,.T.);
#245=EDGE_CURVE('',#203,#204,#166,.T.);
#246=EDGE_CURVE('',#205,#204,#40,.T.);
#247=EDGE_CURVE('',#206,#205,#41,.T.);
#248=EDGE_CURVE('',#204,#206,#42,.T.);
#249=EDGE_CURVE('',#207,#205,#132,.T.);
#250=EDGE_CURVE('',#208,#207,#133,.T.);
#251=EDGE_CURVE('',#208,#209,#167,.T.);
#252=EDGE_CURVE('',#210,#209,#134,.T.);
#253=EDGE_CURVE('',#209,#210,#135,.T.);
#254=EDGE_CURVE('',#206,#208,#136,.T.);
#255=EDGE_CURVE('',#211,#212,#137,.T.);
#256=EDGE_CURVE('',#212,#207,#138,.T.);
#257=EDGE_CURVE('',#212,#211,#139,.T.);
#258=EDGE_CURVE('',#213,#214,#140,.T.);
#259=EDGE_CURVE('',#214,#213,#141,.T.);
#260=EDGE_CURVE('',#214,#211,#168,.T.);
#261=EDGE_CURVE('',#213,#215,#169,.T.);
#262=EDGE_CURVE('',#215,#215,#142,.T.);
#263=EDGE_CURVE('',#216,#216,#143,.F.);
#264=EDGE_CURVE('',#216,#217,#170,.T.);
#265=EDGE_CURVE('',#217,#217,#144,.T.);
#266=EDGE_CURVE('',#218,#218,#145,.T.);
#267=EDGE_CURVE('',#219,#219,#146,.F.);
#268=EDGE_CURVE('',#219,#220,#171,.T.);
#269=EDGE_CURVE('',#220,#220,#147,.T.);
#270=EDGE_CURVE('',#221,#221,#148,.T.);
#271=EDGE_CURVE('',#222,#222,#149,.F.);
#272=EDGE_CURVE('',#222,#223,#172,.T.);
#273=EDGE_CURVE('',#223,#223,#150,.T.);
#274=EDGE_CURVE('',#224,#224,#151,.T.);
#275=EDGE_CURVE('',#225,#225,#152,.F.);
#276=EDGE_CURVE('',#225,#226,#173,.T.);
#277=EDGE_CURVE('',#226,#226,#153,.T.);
#278=EDGE_CURVE('',#227,#227,#154,.T.);
#279=EDGE_CURVE('',#228,#228,#155,.T.);
#280=EDGE_CURVE('',#228,#227,#174,.T.);
#281=EDGE_CURVE('',#229,#229,#156,.T.);
#282=EDGE_CURVE('',#229,#224,#175,.T.);
#283=EDGE_CURVE('',#230,#230,#157,.T.);
#284=EDGE_CURVE('',#230,#221,#176,.T.);
#285=EDGE_CURVE('',#231,#231,#158,.T.);
#286=EDGE_CURVE('',#231,#232,#177,.T.);
#287=EDGE_CURVE('',#232,#232,#159,.T.);
#288=EDGE_CURVE('',#233,#233,#160,.T.);
#289=EDGE_CURVE('',#233,#218,#178,.T.);
#290=EDGE_CURVE('',#234,#234,#161,.T.);
#291=EDGE_CURVE('',#234,#235,#179,.T.);
#292=EDGE_CURVE('',#235,#235,#162,.T.);
#293=EDGE_CURVE('',#236,#236,#163,.T.);
#294=EDGE_CURVE('',#236,#210,#180,.T.);
#295=ORIENTED_EDGE('',*,*,#237,.F.);
#296=ORIENTED_EDGE('',*,*,#238,.T.);
#297=ORIENTED_EDGE('',*,*,#239,.F.);
#298=ORIENTED_EDGE('',*,*,#238,.F.);
#299=ORIENTED_EDGE('',*,*,#240,.F.);
#300=ORIENTED_EDGE('',*,*,#241,.F.);
#301=ORIENTED_EDGE('',*,*,#242,.F.);
#302=ORIENTED_EDGE('',*,*,#241,.T.);
#303=ORIENTED_EDGE('',*,*,#243,.F.);
#304=ORIENTED_EDGE('',*,*,#244,.F.);
#305=ORIENTED_EDGE('',*,*,#245,.T.);
#306=ORIENTED_EDGE('',*,*,#246,.F.);
#307=ORIENTED_EDGE('',*,*,#247,.F.);
#308=ORIENTED_EDGE('',*,*,#248,.F.);
#309=ORIENTED_EDGE('',*,*,#245,.F.);
#310=ORIENTED_EDGE('',*,*,#247,.T.);
#311=ORIENTED_EDGE('',*,*,#249,.F.);
#312=ORIENTED_EDGE('',*,*,#250,.F.);
#313=ORIENTED_EDGE('',*,*,#251,.T.);
#314=ORIENTED_EDGE('',*,*,#252,.F.);
#315=ORIENTED_EDGE('',*,*,#253,.F.);
#316=ORIENTED_EDGE('',*,*,#251,.F.);
#317=ORIENTED_EDGE('',*,*,#254,.F.);
#318=ORIENTED_EDGE('',*,*,#255,.T.);
#319=ORIENTED_EDGE('',*,*,#256,.T.);
#320=ORIENTED_EDGE('',*,*,#249,.T.);
#321=ORIENTED_EDGE('',*,*,#246,.T.);
#322=ORIENTED_EDGE('',*,*,#248,.T.);
#323=ORIENTED_EDGE('',*,*,#254,.T.);
#324=ORIENTED_EDGE('',*,*,#250,.T.);
#325=ORIENTED_EDGE('',*,*,#256,.F.);
#326=ORIENTED_EDGE('',*,*,#257,.T.);
#327=ORIENTED_EDGE('',*,*,#258,.F.);
#328=ORIENTED_EDGE('',*,*,#259,.F.);
#329=ORIENTED_EDGE('',*,*,#260,.T.);
#330=ORIENTED_EDGE('',*,*,#257,.F.);
#331=ORIENTED_EDGE('',*,*,#255,.F.);
#332=ORIENTED_EDGE('',*,*,#260,.F.);
#333=ORIENTED_EDGE('',*,*,#258,.T.);
#334=ORIENTED_EDGE('',*,*,#259,.T.);
#335=ORIENTED_EDGE('',*,*,#261,.T.);
#336=ORIENTED_EDGE('',*,*,#262,.T.);
#337=ORIENTED_EDGE('',*,*,#261,.F.);
#338=ORIENTED_EDGE('',*,*,#263,.T.);
#339=ORIENTED_EDGE('',*,*,#264,.T.);
#340=ORIENTED_EDGE('',*,*,#265,.F.);
#341=ORIENTED_EDGE('',*,*,#264,.F.);
#342=ORIENTED_EDGE('',*,*,#266,.F.);
#343=ORIENTED_EDGE('',*,*,#263,.F.);
#344=ORIENTED_EDGE('',*,*,#267,.T.);
#345=ORIENTED_EDGE('',*,*,#268,.T.);
#346=ORIENTED_EDGE('',*,*,#269,.F.);
#347=ORIENTED_EDGE('',*,*,#268,.F.);
#348=ORIENTED_EDGE('',*,*,#242,.T.);
#349=ORIENTED_EDGE('',*,*,#240,.T.);
#350=ORIENTED_EDGE('',*,*,#237,.T.);
#351=ORIENTED_EDGE('',*,*,#239,.T.);
#352=ORIENTED_EDGE('',*,*,#243,.T.);
#353=ORIENTED_EDGE('',*,*,#244,.T.);
#354=ORIENTED_EDGE('',*,*,#270,.F.);
#355=ORIENTED_EDGE('',*,*,#267,.F.);
#356=ORIENTED_EDGE('',*,*,#271,.T.);
#357=ORIENTED_EDGE('',*,*,#272,.T.);
#358=ORIENTED_EDGE('',*,*,#273,.F.);
#359=ORIENTED_EDGE('',*,*,#272,.F.);
#360=ORIENTED_EDGE('',*,*,#274,.F.);
#361=ORIENTED_EDGE('',*,*,#271,.F.);
#362=ORIENTED_EDGE('',*,*,#275,.T.);
#363=ORIENTED_EDGE('',*,*,#276,.T.);
#364=ORIENTED_EDGE('',*,*,#277,.F.);
#365=ORIENTED_EDGE('',*,*,#276,.F.);
#366=ORIENTED_EDGE('',*,*,#278,.F.);
#367=ORIENTED_EDGE('',*,*,#275,.F.);
#368=ORIENTED_EDGE('',*,*,#279,.T.);
#369=ORIENTED_EDGE('',*,*,#280,.T.);
#370=ORIENTED_EDGE('',*,*,#278,.T.);
#371=ORIENTED_EDGE('',*,*,#280,.F.);
#372=ORIENTED_EDGE('',*,*,#281,.T.);
#373=ORIENTED_EDGE('',*,*,#282,.T.);
#374=ORIENTED_EDGE('',*,*,#274,.T.);
#375=ORIENTED_EDGE('',*,*,#282,.F.);
#376=ORIENTED_EDGE('',*,*,#283,.T.);
#377=ORIENTED_EDGE('',*,*,#284,.T.);
#378=ORIENTED_EDGE('',*,*,#270,.T.);
#379=ORIENTED_EDGE('',*,*,#284,.F.);
#380=ORIENTED_EDGE('',*,*,#285,.T.);
#381=ORIENTED_EDGE('',*,*,#286,.T.);
#382=ORIENTED_EDGE('',*,*,#287,.F.);
#383=ORIENTED_EDGE('',*,*,#286,.F.);
#384=ORIENTED_EDGE('',*,*,#288,.T.);
#385=ORIENTED_EDGE('',*,*,#289,.T.);
#386=ORIENTED_EDGE('',*,*,#266,.T.);
#387=ORIENTED_EDGE('',*,*,#289,.F.);
#388=ORIENTED_EDGE('',*,*,#290,.F.);
#389=ORIENTED_EDGE('',*,*,#265,.T.);
#390=ORIENTED_EDGE('',*,*,#269,.T.);
#391=ORIENTED_EDGE('',*,*,#273,.T.);
#392=ORIENTED_EDGE('',*,*,#277,.T.);
#393=ORIENTED_EDGE('',*,*,#287,.T.);
#394=ORIENTED_EDGE('',*,*,#290,.T.);
#395=ORIENTED_EDGE('',*,*,#291,.T.);
#396=ORIENTED_EDGE('',*,*,#292,.T.);
#397=ORIENTED_EDGE('',*,*,#291,.F.);
#398=ORIENTED_EDGE('',*,*,#293,.F.);
#399=ORIENTED_EDGE('',*,*,#294,.T.);
#400=ORIENTED_EDGE('',*,*,#252,.T.);
#401=ORIENTED_EDGE('',*,*,#253,.T.);
#402=ORIENTED_EDGE('',*,*,#294,.F.);
#403=ORIENTED_EDGE('',*,*,#293,.T.);
#404=ORIENTED_EDGE('',*,*,#288,.F.);
#405=ORIENTED_EDGE('',*,*,#281,.F.);
#406=ORIENTED_EDGE('',*,*,#283,.F.);
#407=ORIENTED_EDGE('',*,*,#285,.F.);
#408=ORIENTED_EDGE('',*,*,#279,.F.);
#409=ORIENTED_EDGE('',*,*,#262,.F.);
#410=ORIENTED_EDGE('',*,*,#292,.F.);
#411=PLANE('',#461);
#412=PLANE('',#466);
#413=PLANE('',#486);
#414=PLANE('',#491);
#415=PLANE('',#496);
#416=PLANE('',#501);
#417=PLANE('',#514);
#418=PLANE('',#520);
#419=PLANE('',#521);
#420=ADVANCED_FACE('',(#58),#411,.T.);
#421=ADVANCED_FACE('',(#59),#43,.F.);
#422=ADVANCED_FACE('',(#60),#44,.F.);
#423=ADVANCED_FACE('',(#61),#412,.T.);
#424=ADVANCED_FACE('',(#62),#45,.F.);
#425=ADVANCED_FACE('',(#63),#34,.T.);
#426=ADVANCED_FACE('',(#64),#33,.F.);
#427=ADVANCED_FACE('',(#65),#35,.T.);
#428=ADVANCED_FACE('',(#66),#46,.T.);
#429=ADVANCED_FACE('',(#67),#47,.F.);
#430=ADVANCED_FACE('',(#68,#15),#413,.T.);
#431=ADVANCED_FACE('',(#69,#16,#17,#18),#48,.F.);
#432=ADVANCED_FACE('',(#70,#19),#414,.T.);
#433=ADVANCED_FACE('',(#71),#49,.F.);
#434=ADVANCED_FACE('',(#72,#20),#415,.T.);
#435=ADVANCED_FACE('',(#73),#50,.F.);
#436=ADVANCED_FACE('',(#74,#21),#416,.T.);
#437=ADVANCED_FACE('',(#75),#51,.F.);
#438=ADVANCED_FACE('',(#76),#52,.F.);
#439=ADVANCED_FACE('',(#77),#53,.F.);
#440=ADVANCED_FACE('',(#78),#54,.F.);
#441=ADVANCED_FACE('',(#79),#55,.F.);
#442=ADVANCED_FACE('',(#80,#22,#23,#24,#25,#26),#417,.F.);
#443=ADVANCED_FACE('',(#81),#56,.F.);
#444=ADVANCED_FACE('',(#82),#57,.T.);
#445=ADVANCED_FACE('',(#83,#27,#28,#29,#30,#31),#418,.T.);
#446=ADVANCED_FACE('',(#84,#32),#419,.F.);
#447=CLOSED_SHELL('',(#420,#421,#422,#423,#424,#425,#426,#427,#428,#429,
#430,#431,#432,#433,#434,#435,#436,#437,#438,#439,#440,#441,#442,#443,#444,
#445,#446));
#448=DERIVED_UNIT_ELEMENT(#450,1.);
#449=DERIVED_UNIT_ELEMENT(#923,-3.);
#450=(
MASS_UNIT()
NAMED_UNIT(*)
SI_UNIT(.KILO.,.GRAM.)
);
#451=DERIVED_UNIT((#448,#449));
#452=MEASURE_REPRESENTATION_ITEM('density measure',
POSITIVE_RATIO_MEASURE(7850.),#451);
#453=PROPERTY_DEFINITION_REPRESENTATION(#458,#455);
#454=PROPERTY_DEFINITION_REPRESENTATION(#459,#456);
#455=REPRESENTATION('material name',(#457),#920);
#456=REPRESENTATION('density',(#452),#920);
#457=DESCRIPTIVE_REPRESENTATION_ITEM('\X2\92FC\X0\','\X2\92FC\X0\');
#458=PROPERTY_DEFINITION('material property','material name',#930);
#459=PROPERTY_DEFINITION('material property','density of part',#930);
#460=AXIS2_PLACEMENT_3D('',#663,#522,#523);
#461=AXIS2_PLACEMENT_3D('',#664,#524,#525);
#462=AXIS2_PLACEMENT_3D('',#668,#527,#528);
#463=AXIS2_PLACEMENT_3D('',#669,#529,#530);
#464=AXIS2_PLACEMENT_3D('',#688,#531,#532);
#465=AXIS2_PLACEMENT_3D('',#710,#533,#534);
#466=AXIS2_PLACEMENT_3D('',#711,#535,#536);
#467=AXIS2_PLACEMENT_3D('',#713,#538,#539);
#468=AXIS2_PLACEMENT_3D('',#820,#541,#542);
#469=AXIS2_PLACEMENT_3D('',#822,#543,#544);
#470=AXIS2_PLACEMENT_3D('',#824,#545,#546);
#471=AXIS2_PLACEMENT_3D('',#828,#548,#549);
#472=AXIS2_PLACEMENT_3D('',#829,#550,#551);
#473=AXIS2_PLACEMENT_3D('',#830,#552,#553);
#474=AXIS2_PLACEMENT_3D('',#831,#554,#555);
#475=AXIS2_PLACEMENT_3D('',#834,#556,#557);
#476=AXIS2_PLACEMENT_3D('',#835,#558,#559);
#477=AXIS2_PLACEMENT_3D('',#836,#560,#561);
#478=AXIS2_PLACEMENT_3D('',#837,#562,#563);
#479=AXIS2_PLACEMENT_3D('',#840,#564,#565);
#480=AXIS2_PLACEMENT_3D('',#841,#566,#567);
#481=AXIS2_PLACEMENT_3D('',#843,#569,#570);
#482=AXIS2_PLACEMENT_3D('',#846,#572,#573);
#483=AXIS2_PLACEMENT_3D('',#847,#574,#575);
#484=AXIS2_PLACEMENT_3D('',#849,#576,#577);
#485=AXIS2_PLACEMENT_3D('',#852,#579,#580);
#486=AXIS2_PLACEMENT_3D('',#853,#581,#582);
#487=AXIS2_PLACEMENT_3D('',#855,#583,#584);
#488=AXIS2_PLACEMENT_3D('',#856,#585,#586);
#489=AXIS2_PLACEMENT_3D('',#858,#587,#588);
#490=AXIS2_PLACEMENT_3D('',#861,#590,#591);
#491=AXIS2_PLACEMENT_3D('',#862,#592,#593);
#492=AXIS2_PLACEMENT_3D('',#864,#594,#595);
#493=AXIS2_PLACEMENT_3D('',#865,#596,#597);
#494=AXIS2_PLACEMENT_3D('',#867,#598,#599);
#495=AXIS2_PLACEMENT_3D('',#870,#601,#602);
#496=AXIS2_PLACEMENT_3D('',#871,#603,#604);
#497=AXIS2_PLACEMENT_3D('',#873,#605,#606);
#498=AXIS2_PLACEMENT_3D('',#874,#607,#608);
#499=AXIS2_PLACEMENT_3D('',#876,#609,#610);
#500=AXIS2_PLACEMENT_3D('',#879,#612,#613);
#501=AXIS2_PLACEMENT_3D('',#880,#614,#615);
#502=AXIS2_PLACEMENT_3D('',#882,#616,#617);
#503=AXIS2_PLACEMENT_3D('',#883,#618,#619);
#504=AXIS2_PLACEMENT_3D('',#885,#620,#621);
#505=AXIS2_PLACEMENT_3D('',#887,#623,#624);
#506=AXIS2_PLACEMENT_3D('',#889,#625,#626);
#507=AXIS2_PLACEMENT_3D('',#891,#628,#629);
#508=AXIS2_PLACEMENT_3D('',#893,#630,#631);
#509=AXIS2_PLACEMENT_3D('',#895,#633,#634);
#510=AXIS2_PLACEMENT_3D('',#897,#635,#636);
#511=AXIS2_PLACEMENT_3D('',#900,#638,#639);
#512=AXIS2_PLACEMENT_3D('',#901,#640,#641);
#513=AXIS2_PLACEMENT_3D('',#903,#642,#643);
#514=AXIS2_PLACEMENT_3D('',#905,#645,#646);
#515=AXIS2_PLACEMENT_3D('',#907,#647,#648);
#516=AXIS2_PLACEMENT_3D('',#908,#649,#650);
#517=AXIS2_PLACEMENT_3D('',#911,#652,#653);
#518=AXIS2_PLACEMENT_3D('',#912,#654,#655);
#519=AXIS2_PLACEMENT_3D('',#914,#656,#657);
#520=AXIS2_PLACEMENT_3D('',#916,#659,#660);
#521=AXIS2_PLACEMENT_3D('',#917,#661,#662);
#522=DIRECTION('axis',(0.,0.,1.));
#523=DIRECTION('refdir',(1.,0.,0.));
#524=DIRECTION('center_axis',(0.939692620785908,0.,0.342020143325669));
#525=DIRECTION('ref_axis',(0.,1.,0.));
#526=DIRECTION('',(0.34202014332595,0.,-0.939692620785806));
#527=DIRECTION('center_axis',(0.939692620785908,0.,0.342020143325669));
#528=DIRECTION('ref_axis',(0.,1.,0.));
#529=DIRECTION('center_axis',(0.939692620785908,0.,0.342020143325669));
#530=DIRECTION('ref_axis',(1.79489086661743E-13,-1.,-4.93142212641674E-13));
#531=DIRECTION('center_axis',(0.939692620785908,0.,0.342020143325669));
#532=DIRECTION('ref_axis',(0.,1.,0.));
#533=DIRECTION('center_axis',(0.939692620785908,0.,0.342020143325669));
#534=DIRECTION('ref_axis',(0.,1.,0.));
#535=DIRECTION('center_axis',(0.939692620785908,0.,0.342020143325669));
#536=DIRECTION('ref_axis',(0.,1.,0.));
#537=DIRECTION('',(-0.34202014332595,0.,0.939692620785806));
#538=DIRECTION('center_axis',(0.939692620785908,0.,0.342020143325669));
#539=DIRECTION('ref_axis',(0.,1.,0.));
#540=DIRECTION('',(0.939692620785908,0.,0.342020143325669));
#541=DIRECTION('center_axis',(-0.34202014332595,6.12323399573677E-17,0.939692620785806));
#542=DIRECTION('ref_axis',(2.09426936884022E-17,1.,-5.75395780113863E-17));
#543=DIRECTION('center_axis',(0.34202014332595,2.45924761527471E-16,-0.939692620785806));
#544=DIRECTION('ref_axis',(-0.939692620785806,1.44170862586036E-15,-0.34202014332595));
#545=DIRECTION('center_axis',(0.34202014332595,2.45924761527471E-16,-0.939692620785806));
#546=DIRECTION('ref_axis',(-0.939692620785806,1.44170862586036E-15,-0.34202014332595));
#547=DIRECTION('',(-0.127023092356552,-0.928476690885259,0.348993077998601));
#548=DIRECTION('center_axis',(-0.34202014332595,0.,0.939692620785806));
#549=DIRECTION('ref_axis',(0.939692620785806,0.,0.34202014332595));
#550=DIRECTION('center_axis',(-0.34202014332595,0.,0.939692620785806));
#551=DIRECTION('ref_axis',(0.939692620785806,0.,0.34202014332595));
#552=DIRECTION('center_axis',(0.34202014332595,2.45924761527471E-16,-0.939692620785806));
#553=DIRECTION('ref_axis',(-0.939692620785806,1.44170862586036E-15,-0.34202014332595));
#554=DIRECTION('center_axis',(-0.34202014332595,6.12323399573677E-17,0.939692620785806));
#555=DIRECTION('ref_axis',(0.939692620785806,0.,0.34202014332595));
#556=DIRECTION('center_axis',(-0.34202014332595,-4.00016446168414E-16,0.939692620785806));
#557=DIRECTION('ref_axis',(-0.939692620785806,1.44170862586036E-15,-0.34202014332595));
#558=DIRECTION('center_axis',(-2.09426936884022E-17,-1.,5.75395780113862E-17));
#559=DIRECTION('ref_axis',(-0.939692620785806,0.,-0.34202014332595));
#560=DIRECTION('center_axis',(-0.34202014332595,-4.00016446168414E-16,0.939692620785806));
#561=DIRECTION('ref_axis',(-0.939692620785806,1.44170862586036E-15,-0.34202014332595));
#562=DIRECTION('center_axis',(0.34202014332595,-6.12323399573677E-17,-0.939692620785806));
#563=DIRECTION('ref_axis',(2.09426936884022E-17,1.,-5.75395780113863E-17));
#564=DIRECTION('center_axis',(0.34202014332595,0.,-0.939692620785806));
#565=DIRECTION('ref_axis',(0.939692620785806,0.,0.34202014332595));
#566=DIRECTION('center_axis',(0.34202014332595,0.,-0.939692620785806));
#567=DIRECTION('ref_axis',(0.939692620785806,0.,0.34202014332595));
#568=DIRECTION('',(-0.127023092356552,0.928476690885259,0.348993077998601));
#569=DIRECTION('center_axis',(-0.34202014332595,0.,0.939692620785806));
#570=DIRECTION('ref_axis',(0.939692620785806,0.,0.34202014332595));
#571=DIRECTION('',(0.34202014332595,0.,-0.939692620785806));
#572=DIRECTION('center_axis',(-0.34202014332595,6.12323399573677E-17,0.939692620785806));
#573=DIRECTION('ref_axis',(0.939692620785806,0.,0.34202014332595));
#574=DIRECTION('center_axis',(-0.34202014332595,0.,0.939692620785806));
#575=DIRECTION('ref_axis',(0.939692620785806,0.,0.34202014332595));
#576=DIRECTION('center_axis',(0.34202014332595,-6.12323399573677E-17,-0.939692620785806));
#577=DIRECTION('ref_axis',(0.939692620785806,0.,0.34202014332595));
#578=DIRECTION('',(0.34202014332595,0.,-0.939692620785806));
#579=DIRECTION('center_axis',(-0.34202014332584,7.15616570656807E-32,0.939692620785846));
#580=DIRECTION('ref_axis',(0.939692620785806,0.,0.34202014332595));
#581=DIRECTION('center_axis',(-0.34202014332595,6.12323399573677E-17,0.939692620785806));
#582=DIRECTION('ref_axis',(0.939692620785806,0.,0.34202014332595));
#583=DIRECTION('center_axis',(0.34202014332595,-6.12323399573677E-17,-0.939692620785806));
#584=DIRECTION('ref_axis',(0.939692620785806,0.,0.34202014332595));
#585=DIRECTION('center_axis',(-0.34202014332595,0.,0.939692620785806));
#586=DIRECTION('ref_axis',(0.939692620785806,0.,0.34202014332595));
#587=DIRECTION('center_axis',(0.34202014332595,-6.12323399573677E-17,-0.939692620785806));
#588=DIRECTION('ref_axis',(0.939692620785806,0.,0.34202014332595));
#589=DIRECTION('',(0.34202014332595,0.,-0.939692620785806));
#590=DIRECTION('center_axis',(-0.34202014332584,7.15616570656807E-32,0.939692620785846));
#591=DIRECTION('ref_axis',(0.939692620785806,0.,0.342020143325951));
#592=DIRECTION('center_axis',(-0.34202014332595,6.12323399573677E-17,0.939692620785806));
#593=DIRECTION('ref_axis',(0.939692620785806,0.,0.34202014332595));
#594=DIRECTION('center_axis',(0.34202014332595,-6.12323399573677E-17,-0.939692620785806));
#595=DIRECTION('ref_axis',(0.939692620785806,0.,0.34202014332595));
#596=DIRECTION('center_axis',(-0.34202014332595,0.,0.939692620785806));
#597=DIRECTION('ref_axis',(0.939692620785806,0.,0.34202014332595));
#598=DIRECTION('center_axis',(0.34202014332595,-6.12323399573677E-17,-0.939692620785806));
#599=DIRECTION('ref_axis',(0.939692620785806,0.,0.34202014332595));
#600=DIRECTION('',(0.34202014332595,0.,-0.939692620785806));
#601=DIRECTION('center_axis',(-0.34202014332584,7.15616570656807E-32,0.939692620785846));
#602=DIRECTION('ref_axis',(0.939692620785806,0.,0.342020143325951));
#603=DIRECTION('center_axis',(-0.34202014332595,6.12323399573677E-17,0.939692620785806));
#604=DIRECTION('ref_axis',(0.939692620785806,0.,0.34202014332595));
#605=DIRECTION('center_axis',(0.34202014332595,-6.12323399573677E-17,-0.939692620785806));
#606=DIRECTION('ref_axis',(0.939692620785806,0.,0.34202014332595));
#607=DIRECTION('center_axis',(-0.34202014332595,0.,0.939692620785806));
#608=DIRECTION('ref_axis',(0.939692620785806,0.,0.34202014332595));
#609=DIRECTION('center_axis',(0.34202014332595,-6.12323399573677E-17,-0.939692620785806));
#610=DIRECTION('ref_axis',(0.939692620785806,0.,0.34202014332595));
#611=DIRECTION('',(0.34202014332595,0.,-0.939692620785806));
#612=DIRECTION('center_axis',(-0.34202014332584,7.15616570656807E-32,0.939692620785846));
#613=DIRECTION('ref_axis',(0.939692620785806,0.,0.34202014332595));
#614=DIRECTION('center_axis',(-0.34202014332595,6.12323399573677E-17,0.939692620785806));
#615=DIRECTION('ref_axis',(0.939692620785806,0.,0.34202014332595));
#616=DIRECTION('center_axis',(0.34202014332595,-6.12323399573677E-17,-0.939692620785806));
#617=DIRECTION('ref_axis',(0.939692620785806,0.,0.34202014332595));
#618=DIRECTION('center_axis',(-0.34202014332595,0.,0.939692620785806));
#619=DIRECTION('ref_axis',(0.939692620785806,0.,0.34202014332595));
#620=DIRECTION('center_axis',(-0.34202014332595,6.12323399573676E-17,0.939692620785806));
#621=DIRECTION('ref_axis',(0.939692620785806,0.,0.34202014332595));
#622=DIRECTION('',(0.34202014332595,0.,-0.939692620785806));
#623=DIRECTION('center_axis',(-0.34202014332595,0.,0.939692620785806));
#624=DIRECTION('ref_axis',(0.939692620785806,0.,0.34202014332595));
#625=DIRECTION('center_axis',(-0.34202014332595,6.12323399573676E-17,0.939692620785806));
#626=DIRECTION('ref_axis',(0.939692620785806,0.,0.34202014332595));
#627=DIRECTION('',(0.34202014332595,0.,-0.939692620785806));
#628=DIRECTION('center_axis',(-0.34202014332595,0.,0.939692620785806));
#629=DIRECTION('ref_axis',(0.939692620785806,0.,0.34202014332595));
#630=DIRECTION('center_axis',(-0.34202014332595,6.12323399573676E-17,0.939692620785806));
#631=DIRECTION('ref_axis',(0.939692620785806,0.,0.34202014332595));
#632=DIRECTION('',(0.34202014332595,0.,-0.939692620785806));
#633=DIRECTION('center_axis',(-0.34202014332595,0.,0.939692620785806));
#634=DIRECTION('ref_axis',(0.939692620785806,-3.39907768361724E-33,0.34202014332595));
#635=DIRECTION('center_axis',(-0.34202014332595,6.12323399573676E-17,0.939692620785806));
#636=DIRECTION('ref_axis',(0.939692620785806,-3.39907768361724E-33,0.34202014332595));
#637=DIRECTION('',(0.34202014332595,0.,-0.939692620785806));
#638=DIRECTION('center_axis',(-0.34202014332584,7.15616570656807E-32,0.939692620785846));
#639=DIRECTION('ref_axis',(0.939692620785806,-3.39907768361724E-33,0.342020143325951));
#640=DIRECTION('center_axis',(-0.34202014332595,0.,0.939692620785806));
#641=DIRECTION('ref_axis',(0.939692620785806,0.,0.34202014332595));
#642=DIRECTION('center_axis',(-0.34202014332595,6.12323399573676E-17,0.939692620785806));
#643=DIRECTION('ref_axis',(0.939692620785806,0.,0.34202014332595));
#644=DIRECTION('',(0.34202014332595,0.,-0.939692620785806));
#645=DIRECTION('center_axis',(-0.34202014332584,7.15616570656807E-32,0.939692620785846));
#646=DIRECTION('ref_axis',(0.939692620785846,0.,0.34202014332584));
#647=DIRECTION('center_axis',(-0.34202014332584,7.15616570656807E-32,0.939692620785846));
#648=DIRECTION('ref_axis',(0.939692620785806,0.,0.34202014332595));
#649=DIRECTION('center_axis',(-0.34202014332595,0.,0.939692620785806));
#650=DIRECTION('ref_axis',(0.939692620785806,0.,0.34202014332595));
#651=DIRECTION('',(0.34202014332595,0.,-0.939692620785806));
#652=DIRECTION('center_axis',(0.34202014332595,-6.12323399573677E-17,-0.939692620785806));
#653=DIRECTION('ref_axis',(0.939692620785806,0.,0.34202014332595));
#654=DIRECTION('center_axis',(-0.34202014332595,0.,0.939692620785806));
#655=DIRECTION('ref_axis',(0.939692620785806,0.,0.34202014332595));
#656=DIRECTION('center_axis',(-0.34202014332595,6.12323399573676E-17,0.939692620785806));
#657=DIRECTION('ref_axis',(0.939692620785806,0.,0.34202014332595));
#658=DIRECTION('',(0.34202014332595,0.,-0.939692620785806));
#659=DIRECTION('center_axis',(-0.34202014332595,6.12323399573676E-17,0.939692620785806));
#660=DIRECTION('ref_axis',(0.939692620785806,0.,0.34202014332595));
#661=DIRECTION('center_axis',(-0.34202014332595,6.12323399573677E-17,0.939692620785806));
#662=DIRECTION('ref_axis',(0.939692620785806,0.,0.34202014332595));
#663=CARTESIAN_POINT('',(0.,0.,0.));
#664=CARTESIAN_POINT('Origin',(-5.40823213135934,26.5,47.4780176608375));
#665=CARTESIAN_POINT('',(-5.64703470041944,25.9321091654196,48.1341223270379));
#666=CARTESIAN_POINT('',(-5.16942956229904,25.9321091654203,46.8219129946366));
#667=CARTESIAN_POINT('',(-4.57028278021065,25.9321091654212,45.1757707399099));
#668=CARTESIAN_POINT('Origin',(-5.40823213135934,26.5,47.4780176608375));
#669=CARTESIAN_POINT('Origin',(-5.40823213135934,26.5,47.4780176608375));
#670=CARTESIAN_POINT('Ctrl Pts',(-5.16942956229904,25.9321091654203,46.8219129946366));
#671=CARTESIAN_POINT('Ctrl Pts',(-5.163202446452,25.9077331419391,46.8452781257968));
#672=CARTESIAN_POINT('Ctrl Pts',(-5.15697614254613,25.8848606609012,46.8696077988408));
#673=CARTESIAN_POINT('Ctrl Pts',(-5.12889519393883,25.7853901415698,46.985682743973));
#674=CARTESIAN_POINT('Ctrl Pts',(-5.10567361064451,25.7178845279178,47.0978381910439));
#675=CARTESIAN_POINT('Ctrl Pts',(-5.09383495354179,25.6485377577655,47.2758548916384));
#676=CARTESIAN_POINT('Ctrl Pts',(-5.0939019719807,25.6305374336067,47.3368343273976));
#677=CARTESIAN_POINT('Ctrl Pts',(-5.10711929990257,25.6062730297093,47.457797155661));
#678=CARTESIAN_POINT('Ctrl Pts',(-5.12035803635316,25.6,47.5177690740476));
#679=CARTESIAN_POINT('Ctrl Pts',(-5.16215606468303,25.6,47.6326082130615));
#680=CARTESIAN_POINT('Ctrl Pts',(-5.19056381025923,25.6062730297093,47.6870590636431));
#681=CARTESIAN_POINT('Ctrl Pts',(-5.25819215689221,25.6305374336067,47.7882179006796));
#682=CARTESIAN_POINT('Ctrl Pts',(-5.29733764354123,25.6485377577655,47.8349739372096));
#683=CARTESIAN_POINT('Ctrl Pts',(-5.42083351048827,25.7178845279178,47.9637328993814));
#684=CARTESIAN_POINT('Ctrl Pts',(-5.51071440706742,25.7853901415698,48.0347224103567));
#685=CARTESIAN_POINT('Ctrl Pts',(-5.60683719823142,25.8848606609011,48.1055908912274));
#686=CARTESIAN_POINT('Ctrl Pts',(-5.62724563611986,25.9077331419386,48.1202263110606));
#687=CARTESIAN_POINT('Ctrl Pts',(-5.64703470041944,25.9321091654196,48.1341223270379));
#688=CARTESIAN_POINT('Origin',(-5.40823213135934,26.5,47.4780176608375));
#689=CARTESIAN_POINT('',(-5.64703470041941,27.0678908345804,48.1341223270379));
#690=CARTESIAN_POINT('',(-5.16942956229906,27.0678908345797,46.8219129946367));
#691=CARTESIAN_POINT('Ctrl Pts',(-5.64703470041941,27.0678908345804,48.1341223270378));
#692=CARTESIAN_POINT('Ctrl Pts',(-5.62724563599507,27.0922668582151,48.1202263109729));
#693=CARTESIAN_POINT('Ctrl Pts',(-5.606837198016,27.1151393393218,48.1055908910685));
#694=CARTESIAN_POINT('Ctrl Pts',(-5.51071440706748,27.2146098584301,48.0347224103567));
#695=CARTESIAN_POINT('Ctrl Pts',(-5.42083351048834,27.2821154720821,47.9637328993814));
#696=CARTESIAN_POINT('Ctrl Pts',(-5.29733764354131,27.3514622422344,47.8349739372096));
#697=CARTESIAN_POINT('Ctrl Pts',(-5.2581921568923,27.3694625663933,47.7882179006795));
#698=CARTESIAN_POINT('Ctrl Pts',(-5.19056381025932,27.3937269702906,47.6870590636431));
#699=CARTESIAN_POINT('Ctrl Pts',(-5.16215606468312,27.4,47.6326082130615));
#700=CARTESIAN_POINT('Ctrl Pts',(-5.14125705051819,27.4,47.5751886435545));
#701=CARTESIAN_POINT('Ctrl Pts',(-5.12035803635325,27.4,47.5177690740476));
#702=CARTESIAN_POINT('Ctrl Pts',(-5.10711929990266,27.3937269702906,47.457797155661));
#703=CARTESIAN_POINT('Ctrl Pts',(-5.09390197198079,27.3694625663933,47.3368343273976));
#704=CARTESIAN_POINT('Ctrl Pts',(-5.09383495354188,27.3514622422344,47.2758548916384));
#705=CARTESIAN_POINT('Ctrl Pts',(-5.10567361064459,27.2821154720821,47.0978381910439));
#706=CARTESIAN_POINT('Ctrl Pts',(-5.12889519393889,27.2146098584301,46.9856827439729));
#707=CARTESIAN_POINT('Ctrl Pts',(-5.15697614254617,27.1151393390987,46.8696077988408));
#708=CARTESIAN_POINT('Ctrl Pts',(-5.16320244645203,27.0922668580609,46.8452781257968));
#709=CARTESIAN_POINT('Ctrl Pts',(-5.16942956229906,27.0678908345797,46.8219129946367));
#710=CARTESIAN_POINT('Origin',(-5.40823213135934,26.5,47.4780176608375));
#711=CARTESIAN_POINT('Origin',(-5.40823213135934,26.5,47.4780176608375));
#712=CARTESIAN_POINT('',(-4.57028278021065,27.0678908345788,45.1757707399099));
#713=CARTESIAN_POINT('Origin',(-5.40823213135934,26.5,47.4780176608375));
#714=CARTESIAN_POINT('',(-3.79582197062871,27.4,48.0648869647719));
#715=CARTESIAN_POINT('',(-3.79582197062882,25.6,48.0648869647718));
#716=CARTESIAN_POINT('Ctrl Pts',(-3.79582197062871,27.4,48.0648869647719));
#717=CARTESIAN_POINT('Ctrl Pts',(-3.81672098479364,27.4,48.1223065342788));
#718=CARTESIAN_POINT('Ctrl Pts',(-3.82995972124424,27.3937269702906,48.1822784526655));
#719=CARTESIAN_POINT('Ctrl Pts',(-3.84317704916612,27.3694625663933,48.3032412809288));
#720=CARTESIAN_POINT('Ctrl Pts',(-3.84324406760503,27.3514622422344,48.3642207166881));
#721=CARTESIAN_POINT('Ctrl Pts',(-3.83140541050232,27.2821154720821,48.5422374172825));
#722=CARTESIAN_POINT('Ctrl Pts',(-3.808183827208,27.2146098584301,48.6543928643535));
#723=CARTESIAN_POINT('Ctrl Pts',(-3.7646224913823,27.060303507959,48.8344572822821));
#724=CARTESIAN_POINT('Ctrl Pts',(-3.74043766559673,26.9627117239404,48.9163751410973));
#725=CARTESIAN_POINT('Ctrl Pts',(-3.705811352113,26.7421286715817,49.0288741991916));
#726=CARTESIAN_POINT('Ctrl Pts',(-3.69571112566301,26.6188949390281,49.0590843276949));
#727=CARTESIAN_POINT('Ctrl Pts',(-3.69571112566301,26.3811050609718,49.0590843276949));
#728=CARTESIAN_POINT('Ctrl Pts',(-3.70581135211302,26.2578713284182,49.0288741991916));
#729=CARTESIAN_POINT('Ctrl Pts',(-3.74043766559677,26.0372882760595,48.9163751410973));
#730=CARTESIAN_POINT('Ctrl Pts',(-3.76462249138234,25.9396964920409,48.8344572822821));
#731=CARTESIAN_POINT('Ctrl Pts',(-3.80818382720806,25.7853901415698,48.6543928643535));
#732=CARTESIAN_POINT('Ctrl Pts',(-3.83140541050238,25.7178845279178,48.5422374172825));
#733=CARTESIAN_POINT('Ctrl Pts',(-3.84324406760511,25.6485377577655,48.364220716688));
#734=CARTESIAN_POINT('Ctrl Pts',(-3.8431770491662,25.6305374336067,48.3032412809288));
#735=CARTESIAN_POINT('Ctrl Pts',(-3.82995972124433,25.6062730297093,48.1822784526654));
#736=CARTESIAN_POINT('Ctrl Pts',(-3.81672098479374,25.6,48.1223065342788));
#737=CARTESIAN_POINT('Ctrl Pts',(-3.7958219706288,25.6,48.0648869647718));
#738=CARTESIAN_POINT('Ctrl Pts',(-3.7958219706288,25.6,48.0648869647718));
#739=CARTESIAN_POINT('Ctrl Pts',(-3.77492295646386,25.6,48.0074673952649));
#740=CARTESIAN_POINT('Ctrl Pts',(-3.74651521088767,25.6062730297093,47.9530165446833));
#741=CARTESIAN_POINT('Ctrl Pts',(-3.67888686425469,25.6305374336067,47.8518577076468));
#742=CARTESIAN_POINT('Ctrl Pts',(-3.63974137760567,25.6485377577655,47.8051016711168));
#743=CARTESIAN_POINT('Ctrl Pts',(-3.51624551065864,25.7178845279178,47.676342708945));
#744=CARTESIAN_POINT('Ctrl Pts',(-3.42636461407949,25.7853901415698,47.6053531979697));
#745=CARTESIAN_POINT('Ctrl Pts',(-3.27725151804534,25.9396964920408,47.4954165381423));
#746=CARTESIAN_POINT('Ctrl Pts',(-3.20606908198602,26.0372882760595,47.4482095239621));
#747=CARTESIAN_POINT('Ctrl Pts',(-3.10723078631159,26.2578713284182,47.3842876109293));
#748=CARTESIAN_POINT('Ctrl Pts',(-3.0800748676763,26.3811050609718,47.3676376102805));
#749=CARTESIAN_POINT('Ctrl Pts',(-3.0800748676763,26.6188949390281,47.3676376102805));
#750=CARTESIAN_POINT('Ctrl Pts',(-3.10723078631157,26.7421286715818,47.3842876109293));
#751=CARTESIAN_POINT('Ctrl Pts',(-3.20606908198599,26.9627117239405,47.4482095239621));
#752=CARTESIAN_POINT('Ctrl Pts',(-3.27725151804529,27.0603035079591,47.4954165381423));
#753=CARTESIAN_POINT('Ctrl Pts',(-3.42636461407943,27.2146098584301,47.6053531979698));
#754=CARTESIAN_POINT('Ctrl Pts',(-3.51624551065857,27.2821154720821,47.6763427089451));
#755=CARTESIAN_POINT('Ctrl Pts',(-3.63974137760559,27.3514622422344,47.8051016711169));
#756=CARTESIAN_POINT('Ctrl Pts',(-3.67888686425461,27.3694625663933,47.8518577076469));
#757=CARTESIAN_POINT('Ctrl Pts',(-3.74651521088758,27.3937269702906,47.9530165446833));
#758=CARTESIAN_POINT('Ctrl Pts',(-3.77492295646378,27.4,48.0074673952649));
#759=CARTESIAN_POINT('Ctrl Pts',(-3.79582197062871,27.4,48.0648869647719));
#760=CARTESIAN_POINT('',(0.849320207638058,25.6,49.7555804417954));
#761=CARTESIAN_POINT('',(-5.40823213135934,25.6,47.4780176608375));
#762=CARTESIAN_POINT('',(1.16952120534109,26.6956494404747,50.806979451828));
#763=CARTESIAN_POINT('Ctrl Pts',(1.16952120534109,26.6956494404747,50.806979451828));
#764=CARTESIAN_POINT('Ctrl Pts',(1.15663841052883,26.7235328119827,50.795681922781));
#765=CARTESIAN_POINT('Ctrl Pts',(1.14214986068416,26.7509923409431,50.7824167160964));
#766=CARTESIAN_POINT('Ctrl Pts',(1.06549723731208,26.8870231778164,50.7075183087794));
#767=CARTESIAN_POINT('Ctrl Pts',(0.982279597664033,27.0068501072731,50.6106314017935));
#768=CARTESIAN_POINT('Ctrl Pts',(0.874302053258953,27.184056856067,50.3953702318099));
#769=CARTESIAN_POINT('Ctrl Pts',(0.840948785801092,27.2454955309152,50.2999314705641));
#770=CARTESIAN_POINT('Ctrl Pts',(0.808674742913367,27.3319648214777,50.1162400628215));
#771=CARTESIAN_POINT('Ctrl Pts',(0.804315905174307,27.3614764133417,50.0309747099058));
#772=CARTESIAN_POINT('Ctrl Pts',(0.819974954528119,27.3979133040019,49.8577210635945));
#773=CARTESIAN_POINT('Ctrl Pts',(0.839979261166467,27.403932671149,49.7728655843023));
#774=CARTESIAN_POINT('Ctrl Pts',(0.904981356601725,27.3906194267444,49.6060705749629));
#775=CARTESIAN_POINT('Ctrl Pts',(0.949923100503843,27.3697462004178,49.5293381039644));
#776=CARTESIAN_POINT('Ctrl Pts',(1.0693070950674,27.2969194808964,49.3744222362622));
#777=CARTESIAN_POINT('Ctrl Pts',(1.14661041975599,27.2385099788337,49.3057971400202));
#778=CARTESIAN_POINT('Ctrl Pts',(1.32265519829461,27.0825137240986,49.1843104825637));
#779=CARTESIAN_POINT('Ctrl Pts',(1.41835314384477,26.9807049204502,49.1440686382784));
#780=CARTESIAN_POINT('Ctrl Pts',(1.53668258564372,26.8134239273443,49.1047751670392));
#781=CARTESIAN_POINT('Ctrl Pts',(1.57697765326367,26.743310947123,49.0949354437145));
#782=CARTESIAN_POINT('Ctrl Pts',(1.62321285791927,26.6121198937556,49.0848704491453));
#783=CARTESIAN_POINT('Ctrl Pts',(1.63404561769517,26.5533020228014,49.0829896958688));
#784=CARTESIAN_POINT('Ctrl Pts',(1.63242246803434,26.4398679446285,49.0832950004359));
#785=CARTESIAN_POINT('Ctrl Pts',(1.62241948390255,26.3747219913143,49.0847189807483));
#786=CARTESIAN_POINT('Ctrl Pts',(1.54663274710639,26.1921479685534,49.1021611791263));
#787=CARTESIAN_POINT('Ctrl Pts',(1.47482666249402,26.0920468429799,49.1217553108292));
#788=CARTESIAN_POINT('Ctrl Pts',(1.31655881023875,25.9119034183501,49.1916158857788));
#789=CARTESIAN_POINT('Ctrl Pts',(1.23101875421158,25.8327622924082,49.2413006066817));
#790=CARTESIAN_POINT('Ctrl Pts',(1.08944220502821,25.7187917333362,49.3586815943019));
#791=CARTESIAN_POINT('Ctrl Pts',(1.03066603298571,25.677994181879,49.4202432770324));
#792=CARTESIAN_POINT('Ctrl Pts',(0.929561927116027,25.6201338556431,49.5623053548915));
#793=CARTESIAN_POINT('Ctrl Pts',(0.888696654532562,25.6038452795527,49.6405820038799));
#794=CARTESIAN_POINT('Ctrl Pts',(0.855957524318551,25.6001985728683,49.734701935543));
#795=CARTESIAN_POINT('Ctrl Pts',(0.852538705541065,25.6000000002234,49.7451350994677));
#796=CARTESIAN_POINT('Ctrl Pts',(0.849320210787742,25.6,49.7555804331417));
#797=CARTESIAN_POINT('',(1.16952120534109,26.3043505595252,50.806979451828));
#798=CARTESIAN_POINT('Ctrl Pts',(1.16952120534108,26.3043505595252,50.806979451828));
#799=CARTESIAN_POINT('Ctrl Pts',(1.17277102151014,26.3113844239075,50.8098293685659));
#800=CARTESIAN_POINT('Ctrl Pts',(1.17588299749526,26.3185180260808,50.8125583149531));
#801=CARTESIAN_POINT('Ctrl Pts',(1.20127150190518,26.3805227738265,50.8348213215119));
#802=CARTESIAN_POINT('Ctrl Pts',(1.2141828179257,26.4409463703417,50.8461395765651));
#803=CARTESIAN_POINT('Ctrl Pts',(1.2141828179257,26.5590536296582,50.8461395765651));
#804=CARTESIAN_POINT('Ctrl Pts',(1.2012715019052,26.6194772261734,50.8348213215119));
#805=CARTESIAN_POINT('Ctrl Pts',(1.17588299749528,26.6814819739191,50.8125583149531));
#806=CARTESIAN_POINT('Ctrl Pts',(1.17277102151014,26.6886155760924,50.8098293685659));
#807=CARTESIAN_POINT('Ctrl Pts',(1.16952120534109,26.6956494404747,50.806979451828));
#808=CARTESIAN_POINT('Ctrl Pts',(0.849320210787742,25.6,49.7555804331417));
#809=CARTESIAN_POINT('Ctrl Pts',(0.826861418413884,25.5999999984411,49.8284684128463));
#810=CARTESIAN_POINT('Ctrl Pts',(0.814154189155975,25.6096291765668,49.9019481104746));
#811=CARTESIAN_POINT('Ctrl Pts',(0.803583707999219,25.6529726682974,50.0819195666034));
#812=CARTESIAN_POINT('Ctrl Pts',(0.816030826798374,25.6950441150116,50.1831842926582));
#813=CARTESIAN_POINT('Ctrl Pts',(0.873667485904908,25.8189003195179,50.406460096279));
#814=CARTESIAN_POINT('Ctrl Pts',(0.931381626923036,25.9107580493148,50.5202042369839));
#815=CARTESIAN_POINT('Ctrl Pts',(1.05066765159199,26.0959519010984,50.6916534827669));
#816=CARTESIAN_POINT('Ctrl Pts',(1.10681743362766,26.1819965744128,50.7494320782084));
#817=CARTESIAN_POINT('Ctrl Pts',(1.15518386031069,26.2744755271197,50.7942427212279));
#818=CARTESIAN_POINT('Ctrl Pts',(1.16253810058956,26.2892364086827,50.8008556386401));
#819=CARTESIAN_POINT('Ctrl Pts',(1.16952120534109,26.3043505595252,50.806979451828));
#820=CARTESIAN_POINT('Origin',(-10.4316143714499,26.5,46.6606249339593));
#821=CARTESIAN_POINT('',(-21.9852849043646,26.5,42.379319247682));
#822=CARTESIAN_POINT('Origin',(-10.4071519590153,26.5,46.59341500817));
#823=CARTESIAN_POINT('',(-10.4071519590153,14.1788082727868,46.59341500817));
#824=CARTESIAN_POINT('Origin',(-10.4071519590153,26.5,46.59341500817));
#825=CARTESIAN_POINT('',(-10.7736345147758,11.4999999999999,47.6003175547451));
#826=CARTESIAN_POINT('',(-10.4316143714499,14.,46.6606249339593));
#827=CARTESIAN_POINT('',(-24.8690238265629,26.5,42.4700154048559));
#828=CARTESIAN_POINT('Origin',(-10.7736345147758,26.5,47.6003175547451));
#829=CARTESIAN_POINT('Origin',(-10.7736345147758,26.5,47.6003175547451));
#830=CARTESIAN_POINT('Origin',(-10.4071519590153,26.5,46.59341500817));
#831=CARTESIAN_POINT('Origin',(-10.0895942281239,26.5,45.7209323131735));
#832=CARTESIAN_POINT('',(-9.77203649723253,14.1788082727868,44.848449618177));
#833=CARTESIAN_POINT('',(-21.3501694425819,26.5,40.634353857689));
#834=CARTESIAN_POINT('Origin',(-9.77203649723253,26.5,44.848449618177));
#835=CARTESIAN_POINT('Origin',(-22.0167202514718,26.5,41.379813460329));
#836=CARTESIAN_POINT('Origin',(-9.77203649723253,26.5,44.848449618177));
#837=CARTESIAN_POINT('Origin',(-9.74757408479796,26.5,44.7812396923877));
#838=CARTESIAN_POINT('',(-23.5009432532591,26.5,38.7112449217126));
#839=CARTESIAN_POINT('',(-9.40555394147201,11.4999999999999,43.8415470716019));
#840=CARTESIAN_POINT('Origin',(-9.40555394147201,26.5,43.8415470716019));
#841=CARTESIAN_POINT('Origin',(-9.40555394147201,26.5,43.8415470716019));
#842=CARTESIAN_POINT('',(-9.74757408479796,14.,44.7812396923877));
#843=CARTESIAN_POINT('Origin',(-8.89252372648309,26.5,42.4320081404232));
#844=CARTESIAN_POINT('',(-22.9879130382702,26.5,37.301705990534));
#845=CARTESIAN_POINT('',(-22.9879130382702,26.5,37.3017059905339));
#846=CARTESIAN_POINT('Origin',(-8.89252372648309,26.5,42.4320081404232));
#847=CARTESIAN_POINT('Origin',(-9.26874588413901,32.5,43.4656700232804));
#848=CARTESIAN_POINT('',(-11.6832709570165,32.5,46.7371480795274));
#849=CARTESIAN_POINT('Origin',(-10.6026244431128,32.5,47.1304712443522));
#850=CARTESIAN_POINT('',(-10.3493923980427,32.5,43.0723468584555));
#851=CARTESIAN_POINT('',(-10.3493923980427,32.5,43.0723468584555));
#852=CARTESIAN_POINT('Origin',(-9.26874588413901,32.5,43.4656700232804));
#853=CARTESIAN_POINT('Origin',(-10.6026244431128,26.5,47.1304712443522));
#854=CARTESIAN_POINT('',(-12.7169328398809,32.5,46.3609259218688));
#855=CARTESIAN_POINT('Origin',(-10.6026244431128,32.5,47.1304712443522));
#856=CARTESIAN_POINT('Origin',(-3.63059015942417,26.5,45.5177908832361));
#857=CARTESIAN_POINT('',(-6.04511523230168,26.5,48.7892689394831));
#858=CARTESIAN_POINT('Origin',(-4.964468718398,26.5,49.1825921043079));
#859=CARTESIAN_POINT('',(-4.71123667332785,26.5,45.1244677184112));
#860=CARTESIAN_POINT('',(-4.71123667332785,26.5,45.1244677184112));
#861=CARTESIAN_POINT('Origin',(-3.63059015942417,26.5,45.5177908832361));
#862=CARTESIAN_POINT('Origin',(-10.6026244431128,26.5,47.1304712443522));
#863=CARTESIAN_POINT('',(-7.07877711516607,26.5,48.4130467818245));
#864=CARTESIAN_POINT('Origin',(-4.964468718398,26.5,49.1825921043079));
#865=CARTESIAN_POINT('Origin',(-14.9069016088538,26.5,41.4135491633246));
#866=CARTESIAN_POINT('',(-17.3214266817313,26.5,44.6850272195717));
#867=CARTESIAN_POINT('Origin',(-16.2407801678277,26.5,45.0783503843965));
#868=CARTESIAN_POINT('',(-15.9875481227575,26.5,41.0202259984998));
#869=CARTESIAN_POINT('',(-15.9875481227575,26.5,41.0202259984998));
#870=CARTESIAN_POINT('Origin',(-14.9069016088538,26.5,41.4135491633246));
#871=CARTESIAN_POINT('Origin',(-10.6026244431128,26.5,47.1304712443522));
#872=CARTESIAN_POINT('',(-18.3550885645957,26.5,44.3088050619131));
#873=CARTESIAN_POINT('Origin',(-16.2407801678277,26.5,45.0783503843965));
#874=CARTESIAN_POINT('Origin',(-9.26874588413899,20.5,43.4656700232804));
#875=CARTESIAN_POINT('',(-11.6832709570165,20.5,46.7371480795274));
#876=CARTESIAN_POINT('Origin',(-10.6026244431128,20.5,47.1304712443522));
#877=CARTESIAN_POINT('',(-10.3493923980427,20.5,43.0723468584555));
#878=CARTESIAN_POINT('',(-10.3493923980427,20.5,43.0723468584555));
#879=CARTESIAN_POINT('Origin',(-9.26874588413899,20.5,43.4656700232804));
#880=CARTESIAN_POINT('Origin',(-10.6026244431128,26.5,47.1304712443522));
#881=CARTESIAN_POINT('',(-12.7169328398809,20.5,46.3609259218688));
#882=CARTESIAN_POINT('Origin',(-10.6026244431128,20.5,47.1304712443522));
#883=CARTESIAN_POINT('Origin',(-9.268745884139,20.5,43.4656700232804));
#884=CARTESIAN_POINT('',(-13.0589529832068,20.5,47.3006185426546));
#885=CARTESIAN_POINT('Origin',(-10.9446445864388,20.5,48.070163865138));
#886=CARTESIAN_POINT('',(-11.3830542809071,20.5,42.696124700797));
#887=CARTESIAN_POINT('Origin',(-14.9069016088538,26.5,41.4135491633246));
#888=CARTESIAN_POINT('',(-18.6971087079217,26.5,45.2484976826989));
#889=CARTESIAN_POINT('Origin',(-16.5828003111536,26.5,46.0180430051823));
#890=CARTESIAN_POINT('',(-17.0212100056219,26.5,40.6440038408413));
#891=CARTESIAN_POINT('Origin',(-3.63059015942417,26.5,45.5177908832361));
#892=CARTESIAN_POINT('',(-7.42079725849202,26.5,49.3527394026104));
#893=CARTESIAN_POINT('Origin',(-5.30648886172395,26.5,50.1222847250937));
#894=CARTESIAN_POINT('',(-5.74489855619223,26.5,44.7482455607527));
#895=CARTESIAN_POINT('Origin',(-9.26874588413901,26.5,43.4656700232804));
#896=CARTESIAN_POINT('',(-13.7637224487962,26.5,47.0441034351602));
#897=CARTESIAN_POINT('Origin',(-10.9446445864388,26.5,48.070163865138));
#898=CARTESIAN_POINT('',(-12.0878237464964,26.5,42.4396095933025));
#899=CARTESIAN_POINT('',(-12.0878237464964,26.5,42.4396095933025));
#900=CARTESIAN_POINT('Origin',(-9.26874588413901,26.5,43.4656700232804));
#901=CARTESIAN_POINT('Origin',(-9.26874588413901,32.5,43.4656700232804));
#902=CARTESIAN_POINT('',(-13.0589529832069,32.5,47.3006185426546));
#903=CARTESIAN_POINT('Origin',(-10.9446445864388,32.5,48.070163865138));
#904=CARTESIAN_POINT('',(-11.3830542809071,32.5,42.696124700797));
#905=CARTESIAN_POINT('Origin',(-9.268745884139,26.5,43.4656700232804));
#906=CARTESIAN_POINT('',(-17.0212100056219,26.5,40.6440038408413));
#907=CARTESIAN_POINT('Origin',(-9.268745884139,26.5,43.4656700232804));
#908=CARTESIAN_POINT('Origin',(-8.89252372648309,26.5,42.4320081404232));
#909=CARTESIAN_POINT('',(-16.644987847966,26.5,39.6103419579841));
#910=CARTESIAN_POINT('',(-16.644987847966,26.5,39.6103419579841));
#911=CARTESIAN_POINT('Origin',(-8.89252372648309,26.5,42.4320081404232));
#912=CARTESIAN_POINT('Origin',(-8.89252372648309,26.5,42.4320081404232));
#913=CARTESIAN_POINT('',(-25.0400338982259,26.5,42.9398617152488));
#914=CARTESIAN_POINT('Origin',(-10.9446445864388,26.5,48.070163865138));
#915=CARTESIAN_POINT('',(-22.9879130382702,26.5,37.3017059905339));
#916=CARTESIAN_POINT('Origin',(-10.9446445864388,26.5,48.070163865138));
#917=CARTESIAN_POINT('Origin',(-8.89252372648309,26.5,42.4320081404232));
#918=UNCERTAINTY_MEASURE_WITH_UNIT(LENGTH_MEASURE(0.01),#922,
'DISTANCE_ACCURACY_VALUE',
'Maximum model space distance between geometric entities at asserted c
onnectivities');
#919=UNCERTAINTY_MEASURE_WITH_UNIT(LENGTH_MEASURE(0.01),#922,
'DISTANCE_ACCURACY_VALUE',
'Maximum model space distance between geometric entities at asserted c
onnectivities');
#920=(
GEOMETRIC_REPRESENTATION_CONTEXT(3)
GLOBAL_UNCERTAINTY_ASSIGNED_CONTEXT((#918))
GLOBAL_UNIT_ASSIGNED_CONTEXT((#922,#924,#925))
REPRESENTATION_CONTEXT('','3D')
);
#921=(
GEOMETRIC_REPRESENTATION_CONTEXT(3)
GLOBAL_UNCERTAINTY_ASSIGNED_CONTEXT((#919))
GLOBAL_UNIT_ASSIGNED_CONTEXT((#922,#924,#925))
REPRESENTATION_CONTEXT('','3D')
);
#922=(
LENGTH_UNIT()
NAMED_UNIT(*)
SI_UNIT(.MILLI.,.METRE.)
);
#923=(
LENGTH_UNIT()
NAMED_UNIT(*)
SI_UNIT($,.METRE.)
);
#924=(
NAMED_UNIT(*)
PLANE_ANGLE_UNIT()
SI_UNIT($,.RADIAN.)
);
#925=(
NAMED_UNIT(*)
SI_UNIT($,.STERADIAN.)
SOLID_ANGLE_UNIT()
);
#926=SHAPE_DEFINITION_REPRESENTATION(#927,#928);
#927=PRODUCT_DEFINITION_SHAPE('',$,#930);
#928=SHAPE_REPRESENTATION('',(#460),#920);
#929=PRODUCT_DEFINITION_CONTEXT('part definition',#934,'design');
#930=PRODUCT_DEFINITION('2026-09-21-17-13-43-339','servo horn',#931,#929);
#931=PRODUCT_DEFINITION_FORMATION('',$,#936);
#932=PRODUCT_RELATED_PRODUCT_CATEGORY('servo horn','servo horn',(#936));
#933=APPLICATION_PROTOCOL_DEFINITION('international standard',
'automotive_design',2009,#934);
#934=APPLICATION_CONTEXT(
'Core Data for Automotive Mechanical Design Process');
#935=PRODUCT_CONTEXT('part definition',#934,'mechanical');
#936=PRODUCT('2026-09-21-17-13-43-339','servo horn',$,(#935));
#937=PRESENTATION_STYLE_ASSIGNMENT((#938));
#938=SURFACE_STYLE_USAGE(.BOTH.,#939);
#939=SURFACE_SIDE_STYLE('',(#940));
#940=SURFACE_STYLE_FILL_AREA(#941);
#941=FILL_AREA_STYLE('\X2\92FC\X0\ - \X2\30B530C630F3\X0\',(#942));
#942=FILL_AREA_STYLE_COLOUR('\X2\92FC\X0\ - \X2\30B530C630F3\X0\',#943);
#943=COLOUR_RGB('\X2\92FC\X0\ - \X2\30B530C630F3\X0\',0.627450980392157,
0.627450980392157,0.627450980392157);
ENDSEC;
END-ISO-10303-21;
